<svg fill="none" height="201" viewBox="0 0 201 201" width="201" xmlns="http://www.w3.org/2000/svg"><g fill="#a0aec0"><path d="m100.497.504028c-55.2286 0-99.997 44.768172-99.997 99.996972 0 55.228 44.7682 100.003 99.997 100.003 55.228 0 100.003-44.775 100.003-100.003 0-55.2286-44.775-99.996972-100.003-99.996972zm-.046 12.329872c48.479 0 87.778 39.2997 87.778 87.7781 0 48.479-39.299 87.779-87.778 87.779-48.4788 0-87.7785-39.3-87.7785-87.779 0-48.4784 39.2997-87.7781 87.7785-87.7781z"/><path d="m50.6591 66.3181v68.0829h27.7029c12.5909 0 22.266-7.861 22.266-20.311 0-10.981-8.5721-15.1699-8.5721-15.1699s6.5782-4.2009 6.5782-13.5432c0-10.8516-8.5673-19.0588-21.2034-19.0588zm15.3205 13.3071h8.1849c5.8174 0 8.3555 2.9902 8.3555 6.683 0 4.0091-2.8739 6.5388-7.9685 6.5388h-8.5719zm0 26.8638h8.1849c5.8174 0 8.3555 2.99 8.3555 6.683 0 4.009-2.8739 6.538-7.9685 6.538h-8.5719z"/><path d="m121.175 134.189v-52.2579h-15.32v-15.7403h47.641v15.7403h-15.951v52.2579z"/></g></svg>