<svg fill="none" height="38" viewBox="0 0 130 38" width="130" xmlns="http://www.w3.org/2000/svg"><g fill="#b6bdd4"><path d="m74.2238 26.0031c-1.9855 1.92-4.4591 2.88-7.4048 2.88-2.9456 0-5.403-.96-7.3722-2.8637-1.9691-1.92-2.9456-4.2467-2.9456-7.0128v-.0651c0-2.7823.9927-5.1416 2.9782-7.0615 2.0017-1.92001 4.4754-2.88 7.421-2.88s5.403.95999 7.3722 2.8637c1.9692 1.92 2.9456 4.2467 2.9456 7.0128v.065c-.0162 2.7824-1.009 5.1417-2.9944 7.0616zm-7.3234-1.7735c1.4972 0 2.7015-.5044 3.5966-1.4969.9114-.9925 1.3508-2.2291 1.3508-3.7098v-.0651c0-1.4481-.472-2.6847-1.4159-3.726-.9439-1.0414-2.1482-1.5458-3.6129-1.5458-1.4972 0-2.7015.5044-3.5966 1.497-.9113.9925-1.3507 2.2291-1.3507 3.7097v.0651c0 1.4481.4719 2.6847 1.4158 3.7261.9277 1.025 2.132 1.5457 3.6129 1.5457z"/><path d="m79.399 29v-19.11836h5.4192v1.59456c1.4322-1.61083 3.4664-1.95252 5.6309-1.95252 2.5388 0 4.3452 1.00882 5.3868 3.02642 1.725-2.0176 3.8244-3.02642 6.2651-3.02642 2.051 0 3.63.60202 4.769 1.80612 1.123 1.204 1.692 2.945 1.692 5.2229v12.4473h-5.419v-10.6737c0-2.5871-1.058-3.8888-3.1735-3.8888-1.0253 0-1.8227.3254-2.4086.9925s-.8788 1.6271-.8788 2.8963v10.6574h-5.4193v-10.6574c0-2.5871-1.0578-3.8888-3.1734-3.8888-1.0253 0-1.8228.3254-2.4086.9925-.5859.6671-.8788 1.6271-.8788 2.8963v10.6574h-5.403z"/><path d="m55.1179 20.9769s-.0651.3417-.3092 1.0251c-1.4484 3.8074-4.215 6.0203-8.2022 6.5735-4.8334.6671-9.4064-2.4407-10.6433-7.0779-1.3182-4.9138.9602-9.7463 5.5495-11.73135 5.0775-2.19658 11.3268.52065 13.1821 5.71105.2766.8299.2115 1.3505.2115 1.3505s-2.197 0-2.7177 0c-.472 0-2.6527 0-2.6527 0s-.114-.1789-.6022-.9274c-1.0415-1.5783-2.9619-2.0827-4.8822-1.5457-1.481.423-2.669 1.9687-2.848 3.7097-.4231 3.8562 2.555 6.3945 5.9889 5.1417.6021-.2116 1.1717-.6021 1.5786-.9926.358-.3417.8137-1.2203.8137-1.2203"/><path d="m26.4103 23.5463c2.4357 0 4.4103-1.9742 4.4103-4.4095 0-2.4352-1.9746-4.4094-4.4103-4.4094s-4.4103 1.9742-4.4103 4.4094c0 2.4353 1.9746 4.4095 4.4103 4.4095z"/></g></svg>