<svg xmlns="http://www.w3.org/2000/svg" width="130" height="38" fill="none" viewBox="0 0 130 38"><path fill="#B6BDD4" d="M79.195 21.57c0-1.438-.01-2.876.008-4.314.004-.301-.088-.37-.37-.359-.546.022-1.093-.002-1.64.01-.218.006-.306-.047-.303-.285a115.9 115.9 0 000-2.9c-.003-.234.076-.298.3-.293.546.013 1.093-.01 1.639.01.283.011.38-.057.374-.36-.02-1.079-.002-2.158-.012-3.236-.002-.238.032-.351.315-.348 1.229.016 2.458.015 3.688 0 .275-.002.323.1.32.345-.011 1.066.005 2.133-.01 3.199-.005.283.06.379.363.375 1.304-.018 2.608-.001 3.912-.013.262-.003.367.04.36.338a65.42 65.42 0 000 2.826c.005.29-.09.347-.36.345-1.315-.014-2.632 0-3.948-.013-.263-.003-.328.071-.327.33.01 2.69.006 5.38.008 8.07 0 .297.016.593.066.888.162.95.632 1.417 1.592 1.534.854.103 1.712.043 2.569.041.294 0 .407.054.4.38-.021 1.065-.006 2.131-.01 3.197 0 .136.06.314-.193.308-1.525-.038-3.058.11-4.576-.11-2.272-.33-3.513-1.58-3.949-3.88-.216-1.142-.223-2.292-.217-3.445.005-.88.001-1.76.001-2.64zM113.99 19.901c0 3.78-.004 7.56.007 11.34.001.318-.06.42-.401.413a67.727 67.727 0 00-3.203-.001c-.363.008-.477-.068-.475-.458.018-3.532.011-7.064.011-10.596 0-4.053.003-8.106-.008-12.158-.001-.312.08-.392.388-.387 1.079.02 2.16.022 3.24-.001.346-.008.452.062.451.434-.016 3.804-.01 7.61-.01 11.414zM43.43 22.903c0-2.777.005-5.554-.007-8.33 0-.3.064-.402.383-.396 1.18.019 2.36.014 3.539.002.276-.003.384.049.383.362-.01 5.578-.01 11.157-.001 16.736 0 .288-.068.379-.369.374-1.192-.017-2.384-.02-3.576.001-.315.006-.358-.108-.357-.381.009-2.79.005-5.579.005-8.368zM74.495 22.909c0 2.79-.004 5.58.006 8.37.001.282-.059.378-.362.373-1.18-.02-2.36-.015-3.54-.003-.275.003-.384-.043-.384-.358.01-5.58.01-11.16.002-16.739 0-.289.07-.38.37-.375 1.167.017 2.335.019 3.502 0 .316-.006.417.057.415.4-.016 2.777-.009 5.554-.009 8.332zM16 29.012c.014-.485.032-.967.123-1.444.12-.63.448-.96 1.087-1.046a9.805 9.805 0 012.562-.003c.67.086 1.03.432 1.127 1.096.136.936.135 1.878 0 2.815-.088.624-.434.973-1.065 1.073a8.433 8.433 0 01-2.67-.001c-.623-.1-.933-.431-1.045-1.047a4.194 4.194 0 01-.06-.441c-.024-.334-.04-.668-.059-1.002zM47.68 10.234c-.013.445.01.893-.1 1.331-.104.409-.34.681-.77.76a6.691 6.691 0 01-2.478-.003c-.457-.086-.722-.377-.8-.82a7.331 7.331 0 01.002-2.553c.078-.447.355-.733.806-.816a6.854 6.854 0 012.48.001c.426.078.662.359.762.769.108.438.085.886.097 1.331zM74.483 10.22c-.027.385-.039.77-.086 1.15-.074.6-.346.889-.938.985a7.314 7.314 0 01-2.19.005c-.54-.075-.895-.365-.97-.92-.111-.837-.13-1.678.022-2.513.083-.452.374-.719.822-.8a6.878 6.878 0 012.334-.016c.58.093.84.375.918.96.05.38.06.766.088 1.148zM66.736 13.727c0-.222-.053-.301-.288-.3-1.242.012-2.484.012-3.726.001-.25-.002-.32.076-.31.319.02.433.006.868.006 1.302a3.57 3.57 0 00-.681-.634c-.583-.4-1.24-.616-1.92-.774-1.43-.332-2.867-.234-4.295-.028-2.897.417-4.395 2.027-4.512 4.945-.108 2.687-.086 5.38-.013 8.07.067 2.458 1.856 4.418 4.294 4.879 1.132.214 2.278.132 3.419.151.487.008.968-.055 1.44-.16.941-.21 1.761-.605 2.257-1.533 0 .454.036.912-.007 1.361-.1 1.01-.598 1.762-1.53 2.216-.633.307-1.304.386-1.991.388-1.975.004-3.95.007-5.924-.004-.272-.001-.365.06-.36.348.017 1.091.013 2.182.002 3.273-.002.245.046.348.323.347 2.496-.012 4.993.016 7.489-.018 1.87-.026 3.543-.587 4.822-2.035 1.113-1.26 1.486-2.791 1.492-4.41.022-5.901.008-11.803.013-17.704zm-4.32 10.649c-.024 1.775-1.302 3.034-3.083 3.01-.68-.009-1.366.02-2.032-.184-1.154-.352-1.93-1.079-2.006-2.306-.098-1.582-.15-3.176.03-4.753.165-1.455.931-2.171 2.384-2.368a8.555 8.555 0 012.082-.034c1.476.163 2.552 1.37 2.615 2.916.026.644.004 1.29.004 1.934h.007c0 .595.006 1.19-.002 1.785z"/><path fill="#B6BDD4" fill-rule="evenodd" d="M35.662 13.452l-.001 1.701c-.45-.705-1.055-1.048-1.72-1.265-2.173-.709-4.356-.655-6.502.092-1.277.444-2.177 1.35-2.722 2.594-.33.75-.464 1.54-.465 2.353-.004 2.53-.004 5.058 0 7.587 0 .235.014.473.058.703.42 2.23 1.85 3.53 3.952 4.141 1.625.473 3.296.392 4.95.17 1.08-.146 1.976-.628 2.428-1.716.021.53.032 1.047.016 1.564-.008.226.053.294.288.292 1.241-.012 2.483-.013 3.725 0 .258.003.306-.087.303-.32-.053-5.57-.047-11.14-.041-16.71.002-2.066.004-4.133.003-6.2 0-.276-.068-.36-.35-.356-1.168.016-2.336.02-3.503-.001-.338-.007-.431.08-.429.424.013 1.634.011 3.268.01 4.947zm-.004 10.055c-.007-.25-.013-.483 0-.69 0-.265.001-.51.003-.74.003-.462.006-.868-.006-1.273-.05-1.607-.985-2.785-2.43-3.045-.388-.07-.782-.059-1.176-.047-.203.006-.406.012-.608.007-1.293-.032-2.813.966-2.918 2.848-.076 1.371-.05 2.751-.006 4.125.041 1.319 1.201 2.529 2.457 2.645.593.055 1.19.073 1.786.053 1.486-.051 2.609-1.04 2.844-2.5.077-.475.065-.953.054-1.383z" clip-rule="evenodd"/><path fill="#B6BDD4" d="M106.254 13.807c0-.276-.048-.387-.36-.382-1.192.02-2.384.019-3.576 0-.293-.003-.358.094-.344.362.021.418.006.838.006 1.257-.444-.616-1.047-.94-1.702-1.153-2.16-.704-4.33-.656-6.468.067-1.253.424-2.152 1.296-2.731 2.49-.4.822-.548 1.695-.551 2.596-.008 2.368.007 4.736-.007 7.104-.015 2.382 1.131 4 3.272 4.93 1.881.817 3.862.688 5.828.427.999-.133 1.838-.599 2.359-1.553 0 .467.012.935-.005 1.403-.009.238.057.316.306.313 1.229-.012 2.459-.014 3.688.001.282.004.315-.104.314-.345-.016-5.839-.026-11.678-.029-17.517zm-4.318 10.99c-.199 1.51-1.349 2.556-2.876 2.59a17.961 17.961 0 0 1-1.749-.051c-1.215-.092-2.383-1.251-2.461-2.512a32.702 32.702 0 0 1 .005-4.422c.11-1.502 1.34-2.616 2.845-2.674.608-.023 1.221-.075 1.823.027 1.479.25 2.411 1.454 2.452 3.141.014.582.055 3.185-.039 3.902z"/></svg>