<svg width="389" height="258" viewBox="0 0 389 258" fill="none" xmlns="http://www.w3.org/2000/svg">
<path d="M304.54 50.224C304.54 61.1707 313.413 70.0529 324.368 70.0529C335.323 70.0529 344.197 61.1707 344.197 50.224C344.197 39.2773 335.323 30.3951 324.368 30.3951C313.413 30.3951 304.54 39.2773 304.54 50.224Z" fill="#A0AEC0"/>
<path d="M344.204 72.79C344.204 83.7366 353.078 92.6188 364.033 92.6188C374.988 92.6188 383.862 83.7366 383.862 72.79C383.862 61.8433 374.988 52.9611 364.033 52.9611C353.078 52.9611 344.204 61.8433 344.204 72.79Z" fill="#A0AEC0"/>
<path d="M303.858 96.0435C303.858 106.999 312.732 115.881 323.687 115.881C334.642 115.881 343.516 106.999 343.516 96.0435C343.516 85.0885 334.642 76.2147 323.687 76.2147C312.732 76.2147 303.858 85.0885 303.858 96.0435Z" fill="#A0AEC0"/>
<path d="M64.5277 139.505C49.7851 139.505 37.8394 127.559 37.8394 112.817C37.8394 98.0739 49.7851 86.12 64.5277 86.12C79.2703 86.12 91.2159 98.0739 91.2159 112.817C91.2159 127.559 79.2703 139.505 64.5277 139.505V139.505ZM118.612 89.891H121.642L132.888 56.3767H53.5644C42.1099 56.3767 5.00774 66.108 5.00774 106.307C5.00774 150.069 40.5699 165.111 53.5644 165.793C66.5505 166.476 95.7361 182.068 84.3316 206.142C72.5358 231.041 41.9351 225.297 26.8844 200.673L5.69034 223.241C5.69034 223.241 36.4576 264.963 80.9186 251.277C125.363 237.6 130.84 178.796 100.747 154.173C100.747 154.173 139.123 138.448 118.612 89.891" fill="#A0AEC0"/>
<path d="M280.649 56.4982H256.159V3.12166L222.528 22.6009V56.4982H185.967V3.12166L152.336 22.6009V56.2318H141.397L130.184 89.5962H152.336V146.178C152.336 146.178 146.201 191.28 209.983 191.28V160.055C209.983 160.055 186.499 161.645 186.499 141.374V89.8626H221.72H222.528V146.178C222.528 146.178 216.393 191.28 280.183 191.28V160.055C280.183 160.055 256.691 161.645 256.691 141.374V89.8626H280.649H280.974V56.4982H280.649Z" fill="#A0AEC0"/>
</svg>
