<svg fill="none" height="184" viewBox="0 0 1024 184" width="1024" xmlns="http://www.w3.org/2000/svg"><g fill="#a0aec0"><path d="m730.472 116.463c0 35.542 22.85 62.329 58.377 62.329 35.657 0 59.594-26.787 59.594-62.329 0-35.5412-23.836-62.336-59.356-62.336-35.664 0-58.615 26.7948-58.615 62.336zm27.724 0c0-19.6674 12.62-41.4012 30.653-41.4012 18.171 0 31.87 21.7338 31.87 41.4012 0 19.668-13.699 41.388-31.87 41.388-18.033 0-30.653-21.72-30.653-41.388zm-115.668-59.1h-48.507v19.1134h12.231c-4.521 4.9889-17.062 21.9786-19.819 25.0166-2.822-3.002-16.536-19.9989-21.237-25.0166h11.698v-19.1134h-54.698v19.1134h10.201c1.822 1.9653 31.777 34.7566 35.146 38.3776-3.326 3.729-33.044 38.645-34.887 40.711h-15.514v19.927h54.627v-19.927h-11.548c4.917-5.644 18.415-22.202 21.446-25.672 3.182 3.362 17.292 19.949 22.713 25.672h-10.597v19.927h57.621v-19.927h-15.391c-1.843-1.994-32.677-37.14-36.053-40.804 3.225-3.657 33.713-36.2113 35.534-38.2846h10.511v-19.1134zm-137.895 0h-14.47c-13.088 0-17.645 10.4026-25.456 21.4027v-21.4027h-42.114v19.1134h19.581v79.0886h-20.093v19.927h64.669v-19.927h-20.251v-34.613c0-15.831 4.529-43.5253 26.27-43.5253h15.341v-20.0637zm-117.79 83.884c-5.716 10.575-16.702 16.601-30.877 16.601-17.904 0-31.69-11.432-31.819-34.628h84.502v-3.29c0-34.0006-16.709-66.7849-53.402-66.7849-32.598 0-57.384 22.8425-57.384 61.3499 0 25.6 9.704 62.329 58.967 62.329 28.4 0 47.967-14.859 47.967-14.859v-20.718zm-31.121-68.7366c19.725 0 27.277 18.2496 27.277 31.0136h-58.039c0-9.4165 2.959-31.0136 30.762-31.0136zm-121.388-43.2509v28.105h-20.388v20.1068h20.388v70.1617c0 8.963 4.478 27.774 24.131 27.774 16.486 0 29.703-2.023 29.703-2.023v-19.034s-3.333.835-14.232 1.468c-7.336.418-13.311-4.924-13.311-16.176v-62.1707h29.516v-20.1068h-29.516v-38.6588zm666.04 46.5279v-18.4223h-43.022v19.1134h16.731v79.0885h-17.249v19.92h59.802v-19.92h-16.262v-50.012c0-9.9991 6.896-29.5948 28.537-29.5948 3.347 0 20.675 6.2416 20.675 23.2673l.029 56.3395h-15.68l-.122 19.92h58.326v-19.92h-15.269v-65.0864c0-25.7509-20.942-34.9368-36.844-34.9368-31.079 0-38.472 20.4164-39.653 20.2436zm-779.068 0v-18.4223h-43.0284v19.1134h16.7305v79.0885h-17.2416v19.92h59.7955v-19.92h-16.256v-50.012c0-9.9991 6.89-29.5948 28.537-29.5948 3.34 0 20.676 6.2416 20.676 23.2673l.023 56.3395h-15.68l-.115 19.92h58.326v-19.92h-15.276v-65.0864c0-25.7509-20.935-34.9368-36.837-34.9368-31.078 0-38.472 20.4164-39.652 20.2436zm556.177-54.0653c0 9.1068 7.523 16.5146 16.759 16.5146 9.244 0 16.76-7.4078 16.76-16.5146s-7.516-16.51455-16.76-16.51455c-9.236 0-16.759 7.40775-16.759 16.51455zm27.4 35.6409h-40.617v19.1134h16.817v79.0886h-15.823v19.927h59.903v-19.927h-16.803v-98.202zm-685.3494-35.6409c0 9.1068 7.5158 16.5146 16.7593 16.5146 9.2436 0 16.7593-7.4078 16.7593-16.5146s-7.5157-16.51455-16.7593-16.51455c-9.2435 0-16.7593 7.40775-16.7593 16.51455zm27.4009 35.6409h-40.60967v19.1134h16.80247v79.0886h-15.8234v19.927h59.9102v-19.927h-16.8025v-98.202z"/><path d="m1001.48 56.8634 6.27 16.6945 6.3-16.6945h3.63v19.8765h-2.53v-16.5362h-.05l-6.21 16.5362h-2.25l-6.21-16.5362h-.05v16.5362h-2.534v-19.8765h3.624zm-21.75 2.2043v-2.2029h15.867v2.2029h-6.624v17.6664h-2.62v-17.6664z"/></g></svg>