<svg fill="none" height="270" viewBox="0 0 1024 270" width="1024" xmlns="http://www.w3.org/2000/svg"><g fill="#a0aec0"><path d="m1008.71 23.3496c-8.09 0-15.098 6.0346-15.098 15.2402 0 8.7135 6.309 15.38 15.098 15.38 8.03 0 14.96-6.1744 14.96-15.38s-6.93-15.2402-14.96-15.2402zm-1008.226188 2.2371v191.8303h149.046188v-44.742h-86.2678v-147.0883zm624.707188 0v191.8303h55.228v-191.8303zm383.519.4195c6.55 0 11.61 5.1341 11.61 12.5836 0 7.4886-5.06 12.7234-11.61 12.7234-7.27 0-11.882-5.7661-11.882-12.7234 0-7.4495 5.252-12.5836 11.882-12.5836zm-153.238.699c-42.634 0-62.639 25.3575-62.639 60.8209h34.675c0-6.6665.034-31.0396 25.587-31.0396 20.497 0 23.629 17.3934 23.629 24.3284 0 24.5301-20.413 25.5871-31.599 25.5871h-6.152v26.705c17.382 0 42.505 1.102 42.505 26.845 0 20.967-13.171 31.04-28.104 31.04-25.072 0-27.684-22.914-27.684-32.998l.28-.279h-36.492c0 59.025 47.985 63.058 65.854 63.058 38.137 0 64.456-25.235 64.456-60.821 0-32.153-21.856-42.029-28.523-43.903v-.559c10.755-4.81 22.79-16.8791 22.79-36.0733 0-39.988-33.293-52.7115-58.583-52.7115zm147.368 3.7751v16.918h2.8v-7.2705h2.65l4.34 7.2705h3.21l-4.75-7.4103c2.53-.2853 4.33-1.5436 4.33-4.614 0-3.434-2.06-4.8937-6.15-4.8937zm2.8 2.3769h3.35c1.68 0 3.64.1902 3.64 2.2371 0 2.4552-1.83 2.6566-3.92 2.6566h-3.07zm-772.219 41.3862c-44.669 0-78.858 29.1996-78.858 74.9426 0 46.425 34.468 72.006 79.137 72.006 32.5 0 67.594-11.515 77.18-46.14h-52.991c-3.993 8.384-11.907 12.444-20.693 12.444-14.647 0-27.404-10.794-27.404-27.125h105.702c.8-50.48-30.408-86.1276-82.073-86.1276zm299.211 0c-44.669 0-78.858 29.1996-78.858 74.9426 0 46.425 34.468 72.006 79.137 72.006 32.5 0 67.728-11.515 77.32-46.14h-52.991c-3.999 8.384-12.047 12.444-20.833 12.444-14.648 0-27.405-10.794-27.405-27.125h105.703c.8-50.48-30.402-86.1276-82.073-86.1276zm-228.044 3.7751 48.517 139.3985h61.8l47.118-139.3985h-53.27l-24.189 87.9455-24.468-87.9455zm-69.07 29.9215c13.048 0 24.608 11.526 24.608 24.328h-50.334c0-14.938 9.211-24.328 25.726-24.328zm299.211 0c13.053 0 24.608 11.526 24.608 24.328h-50.335c0-14.938 9.217-24.328 25.727-24.328zm-524.1783 129.471c-7.93047 0-10.206706 7.371-10.206706 16.079 0 9.486 2.734846 16.499 10.486406 16.499 4.0211 0 7.2705-2.774 7.2705-3.496 0-.229-.0951-.33-.2796-.559l-.9788-1.258c-.1398-.14-.2852-.42-.4194-.42-.3188 0-2.8076 2.797-5.4529 2.797-4.66436 0-6.57148-5.643-6.57148-14.122 0-7.791 1.21921-12.444 6.15198-12.444 2.651 0 5.274 2.657 5.5927 2.657.1846 0 .2853-.101.4195-.28l.9787-1.258c.1846-.23.2797-.476.2797-.699 0-.733-3.2494-3.496-7.2706-3.496zm48.5169 0c-7.3153 0-10.2067 6.555-10.2067 16.359 0 9.765 2.8467 16.219 10.2067 16.219 7.3209 0 10.3466-6.454 10.3466-16.219 0-9.759-3.076-16.359-10.3466-16.359zm319.6244 0c-7.936 0-10.207 7.371-10.207 16.079 0 9.486 2.729 16.499 10.486 16.499 4.022 0 7.271-2.774 7.271-3.496 0-.229-.095-.33-.28-.559l-.978-1.258c-.135-.14-.286-.42-.42-.42-.319 0-2.942 2.797-5.593 2.797-4.658 0-6.431-5.643-6.431-14.122 0-7.791 1.219-12.444 6.152-12.444 2.651 0 5.268 2.657 5.593 2.657.179 0 .285-.101.419-.28l.979-1.258c.184-.23.279-.476.279-.699 0-.733-3.249-3.496-7.27-3.496zm188.894 0c-7.321 0-10.207 6.555-10.207 16.359 0 9.765 2.842 16.219 10.207 16.219 7.315 0 10.347-6.454 10.347-16.219 0-9.759-3.076-16.359-10.347-16.359zm104.724 0c-4.799 0-9.088 3.003-9.088 8.249 0 9.435 13.422 8.233 13.422 15.8 0 3.054-2.131 5.173-5.592 5.173-3.222 0-5.945-1.409-6.852-1.817-.223-.14-.38-.28-.559-.28-.274 0-.425.196-.559.559l-.559 1.538c-.045.179-.28.42-.28.559 0 .23.19.465.419.56.683.318 4.117 2.237 8.39 2.237 5.626 0 9.647-3.395 9.647-8.949 0-3.008-1.191-5.123-3.635-7.13-3.68-3.009-9.788-3.887-9.788-8.669 0-3.054 2.126-4.474 4.894-4.474 2.623 0 5.011 1.085 5.872 1.538.224.134.381.279.56.279.319 0 .374-.195.559-.559l.559-1.538c.045-.184.14-.425.14-.559s-.056-.28-.28-.42c-.637-.318-3.59-2.097-7.27-2.097zm-567.522.699c-.363 0-.559.196-.559.56l-1.678 30.2c0 .364.196.56.559.56h2.657c.369 0 .559-.196.559-.56l.699-23.489c.045-.917-.095-2.153-.14-2.936h.14c.045 1.006.196 2.119.56 3.215l5.313 15.94c.139.414.29.419.699.419h1.398c.408 0 .38-.005.559-.419l5.593-15.94c.369-1.096.514-2.209.559-3.215h.14c-.045.783-.185 2.019-.14 2.936l.699 23.489c0 .364.196.56.559.56h2.657c.364 0 .559-.196.559-.56l-1.678-30.2c0-.364-.195-.56-.559-.56h-3.076c-.363 0-.279.051-.419.42l-5.453 15.799c-.229.688-.33 1.835-.559 2.797h-.14c-.179-1.007-.33-2.109-.56-2.797l-5.452-15.799c-.14-.369-.056-.42-.42-.42zm57.885 0c-.364 0-.559.196-.559.56l-1.818 30.2c0 .364.196.56.559.56h2.657c.363 0 .559-.196.559-.56l.699-23.489c.045-.917.045-2.153 0-2.936.045 1.006.196 2.119.559 3.215l5.313 15.94c.14.414.286.419.7.419h1.398c.408 0 .514-.005.699-.419l5.453-15.94c.369-1.096.514-2.209.559-3.215h.14c-.05.783-.045 2.019 0 2.936l.699 23.489c0 .364.196.56.559.56h2.657c.369 0 .559-.196.559-.56l-1.818-30.2c0-.364-.195-.56-.559-.56h-2.936c-.364 0-.42.051-.559.42l-5.453 15.799c-.23.688-.33 1.835-.56 2.797h-.139c-.185-1.007-.33-2.109-.56-2.797l-5.453-15.799c-.139-.369-.055-.42-.419-.42zm56.347 0c-.37 0-.56.196-.56.56v22.37c0 5.537 2.612 8.949 9.508 8.949 6.991 0 10.067-3.457 10.067-8.949v-22.37c0-.364-.196-.56-.559-.56h-2.657c-.369 0-.559.196-.559.56v22.231c0 4.166-2.092 6.152-6.292 6.152-4.295 0-5.733-2.4-5.733-6.152v-22.231c0-.364-.19-.56-.559-.56zm54.389 0c-.364 0-.559.241-.559.56v30.2c0 .364.195.56.559.56h2.377c.363 0 .559-.196.559-.56v-22.371c0-1.001-.056-2.321-.419-4.054h.139c.23 1.28.571 2.723 1.119 3.915l10.626 22.51c.185.319.336.56.699.56h2.517c.363 0 .559-.241.559-.56v-30.2c0-.364-.196-.56-.559-.56h-2.377c-.364 0-.559.196-.559.56v21.811c0 .828.279 1.835.419 2.797-.414-1.376-.565-2.355-1.118-3.496l-10.207-21.252c-.134-.28-.33-.42-.699-.42zm51.733 0c-.37 0-.56.19-.56.56v1.817c0 .364.19.559.56.559h4.054v25.308h-4.054c-.37 0-.56.195-.56.559v1.957c0 .369.19.56.56.56h12.024c.363 0 .559-.191.559-.56v-1.957c0-.364-.196-.559-.559-.559h-4.195v-25.308h4.195c.363 0 .559-.195.559-.559v-1.817c0-.37-.196-.56-.559-.56zm100.249 0c-.091.069-.07.19-.14.42l-9.088 29.781c-.134.324-.235.61-.28.839 0 .229.101.28.56.28h2.936c.548 0 .744-.241.839-.56l2.237-8.808h9.368l2.656 8.808c.095.319.151.56.699.56h2.937c.458 0 .559-.051.559-.28-.045-.229-.045-.515-.14-.839l-9.228-29.781c-.185-.504-.336-.42-.699-.42h-2.657c-.251 0-.467-.068-.559 0zm40.268 0c-.504 0-.699.235-.699.56v2.097c0 .363.19.559.559.559h6.851v27.544c0 .364.196.56.559.56h2.657c.363 0 .559-.196.559-.56v-27.544h6.432c.319 0 .565-.196.699-.559l.699-1.678c.039-.229.14-.515.14-.699 0-.274-.235-.28-.56-.28zm48.237 0c-.364 0-.559.19-.559.56v1.817c0 .364.195.559.559.559h4.195v25.308h-4.195c-.364 0-.559.195-.559.559v1.957c0 .369.195.56.559.56h12.164c.369 0 .559-.191.559-.56v-1.957c0-.364-.19-.559-.559-.559h-4.194v-25.308h4.194c.369 0 .559-.195.559-.559v-1.817c0-.37-.19-.56-.559-.56zm98.152 0c-.369 0-.559.241-.559.56v30.2c0 .364.19.56.559.56h2.377c.364 0 .42-.196.42-.56v-22.371c0-1.001-.056-2.321-.42-4.054h.14c.224 1.28.71 2.723 1.258 3.915l10.487 22.51c.184.319.335.56.699.56h2.517c.363 0 .559-.241.559-.56v-30.2c0-.364-.196-.56-.559-.56h-2.238c-.363 0-.559.196-.559.56v21.811c0 .828.28 1.835.42 2.797h-.14c-.414-1.376-.571-2.355-1.119-3.496l-10.067-21.252c-.134-.28-.33-.42-.699-.42zm-552.9804 2.377c5.1341 0 6.2918 5.313 6.2918 13.283 0 8.025-1.1129 13.283-6.2918 13.283-5.1733 0-6.152-5.258-6.152-13.283 0-7.97 1.0682-13.283 6.152-13.283zm508.5184 0c5.129 0 6.292 5.313 6.292 13.283 0 8.025-1.119 13.283-6.292 13.283-5.179 0-6.152-5.258-6.152-13.283 0-7.97 1.068-13.283 6.152-13.283zm-140.517 1.958h.14c.223 1.286.609 2.913.978 4.334l2.797 10.067h-7.69l2.796-10.067c.319-1.236.794-3.233.979-4.334z"/><path d="m791.575 0c-15.912 7.23699-75.083 43.1591-75.083 127.654 0 23.73 8.02 85.608 75.083 121.782v-8.11c-28.065-17.069-42.505-37.622-42.505-116.329 0-88.2584 18.495-100.9595 42.505-117.16718zm126.675 0v7.82982c24.015 16.20768 42.505 28.90878 42.505 117.16718 0 78.707-14.435 99.26-42.505 116.329v8.11c67.068-36.174 75.082-98.052 75.082-121.782 0-84.4949-59.165-120.41701-75.082-127.654z"/></g></svg>