<svg fill="none" height="38" viewBox="0 0 130 38" width="130" xmlns="http://www.w3.org/2000/svg"><g fill="#b6bdd4"><path d="m24.0099 29.7781c0-.8723.2586-1.7249.7432-2.4501.4846-.7253 1.1734-1.2905 1.9792-1.6243s1.6926-.4211 2.548-.251c.8555.1702 1.6413.5902 2.2581 1.207.6167.6167 1.0368 1.4025 1.2069 2.258.1702.8555.0829 1.7422-.2509 2.548-.3338.8059-.8991 1.4946-1.6243 1.9792s-1.5779.7433-2.4501.7433c-1.1651-.0148-2.2782-.4842-3.1021-1.308-.8239-.8239-1.2933-1.9371-1.308-3.1021z"/><path d="m36.3392 33.695v-27.49432h7.4165v27.49432z"/><path d="m47.8813 33.6951v-19.9166h7.4165v19.9166zm-.4553-25.51218c0-.82347.2442-1.62844.7017-2.31312.4575-.68469 1.1078-1.21834 1.8685-1.53346.7608-.31513 1.598-.39758 2.4056-.23693s1.5495.55719 2.1318 1.13946c.5823.58228.9788 1.32415 1.1394 2.13179.1607.80764.0782 1.64478-.2369 2.40556s-.8488 1.41108-1.5334 1.86848c-.6847.4575-1.4897.7017-2.3132.7017-.5471.0013-1.089-.1056-1.5947-.3144s-.9652-.5154-1.3521-.9023c-.3869-.3868-.6935-.8463-.9023-1.352s-.3156-1.04767-.3144-1.59478z"/><path d="m72.8528 33.695v-11.0015c0-2.058-1.1096-2.8452-2.8452-2.8452-.6151-.0063-1.2232.132-1.775.4038-.5519.2719-1.0322.6696-1.4021 1.1611v12.3292h-7.4071v-19.9165h7.4165v2.2288c.872-.9278 1.9351-1.655 3.1157-2.1315 1.1807-.4765 2.4507-.6909 3.7224-.6284 4.6187 0 6.6388 2.8452 6.6388 6.269v14.1312z"/><path d="m96.7242 33.695-3.4238-6.4302-1.4415 1.9347v4.4955h-7.4166v-27.49432h7.4166v14.68132l4.5808-7.0941h8.9433l-6.8474 9.0668 7.3024 10.8403z"/></g></svg>