<svg fill="none" height="38" viewBox="0 0 130 38" width="130" xmlns="http://www.w3.org/2000/svg" xmlns:xlink="http://www.w3.org/1999/xlink"><clipPath id="a"><path d="m20 4h89.3927v30h-89.3927z"/></clipPath><g clip-path="url(#a)" fill="#b6bdd4"><path d="m72.2267 10.9231c0 1.9737-.0303 3.8563 0 5.7085.0304 1.7611.3037 5.1316.3948 6.8927 0 .0607.0607.1518.0607.2125.0607-.0303.1214-.0607.1518-.1214.9109-1.3664 2.3381-3.7652 3.249-5.5263 1.5182-2.581 2.2773-3.9778 3.6437-5.8604.7591-1.0627 1.2753-2.1255 2.0952-3.15785.3643-.48583.6983-1.00203 1.0627-1.48786.0911-.12145.3037-.15182.3644-.30364.1518-.21255.2429-.48583.3644-.72874.0303-.06073.1214-.0911.1822-.0911.0607-.03036.091-.06073.0607-.12146-.0304-.03036-.0304-.15182 0-.18218.1214-.12146.2733-.24292.4251-.36437.0303-.03037.0607-.03037.0911-.06073.0911-.18219.1214-.4251.2733-.57693.4251-.4251.8805-.8502 1.3663-1.21457.0911-.09109.3341.03036.4859.03036-.0304.0911-.0911.21255-.1215.30365 0 .03036-.0303.12145-.0303.12145.5162.36438.3036.75911.1821 1.21458-.091.30364-.091.75911.3644.9413.0607.03036.1822.09109.1822.15182-.0911.75911.3947.4251.668.30364.1215-.06073.3037-.18219.3644-.12146.0304.03037-.0911.24292-.1518.36438-.0608.12145-.1215.21255-.1518.30364.091-.03036.1821-.09109.3036-.09109.0304 0 .1215.03036.1215.06073.0303.12145.0607.27327.0303.36437-.3947.72874-.8502 1.45749-1.2146 2.18626-.0607.1214.1215.3643.1519.5465.0303.0911.0911.1822.0607.2429-.2429.5162-.4555 1.0932-.7591 1.5486-.6984 1.0931-1.4879 2.1863-2.2166 3.2794-.4251.6376-.8502 1.3056-1.245 1.9737-.8502 1.4878-1.7004 3.006-2.5506 4.5243-1.0931 1.9433-2.1862 3.917-3.2793 5.8906-.7895 1.4272-1.6093 2.8543-2.3684 4.2814-.2126.3948-.243.8502-.3644 1.2753 0 .0608-.0304.1215-.0607.1215-.2126.0303-.3948.0911-.6073.0911-.1822 0-.4251-.0304-.5466-.1518-.2125-.1519-.3036-.3341-.5465-.0304-.1215.1518-.4859.2429-.6377.1518-1.3968-.6984-2.7632-1.4575-3.4615-2.915-.4859-.9716-.7288-2.0951-.9717-3.1579-.2733-1.3056-.4555-2.672-.6073-4.0081-.1518-1.1842-.2125-2.3684-.2733-3.5526-.0607-1.0931-.1518-2.1862-.1518-3.2793 0-1.5486.0911-3.0972.1518-4.6154.0911-1.913.0608-3.55266-.2125-5.76926-.0607-.24291.1214-.63765.334-.81984.1518-.12145.5162 0 .7895.03037.2125.03036.4251.06073.6376.12145.3644.0911.6984.24292 1.0628.33401.334.12146.6984.18219 1.0324.33401.3036.15182.6072.33401.8502.54656.5769.51619.6983 1.21457.7894 1.91296.1215.7591.1519 1.42714.1822 1.94334z"/><path d="m38.3704 28.413c1.1539-.0608 2.3988-.1519 3.6134-.243 2.3381-.1518 3.1579-.1214 5.496-.3036 1.0627-.0911 2.1862.4555 2.9757 1.1235.0607.0303-.0304.3643-.0911.3947-.334.1518-.6984.2126-1.0021.3644-.1518.0607-.2732.2429-.3947.3644.1215.0911.2429.1518.3947.2429.1215.0607.243.0911.3644.1214-.0911.1215-.1822.3037-.3036.334-.5769.2126-1.1235.3644-1.7004.5466-.6377.1822-.5466.3644-1.1842.4555-1.2753.2125-2.0648.3643-3.3401.5769-.9109.1518-1.8219.3644-2.7328.4858-.9413.1215-1.8826.2429-2.8239.2126-.9109-.0304-1.8522-.0911-2.7024-.4251-1.5486-.577-2.915-1.4879-3.6741-3.0365-.4555-.9109-.2733-1.8826 0-2.8542.2733-1.002.6073-1.9737.8502-2.9757.334-1.3361.668-2.7025.9716-4.0385.4555-1.9129.9413-3.8259 1.3664-5.7692.3948-1.8219.7592-3.6741 1.1539-5.52634.2125-1.03239.4251-2.03441.668-3.0668.0911-.39474.3644-.48583.7288-.4251.6376.15182 1.336.21255 1.9433.45546.8198.33401 1.67.69838 2.3684 1.24494.3036.24292.334.88057.3947 1.3664.0911 1.03239-.0911 2.03444-.3947 3.03644-.3947 1.3057-.668 2.6417-1.002 3.9777-.2429.911-.577 1.7915-.7895 2.7025-.2126.9413-.2429 1.9129-.4555 2.8542-.4858 2.4292-1.0324 4.4939-1.5486 6.8927-.1821.911-.2125.911.7288.911z"/><path d="m55.9818 32.4211c-.1518.2732-.2126.4251-.3037.4858-.0607.0607-.1822.0303-.2732.0303-.243 0-.5466-.1518-.6984-.0303-.4859.3644-1.002.3644-1.5182.3036-.1215 0-.3037-.2125-.3341-.3643-.091-1.3664.0304-2.7025.3341-4.0385.2732-1.2146.3643-2.4595.5161-3.6741.2126-1.4879.3948-3.0061.6681-4.4939.3036-1.6701.6983-3.3097 1.0324-4.9494.1214-.5466.1518-1.0931.2429-1.6397.1214-.5466.2732-1.0931.3947-1.6093.2126-1.002.4555-2.0041.6377-3.03644.1821-1.03239.3036-2.09514.4554-3.15789.0911-.63766.5162-.81984 1.1235-.66802.4251.12146.9109.12146 1.3664.24291.4555.15183.8806.39474 1.336.57693.0911.03036.2126.03036.3037.06073.1214.03036.2733 0 .3643.06072 1.579.91094 1.4575 2.15587 1.2754 3.79556-.1822 1.7004-.577 3.7044-.9717 5.3745-.3947 1.6397-.668 3.1275-1.1539 4.7368-.3643 1.245-.5769 2.581-.9413 3.7956-.2429.8502-.4251 1.7611-.668 2.6113-.1822.6377-.4251 1.2753-.6073 1.9433-.091.3037-.0607.668-.1821.9717-.1822.4555-.4555.8806-.6377 1.3057-.1518.334-.3036.6983-.3036 1.0323 0 .6073-.8806 1.6094-1.4575 1.5486-.0304 0-.1215-.1214-.1215-.2125.0911-.2126.0911-.5162.1215-1.002z"/><path d="m28.0162 28.504c.0304.2126-.3644 2.0041-.668 2.9454-.1822.5465-.6984 1.2753-1.1235 1.336-.4555.0911-3.4008.3037-4.7976-.6073-1.7611-1.1235-1.8218-3.2793-.5769-4.9494.7287-.9413 1.0324-1.0324 2.247-.7591.4554.1215.9413 0 1.3967.1215 1.002.2733 1.9737.6073 2.915 1.0324.2733.0911.5769.6376.6073.8805z"/><path d="m109.15 16.0547c-.091-.2126-.85 0-1.002.0303-.456.0911-.942.1215-1.397.1822-.213.0304-.425.0304-.638.0607-.698.0608-1.427.0911-2.125.1519-.456.0303-.941.1214-1.397.1518-.364.0303-.759-.0304-1.154 0-1.184.0911-2.3378.1822-3.522.3036-1.0628.0911-2.0952.2126-3.1579.2733-.2126 0-.6073-.1518-.6377-.3036-.0607-.3037.0304-.6377.1215-.9413.2429-.7895.4858-1.579.7591-2.3685.8806-2.6113 3.4919-2.2469 5.678-2.3987 1.974-.1215 3.431-.1822 5.192-.4251.668-.0911 1.792-.243 2.338-.6681.456-.36434.638-1.09308.881-1.57891.182-.39474.456-.81984 0-1.30567-.243-.24291-.273-.69838-.395-1.06275-.06-.12146-.152-.21255-.182-.33401-.152-.45547-.729-.81984-1.123-.72875-.365.0911-.729.21255-1.093.24292-1.154.12146-2.308.18218-3.462.30364h-.03c-1.093.0911-2.187.21255-3.2797.36437-1.1235.15183-2.2773.33401-3.4008.57693-.2429.06073-.4859.12146-.6984.21255-.6073.12146-1.9737.75911-2.2773 1.03239-.2733.24291-1.7915 2.06477-2.3077 3.27939-.7591 1.7307-1.4272 3.5222-2.0952 5.2834-.3947 1.0324-.7591 2.0951-1.0627 3.1579-.4251 1.5182-.7895 3.0364-1.1842 4.5546-.1822.7591-.4251 1.4879-.5162 2.247-.2126 1.7611.2732 3.5526 1.336 4.9797 1.3664 1.7915 3.3097 2.3077 5.4352 2.6721.7591.1215 1.6093-.0607 2.3988-.1518.5769-.0607.6984-.1518 1.2753-.2733.4858-.0911.6984-.2429 1.1842-.3644.911-.2125 1.579-.3643 2.4897-.5769.182-.0304.365-.1215.516-.1518.425-.0911.881-.1215 1.306-.2429.456-.1215.941-.2733 1.397-.3948.607-.2125 1.214-.4251 1.822-.6376.06-.0304.121-.0304.182-.0607.486-.1215 1.093-.0001 1.245-.6984 0-.0608-.061-.1822-.122-.1822-.303 0-.637.0303-.941-.0304-.091 0-.182-.1822-.273-.3036.091-.0304.182-.0304.273-.0608.03 0 .091-.0303.122-.0303.212-.0911.455-.1822.668-.3037.212-.1214.698-.0303.364-.5465 0 0 .061-.0608.091-.0608.273-.1214.577-.1821.85-.3643.182-.1215.547-.334.061-.5769-.182-.0911-.304-.243 0-.3948.061-.0303 0-.3036-.03-.4554 0-.0304-.122-.1215-.152-.0911-.85.1214-1.701.2125-2.551.334-.88.1214-1.731.3036-2.611.3947-3.067.334-6.1034.6377-9.1702 1.0324-.5162.0607-1.4272.1822-1.7612-.334-.334-.5466.1215-1.7915.2429-2.3988.243-1.2146.4859-2.3988.7591-3.6134.0304-.1214.2733-.3036.4252-.3036.5161 0 1.0323.1215 1.5485.1215.6984 0 1.4272-.1215 2.1255-.1519.4251-.0303.8806 0 1.3057-.0607 1.6701-.2429 3.3405-.4858 5.0105-.7895.85-.1518 1.973-.3947 2.672-.5769.03-.1518.03-.2733.06-.2733.213-.0607.426-.0911.608-.1822.243-.0911.455-.1821.668-.3036.212-.1215.637-.2733.637-.3644s-.637-.2733-.728-.3947c-.122-.1215-.091-.2733-.213-.3948.03-.091.122-.1518.213-.1821.091-.0304.212-.0304.303-.0608.243-.0607.699-.3036.516-.6376-.06-.0911-.121-.1518-.151-.2733-.031-.1518.03-.3036.182-.4251.121-.0911.273-.1518.425-.2126.364-.1518.729-.3643 1.002-.668.061-.0607.121-.1518.121-.2429.031 0 .031-.0303.031-.0303z"/></g></svg>