<svg fill="none" height="38" viewBox="0 0 130 38" width="130" xmlns="http://www.w3.org/2000/svg" xmlns:xlink="http://www.w3.org/1999/xlink"><clipPath id="a"><path d="m28 4h74.6877v30h-74.6877z"/></clipPath><g clip-path="url(#a)" fill="#b6bdd4"><path d="m37.9464 28.8963c-.0008.9834-.2931 1.9445-.8401 2.7618s-1.3239 1.4541-2.2327 1.8299c-.9089.3758-1.9087.4737-2.8731.2814-.9645-.1924-1.8502-.6664-2.5453-1.3621-.6951-.6956-1.1684-1.5818-1.3599-2.5464-.1916-.9646-.0929-1.9643.2837-2.8728.3765-.9085 1.0139-1.685 1.8317-2.2313.8177-.5462 1.7791-.8378 2.7625-.8378.6534 0 1.3005.1288 1.9041.3789.6037.2502 1.1521.6169 1.6139 1.0791.4619.4623.8281 1.011 1.0778 1.6149.2497.6038.3779 1.2509.3774 1.9044z"/><path d="m61.5905 31.1976c0 1.45-.7005 2.1505-2.1505 2.1505h-3.177c-1.45 0-2.1506-.7005-2.1506-2.1505v-12.8994c0-1.727-.6069-2.896-2.6149-2.896-1.4711.0243-2.9082.4466-4.1586 1.2219v14.5816c0 1.45-.7006 2.1506-2.1506 2.1506h-3.177c-1.45 0-2.1506-.7006-2.1506-2.1506v-19.0579c0-1.4459.7006-2.15053 2.1506-2.15053h1.169c1.0305 0 1.45.51323 2.1017 1.68213 2.4561-1.4968 5.27-2.30442 8.1461-2.33789 6.354 0 8.1787 3.36439 8.1787 7.84879z"/><path d="m82.7134 24.143h-11.6367c-.1874 3.0385 1.4011 3.9264 5.0465 3.9264 1.7663.0455 3.5294-.1756 5.2298-.6557 1.8696-.4073 2.9408.7005 2.9408 2.1017v.8879c0 1.2627-.4684 2.0365-1.6822 2.4764-2.4219.7486-4.9432 1.1262-7.4781 1.1201-7.7103 0-11.4494-3.9264-11.4494-12.3373s3.6902-12.33729 10.9362-12.33729c9.0177 0 10.4189 6.07289 10.2356 12.66319 0 1.4011-.7006 2.1505-2.1506 2.1505zm-11.6367-4.5822h6.635c.4073-2.5701-.1385-4.627-2.9896-4.627-2.5212 0-3.6454 1.6822-3.6454 4.627z"/><path d="m89.3933 7.12984c0-1.35633.558-1.86954 2.2442-2.33794l2.4439-.65576c1.9347-.50914 2.79.47247 2.79 1.90211v3.92644h3.6656c1.45 0 2.151.70061 2.151 2.15061v1.9184c0 1.45-.701 2.1505-2.151 2.1505h-3.6656v8.9363c0 1.8248.7006 2.8512 3.0833 2.8512h.4683c.263-.0112.525.0316.771.1257s.47.2376.658.4215c.188.184.336.4045.436.6481.1.2435.148.5048.143.7679v1.5396c.017.5551-.168 1.0975-.52 1.5272-.351.4297-.847.7176-1.394.8108-.6933.1286-1.397.1913-2.1019.1873-6.635 0-9.0178-2.7574-9.0178-8.2724v-9.5309h-1.8206c-1.45 0-2.1506-.7006-2.1506-2.1506v-1.0834c0-1.222.5132-1.8207 1.8695-2.1954l2.1017-.5621z"/></g></svg>