<svg fill="none" height="38" viewBox="0 0 130 38" width="130" xmlns="http://www.w3.org/2000/svg"><g fill="#b6bdd4"><path d="m43.094 31.6126c.0178-5.5253-.1069-17.182-.1069-17.182v-.6239h4.7054s.0178.1783.0357.5704c.0534.606.1247 1.212.196 1.9963 1.1407-1.4794 2.4419-2.4062 4.1173-2.7271 3.9034-.7664 7.0582 1.4794 7.4859 5.4897.4278 3.9925.0892 8.0029.1783 12.0132.0178.4278 0 .4812 0 .4812h-5.4541s0-.3386 0-.7307c0-2.9588 0-5.9353 0-8.8941 0-.6594 0-1.3011-.1782-1.9427-.5525-2.0319-2.8696-2.7092-4.4203-1.2655-.802.7486-1.1407 1.6932-1.1407 2.7983 0 3.0835-.0178 6.9869.0178 10.0704"/><path d="m20.7788 24.1267c2.1032.0178 3.7073 1.6932 3.6895 3.8499-.0179 2.0854-1.6933 3.7252-3.743 3.7073-2.0676-.0178-3.7073-1.6932-3.7252-3.7786-.0178-2.0854 1.6933-3.7964 3.7787-3.7786z"/><path d="m72.7882 11.5075c-1.6576 0-2.7804-1.0338-2.7804-2.5666 0-1.72889 1.1228-2.92308 2.7804-2.92308 1.6398 0 2.834 1.15854 2.8518 2.7805.0179 1.63978-1.1229 2.70918-2.8518 2.70918z"/><path clip-rule="evenodd" d="m36.7666 30.9531c3.3152-1.5328 4.6341-4.4381 4.7589-7.9315.2139-5.7571-3.4934-9.6961-8.9653-9.6783-5.5075.0535-9.1792 3.7608-9.1792 9.2684 0 .1247.0178.2317.0357.3386 1.6932 1.3011 2.7983 3.3509 2.7983 5.6501 0 .3387-.0357.6595-.0713.9803.1426.303.3921.5169.7129.7308 3.1905 2.0319 6.5413 2.2101 9.91.6416zm-7.1295-11.7101c-.5347 1.0516-.7129 2.1923-.7308 3.3508.0357 1.3903.2317 2.727 1.0338 3.9034 1.3903 1.9784 3.9925 1.9071 5.1154-.2139 1.2477-2.3349 1.3011-4.7767.0891-7.1651-.5347-1.0872-1.4437-1.7289-2.6913-1.7111-1.3012.0179-2.228.6773-2.8162 1.8359z" fill-rule="evenodd"/><path clip-rule="evenodd" d="m110.521 31.0066 1.212-.3386-.82-3.7965s-.41.1426-.731.2318c-2.067.5525-4.188.802-6.309.196-1.23-.3565-2.175-1.0338-2.549-2.3527-.143-.4991-.178-.7308-.178-.7308s4.046.0178 5.703.0178c.42 0 .839-.0011 1.256-.0022 1.25-.0033 2.493-.0066 3.735.0201.535.0178.749-.1426.749-.6773 0-.3151.015-.6302.03-.9443.025-.5211.05-1.0395.005-1.551-.16-2.1032-.677-4.0995-2.174-5.6858-2.603-2.7627-7.789-2.9766-10.8906-.3743-3.03 2.5488-3.7786 5.9531-3.1726 9.6604.6238 3.8856 2.8874 6.0779 6.7372 6.7909 2.495.4634 4.973.2138 7.397-.4635zm-9.233-10.4268s2.228-.0178 3.155-.0178h3.137s.018-.0179.036-.2852c.124-1.1586-.874-2.7092-1.997-3.0835-1.996-.6595-4.188.8733-4.331 3.0122-.018.3565 0 .3743 0 .3743z" fill-rule="evenodd"/><path d="m67.4946 6h-5.2758v25.6126h5.2758z"/><path d="m75.4618 14.0028h-5.2758v17.6098h5.2758z"/><path d="m78.0284 31.6126c.0178-5.5253-.1069-17.182-.1069-17.182v-.6239h4.7054s.0178.1783.0357.5704c.0534.606.1247 1.212.196 1.9963 1.1407-1.4794 2.4419-2.4062 4.1173-2.7271 3.9034-.7664 7.0582 1.4794 7.4859 5.4897.4278 3.9925.0892 8.0029.1783 12.0132.0178.4278 0 .4812 0 .4812h-5.4541s0-.3386 0-.7307c0-2.9588 0-5.9353 0-8.8941 0-.6594 0-1.3011-.1782-1.9427-.5525-2.0319-2.8696-2.7092-4.4203-1.2655-.802.7486-1.1407 1.6932-1.1407 2.7983 0 3.0835-.0178 6.9869.0178 10.0704"/></g></svg>