<svg fill="none" height="485" viewBox="0 0 498 485" width="498" xmlns="http://www.w3.org/2000/svg" xmlns:xlink="http://www.w3.org/1999/xlink"><linearGradient id="a"><stop offset="0" stop-color="#fff"/><stop offset=".3398" stop-color="#fdfdfd"/><stop offset=".5166" stop-color="#f5f5f5"/><stop offset=".6558" stop-color="#e7e7e7"/><stop offset=".7747" stop-color="#d5d5d5"/><stop offset=".8162" stop-color="#ccc"/><stop offset=".9946" stop-color="#ccc"/></linearGradient><linearGradient id="b" gradientUnits="userSpaceOnUse" x1="344.493" x2="304.893" xlink:href="#a" y1="279.501" y2="279.501"/><linearGradient id="c"><stop offset="0"/><stop offset=".2157" stop-color="#000202"/><stop offset=".3279" stop-color="#01090a"/><stop offset=".4164" stop-color="#021518"/><stop offset=".4924" stop-color="#04272b"/><stop offset=".5605" stop-color="#063d43"/><stop offset=".6229" stop-color="#085962"/><stop offset=".6809" stop-color="#0b7a86"/><stop offset=".7354" stop-color="#0fa0b0"/><stop offset=".7854" stop-color="#12cade"/><stop offset=".8162" stop-color="#15e8ff"/><stop offset=".9946" stop-color="#ff726a"/></linearGradient><linearGradient id="d" gradientUnits="userSpaceOnUse" x1="344.493" x2="304.893" xlink:href="#c" y1="279.501" y2="279.501"/><linearGradient id="e" gradientUnits="userSpaceOnUse" x1="358.455" x2="318.855" xlink:href="#a" y1="299.82" y2="299.82"/><linearGradient id="f" gradientUnits="userSpaceOnUse" x1="358.455" x2="318.855" xlink:href="#c" y1="299.82" y2="299.82"/><linearGradient id="g" gradientUnits="userSpaceOnUse" x1="344.493" x2="304.893" xlink:href="#a" y1="309.893" y2="309.893"/><linearGradient id="h" gradientUnits="userSpaceOnUse" x1="344.493" x2="304.893" xlink:href="#c" y1="309.893" y2="309.893"/><linearGradient id="i" gradientUnits="userSpaceOnUse" x1="358.455" x2="318.855" xlink:href="#a" y1="332.386" y2="332.386"/><linearGradient id="j" gradientUnits="userSpaceOnUse" x1="358.455" x2="318.855" xlink:href="#c" y1="332.386" y2="332.386"/><linearGradient id="k" gradientUnits="userSpaceOnUse" x1="283.27" x2="140.274" xlink:href="#a" y1="70.9287" y2="70.9287"/><linearGradient id="l" gradientUnits="userSpaceOnUse" x1="283.122" x2="140.127" xlink:href="#c" y1="70.9287" y2="70.9287"/><linearGradient id="m" gradientUnits="userSpaceOnUse" x1="333.685" x2="190.691" xlink:href="#a" y1="162.316" y2="162.316"/><linearGradient id="n" gradientUnits="userSpaceOnUse" x1="333.685" x2="190.691" xlink:href="#c" y1="162.316" y2="162.316"/><linearGradient id="o" gradientUnits="userSpaceOnUse" x1="283.27" x2="140.274" xlink:href="#a" y1="207.624" y2="207.624"/><linearGradient id="p" gradientUnits="userSpaceOnUse" x1="283.27" x2="140.274" xlink:href="#c" y1="207.624" y2="207.624"/><linearGradient id="q" gradientUnits="userSpaceOnUse" x1="333.685" x2="190.691" xlink:href="#a" y1="308.806" y2="308.806"/><linearGradient id="r" gradientUnits="userSpaceOnUse" x1="333.685" x2="190.691" xlink:href="#c" y1="308.806" y2="308.806"/><linearGradient id="s"><stop offset="0" stop-color="#00d7ff"/><stop offset=".0105" stop-color="#00d4fd"/><stop offset=".3754" stop-color="#007db1"/><stop offset=".6728" stop-color="#013d79"/><stop offset=".8882" stop-color="#011557"/><stop offset="1" stop-color="#01064a"/></linearGradient><linearGradient id="t" gradientUnits="userSpaceOnUse" x1="411.139" x2="411.139" xlink:href="#s" y1="120.469" y2="394.985"/><linearGradient id="u"><stop offset="0" stop-color="#01064a"/><stop offset=".356" stop-color="#01518b"/><stop offset=".6576" stop-color="#008abc"/><stop offset=".8803" stop-color="#00addb"/><stop offset="1" stop-color="#00bae6"/></linearGradient><linearGradient id="v" gradientUnits="userSpaceOnUse" x1="400.167" x2="417.533" xlink:href="#u" y1="111.833" y2="316.346"/><linearGradient id="w"><stop offset="0" stop-color="#00d7ff"/><stop offset=".1104" stop-color="#00bfea"/><stop offset=".4193" stop-color="#0181b4"/><stop offset=".6812" stop-color="#01548d"/><stop offset=".8829" stop-color="#013875"/><stop offset="1" stop-color="#012e6c"/></linearGradient><linearGradient id="x" gradientUnits="userSpaceOnUse" x1="415.598" x2="403.283" xlink:href="#w" y1="104.51" y2="81.6814"/><linearGradient id="y"><stop offset="0" stop-color="#01064a"/><stop offset=".0852" stop-color="#011456"/><stop offset=".3667" stop-color="#003d7a"/><stop offset=".6227" stop-color="#005b94"/><stop offset=".8424" stop-color="#006da3"/><stop offset="1" stop-color="#0073a9"/></linearGradient><linearGradient id="z" gradientUnits="userSpaceOnUse" x1="347.655" x2="240.812" xlink:href="#y" y1="229.761" y2="229.761"/><linearGradient id="A"><stop offset="0" stop-color="#0073a9"/><stop offset=".00145525" stop-color="#0073a9"/><stop offset=".3235" stop-color="#004480"/><stop offset=".6088" stop-color="#012263"/><stop offset=".844" stop-color="#010d51"/><stop offset="1" stop-color="#01064a"/></linearGradient><linearGradient id="B" gradientUnits="userSpaceOnUse" x1="327.26" x2="382.206" xlink:href="#A" y1="11.3847" y2="124.352"/><linearGradient id="C"><stop offset="0" stop-color="#00d7ff"/><stop offset=".1415" stop-color="#00a3d2"/><stop offset=".2928" stop-color="#0074a9"/><stop offset=".444" stop-color="#014c87"/><stop offset=".5919" stop-color="#012e6c"/><stop offset=".7359" stop-color="#011859"/><stop offset=".874" stop-color="#010a4e"/><stop offset="1" stop-color="#01064a"/></linearGradient><linearGradient id="D" gradientUnits="userSpaceOnUse" x1="348.643" x2="240.314" xlink:href="#C" y1="229.368" y2="229.368"/><linearGradient id="E"><stop offset="0" stop-color="#011153"/><stop offset=".1659" stop-color="#011456"/><stop offset=".3097" stop-color="#011f5f"/><stop offset=".4454" stop-color="#01316f"/><stop offset=".5761" stop-color="#014a85"/><stop offset=".7032" stop-color="#016aa1"/><stop offset=".8277" stop-color="#0092c3"/><stop offset=".9477" stop-color="#00c0eb"/><stop offset="1" stop-color="#00d7ff"/></linearGradient><linearGradient id="F" gradientUnits="userSpaceOnUse" x1="449.477" x2="363.451" xlink:href="#E" y1="101.734" y2="178.272"/><linearGradient id="G" gradientUnits="userSpaceOnUse" x1="449.477" x2="363.451" xlink:href="#E" y1="134.223" y2="210.761"/><linearGradient id="H" gradientUnits="userSpaceOnUse" x1="449.477" x2="363.451" xlink:href="#E" y1="166.712" y2="243.249"/><linearGradient id="I" gradientUnits="userSpaceOnUse" x1="449.477" x2="363.451" xlink:href="#E" y1="199.2" y2="275.739"/><linearGradient id="J" gradientUnits="userSpaceOnUse" x1="449.477" x2="363.451" xlink:href="#E" y1="231.689" y2="308.226"/><linearGradient id="K" gradientUnits="userSpaceOnUse" x1="449.477" x2="363.451" xlink:href="#E" y1="264.176" y2="340.714"/><linearGradient id="L" gradientUnits="userSpaceOnUse" x1="204.219" x2="164.619" xlink:href="#a" y1="353.799" y2="353.799"/><linearGradient id="M" gradientUnits="userSpaceOnUse" x1="204.219" x2="164.619" xlink:href="#c" y1="353.799" y2="353.799"/><linearGradient id="N" gradientUnits="userSpaceOnUse" x1="218.182" x2="178.581" xlink:href="#a" y1="374.118" y2="374.118"/><linearGradient id="O" gradientUnits="userSpaceOnUse" x1="218.182" x2="178.581" xlink:href="#c" y1="374.118" y2="374.118"/><linearGradient id="P" gradientUnits="userSpaceOnUse" x1="204.219" x2="164.619" xlink:href="#a" y1="384.191" y2="384.191"/><linearGradient id="Q" gradientUnits="userSpaceOnUse" x1="204.219" x2="164.619" xlink:href="#c" y1="384.191" y2="384.191"/><linearGradient id="R" gradientUnits="userSpaceOnUse" x1="218.182" x2="178.581" xlink:href="#a" y1="406.686" y2="406.686"/><linearGradient id="S" gradientUnits="userSpaceOnUse" x1="218.182" x2="178.581" xlink:href="#c" y1="406.686" y2="406.686"/><linearGradient id="T" gradientUnits="userSpaceOnUse" x1="142.995" x2="-.000301" xlink:href="#a" y1="145.227" y2="145.227"/><linearGradient id="U" gradientUnits="userSpaceOnUse" x1="142.848" x2="-.147616" xlink:href="#c" y1="145.227" y2="145.227"/><linearGradient id="V" gradientUnits="userSpaceOnUse" x1="193.412" x2="50.417" xlink:href="#a" y1="236.614" y2="236.614"/><linearGradient id="W" gradientUnits="userSpaceOnUse" x1="193.412" x2="50.417" xlink:href="#c" y1="236.614" y2="236.614"/><linearGradient id="X" gradientUnits="userSpaceOnUse" x1="142.995" x2="-.000301" xlink:href="#a" y1="281.921" y2="281.921"/><linearGradient id="Y" gradientUnits="userSpaceOnUse" x1="142.995" x2="-.000301" xlink:href="#c" y1="281.921" y2="281.921"/><linearGradient id="Z" gradientUnits="userSpaceOnUse" x1="193.412" x2="50.417" xlink:href="#a" y1="383.104" y2="383.104"/><linearGradient id="aa" gradientUnits="userSpaceOnUse" x1="193.412" x2="50.417" xlink:href="#c" y1="383.104" y2="383.104"/><linearGradient id="ab" gradientUnits="userSpaceOnUse" x1="270.863" x2="270.863" xlink:href="#s" y1="194.767" y2="469.283"/><linearGradient id="ac" gradientUnits="userSpaceOnUse" x1="259.895" x2="277.26" xlink:href="#u" y1="186.131" y2="390.644"/><linearGradient id="ad" gradientUnits="userSpaceOnUse" x1="275.325" x2="263.008" xlink:href="#w" y1="178.808" y2="155.979"/><linearGradient id="ae" gradientUnits="userSpaceOnUse" x1="207.38" x2="100.538" xlink:href="#y" y1="304.058" y2="304.058"/><linearGradient id="af" gradientUnits="userSpaceOnUse" x1="186.985" x2="241.932" xlink:href="#A" y1="85.6824" y2="198.65"/><linearGradient id="ag" gradientUnits="userSpaceOnUse" x1="208.368" x2="100.039" xlink:href="#C" y1="303.666" y2="303.666"/><linearGradient id="ah" gradientUnits="userSpaceOnUse" x1="309.204" x2="223.177" xlink:href="#E" y1="176.032" y2="252.571"/><linearGradient id="ai" gradientUnits="userSpaceOnUse" x1="309.204" x2="223.177" xlink:href="#E" y1="208.521" y2="285.058"/><linearGradient id="aj" gradientUnits="userSpaceOnUse" x1="309.204" x2="223.177" xlink:href="#E" y1="241.009" y2="317.546"/><linearGradient id="ak" gradientUnits="userSpaceOnUse" x1="309.202" x2="223.177" xlink:href="#E" y1="273.499" y2="350.036"/><linearGradient id="al" gradientUnits="userSpaceOnUse" x1="309.202" x2="223.177" xlink:href="#E" y1="305.986" y2="382.524"/><linearGradient id="am" gradientUnits="userSpaceOnUse" x1="309.204" x2="223.177" xlink:href="#E" y1="338.474" y2="415.012"/><clipPath id="an"><path d="m0 0h498v485h-498z"/></clipPath><mask id="ao" height="25" maskUnits="userSpaceOnUse" width="41" x="304" y="267"><path d="m343.472 291.144c.352 0 .697-.178.886-.5.281-.478.115-1.089-.373-1.365l-37.562-21.281c-.488-.278-1.111-.115-1.392.363-.283.48-.117 1.092.373 1.367l37.56 21.282c.158.09.334.134.508.134z" fill="url(#b)" opacity=".4096"/></mask><mask id="ap" height="24" maskUnits="userSpaceOnUse" width="41" x="318" y="288"><path d="m357.434 311.46c.352 0 .694-.178.883-.499.284-.478.118-1.09-.372-1.365l-37.56-21.282c-.488-.278-1.111-.114-1.394.366-.281.477-.115 1.089.373 1.365l37.562 21.281c.16.09.337.134.508.134z" fill="url(#e)" opacity=".4096"/></mask><mask id="aq" height="24" maskUnits="userSpaceOnUse" width="41" x="304" y="298"><path d="m343.472 321.533c.352 0 .697-.178.886-.5.281-.477.115-1.089-.373-1.364l-37.562-21.282c-.488-.278-1.111-.114-1.392.366-.283.477-.117 1.089.373 1.364l37.56 21.282c.158.09.334.134.508.134z" fill="url(#g)" opacity=".4096"/></mask><mask id="ar" height="25" maskUnits="userSpaceOnUse" width="41" x="318" y="320"><path d="m357.434 344.028c.352 0 .694-.178.883-.499.284-.478.118-1.09-.372-1.365l-37.56-21.282c-.488-.275-1.111-.114-1.394.366-.281.478-.115 1.089.373 1.365l37.562 21.281c.16.09.337.134.508.134z" fill="url(#i)" opacity=".4096"/></mask><mask id="as" height="106" maskUnits="userSpaceOnUse" width="144" x="140" y="18"><path d="m279.582 123.292c1.27 0 2.511-.803 3.193-2.246 1.016-2.153.416-4.901-1.346-6.142l-135.627-95.7254c-1.764-1.2414-4.016-.5094-5.033 1.6433s-.417 4.9011 1.347 6.1424l135.625 95.7257c.577.402 1.213.602 1.841.602z" fill="url(#k)" opacity=".4096"/></mask><mask id="at" height="106" maskUnits="userSpaceOnUse" width="144" x="190" y="109"><path d="m329.995 214.676c1.269 0 2.511-.803 3.192-2.246 1.017-2.153.419-4.901-1.345-6.142l-135.626-95.726c-1.764-1.241-4.016-.509-5.033 1.644s-.417 4.901 1.346 6.142l135.627 95.725c.58.409 1.216.603 1.839.603z" fill="url(#m)" opacity=".4096"/></mask><mask id="au" height="105" maskUnits="userSpaceOnUse" width="144" x="140" y="155"><path d="m279.582 259.984c1.27 0 2.511-.804 3.193-2.247 1.016-2.152.416-4.901-1.346-6.141l-135.627-95.726c-1.764-1.241-4.016-.509-5.033 1.644s-.417 4.901 1.347 6.142l135.625 95.726c.577.407 1.213.602 1.841.602z" fill="url(#o)" opacity=".4096"/></mask><mask id="av" height="106" maskUnits="userSpaceOnUse" width="144" x="190" y="256"><path d="m329.995 361.169c1.269 0 2.511-.802 3.192-2.245 1.017-2.152.419-4.901-1.345-6.141l-135.626-95.726c-1.764-1.243-4.016-.509-5.033 1.643s-.417 4.901 1.346 6.142l135.627 95.725c.58.402 1.216.602 1.839.602z" fill="url(#q)" opacity=".4096"/></mask><mask id="aw" height="24" maskUnits="userSpaceOnUse" width="41" x="164" y="342"><path d="m203.198 365.441c.352 0 .695-.177.884-.499.282-.478.116-1.09-.372-1.365l-37.56-21.282c-.489-.277-1.112-.114-1.394.366-.282.478-.116 1.089.373 1.365l37.56 21.281c.159.091.335.134.509.134z" fill="url(#L)" opacity=".4096"/></mask><mask id="ax" height="24" maskUnits="userSpaceOnUse" width="41" x="178" y="362"><path d="m217.16 385.758c.351 0 .695-.178.884-.5.281-.478.115-1.089-.373-1.365l-37.56-21.281c-.488-.278-1.112-.115-1.394.365-.281.478-.115 1.09.373 1.365l37.56 21.282c.161.09.337.134.51.134z" fill="url(#N)" opacity=".4096"/></mask><mask id="ay" height="24" maskUnits="userSpaceOnUse" width="41" x="164" y="372"><path d="m203.198 395.831c.352 0 .695-.178.884-.5.282-.478.116-1.089-.372-1.365l-37.56-21.281c-.489-.278-1.112-.115-1.394.365-.282.478-.116 1.09.373 1.365l37.56 21.282c.159.09.335.134.509.134z" fill="url(#P)" opacity=".4096"/></mask><mask id="az" height="24" maskUnits="userSpaceOnUse" width="41" x="178" y="395"><path d="m217.16 418.326c.351 0 .695-.178.884-.5.281-.477.115-1.089-.373-1.364l-37.56-21.282c-.488-.275-1.112-.115-1.394.366-.281.477-.115 1.089.373 1.364l37.56 21.282c.161.09.337.134.51.134z" fill="url(#R)" opacity=".4096"/></mask><mask id="aA" height="106" maskUnits="userSpaceOnUse" width="143" x="0" y="92"><path d="m139.308 197.59c1.269 0 2.51-.804 3.192-2.246 1.017-2.152.417-4.901-1.346-6.142l-135.62642-95.7254c-1.76374-1.2415-4.01548-.5097-5.03257 1.6431-1.017092 2.1528-.4173971 4.9013 1.34635 6.1423l135.62564 95.725c.577.402 1.212.603 1.841.603z" fill="url(#T)" opacity=".4096"/></mask><mask id="aB" height="105" maskUnits="userSpaceOnUse" width="144" x="50" y="184"><path d="m189.721 288.975c1.27 0 2.511-.805 3.192-2.247 1.018-2.152.418-4.902-1.346-6.142l-135.6258-95.726c-1.7637-1.241-4.0154-.509-5.0326 1.644-1.0169 2.152-.4173 4.901 1.3464 6.142l135.626 95.724c.582.41 1.217.605 1.84.605z" fill="url(#V)" opacity=".4096"/></mask><mask id="aC" height="106" maskUnits="userSpaceOnUse" width="143" x="0" y="229"><path d="m139.308 334.282c1.269 0 2.51-.804 3.192-2.247 1.017-2.152.417-4.899-1.346-6.142l-135.62642-95.725c-1.76374-1.241-4.01548-.509-5.03257 1.644-1.017092 2.152-.4173971 4.901 1.34635 6.142l135.62564 95.726c.577.409 1.212.602 1.841.602z" fill="url(#X)" opacity=".4096"/></mask><mask id="aD" height="106" maskUnits="userSpaceOnUse" width="144" x="50" y="330"><path d="m189.721 435.469c1.27 0 2.511-.804 3.192-2.247 1.018-2.152.418-4.901-1.346-6.142l-135.6258-95.725c-1.7637-1.243-4.0154-.509-5.0326 1.643-1.0169 2.152-.4173 4.901 1.3464 6.141l135.626 95.726c.582.402 1.217.604 1.84.604z" fill="url(#Z)" opacity=".4096"/></mask><g clip-path="url(#an)"><g opacity=".8"><g mask="url(#ao)"><path d="m343.472 291.144c.352 0 .697-.178.886-.5.281-.478.115-1.089-.373-1.365l-37.562-21.281c-.488-.278-1.111-.115-1.392.363-.283.48-.117 1.092.373 1.367l37.56 21.282c.158.09.334.134.508.134z" fill="url(#d)" opacity=".64"/></g><g mask="url(#ap)"><path d="m357.434 311.46c.352 0 .694-.178.883-.499.284-.478.118-1.09-.372-1.365l-37.56-21.282c-.488-.278-1.111-.114-1.394.366-.281.477-.115 1.089.373 1.365l37.562 21.281c.16.09.337.134.508.134z" fill="url(#f)" opacity=".64"/></g><g mask="url(#aq)"><path d="m343.472 321.533c.352 0 .697-.178.886-.5.281-.477.115-1.089-.373-1.364l-37.562-21.282c-.488-.278-1.111-.114-1.392.366-.283.477-.117 1.089.373 1.364l37.56 21.282c.158.09.334.134.508.134z" fill="url(#h)" opacity=".64"/></g><g mask="url(#ar)"><path d="m357.434 344.028c.352 0 .694-.178.883-.499.284-.478.118-1.09-.372-1.365l-37.56-21.282c-.488-.275-1.111-.114-1.394.366-.281.478-.115 1.089.373 1.365l37.562 21.281c.16.09.337.134.508.134z" fill="url(#j)" opacity=".64"/></g></g><g opacity=".8"><g mask="url(#as)"><path d="m279.434 123.292c1.272 0 2.51-.803 3.192-2.246 1.019-2.153.419-4.901-1.346-6.142l-135.626-95.7254c-1.763-1.2414-4.015-.5094-5.032 1.6433s-.417 4.9011 1.346 6.1424l135.627 95.7257c.575.402 1.211.602 1.839.602z" fill="url(#l)" opacity=".64"/></g><g mask="url(#at)"><path d="m329.995 214.676c1.269 0 2.511-.803 3.192-2.246 1.017-2.153.419-4.901-1.345-6.142l-135.626-95.726c-1.764-1.241-4.016-.509-5.033 1.644s-.417 4.901 1.346 6.142l135.627 95.725c.58.409 1.216.603 1.839.603z" fill="url(#n)" opacity=".64"/></g><g mask="url(#au)"><path d="m279.582 259.984c1.27 0 2.511-.804 3.193-2.247 1.016-2.152.416-4.901-1.346-6.141l-135.627-95.726c-1.764-1.241-4.016-.509-5.033 1.644s-.417 4.901 1.347 6.142l135.625 95.726c.577.407 1.213.602 1.841.602z" fill="url(#p)" opacity=".64"/></g><g mask="url(#av)"><path d="m329.995 361.169c1.269 0 2.511-.802 3.192-2.245 1.017-2.152.419-4.901-1.345-6.141l-135.626-95.726c-1.764-1.243-4.016-.509-5.033 1.643s-.417 4.901 1.346 6.142l135.627 95.725c.58.402 1.216.602 1.839.602z" fill="url(#r)" opacity=".64"/></g></g><path d="m474.622 65.8827v261.5553l-126.97 66.202v-261.041z" fill="url(#t)"/><path d="m463.263 87.0136v214.7494l-104.246 54.356v-214.327z" fill="url(#v)"/><path d="m347.653 132.599-5.537-12.188 127.36-66.1378 5.146 11.6095z" fill="url(#x)"/><path d="m451.257 93.3235v202.5945l12.006 5.845v-214.7494z" fill="#013674"/><path d="m451.257 295.918-92.24 46.704v13.497l104.246-54.356z" fill="#008cad"/><path d="m347.652 393.64-106.841-54.847v-272.9103l101.305 54.5283 5.536 12.188z" fill="url(#z)"/><path d="m469.476 54.2732-102.527-54.2732-126.138 65.8827 101.305 54.5283z" fill="url(#B)"/><path d="m346.664 393.64h1.979v-261.222l-5.741-12.639-101.591-54.6805-.995 1.5688 101.018 54.3767 5.33 11.741z" fill="url(#D)"/><path d="m451.257 99.697-92.24 48.468v23.318l92.24-49.165z" fill="url(#F)"/><path d="m448.517 104.173v5.981l-4.996 2.614v-5.982z" fill="#0086ff"/><path d="m437.308 110.002v5.982l-4.996 2.613v-5.981z" fill="#00cfff"/><path d="m425.736 116.17v5.977l-5 2.613v-5.977z" fill="#ff85a5"/><path d="m414.522 121.999v5.977l-4.995 2.613v-5.976z" fill="#00cfff"/><path d="m403.022 127.888v5.981l-4.995 2.613v-5.981z" fill="#f8ff9c"/><path d="m391.809 133.717v5.981l-4.996 2.613v-5.981z" fill="#ff85a5"/><path d="m380.237 139.885v5.976l-4.995 2.613v-5.976z" fill="#ff85a5"/><path d="m369.028 145.714v5.976l-4.995 2.614v-5.977z" fill="#f8ff9c"/><path d="m448.517 115.209v5.982l-4.996 2.613v-5.982z" fill="#f8ff9c"/><path d="m437.308 121.038v5.982l-4.996 2.613v-5.981z" fill="#ff85a5"/><path d="m425.736 127.206v5.976l-5 2.618v-5.981z" fill="#00cfff"/><path d="m414.522 133.036v5.976l-4.995 2.613v-5.976z" fill="#ff85a5"/><path d="m403.022 138.924v5.981l-4.995 2.613v-5.981z" fill="#f8ff9c"/><path d="m391.809 144.753v5.981l-4.996 2.614v-5.982z" fill="#00cfff"/><path d="m380.237 150.921v5.976l-4.995 2.613v-5.976z" fill="#ff85a5"/><path d="m369.028 156.75v5.977l-4.995 2.613v-5.977z" fill="#ff85a5"/><path d="m451.257 132.182-92.24 48.474v23.317l92.24-49.169z" fill="url(#G)"/><path d="m448.517 136.663v5.977l-4.996 2.613v-5.976z" fill="#ff85a5"/><path d="m437.308 142.493v5.976l-4.996 2.613v-5.976z" fill="#f8ff9c"/><path d="m425.736 148.656v5.981l-5 2.613v-5.981z" fill="#ff85a5"/><path d="m414.522 154.485v5.981l-4.995 2.613v-5.981z" fill="#00cfff"/><path d="m403.022 160.378v5.976l-4.995 2.614v-5.977z" fill="#f8ff9c"/><path d="m391.809 166.207v5.977l-4.996 2.613v-5.977z" fill="#00cfff"/><path d="m380.237 172.37v5.981l-4.995 2.613v-5.981z" fill="#ff85a5"/><path d="m369.028 178.199v5.982l-4.995 2.613v-5.981z" fill="#00cfff"/><path d="m448.517 147.7v5.976l-4.996 2.613v-5.976z" fill="#f8ff9c"/><path d="m437.308 153.529v5.976l-4.996 2.613v-5.976z" fill="#ff85a5"/><path d="m425.736 159.692v5.981l-5 2.613v-5.981z" fill="#00cfff"/><path d="m414.522 165.521v5.981l-4.995 2.613v-5.981z" fill="#f8ff9c"/><path d="m403.022 171.414v5.977l-4.995 2.613v-5.977z" fill="#ff85a5"/><path d="m391.809 177.243v5.977l-4.996 2.613v-5.976z" fill="#00cfff"/><path d="m380.237 183.406v5.981l-4.995 2.614v-5.982z" fill="#f8ff9c"/><path d="m369.028 189.236v5.981l-4.995 2.613v-5.981z" fill="#f8ff9c"/><path d="m451.257 164.673-92.24 48.473v23.312l92.24-49.164z" fill="url(#H)"/><path d="m448.517 169.149v5.981l-4.996 2.613v-5.981z" fill="#f8ff9c"/><path d="m437.308 174.978v5.982l-4.996 2.613v-5.982z" fill="#00cfff"/><path d="m425.736 181.146v5.981l-5 2.614v-5.982z" fill="#ff85a5"/><path d="m414.522 186.975v5.982l-4.995 2.613v-5.982z" fill="#f8ff9c"/><path d="m403.022 192.864v5.981l-4.995 2.613v-5.982z" fill="#f8ff9c"/><path d="m391.809 198.693v5.981l-4.996 2.613v-5.981z" fill="#00cfff"/><g fill="#f8ff9c"><path d="m380.237 204.86v5.977l-4.995 2.618v-5.982z"/><path d="m369.028 210.69v5.976l-4.995 2.613v-5.976z"/><path d="m448.517 180.185v5.981l-4.996 2.614v-5.982z"/><path d="m437.308 186.014v5.982l-4.996 2.613v-5.982z"/><path d="m425.736 192.182v5.981l-5 2.614v-5.982z"/></g><path d="m414.522 198.011v5.982l-4.995 2.613v-5.981z" fill="#ff85a5"/><path d="m403.022 203.9v5.981l-4.995 2.613v-5.981z" fill="#f8ff9c"/><path d="m391.809 209.729v5.981l-4.996 2.613v-5.981z" fill="#f8ff9c"/><path d="m380.237 215.897v5.981l-4.995 2.613v-5.981z" fill="#ff85a5"/><path d="m369.028 221.726v5.976l-4.995 2.618v-5.981z" fill="#ff85a5"/><path d="m451.257 197.163-92.24 48.469v23.316l92.24-49.168z" fill="url(#I)"/><path d="m448.517 201.639v5.982l-4.996 2.613v-5.981z" fill="#ff85a5"/><path d="m437.308 207.469v5.981l-4.996 2.613v-5.981z" fill="#ff85a5"/><path d="m425.736 213.636v5.977l-5 2.613v-5.976z" fill="#ff85a5"/><path d="m414.522 219.466v5.976l-4.995 2.613v-5.976z" fill="#ff85a5"/><path d="m403.022 225.354v5.981l-4.995 2.613v-5.981z" fill="#f8ff9c"/><path d="m391.809 231.183v5.977l-4.996 2.613v-5.977z" fill="#00cfff"/><path d="m380.237 237.346v5.981l-4.995 2.614v-5.982z" fill="#00cfff"/><path d="m369.028 243.175v5.981l-4.995 2.613v-5.981z" fill="#ff85a5"/><path d="m448.517 212.675v5.982l-4.996 2.613v-5.981z" fill="#f8ff9c"/><path d="m437.308 218.505v5.981l-4.996 2.613v-5.981z" fill="#ff85a5"/><path d="m425.736 224.672v5.977l-5 2.613v-5.976z" fill="#00cfff"/><path d="m414.522 230.502v5.976l-4.995 2.613v-5.976z" fill="#ff85a5"/><path d="m403.022 236.39v5.981l-4.995 2.612v-5.98z" fill="#00cfff"/><path d="m391.809 242.219v5.977l-4.996 2.617v-5.981z" fill="#00cfff"/><path d="m380.237 248.381v5.983l-4.995 2.613v-5.981z" fill="#ff85a5"/><path d="m369.028 254.211v5.981l-4.995 2.615v-5.984z" fill="#ff85a5"/><path d="m451.257 229.649-92.24 48.473v23.312l92.24-49.163z" fill="url(#J)"/><path d="m448.517 234.13v5.976l-4.996 2.613v-5.976z" fill="#0086ff"/><path d="m437.308 239.959v5.977l-4.996 2.613v-5.977z" fill="#00cfff"/><path d="m425.736 246.122v5.981l-5 2.612v-5.981z" fill="#00cfff"/><path d="m414.522 251.951v5.981l-4.995 2.613v-5.981z" fill="#00cfff"/><path d="m403.022 257.84v5.981l-4.995 2.612v-5.981z" fill="#00cfff"/><path d="m391.809 263.669v5.981l-4.996 2.613v-5.981z" fill="#ff85a5"/><path d="m380.237 269.835v5.981l-4.995 2.615v-5.98z" fill="#ff85a5"/><path d="m369.028 275.665v5.981l-4.995 2.615v-5.983z" fill="#ff85a5"/><path d="m448.517 245.166v5.976l-4.996 2.613v-5.976z" fill="#00cfff"/><path d="m437.308 250.996v5.976l-4.996 2.613v-5.976z" fill="#00cfff"/><path d="m425.736 257.157v5.981l-5 2.615v-5.983z" fill="#00cfff"/><path d="m414.522 262.987v5.981l-4.995 2.613v-5.981z" fill="#ff85a5"/><path d="m403.022 268.875v5.981l-4.995 2.613v-5.976z" fill="#f8ff9c"/><path d="m391.809 274.705v5.981l-4.996 2.612v-5.98z" fill="#00cfff"/><path d="m380.237 280.874v5.98l-4.995 2.613v-5.981z" fill="#ff85a5"/><path d="m369.028 286.701v5.983l-4.995 2.613v-5.981z" fill="#ff85a5"/><path d="m451.257 262.139-92.24 48.468v23.317l92.24-49.163z" fill="url(#K)"/><path d="m448.517 266.616v5.981l-4.996 2.612v-5.98z" fill="#f8ff9c"/><path d="m437.308 272.446v5.981l-4.996 2.612v-5.981z" fill="#00cfff"/><path d="m425.736 278.612v5.981l-5 2.615v-5.984z" fill="#ff85a5"/><path d="m414.522 284.442v5.976l-4.995 2.617v-5.981z" fill="#00cfff"/><path d="m403.022 290.33v5.981l-4.995 2.612v-5.981z" fill="#00cfff"/><path d="m391.809 296.16v5.98l-4.996 2.613v-5.981z" fill="#ff85a5"/><path d="m380.237 302.326v5.978l-4.995 2.613v-5.976z" fill="#ff85a5"/><path d="m369.028 308.155v5.976l-4.995 2.615v-5.978z" fill="#00cfff"/><path d="m448.517 277.652v5.98l-4.996 2.613v-5.981z" fill="#f8ff9c"/><path d="m437.308 283.481v5.981l-4.996 2.613v-5.981z" fill="#ff85a5"/><path d="m425.736 289.647v5.984l-5 2.612v-5.981z" fill="#00cfff"/><path d="m414.522 295.477v5.976l-4.995 2.62v-5.983z" fill="#ff85a5"/><path d="m403.022 301.365v5.981l-4.995 2.615v-5.983z" fill="#f8ff9c"/><path d="m391.809 307.195v5.981l-4.996 2.613v-5.981z" fill="#00cfff"/><path d="m380.237 313.364v5.976l-4.995 2.612v-5.976z" fill="#00cfff"/><path d="m369.028 319.191v5.978l-4.995 2.613v-5.976z" fill="#ff85a5"/><g opacity=".8"><g mask="url(#aw)"><path d="m203.198 365.441c.352 0 .695-.177.884-.499.282-.478.116-1.09-.372-1.365l-37.56-21.282c-.489-.277-1.112-.114-1.394.366-.282.478-.116 1.089.373 1.365l37.56 21.281c.159.091.335.134.509.134z" fill="url(#M)" opacity=".64"/></g><g mask="url(#ax)"><path d="m217.16 385.758c.351 0 .695-.178.884-.5.281-.478.115-1.089-.373-1.365l-37.56-21.281c-.488-.278-1.112-.115-1.394.365-.281.478-.115 1.09.373 1.365l37.56 21.282c.161.09.337.134.51.134z" fill="url(#O)" opacity=".64"/></g><g mask="url(#ay)"><path d="m203.198 395.831c.352 0 .695-.178.884-.5.282-.478.116-1.089-.372-1.365l-37.56-21.281c-.489-.278-1.112-.115-1.394.365-.282.478-.116 1.09.373 1.365l37.56 21.282c.159.09.335.134.509.134z" fill="url(#Q)" opacity=".64"/></g><g mask="url(#az)"><path d="m217.16 418.326c.351 0 .695-.178.884-.5.281-.477.115-1.089-.373-1.364l-37.56-21.282c-.488-.275-1.112-.115-1.394.366-.281.477-.115 1.089.373 1.364l37.56 21.282c.161.09.337.134.51.134z" fill="url(#S)" opacity=".64"/></g></g><g opacity=".8"><g mask="url(#aA)"><path d="m139.16 197.59c1.27 0 2.511-.804 3.193-2.246 1.017-2.152.417-4.901-1.347-6.142l-135.62573-95.7254c-1.76373-1.2415-4.01549-.5097-5.032584 1.6431-1.017092 2.1528-.417396 4.9013 1.346344 6.1423l135.62597 95.725c.576.402 1.211.603 1.84.603z" fill="url(#U)" opacity=".64"/></g><g mask="url(#aB)"><path d="m189.721 288.975c1.27 0 2.511-.805 3.192-2.247 1.018-2.152.418-4.902-1.346-6.142l-135.6258-95.726c-1.7637-1.241-4.0154-.509-5.0326 1.644-1.0169 2.152-.4173 4.901 1.3464 6.142l135.626 95.724c.582.41 1.217.605 1.84.605z" fill="url(#W)" opacity=".64"/></g><g mask="url(#aC)"><path d="m139.308 334.282c1.269 0 2.51-.804 3.192-2.247 1.017-2.152.417-4.899-1.346-6.142l-135.62642-95.725c-1.76374-1.241-4.01548-.509-5.03257 1.644-1.017092 2.152-.4173971 4.901 1.34635 6.142l135.62564 95.726c.577.409 1.212.602 1.841.602z" fill="url(#Y)" opacity=".64"/></g><g mask="url(#aD)"><path d="m189.721 435.469c1.27 0 2.511-.804 3.192-2.247 1.018-2.152.418-4.901-1.346-6.142l-135.6258-95.725c-1.7637-1.243-4.0154-.509-5.0326 1.643-1.0169 2.152-.4173 4.901 1.3464 6.141l135.626 95.726c.582.402 1.217.604 1.84.604z" fill="url(#aa)" opacity=".64"/></g></g><path d="m334.347 140.181v261.555l-126.968 66.201v-261.04z" fill="url(#ab)"/><path d="m322.99 161.311v214.749l-104.248 54.357v-214.327z" fill="url(#ac)"/><path d="m207.379 206.897-5.538-12.188 127.363-66.138 5.143 11.61z" fill="url(#ad)"/><path d="m310.982 167.621v202.595l12.008 5.844v-214.749z" fill="#013674"/><path d="m310.982 370.216-92.24 46.704v13.497l104.248-54.357z" fill="#008cad"/><path d="m207.379 467.937-106.843-54.846v-272.91l101.305 54.528 5.538 12.188z" fill="url(#ae)"/><path d="m329.204 128.571-102.53-54.2731-126.138 65.8831 101.305 54.528z" fill="url(#af)"/><path d="m206.39 467.937h1.979v-261.221l-5.74-12.639-101.592-54.681-.995 1.569 101.017 54.376 5.331 11.742z" fill="url(#ag)"/><path d="m310.982 173.995-92.24 48.468v23.317l92.24-49.164z" fill="url(#ah)"/><path d="m308.242 178.471v5.981l-4.996 2.613v-5.981z" fill="#0086ff"/><path d="m297.033 184.3v5.982l-4.996 2.613v-5.982z" fill="#00cfff"/><path d="m285.464 190.468v5.976l-5.001 2.614v-5.977z" fill="#ff85a5"/><path d="m274.25 196.297v5.977l-4.995 2.613v-5.977z" fill="#00cfff"/><path d="m262.747 202.186v5.981l-4.995 2.613v-5.981z" fill="#f8ff9c"/><path d="m251.533 208.015v5.981l-4.995 2.613v-5.981z" fill="#ff85a5"/><path d="m239.963 214.183v5.976l-4.995 2.613v-5.976z" fill="#ff85a5"/><path d="m228.754 220.012v5.976l-4.995 2.613v-5.976z" fill="#f8ff9c"/><path d="m308.242 189.507v5.981l-4.996 2.614v-5.982z" fill="#f8ff9c"/><path d="m297.033 195.336v5.982l-4.996 2.613v-5.982z" fill="#ff85a5"/><path d="m285.464 201.504v5.976l-5.001 2.619v-5.982z" fill="#00cfff"/><path d="m274.25 207.333v5.977l-4.995 2.613v-5.976z" fill="#ff85a5"/><path d="m262.747 213.222v5.981l-4.995 2.613v-5.981z" fill="#f8ff9c"/><path d="m251.533 219.051v5.981l-4.995 2.613v-5.981z" fill="#00cfff"/><path d="m239.963 225.218v5.977l-4.995 2.613v-5.976z" fill="#ff85a5"/><path d="m228.754 231.048v5.976l-4.995 2.614v-5.977z" fill="#ff85a5"/><path d="m310.982 206.48-92.24 48.474v23.317l92.24-49.169z" fill="url(#ai)"/><path d="m308.242 210.961v5.977l-4.996 2.613v-5.977z" fill="#ff85a5"/><path d="m297.033 216.791v5.976l-4.996 2.613v-5.976z" fill="#f8ff9c"/><path d="m285.464 222.954v5.981l-5.001 2.613v-5.981z" fill="#ff85a5"/><path d="m274.25 228.783v5.981l-4.995 2.613v-5.981z" fill="#00cfff"/><path d="m262.747 234.676v5.976l-4.995 2.614v-5.977z" fill="#f8ff9c"/><path d="m251.533 240.505v5.977l-4.995 2.613v-5.977z" fill="#00cfff"/><path d="m239.963 246.668v5.98l-4.995 2.616v-5.984z" fill="#ff85a5"/><path d="m228.754 252.497v5.981l-4.995 2.613v-5.981z" fill="#00cfff"/><path d="m308.242 221.997v5.977l-4.996 2.613v-5.976z" fill="#f8ff9c"/><path d="m297.033 227.827v5.976l-4.996 2.613v-5.976z" fill="#ff85a5"/><path d="m285.464 233.99v5.981l-5.001 2.613v-5.981z" fill="#00cfff"/><path d="m274.25 239.819v5.981l-4.995 2.613v-5.981z" fill="#f8ff9c"/><path d="m262.747 245.712v5.976l-4.995 2.613v-5.976z" fill="#ff85a5"/><path d="m251.533 251.542v5.976l-4.995 2.613v-5.976z" fill="#00cfff"/><path d="m239.963 257.703v5.983l-4.995 2.613v-5.981z" fill="#f8ff9c"/><path d="m228.754 263.533v5.981l-4.995 2.615v-5.983z" fill="#f8ff9c"/><path d="m310.982 238.971-92.24 48.473v23.312l92.24-49.163z" fill="url(#aj)"/><path d="m308.242 243.447v5.982l-4.996 2.613v-5.981z" fill="#f8ff9c"/><path d="m297.033 249.275v5.984l-4.996 2.612v-5.981z" fill="#00cfff"/><path d="m285.464 255.444v5.981l-5.001 2.612v-5.98z" fill="#ff85a5"/><path d="m274.25 261.274v5.98l-4.995 2.613v-5.981z" fill="#f8ff9c"/><path d="m262.747 267.162v5.981l-4.995 2.612v-5.98z" fill="#f8ff9c"/><path d="m251.533 272.992v5.98l-4.995 2.613v-5.981z" fill="#00cfff"/><g fill="#f8ff9c"><path d="m239.963 279.158v5.976l-4.995 2.62v-5.984z"/><path d="m228.754 284.987v5.976l-4.995 2.613v-5.976z"/><path d="m308.242 254.484v5.98l-4.996 2.613v-5.981z"/><path d="m297.033 260.313v5.981l-4.996 2.613v-5.981z"/><path d="m285.464 266.479v5.981l-5.001 2.615v-5.983z"/></g><path d="m274.25 272.309v5.981l-4.995 2.613v-5.981z" fill="#ff85a5"/><path d="m262.747 278.197v5.981l-4.995 2.613v-5.981z" fill="#f8ff9c"/><path d="m251.533 284.027v5.981l-4.995 2.613v-5.981z" fill="#f8ff9c"/><path d="m239.963 290.193v5.984l-4.995 2.612v-5.981z" fill="#ff85a5"/><path d="m228.754 296.023v5.976l-4.995 2.62v-5.983z" fill="#ff85a5"/><path d="m310.982 271.461-92.24 48.468v23.317l92.24-49.168z" fill="url(#ak)"/><path d="m308.242 275.938v5.981l-4.996 2.613v-5.981z" fill="#ff85a5"/><path d="m297.033 281.766v5.983l-4.996 2.612v-5.98z" fill="#ff85a5"/><path d="m285.464 287.934v5.976l-5.001 2.613v-5.976z" fill="#ff85a5"/><path d="m274.25 293.764v5.976l-4.995 2.612v-5.976z" fill="#ff85a5"/><path d="m262.747 299.652v5.981l-4.995 2.613v-5.981z" fill="#f8ff9c"/><path d="m251.533 305.482v5.976l-4.995 2.612v-5.976z" fill="#00cfff"/><path d="m239.963 311.643v5.983l-4.995 2.613v-5.981z" fill="#00cfff"/><path d="m228.754 317.473v5.981l-4.995 2.615v-5.984z" fill="#ff85a5"/><path d="m308.242 286.974v5.981l-4.996 2.612v-5.981z" fill="#f8ff9c"/><path d="m297.033 292.803v5.981l-4.996 2.613v-5.981z" fill="#ff85a5"/><path d="m285.464 298.97v5.976l-5.001 2.615v-5.979z" fill="#00cfff"/><path d="m274.25 304.799v5.976l-4.995 2.615v-5.978z" fill="#ff85a5"/><path d="m262.747 310.688v5.98l-4.995 2.613v-5.981z" fill="#00cfff"/><path d="m251.533 316.517v5.976l-4.995 2.618v-5.981z" fill="#00cfff"/><path d="m239.963 322.681v5.981l-4.995 2.612v-5.98z" fill="#ff85a5"/><path d="m228.754 328.508v5.984l-4.995 2.612v-5.981z" fill="#ff85a5"/><path d="m310.982 303.946-92.24 48.474v23.311l92.24-49.163z" fill="url(#al)"/><path d="m308.242 308.428v5.976l-4.996 2.613v-5.976z" fill="#0086ff"/><path d="m297.033 314.258v5.976l-4.996 2.613v-5.976z" fill="#00cfff"/><path d="m285.464 320.419v5.981l-5.001 2.615v-5.983z" fill="#00cfff"/><path d="m274.25 326.249v5.981l-4.995 2.613v-5.981z" fill="#00cfff"/><path d="m262.747 332.137v5.981l-4.995 2.613v-5.981z" fill="#00cfff"/><path d="m251.533 337.967v5.981l-4.995 2.613v-5.981z" fill="#ff85a5"/><path d="m239.963 344.133v5.983l-4.995 2.613v-5.981z" fill="#ff85a5"/><path d="m228.754 349.963v5.981l-4.995 2.615v-5.984z" fill="#ff85a5"/><path d="m308.242 319.464v5.976l-4.996 2.613v-5.976z" fill="#00cfff"/><path d="m297.033 325.294v5.976l-4.996 2.612v-5.976z" fill="#00cfff"/><path d="m285.464 331.455v5.981l-5.001 2.615v-5.981z" fill="#00cfff"/><path d="m274.25 337.285v5.98l-4.995 2.616v-5.984z" fill="#ff85a5"/><path d="m262.747 343.173v5.981l-4.995 2.615v-5.979z" fill="#f8ff9c"/><path d="m251.533 349.003v5.98l-4.995 2.613v-5.981z" fill="#00cfff"/><path d="m239.963 355.171v5.981l-4.995 2.613v-5.981z" fill="#ff85a5"/><path d="m228.754 360.998v5.984l-4.995 2.612v-5.98z" fill="#ff85a5"/><path d="m310.982 336.436-92.24 48.469v23.319l92.24-49.166z" fill="url(#am)"/><path d="m308.242 340.914v5.98l-4.996 2.613v-5.981z" fill="#f8ff9c"/><path d="m297.033 346.743v5.981l-4.996 2.613v-5.981z" fill="#00cfff"/><path d="m285.464 352.909v5.981l-5.001 2.615v-5.983z" fill="#ff85a5"/><path d="m274.25 358.739v5.976l-4.995 2.618v-5.981z" fill="#00cfff"/><path d="m262.747 364.627v5.981l-4.995 2.613v-5.981z" fill="#00cfff"/><path d="m251.533 370.457v5.981l-4.995 2.613v-5.981z" fill="#ff85a5"/><path d="m239.963 376.626v5.976l-4.995 2.612v-5.976z" fill="#ff85a5"/><path d="m228.754 382.453v5.978l-4.995 2.613v-5.976z" fill="#00cfff"/><path d="m308.242 351.949v5.981l-4.996 2.613v-5.981z" fill="#f8ff9c"/><path d="m297.033 357.779v5.981l-4.996 2.612v-5.98z" fill="#ff85a5"/><path d="m285.464 363.945v5.983l-5.001 2.613v-5.981z" fill="#00cfff"/><path d="m274.25 369.775v5.976l-4.995 2.62v-5.984z" fill="#ff85a5"/><path d="m262.747 375.663v5.981l-4.995 2.615v-5.983z" fill="#f8ff9c"/><path d="m251.533 381.493v5.981l-4.995 2.612v-5.981z" fill="#00cfff"/><path d="m239.963 387.661v5.976l-4.995 2.613v-5.976z" fill="#00cfff"/><path d="m228.754 393.491v5.976l-4.995 2.613v-5.976z" fill="#ff85a5"/><path d="m375.495 466.931-4.306-.227c-2.929.429-5.769.714-8.522.868l4.548.197c2.669-.146 5.432-.424 8.28-.838z" fill="#1f587f"/><path d="m367.21 467.766-4.549-.199c-2.653.148-5.227.165-7.725.07l4.755.183c2.429.102 4.939.082 7.519-.054z" fill="#1e557a"/><path d="m398.604 480.425-4.316-4.087c-1.409.207-2.799.378-4.173.517l4.194 4.107c1.409-.144 2.842-.325 4.295-.537z" fill="#2871a3"/><path d="m394.309 480.962-4.194-4.107c-1.555.158-3.077.273-4.579.346l4.066 4.121c1.537-.078 3.108-.2 4.707-.36z" fill="#276e9e"/><path d="m389.597 481.317-4.066-4.118c-1.537.073-3.057.104-4.541.09l3.936 4.131c1.532.012 3.087-.025 4.671-.103z" fill="#256b9a"/><path d="m384.931 481.425-3.935-4.131c-1.594-.013-3.154-.073-4.687-.181l3.805 4.136c1.574.105 3.175.161 4.817.176z" fill="#246895"/><path d="m469.775 243.644-2.452-4.868c-.015 1.445-.064 5.04-.337 10.378l2.467 3.709c.268-5.052.304-8.267.322-9.219z" fill="#1f587f"/><path d="m469.448 252.858-2.467-3.707c-.355 6.839-1.088 16.549-2.638 28.276l2.487 2.92c1.54-11.562 2.268-21.026 2.618-27.489z" fill="#205b83"/><path d="m466.835 280.347-2.487-2.92c-1.073 8.131-2.541 17.229-4.541 27.021l2.518 2.642c1.985-9.719 3.443-18.734 4.51-26.743z" fill="#215e88"/><path d="m462.325 307.09-2.518-2.642c-1.412 6.895-3.085 14.134-5.074 21.613-.138.527-.284 1.058-.422 1.585l2.552 2.483c.145-.526.283-1.048.424-1.569 1.971-7.436 3.634-14.629 5.038-21.47z" fill="#22618c"/><path d="m456.863 330.129-2.552-2.483c-1.792 6.614-3.83 13.416-6.157 20.335l2.618 2.291c2.293-6.848 4.316-13.587 6.091-20.143z" fill="#236491"/><path d="m450.767 350.267-2.618-2.29c-1.984 5.907-4.176 11.903-6.599 17.935l2.697 2.093c2.39-5.959 4.556-11.883 6.52-17.738z" fill="#246895"/><path d="m444.247 368.01-2.697-2.093c-2.199 5.469-4.587 10.967-7.177 16.468l2.81 1.884c2.548-5.428 4.901-10.86 7.064-16.259z" fill="#256b9a"/><path d="m437.183 384.269-2.81-1.884c-2.513 5.34-5.227 10.677-8.144 15.985l2.955 1.653c2.863-5.223 5.521-10.49 7.999-15.754z" fill="#276e9e"/><path d="m429.179 400.023-2.955-1.653c-3.276 5.949-6.811 11.867-10.639 17.699l3.169 1.365c3.749-5.73 7.212-11.548 10.425-17.411z" fill="#2871a3"/><path d="m418.759 417.434-3.169-1.365c-10.198 15.561-22.428 30.545-37.105 44.159l4.096.405c14.269-13.241 26.2-27.911 36.178-43.199z" fill="#2974a7"/><path d="m382.581 460.633-4.096-.405c-2.37 2.194-4.799 4.356-7.296 6.476l4.306.227c2.423-2.062 4.788-4.163 7.086-6.298z" fill="#2871a3"/><path d="m394.288 476.338-18.793-9.407c-.506.073-1.009.141-1.507.207l18.794 9.407c.498-.063 1.001-.134 1.506-.207z" fill="#246895"/><path d="m392.782 476.545-18.794-9.407c-1.813.234-3.594.414-5.335.541l18.794 9.407c1.741-.124 3.516-.304 5.335-.541z" fill="#236491"/><path d="m387.447 477.086-18.794-9.407c-1.862.134-3.685.197-5.471.207l18.794 9.408c1.78-.008 3.604-.078 5.471-.208z" fill="#22618c"/><path d="m381.971 477.294-18.794-9.408c-1.935.01-3.823-.056-5.667-.185l18.794 9.41c1.844.129 3.736.192 5.667.183z" fill="#215e88"/><path d="m376.304 477.111-18.794-9.41c-2.066-.149-4.076-.378-6.04-.687l18.797 9.407c1.961.314 3.971.546 6.037.69z" fill="#205b83"/><path d="m370.272 476.421-18.794-9.407c-2.306-.366-4.533-.846-6.693-1.429l18.793 9.41c2.156.58 4.388 1.061 6.694 1.426z" fill="#1f587f"/><path d="m363.578 474.995-18.793-9.41c-2.976-.804-5.813-1.806-8.52-2.983l18.794 9.408c2.707 1.179 5.544 2.181 8.519 2.985z" fill="#1e557a"/><path d="m355.059 472.01-18.794-9.408c-1.004-.434-1.99-.897-2.955-1.382l18.794 9.41c.97.485 1.951.946 2.955 1.38z" fill="#1d5276"/><path d="m476.755 233.478-6.176.549-5.031 2.398 4.344.318z" fill="#266d9d"/><path d="m488.569 253.053-18.794-9.409c-.005.384-.018 1.127-.044 2.202l18.794 9.41c.028-1.082.038-1.825.044-2.203z" fill="#236491"/><path d="m488.525 255.256-18.794-9.41c-.063 2.569-.224 7.036-.663 13.027l18.793 9.408c.439-5.991.6-10.456.664-13.025z" fill="#246895"/><path d="m487.861 268.281-18.794-9.408c-.334 4.562-.832 10.005-1.56 16.166l18.794 9.41c.728-6.164 1.226-11.608 1.56-16.168z" fill="#256b9a"/><path d="m486.301 284.449-18.794-9.41c-.595 5.02-1.351 10.514-2.306 16.397l18.794 9.41c.947-5.886 1.706-11.377 2.306-16.397z" fill="#276e9e"/><path d="m483.99 300.846-18.794-9.41c-.805 4.962-1.755 10.195-2.871 15.649l18.794 9.41c1.116-5.461 2.066-10.694 2.871-15.649z" fill="#2871a3"/><path d="m481.119 316.491-18.794-9.41c-.97 4.752-2.068 9.668-3.312 14.72l18.794 9.41c1.243-5.05 2.342-9.968 3.312-14.72z" fill="#2974a7"/><path d="m477.807 331.211-18.794-9.41c-.547 2.228-1.126 4.482-1.726 6.758-.613 2.296-1.249 4.614-1.926 6.951l18.794 9.41c.671-2.337 1.315-4.657 1.925-6.953.606-2.276 1.18-4.531 1.727-6.756z" fill="#2a77ac"/><path d="m474.155 344.915-18.794-9.41c-1.205 4.2-2.516 8.462-3.93 12.771l18.793 9.41c1.415-4.309 2.725-8.571 3.931-12.771z" fill="#2b7ab0"/><path d="m470.224 357.691-18.793-9.41c-1.313 3.992-2.718 8.019-4.224 12.074l18.793 9.41c1.507-4.06 2.912-8.089 4.224-12.074z" fill="#2c7eb5"/><path d="m466 369.76-18.793-9.407c-1.423 3.824-2.935 7.674-4.544 11.532l18.794 9.408c1.609-3.856 3.121-7.704 4.543-11.533z" fill="#2d81b9"/><path d="m461.457 381.293-18.794-9.408c-1.537 3.695-3.169 7.405-4.885 11.109l18.796 9.408c1.721-3.705 3.346-7.409 4.883-11.109z" fill="#2e84be"/><path d="m456.574 392.406-18.796-9.407c-1.693 3.653-3.479 7.307-5.361 10.945l18.794 9.41c1.882-3.638 3.667-7.294 5.363-10.948z" fill="#2f87c2"/><path d="m451.211 403.354-18.794-9.41c-1.93 3.739-3.958 7.465-6.091 11.165l18.794 9.41c2.133-3.7 4.16-7.429 6.091-11.165z" fill="#308ac7"/><path d="m445.12 414.519-18.794-9.41c-2.413 4.185-4.959 8.347-7.651 12.456l18.794 9.41c2.691-4.111 5.238-8.266 7.651-12.456z" fill="#328dcb"/><path d="m437.469 426.975-18.794-9.41c-10.049 15.369-22.07 30.112-36.456 43.407l18.794 9.407c14.385-13.287 26.411-28.032 36.456-43.404z" fill="#3390d0"/><path d="m401.013 470.379-18.794-9.407c-2.189 2.018-4.431 4.004-6.724 5.959l18.793 9.407c2.294-1.949 4.536-3.936 6.725-5.959z" fill="#328dcb"/><path d="m494.739 252.5-6.17.553c-.011.795-.039 3.163-.205 6.851l6.16.451c.169-3.958.199-6.656.215-7.855z" fill="#2871a3"/><path d="m494.519 260.355-6.16-.451c-.15 3.339-.413 7.758-.878 13.08l6.149 1.048c.473-5.478.733-10.092.889-13.677z" fill="#2974a7"/><path d="m493.63 274.032-6.149-1.048c-.376 4.273-.876 9.128-1.556 14.463l6.135 1.362c.684-5.423 1.195-10.38 1.57-14.777z" fill="#2a77ac"/><path d="m492.065 288.804-6.134-1.362c-.575 4.499-1.267 9.344-2.112 14.469l6.121 1.548c.848-5.182 1.55-10.083 2.125-14.655z" fill="#2b7ab0"/><path d="m489.935 303.459-6.124-1.548c-.723 4.395-1.566 8.998-2.531 13.775l6.104 1.667c.975-4.808 1.823-9.454 2.551-13.894z" fill="#2c7eb5"/><path d="m487.389 317.358-6.101-1.667c-.833 4.112-1.76 8.35-2.794 12.693l6.086 1.755c1.039-4.375 1.971-8.642 2.809-12.781z" fill="#2d81b9"/><path d="m484.58 330.139-6.086-1.755c-.746 3.142-1.55 6.342-2.414 9.583-.161.602-.321 1.202-.482 1.804l6.07 1.832c.166-.604.327-1.216.488-1.815.863-3.271 1.673-6.486 2.424-9.649z" fill="#2e84be"/><path d="m481.663 341.603-6.071-1.832c-.886 3.251-1.828 6.548-2.837 9.882l6.043 1.928c1.019-3.368 1.974-6.697 2.865-9.978z" fill="#2f87c2"/><path d="m478.803 351.576-6.043-1.928c-.853 2.828-1.752 5.679-2.702 8.55l6.012 2.011c.958-2.896 1.87-5.779 2.733-8.633z" fill="#308ac7"/><path d="m476.07 360.214-6.012-2.011c-.794 2.408-1.624 4.828-2.492 7.258l5.984 2.086c.873-2.457 1.716-4.903 2.52-7.333z" fill="#328dcb"/><path d="m473.549 367.547-5.983-2.086c-.731 2.04-1.481 4.092-2.258 6.146l5.956 2.157c.789-2.079 1.55-4.153 2.285-6.217z" fill="#3390d0"/><path d="m471.264 373.764-5.956-2.157c-.666 1.76-1.351 3.525-2.053 5.289l5.925 2.218c.712-1.789 1.41-3.57 2.084-5.35z" fill="#3494d4"/><path d="m469.18 379.114-5.925-2.218c-.633 1.579-1.277 3.164-1.941 4.748l5.897 2.279c.677-1.609 1.33-3.205 1.969-4.809z" fill="#3597d9"/><path d="m467.211 383.923-5.897-2.279c-.575 1.377-1.165 2.754-1.765 4.136l5.872 2.327c.61-1.394 1.205-2.79 1.79-4.184z" fill="#369add"/><path d="m465.426 388.107-5.872-2.327c-.541 1.238-1.087 2.478-1.652 3.721l5.846 2.379c.567-1.26 1.126-2.518 1.678-3.773z" fill="#379de2"/><path d="m463.748 391.875-5.846-2.379c-.508 1.134-1.029 2.269-1.56 3.4l5.822 2.42c.537-1.14 1.063-2.291 1.584-3.441z" fill="#4fa9e5"/><path d="m462.159 395.321-5.822-2.42c-.493 1.053-.991 2.111-1.502 3.164l5.797 2.466c.521-1.065 1.029-2.137 1.527-3.21z" fill="#59aee7"/><path d="m460.637 398.531-5.797-2.466c-.455.953-.917 1.898-1.387 2.846l5.769 2.503c.483-.955.953-1.92 1.415-2.883z" fill="#61b1e8"/><path d="m459.228 401.419-5.77-2.503c-.467.946-.945 1.899-1.427 2.844l5.749 2.545c.487-.965.97-1.926 1.448-2.886z" fill="#67b5e9"/><path d="m457.774 404.3-5.748-2.545c-.424.836-.853 1.672-1.287 2.503l5.72 2.584c.447-.841.886-1.692 1.315-2.542z" fill="#6db7ea"/><path d="m456.459 406.847-5.72-2.584c-.43.819-.859 1.636-1.293 2.455l5.7 2.617c.44-.826.879-1.657 1.313-2.488z" fill="#72baeb"/><path d="m455.146 409.335-5.7-2.617c-.434.816-.878 1.635-1.323 2.447l5.672 2.656c.455-.826.907-1.655 1.351-2.486z" fill="#76bceb"/><path d="m453.795 411.826-5.672-2.657c-.408.749-.822 1.492-1.238 2.24l5.644 2.693c.429-.763.848-1.518 1.266-2.276z" fill="#7bbeec"/><path d="m452.536 414.097-5.646-2.693c-.414.741-.833 1.48-1.257 2.218l5.627 2.725c.429-.748.853-1.497 1.276-2.25z" fill="#7fc0ec"/><path d="m451.26 416.352-5.627-2.725c-.421.738-.845 1.477-1.274 2.213l5.598 2.761c.434-.753.868-1.501 1.303-2.249z" fill="#83c2ed"/><path d="m449.952 418.596-5.598-2.761c-.429.739-.863 1.472-1.305 2.208l5.572 2.798c.45-.743.889-1.491 1.331-2.245z" fill="#87c4ee"/><path d="m448.621 420.841-5.572-2.798c-.439.734-.884 1.467-1.328 2.203l5.544 2.835c.455-.743.912-1.492 1.356-2.24z" fill="#8ac6ee"/><path d="m447.265 423.086-5.544-2.835c-.447.734-.902 1.463-1.359 2.199l5.514 2.873c.472-.748.932-1.494 1.389-2.237z" fill="#8ec7ef"/><path d="m445.881 425.318-5.511-2.873c-.496.785-.988 1.569-1.492 2.354l5.481 2.915c.513-.795 1.019-1.594 1.522-2.396z" fill="#91c9ef"/><path d="m444.359 427.714-5.481-2.915c-.546.855-1.1 1.706-1.657 2.554l5.447 2.961c.57-.862 1.132-1.73 1.691-2.6z" fill="#94cbef"/><path d="m442.668 430.314-5.447-2.961c-.557.851-1.121 1.697-1.688 2.547l5.409 3.005c.58-.863 1.154-1.721 1.726-2.591z" fill="#97ccf0"/><path d="m440.937 432.905-5.409-3.005c-.751 1.111-1.512 2.22-2.281 3.324l5.358 3.069c.787-1.124 1.566-2.255 2.332-3.388z" fill="#9acdf0"/><path d="m438.605 436.293-5.358-3.069c-.858 1.229-1.726 2.455-2.61 3.673l5.292 3.142c.906-1.243 1.795-2.491 2.676-3.746z" fill="#9dcff1"/><path d="m435.929 440.039-5.292-3.142c-2.735 3.768-5.593 7.482-8.591 11.136l5.085 3.373c3.072-3.734 6.004-7.526 8.798-11.367z" fill="#a0d0f1"/><path d="m427.131 451.406-5.085-3.373c-1.185 1.445-2.39 2.878-3.614 4.301l4.993 3.464c1.254-1.45 2.488-2.915 3.706-4.392z" fill="#9dcff1"/><path d="m423.42 455.803-4.993-3.464c-.722.839-1.453 1.672-2.193 2.503l4.934 3.524c.761-.85 1.511-1.706 2.252-2.563z" fill="#9acdf0"/><path d="m421.168 458.366-4.934-3.524c-.739.831-1.484 1.658-2.235 2.481l4.873 3.578c.773-.841 1.54-1.684 2.296-2.535z" fill="#97ccf0"/><path d="m418.872 460.906-4.873-3.58c-.59.648-1.185 1.289-1.785 1.932l4.824 3.629c.618-.66 1.228-1.321 1.834-1.981z" fill="#94cbef"/><path d="m417.038 462.883-4.824-3.629c-.57.604-1.139 1.204-1.711 1.806l4.778 3.67c.59-.609 1.172-1.228 1.757-1.847z" fill="#91c9ef"/><path d="m415.281 464.735-4.778-3.671c-.575.6-1.155 1.195-1.737 1.792l4.727 3.719c.603-.614 1.198-1.226 1.788-1.84z" fill="#8ec7ef"/><path d="m413.501 466.57-4.73-3.719c-.569.582-1.149 1.165-1.726 1.742l4.686 3.763c.59-.594 1.18-1.191 1.77-1.786z" fill="#8ac6ee"/><path d="m411.726 468.356-4.686-3.763c-.549.544-1.101 1.09-1.653 1.631l4.638 3.804c.57-.553 1.137-1.111 1.701-1.672z" fill="#87c4ee"/><path d="m410.025 470.028-4.638-3.804c-.551.539-1.116 1.08-1.672 1.621l4.589 3.848c.574-.551 1.152-1.104 1.721-1.665z" fill="#83c2ed"/><path d="m408.304 471.693-4.589-3.848c-.565.536-1.127 1.07-1.701 1.606l4.543 3.894c.582-.55 1.167-1.099 1.747-1.652z" fill="#7fc0ec"/><path d="m406.557 473.341-4.543-3.895c-.595.556-1.19 1.109-1.791 1.66l4.493 3.938c.613-.563 1.228-1.131 1.841-1.703z" fill="#7bbeec"/><path d="m404.711 475.049-4.493-3.939c-.633.578-1.271 1.156-1.91 1.728l4.436 3.985c.659-.59 1.318-1.182 1.967-1.774z" fill="#76bceb"/><path d="m402.744 476.823-4.436-3.987c-.644.573-1.287 1.143-1.936 1.711l4.383 4.036c.664-.587 1.328-1.168 1.989-1.76z" fill="#72baeb"/><path d="m400.75 478.583-4.383-4.036c-.649.568-1.307 1.131-1.966 1.689l4.321 4.089c.682-.577 1.356-1.16 2.028-1.742z" fill="#6db7ea"/><path d="m398.727 480.325-4.321-4.089c-.038.034-.082.071-.118.102l4.316 4.087c.044-.031.079-.068.123-.1z" fill="#67b5e9"/><path d="m495.548 242.887-18.793-9.409-6.863 3.265 18.799 9.41z" fill="#3088c3"/><path d="m498 247.755-2.452-4.868-6.857 3.266 4.28 4z" fill="#3392d2"/><path d="m298.849 347.404-18.794-9.408c.005.281.015.763.033 1.424l18.794 9.407c-.018-.66-.028-1.141-.033-1.423z" fill="#004aa3"/><path d="m298.882 348.832-18.794-9.41c.064 2.347.245 6.985.781 13.156l18.794 9.41c-.536-6.171-.717-10.809-.781-13.156z" fill="#00489e"/><path d="m299.663 361.988-18.794-9.41c.429 4.938 1.083 10.855 2.087 17.362l18.794 9.41c-1.004-6.514-1.658-12.429-2.087-17.362z" fill="#004699"/><path d="m301.75 379.35-18.794-9.41c.873 5.682 2.015 11.811 3.501 18.14l18.794 9.408c-1.486-6.327-2.628-12.456-3.501-18.138z" fill="#004394"/><path d="m305.251 397.488-18.794-9.408c1.372 5.837 3.039 11.848 5.067 17.819l18.794 9.41c-2.028-5.974-3.696-11.982-5.067-17.821z" fill="#00418f"/><path d="m310.318 415.309-18.794-9.41c.493 1.445 1.004 2.893 1.54 4.333 1.693 4.562 3.609 9.081 5.769 13.456l18.794 9.407c-2.161-4.374-4.076-8.891-5.769-13.455-.536-1.441-1.052-2.886-1.54-4.331z" fill="#003f8a"/><path d="m317.627 433.095-18.794-9.407c7.797 15.768 18.842 29.704 34.482 37.532l18.794 9.41c-15.645-7.83-26.685-21.766-34.482-37.535z" fill="#003c85"/><path d="m389.597 481.317-4.066-4.118c-1.537.073-3.057.104-4.541.09l3.936 4.131c1.532.012 3.087-.025 4.671-.103z" fill="#256b9a"/><path d="m384.931 481.425-3.935-4.131c-1.594-.013-3.154-.073-4.687-.181l3.808 4.136c1.571.105 3.172.161 4.814.176z" fill="#246895"/><path d="m380.117 481.244-3.808-4.133c-1.637-.117-3.233-.288-4.798-.505l3.677 4.139c1.609.217 3.249.387 4.929.499z" fill="#236491"/><path d="m375.188 480.745-3.677-4.139c-1.706-.241-3.369-.541-4.993-.896l3.55 4.135c1.667.359 3.373.661 5.12.9z" fill="#22618c"/><path d="m370.068 479.845-3.55-4.136c-1.824-.402-3.599-.872-5.33-1.413l3.42 4.126c1.764.544 3.588 1.021 5.46 1.423z" fill="#215e88"/><path d="m364.602 478.422-3.419-4.126c-2.018-.631-3.969-1.358-5.861-2.169l3.281 4.102c1.936.821 3.936 1.554 5.999 2.193z" fill="#205b83"/><path d="m358.609 476.231-3.282-4.099c-2.322-1-4.546-2.126-6.681-3.373l3.131 4.07c2.184 1.255 4.456 2.395 6.832 3.402z" fill="#1f587f"/><path d="m351.777 472.829-3.131-4.07c-3.072-1.792-5.958-3.834-8.665-6.079l2.955 4.005c2.755 2.269 5.7 4.333 8.841 6.144z" fill="#1e557a"/><path d="m342.936 466.685-2.955-4.005c-5.292-4.392-9.904-9.58-13.919-15.278l2.718 3.841c4.076 5.761 8.762 11.003 14.156 15.442z" fill="#1d5276"/><path d="m469.775 243.644-6.173.555c-2.842 1.352-5.603 2.61-8.295 3.772l5.877-.409c2.773-1.211 5.636-2.513 8.591-3.918z" fill="#004aa3"/><path d="m461.179 247.562-5.877.409c-4.214 1.831-8.246 3.432-12.102 4.829l5.524-.232c3.95-1.45 8.1-3.112 12.455-5.006z" fill="#00489e"/><path d="m448.729 252.568-5.524.232c-4.36 1.579-8.487 2.9-12.397 3.984l5.277-.087c3.968-1.126 8.177-2.494 12.644-4.129z" fill="#004699"/><path d="m436.085 256.697-5.277.087c-4.17 1.16-8.095 2.052-11.776 2.713l5.159.012c3.701-.687 7.657-1.611 11.894-2.812z" fill="#004394"/><path d="m424.191 259.509-5.158-.012c-3.908.702-7.55 1.145-10.928 1.372l5.158.078c3.364-.241 6.998-.707 10.928-1.438z" fill="#00418f"/><path d="m413.263 260.947-5.158-.078c-2.498.165-4.858.217-7.077.161l5.212.107c2.199.046 4.536-.01 7.023-.19z" fill="#003f8a"/><path d="m469.892 236.743-4.344-.318c-3.151 1.533-6.229 2.928-9.237 4.208l4.472.23c2.98-1.274 6.022-2.646 9.109-4.12z" fill="#236491"/><path d="m460.778 240.863-4.472-.23c-4.13 1.76-8.142 3.307-12.067 4.697-.718.263-1.425.516-2.132.762l4.617.191c.689-.237 1.381-.478 2.079-.727 3.887-1.377 7.883-2.942 11.975-4.693z" fill="#22618c"/><path d="m446.734 246.283-4.617-.191c-3.634 1.265-7.125 2.313-10.509 3.196l4.75.148c3.356-.887 6.816-1.94 10.376-3.153z" fill="#215e88"/><path d="m436.358 249.441-4.75-.149c-2.273.593-4.505 1.114-6.699 1.572-1.338.3-2.659.568-3.956.802l4.96.086c1.254-.22 2.525-.463 3.818-.732 2.155-.453 4.369-.979 6.627-1.579z" fill="#205b83"/><path d="m425.913 251.747-4.96-.083c-3.014.548-5.904.926-8.675 1.148l5.163.019c2.723-.217 5.55-.577 8.472-1.084z" fill="#1f587f"/><path d="m417.441 252.836-5.163-.019c-2.312.184-4.544.255-6.691.221l5.248.046c2.13.015 4.334-.068 6.606-.248z" fill="#1e557a"/><path d="m488.569 253.053-18.794-9.409c-2.671 1.274-5.276 2.463-7.807 3.574l18.794 9.41c2.53-1.113 5.13-2.305 7.807-3.575z" fill="#005ac7"/><path d="m480.762 256.628-18.794-9.41c-3.233 1.419-6.354 2.713-9.363 3.885l18.794 9.41c3.014-1.179 6.129-2.466 9.363-3.885z" fill="#0058c2"/><path d="m471.404 260.508-18.793-9.41c-2.838 1.104-5.578 2.109-8.221 3.003l18.793 9.41c2.639-.897 5.379-1.899 8.221-3.003z" fill="#0056bd"/><path d="m463.178 263.511-18.793-9.41c-2.536.865-4.98 1.63-7.34 2.32l18.794 9.408c2.359-.683 4.808-1.455 7.339-2.318z" fill="#0054b8"/><path d="m455.839 265.829-18.794-9.408c-2.306.668-4.526 1.255-6.671 1.767l18.794 9.41c2.145-.512 4.364-1.099 6.671-1.769z" fill="#0051b3"/><path d="m449.168 267.603-18.794-9.41c-2.117.509-4.155.943-6.124 1.309l18.794 9.407c1.969-.368 4.007-.804 6.124-1.306z" fill="#004fad"/><path d="m443.044 268.909-18.794-9.407c-1.972.368-3.872.668-5.7.909l18.794 9.41c1.823-.241 3.728-.541 5.7-.912z" fill="#004da8"/><path d="m437.339 269.821-18.794-9.41c-1.865.244-3.657.424-5.374.546l18.797 9.407c1.719-.124 3.511-.304 5.371-.543z" fill="#004aa3"/><path d="m431.968 270.364-18.797-9.407c-1.79.124-3.501.187-5.135.197l18.793 9.41c1.637-.01 3.351-.075 5.139-.2z" fill="#00489e"/><path d="m426.829 270.564-18.793-9.41c-1.742.01-3.399-.046-4.975-.156l18.794 9.408c1.575.107 3.233.163 4.974.158z" fill="#004699"/><path d="m421.855 270.406-18.794-9.408c-1.745-.122-3.384-.309-4.934-.555l18.793 9.41c1.551.238 3.19.428 4.935.553z" fill="#004394"/><path d="m416.921 269.848-18.794-9.41c-1.479-.234-2.868-.517-4.183-.844-.294-.075-.59-.153-.879-.226l18.794 9.407c.288.078.585.154.878.227 1.316.329 2.705.609 4.184.846z" fill="#00418f"/><path d="m411.864 268.775-18.794-9.407c-2.038-.551-3.866-1.202-5.506-1.913l18.794 9.41c1.639.706 3.468 1.357 5.506 1.91z" fill="#003f8a"/><path d="m406.358 266.865-18.794-9.41c-.628-.273-1.228-.554-1.803-.841l18.794 9.41c.574.285 1.175.568 1.803.841z" fill="#003c85"/><path d="m488.691 246.153-18.794-9.41c-2.375 1.132-4.719 2.204-7.035 3.22l18.793 9.407c2.312-1.013 4.661-2.086 7.036-3.217z" fill="#2b7ab0"/><path d="m481.655 249.37-18.793-9.407c-2.917 1.279-5.785 2.471-8.599 3.565l18.794 9.41c2.814-1.096 5.682-2.283 8.598-3.568z" fill="#2a77ac"/><path d="m473.057 252.938-18.794-9.409c-1.842.716-3.657 1.394-5.45 2.027-.756.268-1.507.532-2.255.785l18.794 9.41c.743-.254 1.499-.519 2.257-.785 1.791-.633 3.609-1.313 5.448-2.028z" fill="#2974a7"/><path d="m465.352 255.751-18.794-9.41c-2.373.804-4.699 1.538-6.977 2.203l18.794 9.41c2.283-.66 4.612-1.396 6.977-2.203z" fill="#2871a3"/><path d="m458.375 257.954-18.794-9.41c-2.166.629-4.296 1.192-6.375 1.692l18.794 9.407c2.084-.497 4.209-1.06 6.375-1.689z" fill="#276e9e"/><path d="m452 259.643-18.794-9.407c-1.174.28-2.334.541-3.475.78-.81.17-1.614.329-2.409.475l18.794 9.41c.794-.149 1.599-.31 2.408-.475 1.142-.237 2.301-.5 3.476-.783z" fill="#256b9a"/><path d="m446.116 260.906-18.794-9.41c-1.864.346-3.693.643-5.485.872l18.793 9.41c1.793-.236 3.622-.526 5.486-.872z" fill="#246895"/><path d="m440.63 261.778-18.793-9.41c-1.757.232-3.479.407-5.164.529l18.796 9.408c1.683-.12 3.404-.295 5.161-.527z" fill="#236491"/><path d="m435.469 262.3-18.796-9.408c-1.678.12-3.318.183-4.922.188l18.794 9.41c1.604-.005 3.244-.071 4.924-.19z" fill="#22618c"/><path d="m430.545 262.495-18.794-9.41c-1.629.009-3.217-.042-4.76-.147l18.794 9.408c1.542.107 3.131.154 4.76.149z" fill="#215e88"/><path d="m425.785 262.341-18.794-9.407c-1.619-.113-3.187-.293-4.709-.532l18.794 9.408c1.524.246 3.095.421 4.709.531z" fill="#205b83"/><path d="m421.076 261.81-18.794-9.408c-1.282-.204-2.526-.453-3.736-.743-.371-.088-.736-.185-1.088-.283l18.793 9.41c.358.095.718.188 1.088.28 1.211.295 2.455.546 3.737.744z" fill="#1f587f"/><path d="m416.251 260.789-18.793-9.408c-1.959-.531-3.706-1.155-5.266-1.83l18.793 9.41c1.561.675 3.308 1.296 5.266 1.828z" fill="#1e557a"/><path d="m410.985 258.961-18.793-9.41c-.613-.263-1.191-.534-1.745-.812l18.794 9.408c.554.278 1.131.551 1.744.814z" fill="#1d5276"/><path d="m374.764 246.992-4.295 2.439c.012-.022.017-.046.023-.068l4.262-2.342c.005-.01.01-.02.01-.029z" fill="#003c85"/><path d="m374.759 247.026-4.262 2.342c.005-.024.015-.041.02-.066l4.232-2.249c0-.01.005-.017.01-.027z" fill="#003f8a"/><path d="m374.744 247.055-4.232 2.25c.005-.02.018-.037.023-.056l4.191-2.152c.013-.018.018-.027.018-.042z" fill="#00418f"/><path d="m374.734 247.089-4.194 2.155c.005-.02.01-.039.015-.051l4.163-2.065c.005-.014.01-.024.016-.039z" fill="#004394"/><path d="m374.723 247.128-4.16 2.065c.005-.02.01-.035.015-.047l4.127-1.974c.008-.017.013-.032.018-.044z" fill="#004699"/><path d="m374.705 247.17-4.129 1.971c.005-.014.01-.029.015-.041l4.096-1.884c.008-.015.013-.029.018-.046z" fill="#00489e"/><path d="m374.688 247.216-4.097 1.884c.005-.015.013-.029.018-.037l4.068-1.798c0-.017.005-.032.011-.049z" fill="#004aa3"/><path d="m374.667 247.265-4.068 1.798c.143-.416-.064.088-.677 1.353l3.287.409c.794-1.767 1.249-2.988 1.458-3.56z" fill="#004da8"/><path d="m373.214 250.825-3.287-.409c-.449.929-1.113 2.267-2.015 3.948l3.019 1.216c.96-1.857 1.711-3.456 2.283-4.755z" fill="#004fad"/><path d="m370.931 255.58-3.019-1.216c-.858 1.604-1.936 3.515-3.243 5.676l2.947 1.507c1.31-2.204 2.403-4.202 3.315-5.967z" fill="#0051b3"/><path d="m367.616 261.547-2.947-1.507c-1.824 3.023-4.104 6.542-6.88 10.4l3.067 1.421c2.707-3.768 4.936-7.239 6.76-10.314z" fill="#0054b8"/><path d="m360.851 271.861-3.067-1.421c-1.584 2.198-3.331 4.506-5.251 6.9-3.854 4.808-8.402 9.953-13.709 15.278l3.409.995c5.254-5.252 9.72-10.302 13.497-15.018 1.875-2.333 3.576-4.582 5.121-6.734z" fill="#0056bd"/><path d="m342.233 293.613-3.409-.995c-4.382 4.399-9.288 8.916-14.746 13.466l3.458.867c5.48-4.53 10.358-9.007 14.697-13.338z" fill="#0054b8"/><path d="m327.541 306.951-3.458-.867c-4.017 3.348-8.333 6.712-12.961 10.06l3.341.878c4.696-3.368 9.045-6.737 13.078-10.071z" fill="#0051b3"/><path d="m314.463 317.022-3.341-.878c-4.783 3.459-9.909 6.9-15.384 10.285l3.031 1.007c5.614-3.449 10.836-6.931 15.694-10.414z" fill="#004fad"/><path d="m298.764 327.441-3.031-1.007c-5.657 3.498-11.689 6.929-18.117 10.263l2.434 1.309c6.681-3.471 12.907-7.004 18.714-10.565z" fill="#004da8"/><path d="m373.74 247.94-3.442 1.15c-.011.005.022.061.081.176l3.205-1.57c.023.037.077.12.156.244z" fill="#003c85"/><path d="m373.587 247.694-3.208 1.572c.016.026.039.063.059.102l3.141-1.691c-.005 0 0 .009.008.017z" fill="#003f8a"/><path d="m373.574 247.677-3.141 1.691c.01.017.02.041.038.063l3.103-1.754c0-.005 0-.005 0 0z" fill="#00418f"/><path d="m374.769 246.992-4.326-6.752c.455.813 1.019 1.815 1.752 2.919l3.496 5.261c-.536-.734-.825-1.253-.922-1.428z" fill="#1d5276"/><path d="m374.672 229.085-4.288 2.619-4.558 13.392 2.605 2.313z" fill="#2871a3"/><path d="m393.563 256.402-18.794-9.41c.36.638 3.213 5.725 10.992 9.617l18.794 9.41c-7.779-3.895-10.632-8.976-10.992-9.617z" fill="#1d5276"/><path d="m492.972 250.153-4.281-4c-.112.054-.224.105-.337.161l4.273 4.004c.112-.056.225-.109.345-.165z" fill="#308ac7"/><path d="m492.622 250.318-4.273-4.004c-2.72 1.289-5.394 2.503-8.032 3.639l4.16 4.085c2.659-1.146 5.374-2.379 8.145-3.72z" fill="#2f87c2"/><path d="m484.477 254.038-4.16-4.085c-2.569 1.109-5.095 2.145-7.577 3.105l4.101 4.082c2.506-.955 5.047-1.986 7.636-3.102z" fill="#2e84be"/><path d="m476.846 257.145-4.101-4.082c-1.731.67-3.443 1.306-5.136 1.906-.94.334-1.877.658-2.806.97l3.991 4.14c.943-.324 1.903-.66 2.868-1.016 1.711-.612 3.438-1.248 5.184-1.918z" fill="#2d81b9"/><path d="m468.794 260.075-3.991-4.139c-2.01.673-3.99 1.302-5.936 1.87l3.905 4.174c1.967-.572 3.971-1.204 6.022-1.905z" fill="#2c7eb5"/><path d="m462.772 261.98-3.905-4.174c-1.918.563-3.807 1.077-5.661 1.542l3.856 4.168c1.869-.458 3.769-.968 5.71-1.536z" fill="#2b7ab0"/><path d="m457.062 263.516-3.856-4.168c-1.586.398-3.147.753-4.687 1.078-.574.119-1.141.233-1.706.341l3.739 4.199c.585-.122 1.175-.246 1.77-.38 1.565-.322 3.141-.678 4.74-1.07z" fill="#2a77ac"/><path d="m450.552 264.971-3.739-4.199c-1.655.319-3.281.594-4.872.826l3.58 4.267c1.642-.243 3.315-.543 5.031-.894z" fill="#2974a7"/><path d="m445.521 265.865-3.58-4.267c-1.517.222-3.014.402-4.472.541l3.478 4.294c1.492-.141 3.019-.331 4.574-.568z" fill="#2871a3"/><path d="m440.947 266.428-3.478-4.294c-1.418.134-2.809.232-4.173.29l3.417 4.292c1.381-.051 2.794-.149 4.234-.288z" fill="#276e9e"/><path d="m436.713 266.716-3.417-4.292c-1.341.056-2.654.08-3.941.061l3.369 4.267c1.302.032 2.63.02 3.989-.036z" fill="#256b9a"/><path d="m432.724 266.757-3.369-4.267c-1.292-.02-2.551-.071-3.79-.161l3.328 4.233c1.251.103 2.526.169 3.831.195z" fill="#246895"/><path d="m428.893 266.562-3.328-4.233c-1.272-.093-2.51-.227-3.716-.397l3.292 4.197c1.221.18 2.472.329 3.752.433z" fill="#236491"/><path d="m425.136 266.129-3.292-4.197c-1.282-.186-2.525-.412-3.739-.68l3.229 4.17c1.243.273 2.505.514 3.802.707z" fill="#22618c"/><path d="m421.339 265.417-3.228-4.17c-.258-.061-.514-.115-.767-.181-1.003-.243-1.956-.511-2.857-.799l3.136 4.143c.927.298 1.91.573 2.939.824.251.059.514.124.777.183z" fill="#215e88"/><path d="m417.618 264.41-3.136-4.143c-1.288-.409-2.473-.858-3.56-1.333l3.034 4.099c1.121.49 2.344.958 3.662 1.377z" fill="#205b83"/><path d="m413.955 263.036-3.034-4.102c-1.345-.587-2.553-1.211-3.626-1.845l2.924 4.043c1.109.651 2.347 1.297 3.736 1.904z" fill="#1f587f"/><path d="m410.219 261.132-2.924-4.043c-1.502-.887-2.74-1.786-3.746-2.627l2.799 3.941c1.044.877 2.326 1.81 3.871 2.729z" fill="#1e557a"/><path d="m406.348 258.403-2.799-3.941c-1.954-1.626-3.037-3.025-3.466-3.632l2.661 3.78c.45.641 1.581 2.101 3.604 3.793z" fill="#1d5276"/><path d="m491.018 257.923-2.449-4.87c-3.251 1.548-6.393 2.973-9.437 4.282l2.771 4.711c2.95-1.26 5.984-2.632 9.115-4.123z" fill="#0064db"/><path d="m481.908 262.046-2.771-4.711c-2.983 1.285-5.861 2.457-8.65 3.529l3.024 4.587c2.707-1.031 5.506-2.162 8.397-3.405z" fill="#0061d6"/><path d="m473.506 265.451-3.024-4.587c-2.612 1.002-5.136 1.916-7.582 2.744l3.202 4.49c2.391-.8 4.863-1.677 7.404-2.647z" fill="#005fd1"/><path d="m466.102 268.098-3.202-4.49c-2.322.785-4.574 1.497-6.75 2.133l3.323 4.416c2.145-.619 4.354-1.304 6.629-2.059z" fill="#005dcc"/><path d="m459.473 270.152-3.323-4.416c-2.102.614-4.134 1.165-6.103 1.65l3.406 4.355c1.951-.465 3.956-.994 6.02-1.589z" fill="#005ac7"/><path d="m453.458 271.741-3.406-4.355c-1.913.47-3.77.887-5.565 1.243l3.452 4.309c1.781-.341 3.619-.738 5.519-1.197z" fill="#0058c2"/><path d="m447.94 272.943-3.453-4.309c-1.77.353-3.486.656-5.141.904l3.473 4.277c1.652-.246 3.356-.531 5.121-.872z" fill="#0056bd"/><path d="m442.819 273.811-3.473-4.278c-1.658.249-3.256.454-4.801.605l3.475 4.25c1.545-.144 3.147-.336 4.799-.577z" fill="#0054b8"/><path d="m438.02 274.393-3.475-4.25c-1.566.158-3.073.268-4.526.338l3.456 4.226c1.458-.065 2.975-.168 4.545-.314z" fill="#0051b3"/><path d="m433.467 274.707-3.453-4.226c-1.489.069-2.916.095-4.293.078l3.415 4.207c1.394.024 2.837 0 4.331-.059z" fill="#004fad"/><path d="m429.136 274.766-3.415-4.207c-1.433-.014-2.807-.075-4.119-.17l3.368 4.194c1.328.1 2.718.166 4.166.183z" fill="#004da8"/><path d="m424.963 274.583-3.366-4.194c-1.385-.103-2.707-.251-3.969-.432l3.305 4.185c1.279.18 2.625.334 4.03.441z" fill="#004aa3"/><path d="m420.933 274.14-3.305-4.185c-1.356-.2-2.648-.436-3.867-.712l3.229 4.165c1.251.283 2.558.527 3.943.732z" fill="#00489e"/><path d="m416.989 273.413-3.228-4.165c-.347-.08-.684-.158-1.024-.246-.957-.239-1.882-.502-2.755-.78l3.136 4.143c.901.285 1.841.553 2.827.8.347.087.692.17 1.044.248z" fill="#004699"/><path d="m413.118 272.365-3.136-4.143c-1.377-.444-2.654-.929-3.828-1.445l3.041 4.119c1.206.521 2.513 1.016 3.923 1.469z" fill="#004394"/><path d="m409.2 270.896-3.041-4.119c-1.489-.658-2.825-1.363-4.01-2.084l2.97 4.129c1.195.706 2.551 1.408 4.081 2.074z" fill="#00418f"/><path d="m405.114 268.822-2.97-4.129c-1.765-1.072-3.208-2.186-4.372-3.234l3.013 4.343c1.116.919 2.549 1.972 4.329 3.02z" fill="#003f8a"/><path d="m400.793 265.802-3.014-4.343c-2.788-2.508-3.991-4.655-4.216-5.057l4.329 6.753c-.585-1.041.245.439 2.901 2.647z" fill="#003c85"/><path d="m397.859 253.967-4.296 2.44c.092.16.345.614.799 1.26l5.077-1.034c-.653-1.011-1.162-1.923-1.58-2.666z" fill="#1f587f"/><path d="m399.439 256.628-5.077 1.034c.488.699 1.213 1.618 2.22 2.651l5.529-.192c-1.098-1.221-1.969-2.413-2.672-3.493z" fill="#1e557a"/><path d="m402.111 260.121-5.529.192c2.811 2.879 7.835 6.615 16.163 8.689 3.489.868 7.559 1.445 12.294 1.548l5.213.109c-4.682-.083-8.671-.646-12.093-1.499-8.113-2.027-12.981-5.642-16.048-9.039z" fill="#1d5276"/><path d="m393.563 256.402-18.794-9.41c-.038.102-.097.273-.186.519l18.794 9.407c.089-.238.15-.414.186-.516z" fill="#005dcc"/><path d="m393.377 256.918-18.794-9.407c-.156.414-.399 1.038-.736 1.852l18.794 9.408c.337-.812.58-1.431.736-1.853z" fill="#005fd1"/><path d="m392.641 258.771-18.794-9.408c-.311.748-.707 1.653-1.195 2.71l18.794 9.41c.493-1.057.883-1.964 1.195-2.712z" fill="#0061d6"/><path d="m391.446 261.478-18.794-9.41c-.488 1.051-1.067 2.245-1.754 3.571l18.793 9.41c.687-1.326 1.272-2.518 1.755-3.571z" fill="#0064db"/><path d="m389.696 265.049-18.793-9.41c-.713 1.387-1.543 2.91-2.498 4.57l18.794 9.407c.955-1.657 1.78-3.183 2.497-4.567z" fill="#0066e0"/><path d="m387.199 269.616-18.794-9.407c-1.098 1.905-2.365 3.98-3.813 6.202l18.794 9.408c1.448-2.22 2.715-4.299 3.813-6.203z" fill="#0068e6"/><path d="m383.386 275.819-18.794-9.408c-2.413 3.695-5.335 7.797-8.857 12.189-5.084 6.341-11.405 13.29-19.227 20.518l18.793 9.408c7.823-7.229 14.143-14.175 19.228-20.516 3.522-4.392 6.444-8.494 8.857-12.191z" fill="#006beb"/><path d="m355.301 308.521-18.796-9.408c-3.249 3.003-6.755 6.057-10.54 9.133l18.794 9.407c3.785-3.076 7.291-6.125 10.542-9.132z" fill="#0068e6"/><path d="m344.759 317.653-18.794-9.407c-3.1 2.522-6.387 5.057-9.873 7.596l18.794 9.41c3.486-2.539 6.773-5.076 9.873-7.599z" fill="#0066e0"/><path d="m334.886 325.252-18.794-9.41c-3.131 2.289-6.423 4.575-9.881 6.856l18.794 9.408c3.458-2.282 6.75-4.568 9.881-6.854z" fill="#0064db"/><path d="m325.005 332.106-18.794-9.408c-3.251 2.142-6.645 4.282-10.195 6.407l18.797 9.408c3.549-2.125 6.944-4.263 10.192-6.407z" fill="#0061d6"/><path d="m314.813 338.513-18.794-9.408c-3.466 2.072-7.074 4.134-10.834 6.174l18.794 9.41c3.759-2.043 7.368-4.102 10.834-6.176z" fill="#005fd1"/><path d="m303.979 344.684-18.794-9.408c-1.677.909-3.388 1.819-5.13 2.72l18.794 9.408c1.741-.9 3.452-1.806 5.13-2.72z" fill="#005dcc"/><path d="m393.466 238.494-18.794-9.409-6.241 18.324 18.801 9.412z" fill="#3088c3"/><path d="m397.892 263.16-4.326-6.753c0 .004 0 .004-.008.009l4.339 6.725c-.005 0-.005.009-.005.019z" fill="#003c85"/><path d="m397.897 263.136-4.339-6.725c0 .005 0 .005-.005.01l4.349 6.693c0 .007-.005.012-.005.022z" fill="#003f8a"/><path d="m397.902 263.114-4.349-6.693c0 .003 0 .003-.005.008l4.359 6.665c0 .005 0 .015-.005.02z" fill="#00418f"/><path d="m397.912 263.094-4.359-6.665c0 .004 0 .004-.005.009l4.369 6.639c0 .003-.005.012-.005.017z" fill="#004394"/><path d="m397.917 263.075-4.369-6.637c0 .005 0 .005-.005.01l4.379 6.605c0 .01-.005.014-.005.022z" fill="#004699"/><path d="m397.922 263.053-4.379-6.605c0 .005 0 .005-.005.01l4.384 6.575c.008.01.008.015 0 .02z" fill="#00489e"/><path d="m397.935 263.033-4.387-6.575c0 .002 0 .002-.005.007l4.397 6.551c-.005.01-.005.012-.005.017z" fill="#004aa3"/><path d="m397.94 263.016-4.397-6.551c0 .005 0 .01-.005.01l4.407 6.517c0 .014-.005.019-.005.024z" fill="#004da8"/><path d="m397.943 262.997-4.408-6.517c0 .005 0 .009-.005.009l4.418 6.491c0 .009-.005.012-.005.017z" fill="#004fad"/><path d="m397.948 262.985-4.418-6.491c0 .005-.005.01-.005.01l4.428 6.461c0 .005 0 .01-.005.02z" fill="#0051b3"/><path d="m397.953 262.965-4.428-6.461c0 .005-.005.01-.005.012l4.441 6.434s0 .01-.008.015z" fill="#0054b8"/><path d="m397.961 262.948-4.441-6.434c0 .002-.006.007-.006.012l4.452 6.407c0 .005 0 .01-.005.015z" fill="#0056bd"/><path d="m397.966 262.933-4.451-6.407c0 .005-.006.01-.006.015l4.462 6.378c0 .005 0 .009-.005.014z" fill="#0058c2"/><path d="m397.971 262.914-4.462-6.378c0 .005-.005.01-.005.014l4.472 6.352c0 .005 0 .007-.005.012z" fill="#005ac7"/><path d="m397.976 262.902-4.472-6.352c0 .005-.005.01-.005.013l4.477 6.324c.005.005.005.01 0 .015z" fill="#005dcc"/><path d="m397.981 262.887-4.477-6.324c0 .004-.005.009-.005.014l4.487 6.295c0 .005 0 .01-.005.015z" fill="#005fd1"/><path d="m397.986 262.872-4.487-6.295c0 .005-.005.01-.005.015l4.497 6.268c0 .005 0 .008-.005.012z" fill="#0061d6"/><path d="m397.991 262.86-4.497-6.268c0 .005-.005.01-.005.012l4.507 6.242c0 .005 0 .009-.005.014z" fill="#0064db"/><path d="m397.996 262.846-4.507-6.24c0 .003-.005.008-.005.013l4.518 6.212c0 .005 0 .01-.006.015z" fill="#0066e0"/><path d="m398.002 262.831-4.518-6.212c0 .004-.008.009-.008.014l4.526 6.186c.007.002 0 .007 0 .012z" fill="#0068e6"/><path d="m398.007 262.819-4.526-6.183c0 .005-.005.007-.005.012l4.538 6.159c-.007.004-.007.007-.007.012z" fill="#006beb"/><path d="m398.014 262.809-4.535-6.159c0 .005-.005.01-.005.015l4.548 6.129c-.008.005-.008.01-.008.015z" fill="#006df0"/><path d="m398.014 262.794-4.548-6.129c0 .005-.005.01-.005.015l4.558 6.105s0 .005-.005.009z" fill="#006ff5"/><path d="m398.019 262.785-4.558-6.105c-.015.051-.036.099-.059.16l4.646 5.862c-.008.019-.018.046-.029.083z" fill="#0072fa"/><path d="m398.045 262.697-4.643-5.861c-.059.16-.133.36-.225.597l4.863 5.232c.028-.036.028-.029.005.032z" fill="#006ff5"/><path d="m398.048 262.665-4.865-5.232c-.09.234-.2.502-.317.801l5.056 4.694c.059-.134.103-.221.126-.263z" fill="#0072fa"/><path d="m397.917 262.929-5.056-4.695c-.102.256-.22.537-.348.836l5.195 4.302c.087-.18.156-.329.209-.443z" fill="#0074ff"/><path d="m397.708 263.372-5.195-4.302c-.117.273-.242.571-.38.878l5.302 3.992c.107-.212.199-.402.273-.568z" fill="#1f85ff"/><path d="m397.44 263.94-5.302-3.992c-.13.287-.263.592-.409.911l5.389 3.741c.117-.241.225-.463.322-.66z" fill="#2b8cff"/><path d="m397.118 264.605-5.389-3.741c-.132.295-.278.609-.429.934l5.46 3.536c.128-.263.251-.507.358-.729z" fill="#3591ff"/><path d="m396.76 265.334-5.46-3.536c-.138.299-.288.614-.444.931l5.511 3.378c.141-.273.268-.532.393-.773z" fill="#3d95ff"/><path d="m396.367 266.107-5.511-3.378c-.151.304-.307.624-.467.948l5.554 3.241c.151-.28.291-.553.424-.811z" fill="#49f"/><path d="m395.943 266.923-5.554-3.241c-.156.314-.322.636-.488.97l5.593 3.136c.156-.302.306-.592.449-.865z" fill="#4b9dff"/><path d="m395.489 267.783-5.593-3.136c-.161.314-.327.633-.498.965l5.618 3.049c.166-.3.322-.597.473-.878z" fill="#51a0ff"/><path d="m395.016 268.661-5.618-3.049c-.171.324-.345.651-.526.989l5.636 2.974c.181-.315.347-.619.508-.914z" fill="#57a3ff"/><path d="m394.513 269.58-5.636-2.974c-.177.327-.358.663-.547 1.007l5.652 2.915c.181-.324.36-.644.531-.948z" fill="#5ca6ff"/><path d="m393.982 270.528-5.652-2.915c-.186.336-.375.677-.574 1.028l5.664 2.874c.192-.337.381-.666.562-.987z" fill="#61a9ff"/><path d="m393.42 271.51-5.664-2.874c-.192.349-.396.702-.606 1.058l5.667 2.837c.21-.346.409-.682.603-1.021z" fill="#65abff"/><path d="m392.817 272.536-5.667-2.837c-.204.356-.419.717-.633 1.087l5.675 2.813c.214-.366.424-.717.625-1.063z" fill="#6aaeff"/><path d="m392.192 273.594-5.675-2.813c-.22.368-.444.743-.674 1.126l5.667 2.796c.237-.376.462-.744.682-1.109z" fill="#6eb0ff"/><path d="m391.515 274.707-5.667-2.795c-.235.392-.483.79-.731 1.192l5.665 2.79c.25-.407.493-.799.733-1.187z" fill="#72b2ff"/><path d="m390.774 275.889-5.662-2.79c-.255.417-.523.841-.791 1.27l5.651 2.79c.279-.429.547-.855.802-1.27z" fill="#77b5ff"/><path d="m389.972 277.159-5.651-2.79c-.281.443-.57.892-.871 1.35l5.641 2.798c.302-.461.595-.914.881-1.358z" fill="#7ab7ff"/><path d="m389.091 278.517-5.641-2.798c-.327.497-.659 1.006-1.001 1.518l5.618 2.818c.355-.522.692-1.034 1.024-1.538z" fill="#7eb9ff"/><path d="m388.067 280.05-5.618-2.818c-.391.583-.789 1.175-1.208 1.77l5.593 2.846c.429-.607.837-1.206 1.233-1.798z" fill="#82bbff"/><path d="m386.839 281.853-5.591-2.846c-.526.758-1.067 1.533-1.637 2.317l5.555 2.893c.58-.804 1.136-1.594 1.673-2.364z" fill="#85bdff"/><path d="m385.166 284.217-5.555-2.89c-1.532 2.132-3.223 4.367-5.077 6.678-.794.989-1.619 1.996-2.472 3.012l5.373 3.122c.874-1.041 1.709-2.064 2.521-3.071 1.903-2.376 3.634-4.667 5.21-6.851z" fill="#89bfff"/><path d="m377.43 294.139-5.373-3.122c-.677.802-1.369 1.611-2.076 2.43l5.335 3.168c.725-.833 1.433-1.659 2.114-2.476z" fill="#85bdff"/><path d="m375.316 296.615-5.335-3.168c-.519.599-1.055 1.199-1.596 1.808l5.307 3.203c.551-.619 1.095-1.233 1.624-1.843z" fill="#82bbff"/><path d="m373.692 298.458-5.307-3.203c-.501.561-1.009 1.124-1.53 1.692l5.281 3.229c.526-.578 1.047-1.15 1.556-1.718z" fill="#7eb9ff"/><path d="m372.136 300.176-5.281-3.229c-.478.516-.96 1.043-1.453 1.567l5.261 3.256c.498-.536.991-1.068 1.473-1.594z" fill="#7ab7ff"/><path d="m370.663 301.77-5.261-3.256c-.465.497-.943.997-1.42 1.499l5.243 3.28c.483-.512.965-1.021 1.438-1.523z" fill="#77b5ff"/><path d="m369.22 303.293-5.243-3.278c-.473.488-.95.982-1.433 1.477l5.228 3.302c.488-.504.97-1.001 1.448-1.501z" fill="#72b2ff"/><path d="m367.772 304.79-5.228-3.303c-.467.475-.937.956-1.42 1.433l5.212 3.32c.488-.48.963-.965 1.436-1.45z" fill="#6eb0ff"/><path d="m366.342 306.245-5.213-3.322c-.472.473-.955.948-1.438 1.428l5.197 3.339c.488-.485.976-.965 1.454-1.445z" fill="#6aaeff"/><path d="m364.888 307.69-5.197-3.339c-.482.475-.975.95-1.468 1.428l5.184 3.359c.493-.485.994-.968 1.481-1.448z" fill="#65abff"/><path d="m363.402 309.138-5.184-3.359c-.501.475-.999.955-1.507 1.431l5.174 3.378c.513-.485 1.019-.97 1.517-1.45z" fill="#61a9ff"/><path d="m361.885 310.588-5.174-3.378c-.526.494-1.052.984-1.588 1.484l5.163 3.39c.542-.5 1.073-.999 1.599-1.496z" fill="#5ca6ff"/><path d="m360.286 312.084-5.163-3.39c-.547.502-1.099 1.007-1.655 1.513l5.156 3.405c.559-.512 1.116-1.021 1.662-1.528z" fill="#57a3ff"/><path d="m358.624 313.612-5.156-3.405c-.585.527-1.18 1.058-1.783 1.59l5.159 3.419c.595-.536 1.19-1.072 1.78-1.604z" fill="#51a0ff"/><path d="m356.839 315.216-5.159-3.42c-.616.546-1.244 1.09-1.875 1.641l5.152 3.431c.638-.553 1.261-1.109 1.882-1.652z" fill="#4b9dff"/><path d="m354.957 316.863-5.154-3.431c-.69.597-1.392 1.196-2.107 1.796l5.159 3.441c.707-.604 1.409-1.204 2.102-1.806z" fill="#49f"/><path d="m352.85 318.669-5.159-3.441c-.738.624-1.489 1.248-2.253 1.872l5.164 3.451c.761-.629 1.512-1.258 2.248-1.882z" fill="#3d95ff"/><path d="m350.602 320.551-5.164-3.451c-.835.682-1.683 1.367-2.541 2.049l5.179 3.456c.853-.684 1.696-1.372 2.526-2.054z" fill="#3591ff"/><path d="m348.076 322.605-5.179-3.456c-.932.744-1.887 1.49-2.852 2.238l5.202 3.453c.955-.743 1.897-1.491 2.829-2.235z" fill="#2b8cff"/><path d="m345.242 324.84-5.203-3.453c-1.054.816-2.14 1.635-3.238 2.452l5.233 3.451c1.096-.819 2.161-1.631 3.208-2.45z" fill="#1f85ff"/><path d="m342.039 327.29-5.233-3.451c-1.233.918-2.492 1.837-3.774 2.756l5.281 3.437c1.267-.914 2.511-1.828 3.726-2.742z" fill="#0074ff"/><path d="m338.313 330.032-5.281-3.437c-1.464 1.051-2.965 2.099-4.5 3.147l5.358 3.414c1.502-1.046 2.975-2.084 4.423-3.124z" fill="#0072fa"/><path d="m333.89 333.151-5.358-3.414c-1.757 1.201-3.565 2.408-5.414 3.602l5.462 3.368c1.809-1.177 3.578-2.364 5.31-3.556z" fill="#006ff5"/><path d="m328.575 336.712-5.462-3.368c-2.097 1.357-4.258 2.717-6.472 4.065l5.619 3.297c2.16-1.325 4.262-2.654 6.315-3.994z" fill="#006df0"/><path d="m322.26 340.706-5.619-3.297c-2.467 1.501-5.016 2.998-7.631 4.484l5.838 3.188c2.536-1.44 5.008-2.905 7.412-4.375z" fill="#006beb"/><path d="m314.843 345.086-5.838-3.188c-2.822 1.599-5.728 3.188-8.724 4.762l6.135 3.04c2.888-1.519 5.7-3.057 8.427-4.614z" fill="#0068e6"/><path d="m306.416 349.695-6.135-3.039c-.477.251-.955.499-1.432.748l6.182 3.012c.468-.241.927-.48 1.385-.721z" fill="#0066e0"/><path d="m397.805 245.427-4.339-6.933-6.234 18.327 6.014 2.001z" fill="#328fce"/><path d="m280.055 337.996-2.434-1.309c.005.232.02 1.051.069 2.372l2.452 1.947c-.059-1.504-.077-2.539-.087-3.01z" fill="#00418f"/><path d="m280.142 341.011-2.452-1.947c.189 4.752.843 16.017 3.131 29.916l2.49 3.22c-2.306-14.121-2.973-25.752-3.169-31.189z" fill="#003f8a"/><path d="m283.308 372.2-2.487-3.22c1.892 11.496 4.901 24.789 9.684 37.682 3.637 9.804 8.295 19.363 14.243 27.769l2.717 3.843c-6.037-8.498-10.739-18.157-14.406-28.047-4.811-12.975-7.84-26.351-9.751-38.027z" fill="#003c85"/><path d="m273.154 341.533-2.472-3.098c.005.105.01.407.026.882l2.467 3.117c-.011-.485-.021-.784-.021-.901z" fill="#1f587f"/><path d="m273.18 342.434-2.465-3.117c.113 3.251.636 14.767 3.045 29.773l2.482 3.327c-2.424-15.106-2.955-26.69-3.062-29.983z" fill="#1e557a"/><path d="m276.242 372.412-2.482-3.327c1.92 11.974 5.041 26.168 10.103 40.167 1.849 4.979 3.805 9.803 5.945 14.26 2.16 4.377 4.428 8.608 6.875 12.457.733 1.126 1.484 2.235 2.247 3.322l2.659 3.85c-.766-1.109-1.517-2.244-2.258-3.412-2.462-3.885-4.773-8.074-6.928-12.563-2.156-4.49-4.15-9.281-5.989-14.36-5.1-14.075-8.241-28.352-10.172-40.394z" fill="#1d5276"/><path d="m368.433 247.409-2.607-2.313c-.026.068-.079.202-.161.404l2.623 2.264c.079-.18.122-.299.145-.355z" fill="#246895"/><path d="m368.293 247.769-2.623-2.264c-.225.561-.669 1.621-1.377 3.115l2.702 2.081c.669-1.421 1.093-2.425 1.298-2.932z" fill="#256b9a"/><path d="m366.99 250.701-2.702-2.081c-.756 1.591-1.813 3.675-3.212 6.156l2.819 1.828c1.356-2.386 2.37-4.387 3.095-5.903z" fill="#276e9e"/><path d="m363.895 256.604-2.819-1.828c-1.872 3.317-4.365 7.343-7.593 11.874l3.052 1.453c3.141-4.404 5.554-8.301 7.36-11.499z" fill="#2871a3"/><path d="m356.535 268.098-3.052-1.45c-1.663 2.327-3.517 4.794-5.588 7.357-2.75 3.413-5.652 6.766-8.724 10.059l3.325 1.053c3.039-3.232 5.91-6.522 8.602-9.861 2.015-2.503 3.823-4.897 5.437-7.158z" fill="#2974a7"/><path d="m342.501 285.117-3.325-1.053c-5.789 6.21-12.176 12.195-19.271 17.94l3.662.726c6.865-5.625 13.201-11.52 18.934-17.613z" fill="#2871a3"/><path d="m323.567 302.73-3.662-.726c-1.205.98-2.434 1.95-3.683 2.91-3.892 3.063-7.899 6.047-12.087 8.935l3.91.538c4.14-2.849 8.129-5.786 11.967-8.803 1.203-.945 2.388-1.894 3.555-2.854z" fill="#276e9e"/><path d="m308.045 314.387-3.91-.538c-2.347 1.615-4.75 3.205-7.227 4.762-2.833 1.811-5.706 3.583-8.638 5.315l4.112.42c2.912-1.709 5.769-3.459 8.568-5.25 2.414-1.543 4.779-3.11 7.095-4.709z" fill="#256b9a"/><path d="m292.387 324.346-4.111-.42c-4.092 2.416-8.295 4.743-12.655 6.961l4.268.356c4.262-2.213 8.435-4.514 12.498-6.897z" fill="#246895"/><path d="m279.884 331.243-4.268-.356-5.031 2.605 2.439 1.307z" fill="#276fa0"/><path d="m273.024 334.799-2.439-1.307.097 4.943 2.472 3.1z" fill="#205c84"/><path d="m305.036 350.416-6.182-3.012c.01.655.048 2.393.166 5.003l6.167 2.152c-.117-2.364-.145-3.824-.151-4.143z" fill="#0051b3"/><path d="m305.187 354.564-6.167-2.152c.145 3.108.418 7.451.934 12.659l6.15 1.479c-.511-5.045-.779-9.163-.917-11.986z" fill="#004fad"/><path d="m306.099 366.545-6.15-1.476c.434 4.418 1.045 9.463 1.898 14.908l6.134 1.128c-.848-5.359-1.448-10.287-1.882-14.56z" fill="#004da8"/><path d="m307.981 381.105-6.134-1.128c.733 4.699 1.649 9.695 2.799 14.85l6.111.933c-1.136-5.099-2.048-10.036-2.776-14.655z" fill="#004aa3"/><path d="m310.757 395.765-6.111-.934c1.006 4.541 2.186 9.203 3.58 13.885l6.091.824c-1.381-4.658-2.556-9.281-3.56-13.775z" fill="#00489e"/><path d="m314.312 409.535-6.091-.824c1.083 3.646 2.286 7.304 3.632 10.929.23.623.464 1.243.702 1.862l6.063.731c-.235-.614-.47-1.229-.697-1.848-1.333-3.599-2.531-7.233-3.609-10.85z" fill="#004699"/><path d="m318.623 422.235-6.063-.729c1.555 4.029 3.282 8.009 5.205 11.877l6.012.619c-1.903-3.834-3.614-7.775-5.154-11.767z" fill="#004394"/><path d="m323.777 433.997-6.012-.619c1.91 3.834 4.012 7.555 6.323 11.114l5.93.507c-2.278-3.52-4.354-7.205-6.241-11.002z" fill="#00418f"/><path d="m330.023 444.994-5.93-.507c2.503 3.843 5.256 7.482 8.28 10.845l5.807.388c-2.983-3.322-5.69-6.92-8.157-10.726z" fill="#003f8a"/><path d="m338.173 455.729-5.805-.39c11.265 12.528 26.327 21.18 46.454 21.908l4.748.186c-19.578-.763-34.319-9.315-45.397-21.704z" fill="#003c85"/><path d="m303.037 344.616-5.031 2.605.097 4.935c.048 1.428.837 36.714 13.175 70.82 1.849 4.979 3.808 9.8 5.945 14.258 2.164 4.379 4.431 8.61 6.875 12.459 4.917 7.523 10.359 14.164 16.399 19.37 3.843 3.183 7.901 6.098 12.187 8.374 4.272 2.152 8.782 4.041 13.497 5.294 4.681 1.131 9.635 1.986 14.761 2.208 5.125.222 10.591-.18 15.99-.882l1.688-.249 1.683-1.433c5.391-4.665 10.838-9.685 15.948-14.998 5.111-5.311 10.042-11.08 14.698-16.858 4.691-5.928 9.173-12.286 13.415-18.679 4.257-6.527 8.28-13.46 12.09-20.448 5.986-11.184 11.37-23.212 16.222-35.595 2.406-6.264 4.643-12.729 6.765-19.242 2.102-6.563 4.022-13.316 5.836-20.116 12.069-46.246 12.621-82.199 12.659-83.669l.064-5.015-5.029 2.398c-7.485 3.629-14.521 6.497-21.304 8.91-6.895 2.525-13.249 4.258-19.34 5.528-12.493 2.785-22.908 2.795-31.77.643-13.009-3.151-17.749-10.494-18.027-10.948l-4.725-8.859-4.559 13.39c-.322.855-5.003 12.873-17.93 28.91-8.826 10.953-19.2 21.279-31.673 30.911-6.076 4.777-12.425 9.363-19.315 13.689-6.778 4.343-13.811 8.472-21.291 12.289zm95.567 135.809c-47.721 6.985-71.839-23.884-84.195-57.217-12.332-33.253-13.019-69.107-13.122-74.5 39.644-20.56 62.72-42.329 76.442-59.451 13.643-17.031 18.033-29.392 20.13-35.3 2.135 3.802 6.583 11.767 20.295 15.189 13.791 3.436 36.934 2.218 76.585-16.656-.069 5.476-.514 41.893-12.588 87.283-12.098 45.507-35.933 100.224-83.547 140.652z" fill="#256997"/><path d="m397.892 263.16c1.185-3.336-3.56 9.985-17.936 27.908-14.296 17.833-38.119 40.277-74.92 59.348.034 1.733.713 37.14 12.89 69.972 12.151 32.748 35.69 62.782 80.668 56.177 44.879-38.079 68.139-91.392 80.038-136.097 11.921-44.815 12.365-80.786 12.386-82.545-36.809 17.538-60.698 18.817-75.068 15.242-14.445-3.59-19.266-12.155-18.058-10.005z" fill="#004eab"/><path d="m291.948 350.943-18.794-9.408c0 .073.005.219.01.446l18.794 9.41c-.005-.227-.005-.375-.01-.448z" fill="#236491"/><path d="m291.958 351.391-18.793-9.41c.038 1.336.181 5.298.681 11.072l18.794 9.41c-.498-5.774-.643-9.736-.682-11.072z" fill="#22618c"/><path d="m292.64 362.468-18.794-9.41c.417 4.794 1.078 10.841 2.128 17.672l18.793 9.41c-1.049-6.831-1.708-12.878-2.127-17.672z" fill="#215e88"/><path d="m294.773 380.135-18.794-9.41c.917 5.954 2.13 12.501 3.739 19.332l18.793 9.408c-1.609-6.827-2.822-13.376-3.738-19.33z" fill="#205b83"/><path d="m298.506 399.469-18.793-9.407c1.478 6.29 3.286 12.822 5.506 19.351l18.793 9.41c-2.214-6.532-4.027-13.063-5.506-19.354z" fill="#1f587f"/><path d="m304.012 418.823-18.793-9.41c.385 1.133.781 2.269 1.19 3.4 1.839 5.082 3.833 9.871 5.989 14.362.232.476.462.946.692 1.416l18.793 9.41c-.229-.47-.459-.943-.692-1.418-2.155-4.489-4.15-9.278-5.988-14.36-.407-1.136-.805-2.269-1.191-3.4z" fill="#1e557a"/><path d="m311.883 437.996-18.793-9.41c1.956 3.961 4.037 7.673 6.236 11.148 4.926 7.767 10.461 14.309 16.575 19.573 3.881 3.346 8.003 6.176 12.347 8.486.468.249.933.49 1.405.727l18.794 9.407c-.47-.236-.937-.475-1.405-.726-4.341-2.308-8.461-5.14-12.348-8.484-6.114-5.267-11.645-11.806-16.574-19.575-2.199-3.468-4.278-7.188-6.237-11.146z" fill="#1d5276"/><path d="m387.232 256.821-18.794-9.408c-.033.078-.125.32-.281.697l18.794 9.41c.156-.385.248-.619.281-.699z" fill="#2d81b9"/><path d="m386.946 257.52-18.794-9.41c-.186.454-.47 1.109-.863 1.955l18.794 9.408c.393-.846.677-1.502.863-1.953z" fill="#2e84be"/><path d="m386.083 259.473-18.794-9.408c-.391.841-.889 1.869-1.507 3.061l18.794 9.41c.618-1.197 1.116-2.223 1.507-3.063z" fill="#2f87c2"/><path d="m384.581 262.531-18.794-9.41c-.636 1.238-1.404 2.652-2.303 4.224l18.794 9.407c.899-1.569 1.667-2.983 2.303-4.221z" fill="#308ac7"/><path d="m382.272 266.752-18.793-9.407c-1.032 1.786-2.243 3.778-3.652 5.934l18.793 9.408c1.41-2.157 2.621-4.146 3.652-5.935z" fill="#328dcb"/><path d="m378.62 272.692-18.793-9.408c-2.335 3.576-5.218 7.617-8.724 11.972-5.368 6.656-11.444 13.119-18.15 19.312l18.793 9.41c6.707-6.195 12.782-12.656 18.151-19.312 3.511-4.36 6.389-8.399 8.723-11.974z" fill="#3390d0"/><path d="m351.751 303.978-18.793-9.41c-3.233 2.988-6.617 5.913-10.137 8.771l18.794 9.41c3.519-2.861 6.903-5.783 10.136-8.771z" fill="#328dcb"/><path d="m341.615 312.749-18.794-9.409c-.927.753-1.859 1.501-2.804 2.239-2.176 1.709-4.4 3.395-6.675 5.055l18.793 9.408c2.276-1.658 4.5-3.344 6.676-5.053.945-.738 1.877-1.486 2.804-2.24z" fill="#308ac7"/><path d="m332.135 320.042-18.793-9.408c-3.045 2.22-6.183 4.397-9.393 6.517l18.793 9.408c3.213-2.121 6.349-4.29 9.393-6.517z" fill="#2f87c2"/><path d="m322.742 326.559-18.793-9.408c-.994.651-1.985 1.301-2.994 1.945-2.155 1.374-4.341 2.73-6.563 4.058l18.794 9.41c2.222-1.331 4.408-2.684 6.563-4.061 1.004-.641 2-1.289 2.993-1.944z" fill="#2e84be"/><path d="m313.186 332.564-18.794-9.41c-3.238 1.937-6.54 3.826-9.919 5.654l18.794 9.41c3.378-1.83 6.681-3.714 9.919-5.654z" fill="#2d81b9"/><path d="m303.267 338.218-18.794-9.41c-1.517.824-3.044 1.635-4.589 2.435l18.793 9.41c1.545-.8 3.078-1.614 4.59-2.435z" fill="#2c7eb5"/><path d="m298.098 352.156-6.15-1.213c.005.243.033 1.423.128 3.373l6.157 1.172c-.097-1.93-.125-3.095-.135-3.332z" fill="#276e9e"/><path d="m298.233 355.488-6.157-1.172c.135 2.695.403 6.872.94 12.105l6.149 1.085c-.531-5.196-.794-9.344-.932-12.018z" fill="#256b9a"/><path d="m299.165 367.506-6.149-1.085c.444 4.351 1.072 9.432 1.956 14.999l6.139.991c-.878-5.532-1.501-10.582-1.946-14.905z" fill="#246895"/><path d="m301.111 382.411-6.139-.991c.766 4.83 1.731 10.031 2.939 15.434l6.117.907c-1.201-5.377-2.156-10.546-2.917-15.35z" fill="#236491"/><path d="m304.028 397.761-6.117-.907c1.073 4.819 2.342 9.798 3.834 14.828l6.091.817c-1.487-4.997-2.741-9.949-3.808-14.738z" fill="#22618c"/><path d="m307.835 412.503-6.09-.816c1.039 3.497 2.188 7.022 3.457 10.536.424 1.163.853 2.313 1.288 3.451l6.075.707c-.434-1.124-.868-2.255-1.292-3.4-1.262-3.493-2.403-7-3.438-10.478z" fill="#215e88"/><path d="m312.565 426.376-6.075-.707c1.473 3.809 3.039 7.451 4.701 10.909.238.495.478.985.715 1.47l6.027.624c-.242-.478-.477-.958-.72-1.438-1.639-3.432-3.179-7.085-4.648-10.858z" fill="#205b83"/><path d="m317.939 438.672-6.028-.624c1.947 3.938 4.02 7.638 6.214 11.094.176.278.355.555.531.826l5.969.526c-.177-.268-.355-.531-.527-.797-2.175-3.434-4.213-7.16-6.159-11.025z" fill="#1f587f"/><path d="m324.619 450.494-5.968-.526c2.945 4.545 6.096 8.662 9.46 12.337l5.876.375c-3.315-3.668-6.436-7.77-9.368-12.186z" fill="#1e557a"/><path d="m333.987 462.68-5.876-.375c2.112 2.315 4.31 4.45 6.583 6.412 3.882 3.344 8.007 6.176 12.348 8.484 4.344 2.31 8.913 4.102 13.702 5.374 4.788 1.27 9.791 2.018 15.001 2.245.526.022 1.057.041 1.588.051l5.164.114c-.526-.009-1.047-.026-1.565-.046-5.128-.222-10.083-1.072-14.764-2.208-4.712-1.253-9.222-3.137-13.495-5.294-4.285-2.276-8.343-5.191-12.189-8.374-2.24-1.935-4.406-4.072-6.497-6.383z" fill="#1d5276"/><path d="m393.246 258.822-6.014-2.001c0 .005-.005.015-.005.019l6.014 2.006c-.005-.01 0-.014.005-.024z" fill="#3390d0"/><path d="m393.236 258.846-6.017-2.006c-.02.052-.053.144-.107.278l5.999 2.047c.061-.148.097-.255.125-.319z" fill="#3494d4"/><path d="m393.113 259.158-6.001-2.045c-.046.125-.117.285-.197.48l5.984 2.089c.087-.209.161-.385.214-.524z" fill="#3597d9"/><path d="m392.899 259.685-5.984-2.087c-.076.176-.161.383-.263.615l5.969 2.13c.107-.247.196-.468.278-.658z" fill="#369add"/><path d="m392.621 260.343-5.969-2.13c-.092.207-.194.438-.306.692l5.948 2.171c.117-.268.23-.512.327-.733z" fill="#379de2"/><path d="m392.294 261.076-5.948-2.171c-.102.226-.215.475-.337.738l5.93 2.213c.127-.28.248-.541.355-.78z" fill="#4fa9e5"/><path d="m391.939 261.851-5.93-2.21c-.113.243-.235.497-.365.77l5.914 2.249c.136-.282.258-.553.381-.809z" fill="#59aee7"/><path d="m391.553 262.665-5.915-2.249c-.122.253-.252.521-.39.804l5.897 2.286c.145-.297.28-.573.408-.841z" fill="#61b1e8"/><path d="m391.145 263.506-5.897-2.286c-.125.254-.258.517-.399.79l5.884 2.322c.138-.285.279-.563.412-.826z" fill="#67b5e9"/><path d="m390.728 264.332-5.884-2.322c-.133.263-.273.531-.416.811l5.866 2.357c.153-.292.299-.573.434-.846z" fill="#6db7ea"/><path d="m390.294 265.178-5.866-2.357c-.141.268-.286.546-.442.831l5.851 2.394c.161-.295.312-.588.457-.868z" fill="#72baeb"/><path d="m389.842 266.046-5.851-2.394c-.143.273-.293.551-.449.834l5.828 2.425c.166-.297.321-.583.472-.865z" fill="#76bceb"/><path d="m389.375 266.911-5.828-2.425c-.151.275-.312.563-.473.858l5.813 2.456c.168-.304.329-.599.488-.889z" fill="#7bbeec"/><path d="m388.887 267.8-5.813-2.456c-.153.278-.314.563-.482.855l5.797 2.493c.171-.304.337-.599.498-.892z" fill="#7fc0ec"/><path d="m388.389 268.688-5.797-2.494c-.166.29-.332.583-.509.883l5.78 2.525c.179-.31.355-.615.526-.914z" fill="#83c2ed"/><path d="m387.863 269.606-5.78-2.525c-.171.3-.354.6-.536.91l5.759 2.559c.194-.32.376-.634.557-.944z" fill="#87c4ee"/><path d="m387.311 270.55-5.759-2.559c-.181.304-.37.619-.562.938l5.741 2.591c.2-.329.394-.651.58-.97z" fill="#8ac6ee"/><path d="m386.731 271.52-5.741-2.591c-.194.314-.385.636-.59.96l5.721 2.623c.21-.332.414-.663.61-.992z" fill="#8ec7ef"/><path d="m386.121 272.516-5.721-2.622c-.209.341-.429.692-.653 1.043l5.705 2.662c.23-.366.455-.727.669-1.083z" fill="#91c9ef"/><path d="m385.452 273.599-5.705-2.662c-.228.361-.463.726-.697 1.094l5.677 2.698c.247-.382.487-.762.725-1.13z" fill="#94cbef"/><path d="m384.727 274.729-5.677-2.698c-.253.393-.516.795-.785 1.202l5.657 2.734c.273-.416.542-.831.805-1.238z" fill="#97ccf0"/><path d="m383.922 275.967-5.657-2.734c-.288.439-.584.882-.888 1.335l5.628 2.776c.312-.463.618-.923.917-1.377z" fill="#9acdf0"/><path d="m383 277.349-5.631-2.776c-.337.498-.684 1.007-1.044 1.519l5.598 2.827c.375-.536.735-1.058 1.077-1.57z" fill="#9dcff1"/><path d="m381.928 278.914-5.598-2.827c-.434.629-.889 1.267-1.356 1.918l5.559 2.881c.478-.663.945-1.324 1.395-1.972z" fill="#a0d0f1"/><path d="m380.533 280.886-5.559-2.881c-1.523 2.115-3.213 4.341-5.077 6.656-.756.938-1.525 1.864-2.307 2.793l5.374 3.127c.791-.946 1.575-1.896 2.347-2.854 1.92-2.374 3.657-4.66 5.222-6.841z" fill="#a2d2f2"/><path d="m372.969 290.586-5.373-3.127c-.726.86-1.459 1.713-2.21 2.569l5.341 3.178c.755-.868 1.501-1.743 2.242-2.62z" fill="#a0d0f1"/><path d="m370.727 293.206-5.341-3.178c-.595.68-1.195 1.352-1.808 2.022l5.32 3.22c.618-.682 1.228-1.372 1.829-2.064z" fill="#9dcff1"/><path d="m368.898 295.27-5.32-3.22c-.513.568-1.034 1.136-1.56 1.702l5.304 3.251c.531-.578 1.055-1.155 1.576-1.733z" fill="#9acdf0"/><path d="m367.322 297.003-5.304-3.251c-.475.511-.953 1.018-1.44 1.533l5.286 3.278c.493-.522.981-1.039 1.458-1.56z" fill="#97ccf0"/><path d="m365.869 298.563-5.286-3.278c-.447.47-.902.938-1.351 1.408l5.276 3.303c.455-.476.912-.956 1.361-1.433z" fill="#94cbef"/><path d="m364.503 299.996-5.279-3.303c-.434.449-.873.897-1.318 1.343l5.261 3.332c.45-.463.894-.914 1.336-1.372z" fill="#91c9ef"/><path d="m363.172 301.358-5.261-3.329c-.434.439-.873.877-1.312 1.311l5.248 3.354c.439-.439.886-.888 1.325-1.336z" fill="#8ec7ef"/><path d="m361.842 302.698-5.248-3.353c-.435.429-.876.858-1.316 1.284l5.233 3.376c.452-.434.891-.873 1.331-1.307z" fill="#8ac6ee"/><path d="m360.516 304.005-5.233-3.376c-.429.42-.863.836-1.302 1.251l5.217 3.395c.44-.42.879-.846 1.318-1.27z" fill="#87c4ee"/><path d="m359.198 305.279-5.217-3.395c-.444.422-.889.846-1.341 1.261l5.197 3.419c.46-.424.912-.856 1.361-1.285z" fill="#83c2ed"/><path d="m357.842 306.564-5.197-3.42c-.459.432-.922.856-1.381 1.285l5.174 3.441c.465-.434.937-.867 1.404-1.306z" fill="#7fc0ec"/><path d="m356.433 307.87-5.177-3.441c-.475.439-.958.872-1.44 1.314l5.151 3.463c.495-.444.983-.887 1.466-1.336z" fill="#7bbeec"/><path d="m354.967 309.206-5.151-3.463c-.493.446-.994.889-1.497 1.333l5.121 3.492c.515-.458 1.024-.909 1.527-1.362z" fill="#76bceb"/><path d="m353.44 310.563-5.121-3.492c-.526.463-1.052.923-1.581 1.387l5.082 3.514c.547-.466 1.083-.938 1.62-1.409z" fill="#72baeb"/><path d="m351.82 311.972-5.082-3.514c-.564.485-1.131.97-1.701 1.455l5.042 3.543c.582-.49 1.167-.984 1.741-1.484z" fill="#6db7ea"/><path d="m350.079 313.456-5.042-3.543c-.605.511-1.218 1.026-1.833 1.533l4.987 3.575c.636-.517 1.265-1.038 1.888-1.565z" fill="#67b5e9"/><path d="m348.191 315.021-4.987-3.575c-.664.55-1.331 1.094-2.005 1.64l4.921 3.607c.697-.553 1.389-1.114 2.071-1.672z" fill="#61b1e8"/><path d="m346.12 316.693-4.921-3.607c-.789.636-1.589 1.274-2.393 1.903-.197.156-.396.31-.595.466l4.822 3.658c.196-.156.401-.314.6-.47.848-.646 1.673-1.295 2.487-1.95z" fill="#59aee7"/><path d="m343.038 319.113-4.822-3.658c-1.103.86-2.219 1.713-3.345 2.564l4.788 3.694c1.136-.857 2.263-1.728 3.379-2.6z" fill="#4fa9e5"/><path d="m339.659 321.713-4.789-3.694c-1.238.928-2.487 1.852-3.754 2.761l4.758 3.739c1.275-.924 2.536-1.862 3.785-2.806z" fill="#379de2"/><path d="m335.874 324.519-4.758-3.739c-1.361.98-2.732 1.955-4.127 2.915l4.712 3.775c1.41-.97 2.799-1.959 4.173-2.951z" fill="#369add"/><path d="m331.701 327.47-4.712-3.775c-1.496 1.031-3.013 2.052-4.548 3.063l4.645 3.81c1.566-1.017 3.103-2.05 4.615-3.098z" fill="#3597d9"/><path d="m327.086 330.568-4.645-3.81c-.889.585-1.79 1.168-2.692 1.745-1.356.868-2.727 1.728-4.111 2.579l4.54 3.86c1.395-.857 2.779-1.732 4.15-2.61.93-.582 1.847-1.167 2.758-1.764z" fill="#3494d4"/><path d="m320.178 334.942-4.54-3.86c-2.452 1.501-4.94 2.973-7.47 4.414l4.489 3.919c2.551-1.46 5.054-2.952 7.521-4.473z" fill="#3390d0"/><path d="m312.657 339.415-4.49-3.919c-2.497 1.423-5.033 2.815-7.607 4.172l4.39 3.953c2.622-1.367 5.187-2.771 7.707-4.206z" fill="#328dcb"/><path d="m304.957 343.621-4.392-3.953c-.629.332-1.254.661-1.888.987l4.355 3.961c.648-.329 1.287-.661 1.925-.995z" fill="#308ac7"/><path d="m298.677 340.653-18.793-9.41-6.86 3.556 18.796 9.41z" fill="#308ac7"/><path d="m291.82 344.209-18.796-9.41.13 6.736 18.794 9.408z" fill="#276fa0"/><path d="m303.037 344.616-4.36-3.963-6.857 3.556 6.186 3.012z" fill="#3493d4"/><path d="m298.006 347.221-6.186-3.012.128 6.734 6.15 1.213z" fill="#2b7bb1"/><path d="m396.48 433.395c49.503-42.017 50.458-119.493 50.458-119.493-40.917 19.483-50.844 1.794-50.844 1.794s-9.774 27.491-50.686 48.702c0 0 1.463 76.267 51.072 68.997zm-.483-147.035s14.876 26.514 76.184-2.689c0 0-1.431 116.088-75.604 179.051-74.333 10.896-76.526-103.391-76.526-103.391 61.297-31.773 75.946-72.971 75.946-72.971z" fill="#00e1ff" opacity=".2"/><path d="m396.094 315.691s9.927 17.694 50.844-1.791c0 0-.955 77.473-50.458 119.49-49.609 7.273-51.072-68.997-51.072-68.997 40.912-21.21 50.686-48.702 50.686-48.702z" fill="#00e4ff" opacity=".3608"/><path d="m395.718 397.225c1.517-.758 2.751-2.596 2.746-4.107l-.021-7.131.514-.614c1.535-1.826 2.441-4.019 2.436-5.867-.013-3.122-2.589-4.384-5.743-2.817-3.16 1.57-5.716 5.386-5.706 8.508.005 1.848.927 3.132 2.467 3.427l.521.097.021 7.132c0 .733.288 1.274.809 1.528.526.268 1.223.209 1.956-.156zm-.068-21.723c3.833-1.908 6.943-.38 6.954 3.41.005 2.332-1.157 4.969-2.95 7.102l.023 6.505c.005 2.171-1.765 4.813-3.953 5.902-1.099.544-2.084.595-2.81.244-.717-.351-1.169-1.111-1.174-2.198l-.021-6.503c-1.79-.351-2.975-1.825-2.98-4.157-.013-3.788 3.082-8.401 6.911-10.305z" fill="#00e1ff"/><path d="m404.261 357.969-.028-7.621c-.015-4.726-3.907-6.644-8.686-4.27-4.773 2.376-8.642 8.152-8.627 12.878l.026 7.621zm-8.714-13.085c5.437-2.708 9.879-.529 9.899 4.862l.026 8.818-19.726 9.812-.026-8.818c-.023-5.386 4.39-11.969 9.827-14.674z" fill="#00e1ff"/><path d="m411.494 346.738c-.026-8.686-7.189-12.203-15.962-7.842-8.778 4.365-15.893 14.983-15.867 23.672l.028 8.818-.569.282c-4.005 1.992-7.243 6.827-7.233 10.79l.097 29.941c.01 3.967 3.269 5.564 7.281 3.575l32.965-16.397c4.005-1.992 7.245-6.827 7.233-10.792l-.095-29.939c-.013-3.967-3.271-5.566-7.283-3.575l-.572.285zm-15.967-9.037c9.442-4.699 17.146-.916 17.18 8.433l.025 7.641c4.37-1.848 7.841.063 7.851 4.465l.097 29.94c.015 4.624-3.77 10.268-8.441 12.593l-32.965 16.398c-4.671 2.322-8.484.451-8.499-4.168l-.097-29.941c-.015-4.406 3.432-9.748 7.802-12.254l-.026-7.638c-.028-9.349 7.629-20.772 17.073-25.469z" fill="#00e1ff"/><path d="m402.604 378.912c-.011-3.793-3.121-5.318-6.954-3.41-3.829 1.904-6.924 6.517-6.911 10.309.005 2.333 1.19 3.802 2.98 4.158l.021 6.503c.007 1.084.457 1.847 1.174 2.198.726.351 1.717.3 2.81-.244 2.188-1.092 3.963-3.733 3.953-5.903l-.023-6.504c1.793-2.138 2.96-4.775 2.95-7.107zm2.842-29.166c-.015-5.391-4.456-7.565-9.899-4.862-5.437 2.705-9.85 9.283-9.835 14.674l.029 8.818 19.725-9.812zm-9.919-10.85c8.777-4.365 15.936-.844 15.961 7.842l.029 8.818.572-.285c4.007-1.991 7.265-.392 7.283 3.575l.095 29.939c.012 3.968-3.228 8.8-7.233 10.792l-32.965 16.397c-4.007 1.989-7.266.392-7.281-3.575l-.097-29.941c-.01-3.968 3.228-8.798 7.233-10.79l.569-.282-.028-8.818c-.031-8.689 7.089-19.307 15.862-23.672z" fill="#00e1ff" opacity=".4"/></g></svg>