<svg fill="none" height="462" viewBox="0 0 532 462" width="532" xmlns="http://www.w3.org/2000/svg" xmlns:xlink="http://www.w3.org/1999/xlink"><filter id="a" color-interpolation-filters="sRGB" filterUnits="userSpaceOnUse" height="461.09" width="530.859" x=".570007" y=".109985"><feFlood flood-opacity="0" result="BackgroundImageFix"/><feColorMatrix in="SourceAlpha" type="matrix" values="0 0 0 0 0 0 0 0 0 0 0 0 0 0 0 0 0 0 127 0"/><feOffset dy="4"/><feGaussianBlur stdDeviation="2"/><feColorMatrix type="matrix" values="0 0 0 0 0 0 0 0 0 0 0 0 0 0 0 0 0 0 0.25 0"/><feBlend in2="BackgroundImageFix" mode="normal" result="effect1_dropShadow"/><feBlend in="SourceGraphic" in2="effect1_dropShadow" mode="normal" result="shape"/></filter><filter id="b" color-interpolation-filters="sRGB" filterUnits="userSpaceOnUse" height="338.667" width="522.859" x="4.57001" y="114.532"><feFlood flood-opacity="0" result="BackgroundImageFix"/><feColorMatrix in="SourceAlpha" type="matrix" values="0 0 0 0 0 0 0 0 0 0 0 0 0 0 0 0 0 0 127 0"/><feMorphology in="SourceAlpha" operator="erode" radius="263" result="effect1_dropShadow"/><feOffset dx=".459319" dy="29.3964"/><feGaussianBlur stdDeviation="3.65625"/><feColorMatrix type="matrix" values="0 0 0 0 0.188235 0 0 0 0 0.811765 0 0 0 0 0.815686 0 0 0 0.2 0"/><feBlend in2="BackgroundImageFix" mode="normal" result="effect1_dropShadow"/><feColorMatrix in="SourceAlpha" type="matrix" values="0 0 0 0 0 0 0 0 0 0 0 0 0 0 0 0 0 0 127 0"/><feMorphology in="SourceAlpha" operator="erode" radius="263" result="effect2_dropShadow"/><feOffset dx="1.60918" dy="102.987"/><feGaussianBlur stdDeviation="22.5"/><feColorMatrix type="matrix" values="0 0 0 0 0.188235 0 0 0 0 0.811765 0 0 0 0 0.815686 0 0 0 0.1 0"/><feBlend in2="effect1_dropShadow" mode="normal" result="effect2_dropShadow"/><feBlend in="SourceGraphic" in2="effect2_dropShadow" mode="normal" result="shape"/></filter><linearGradient id="c" gradientUnits="userSpaceOnUse" x1="4.57321" x2="527.417" y1="359.584" y2="359.584"><stop offset="0" stop-color="#222f65"/><stop offset=".1328" stop-color="#21487e"/><stop offset=".2966" stop-color="#1b639d"/><stop offset=".4236" stop-color="#1075b4"/><stop offset=".4973" stop-color="#057dbf"/><stop offset=".5108" stop-color="#0a80c1"/><stop offset=".6679" stop-color="#2b9cd3"/><stop offset=".8074" stop-color="#3eb2e1"/><stop offset=".9228" stop-color="#49c0ea"/><stop offset="1" stop-color="#4bc8ee"/></linearGradient><linearGradient id="d" gradientUnits="userSpaceOnUse" x1="4.57591" x2="527.425" y1="268.665" y2="268.665"><stop offset="0" stop-color="#095da9"/><stop offset=".1219" stop-color="#1c69b0"/><stop offset=".546" stop-color="#4398cb"/><stop offset=".847" stop-color="#5bbbde"/><stop offset=".9946" stop-color="#63cbe6"/></linearGradient><linearGradient id="e" gradientUnits="userSpaceOnUse" x1="4.57591" x2="527.425" y1="265.963" y2="265.963"><stop offset=".005405" stop-color="#63cbe6"/><stop offset=".153" stop-color="#5bbbde"/><stop offset=".454" stop-color="#4398cb"/><stop offset=".8781" stop-color="#1c69b0"/><stop offset="1" stop-color="#095da9"/></linearGradient><linearGradient id="f"><stop offset="0" stop-color="#64c4f0"/><stop offset=".0159" stop-color="#5fb5de"/><stop offset=".0797" stop-color="#4e8cb4"/><stop offset=".1492" stop-color="#406b93"/><stop offset=".223" stop-color="#33537b"/><stop offset=".302" stop-color="#294069"/><stop offset=".3882" stop-color="#22315c"/><stop offset=".4841" stop-color="#1c2553"/><stop offset=".5953" stop-color="#181c4c"/><stop offset=".7357" stop-color="#161649"/><stop offset="1" stop-color="#151548"/></linearGradient><linearGradient id="g" gradientUnits="userSpaceOnUse" x1="256.817" x2="298.889" xlink:href="#f" y1="244.137" y2="244.137"/><linearGradient id="h"><stop offset="0" stop-color="#64c4f0"/><stop offset=".0217" stop-color="#5fb7e0"/><stop offset=".1273" stop-color="#4d88b0"/><stop offset=".2373" stop-color="#3d658d"/><stop offset=".3497" stop-color="#304c75"/><stop offset=".465" stop-color="#263963"/><stop offset=".584" stop-color="#1e2a56"/><stop offset=".7086" stop-color="#191e4e"/><stop offset=".842" stop-color="#161749"/><stop offset="1" stop-color="#151548"/></linearGradient><linearGradient id="i" gradientUnits="userSpaceOnUse" x1="284.842" x2="272.371" xlink:href="#h" y1="222.18" y2="256.314"/><linearGradient id="j"><stop offset="0" stop-color="#151548"/><stop offset=".2643" stop-color="#161649"/><stop offset=".4047" stop-color="#181c4c"/><stop offset=".5159" stop-color="#1c2553"/><stop offset=".6118" stop-color="#22315c"/><stop offset=".698" stop-color="#294069"/><stop offset=".777" stop-color="#33537b"/><stop offset=".8508" stop-color="#406b93"/><stop offset=".9203" stop-color="#4e8cb4"/><stop offset=".9841" stop-color="#5fb5de"/><stop offset="1" stop-color="#64c4f0"/></linearGradient><linearGradient id="k" gradientUnits="userSpaceOnUse" x1="272.879" x2="185.248" xlink:href="#j" y1="191.618" y2="246.757"/><linearGradient id="l" gradientUnits="userSpaceOnUse" x1="291.323" x2="342.483" xlink:href="#f" y1="262.786" y2="262.786"/><linearGradient id="m" gradientUnits="userSpaceOnUse" x1="324.149" x2="303.801" xlink:href="#h" y1="238.156" y2="276.228"/><linearGradient id="n" gradientUnits="userSpaceOnUse" x1="297.403" x2="211.741" xlink:href="#j" y1="174.94" y2="237.955"/><linearGradient id="o"><stop offset="0" stop-color="#4bc8ee"/><stop offset=".1523" stop-color="#44a0c6"/><stop offset=".7428" stop-color="#223a64"/><stop offset="1" stop-color="#151548"/></linearGradient><linearGradient id="p" gradientUnits="userSpaceOnUse" x1="434.139" x2="434.139" xlink:href="#o" y1="165.37" y2="251.48"/><linearGradient id="q" gradientUnits="userSpaceOnUse" x1="426.619" x2="426.619" xlink:href="#o" y1="156.151" y2="268.564"/><linearGradient id="r" gradientUnits="userSpaceOnUse" x1="173.864" x2="173.864" xlink:href="#o" y1="125.175" y2="211.285"/><linearGradient id="s" gradientUnits="userSpaceOnUse" x1="166.343" x2="166.343" xlink:href="#o" y1="115.956" y2="228.369"/><linearGradient id="t" gradientUnits="userSpaceOnUse" x1="268.4" x2="268.4" xlink:href="#o" y1="69.4663" y2="155.576"/><linearGradient id="u" gradientUnits="userSpaceOnUse" x1="260.879" x2="260.879" xlink:href="#o" y1="60.2473" y2="172.66"/><linearGradient id="v" gradientUnits="userSpaceOnUse" x1="156.398" x2="437.839" y1="135.417" y2="135.417"><stop offset="0" stop-color="#151548"/><stop offset=".2572" stop-color="#223a64"/><stop offset=".8477" stop-color="#44a0c6"/><stop offset="1" stop-color="#4bc8ee"/></linearGradient><linearGradient id="w"><stop offset="0" stop-color="#4bc8ee"/><stop offset=".1072" stop-color="#4197bd"/><stop offset=".2332" stop-color="#367096"/><stop offset=".3615" stop-color="#2c537a"/><stop offset=".4896" stop-color="#233d66"/><stop offset=".6175" stop-color="#1d2c58"/><stop offset=".7452" stop-color="#18204f"/><stop offset=".8727" stop-color="#161849"/><stop offset="1" stop-color="#151548"/></linearGradient><linearGradient id="x" gradientUnits="userSpaceOnUse" x1="323.603" x2="261.065" xlink:href="#w" y1="80.1014" y2="197.007"/><linearGradient id="y"><stop offset="0" stop-color="#4bc8ee"/><stop offset=".0907" stop-color="#49b8de"/><stop offset=".256" stop-color="#429bc2"/><stop offset=".4775" stop-color="#377299"/><stop offset=".7432" stop-color="#26446d"/><stop offset="1" stop-color="#151548"/></linearGradient><linearGradient id="z" gradientUnits="userSpaceOnUse" x1="209.772" x2="279.993" xlink:href="#y" y1="22.3369" y2="22.3369"/><linearGradient id="A" gradientUnits="userSpaceOnUse" x1="297.696" x2="367.386" xlink:href="#y" y1="28.9528" y2="28.9528"/><linearGradient id="B" gradientUnits="userSpaceOnUse" x1="342.315" x2="409.619" y1="100.113" y2="100.113"><stop offset="0" stop-color="#4bc8ee"/><stop offset=".1158" stop-color="#45a4ca"/><stop offset=".3731" stop-color="#316289"/><stop offset=".7131" stop-color="#151548"/></linearGradient><linearGradient id="C" gradientUnits="userSpaceOnUse" x1="280.04" x2="339.485" xlink:href="#y" y1="68.2766" y2="68.2766"/><linearGradient id="D" gradientUnits="userSpaceOnUse" x1="247.868" x2="239.879" xlink:href="#w" y1="126.785" y2="135.742"/><linearGradient id="E" gradientUnits="userSpaceOnUse" x1="243.485" x2="173.484" xlink:href="#w" y1="137.036" y2="113.49"/><linearGradient id="F" gradientUnits="userSpaceOnUse" x1="194.834" x2="190.075" y1="95.8409" y2="104.702"><stop offset="0" stop-color="#64c4f0"/><stop offset=".0254" stop-color="#5eb4dd"/><stop offset=".1294" stop-color="#4c87af"/><stop offset=".2381" stop-color="#3c648d"/><stop offset=".3491" stop-color="#2f4b74"/><stop offset=".4633" stop-color="#253862"/><stop offset=".5816" stop-color="#1e2956"/><stop offset=".7057" stop-color="#191e4e"/><stop offset=".8394" stop-color="#161749"/><stop offset="1" stop-color="#151548"/></linearGradient><linearGradient id="G" gradientUnits="userSpaceOnUse" x1="154.519" x2="225.587" y1="158.19" y2="158.19"><stop offset="0" stop-color="#151548"/><stop offset=".3583" stop-color="#161649"/><stop offset=".496" stop-color="#171b4c"/><stop offset=".5957" stop-color="#1b2351"/><stop offset=".6771" stop-color="#202e5a"/><stop offset=".7473" stop-color="#273b65"/><stop offset=".8098" stop-color="#304c75"/><stop offset=".8666" stop-color="#3b628a"/><stop offset=".919" stop-color="#487da5"/><stop offset=".9658" stop-color="#56a0c8"/><stop offset="1" stop-color="#64c4f0"/></linearGradient><linearGradient id="H" gradientUnits="userSpaceOnUse" x1="279.655" x2="273.373" xlink:href="#w" y1="146.817" y2="157.044"/><linearGradient id="I" gradientUnits="userSpaceOnUse" x1="277.01" x2="200.544" xlink:href="#w" y1="156.614" y2="145.291"/><linearGradient id="J"><stop offset="0" stop-color="#151548"/><stop offset=".2465" stop-color="#161649"/><stop offset=".3849" stop-color="#171c4c"/><stop offset=".4964" stop-color="#1a2552"/><stop offset=".5937" stop-color="#1f315c"/><stop offset=".6817" stop-color="#244069"/><stop offset=".763" stop-color="#2c537a"/><stop offset=".8392" stop-color="#356b92"/><stop offset=".9113" stop-color="#3e8bb1"/><stop offset=".9777" stop-color="#48b3d9"/><stop offset="1" stop-color="#4bc8ee"/></linearGradient><linearGradient id="K" gradientUnits="userSpaceOnUse" x1="193.206" x2="187.27" xlink:href="#J" y1="337.483" y2="352.773"/><linearGradient id="L"><stop offset="0" stop-color="#4bc8ee"/><stop offset=".1373" stop-color="#44a2c8"/><stop offset=".5665" stop-color="#2b5179"/><stop offset=".8628" stop-color="#1b2754"/><stop offset="1" stop-color="#151548"/></linearGradient><radialGradient id="M" cx="192.862" cy="344.583" gradientUnits="userSpaceOnUse" r="6.62309" xlink:href="#L"/><linearGradient id="N"><stop offset="0" stop-color="#4bc8ee"/><stop offset=".2168" stop-color="#3d85ac"/><stop offset=".4247" stop-color="#2f5a81"/><stop offset=".6127" stop-color="#233d66"/><stop offset=".7772" stop-color="#1b2855"/><stop offset=".9119" stop-color="#171a4b"/><stop offset="1" stop-color="#151548"/></linearGradient><linearGradient id="O" gradientUnits="userSpaceOnUse" x1="188.395" x2="192.023" xlink:href="#N" y1="334.768" y2="334.768"/><linearGradient id="P" gradientUnits="userSpaceOnUse" x1="271.707" x2="265.771" xlink:href="#J" y1="313.24" y2="328.529"/><radialGradient id="Q" cx="271.364" cy="320.34" gradientUnits="userSpaceOnUse" r="6.62309" xlink:href="#L"/><linearGradient id="R" gradientUnits="userSpaceOnUse" x1="266.897" x2="270.524" xlink:href="#N" y1="310.525" y2="310.525"/><linearGradient id="S" gradientUnits="userSpaceOnUse" x1="257.922" x2="251.986" xlink:href="#J" y1="262.648" y2="277.937"/><radialGradient id="T" cx="257.578" cy="269.747" gradientUnits="userSpaceOnUse" r="6.62309" xlink:href="#L"/><linearGradient id="U" gradientUnits="userSpaceOnUse" x1="253.112" x2="256.739" xlink:href="#N" y1="259.933" y2="259.933"/><linearGradient id="V" gradientUnits="userSpaceOnUse" x1="172.101" x2="166.165" xlink:href="#J" y1="257.794" y2="273.083"/><radialGradient id="W" cx="171.757" cy="264.894" gradientUnits="userSpaceOnUse" r="6.6231" xlink:href="#L"/><linearGradient id="X" gradientUnits="userSpaceOnUse" x1="167.291" x2="170.918" xlink:href="#N" y1="255.079" y2="255.079"/><linearGradient id="Y" gradientUnits="userSpaceOnUse" x1="135.004" x2="129.068" xlink:href="#J" y1="298.081" y2="313.37"/><radialGradient id="Z" cx="134.66" cy="305.18" gradientUnits="userSpaceOnUse" r="6.6231" xlink:href="#L"/><linearGradient id="aa" gradientUnits="userSpaceOnUse" x1="130.194" x2="133.821" xlink:href="#N" y1="295.365" y2="295.365"/><linearGradient id="ab" gradientUnits="userSpaceOnUse" x1="172.691" x2="193.327" y1="267.513" y2="267.513"><stop offset="0" stop-color="#4bc8ee"/><stop offset=".1042" stop-color="#48b3d9"/><stop offset=".3124" stop-color="#3e8cb3"/><stop offset=".6052" stop-color="#2e5880"/><stop offset=".9684" stop-color="#171b4c"/><stop offset="1" stop-color="#151548"/></linearGradient><linearGradient id="ac"><stop offset="0" stop-color="#151548"/><stop offset=".0315" stop-color="#181e4e"/><stop offset=".1862" stop-color="#25436b"/><stop offset=".3399" stop-color="#32638a"/><stop offset=".4888" stop-color="#3c82a8"/><stop offset=".6319" stop-color="#439dc3"/><stop offset=".768" stop-color="#48b1d8"/><stop offset=".8939" stop-color="#4bc0e7"/><stop offset="1" stop-color="#4bc8ee"/></linearGradient><linearGradient id="ad" gradientUnits="userSpaceOnUse" x1="193.327" x2="207.485" xlink:href="#ac" y1="308.777" y2="308.777"/><linearGradient id="ae" gradientUnits="userSpaceOnUse" x1="129.292" x2="195.246" y1="289.411" y2="289.411"><stop offset="0" stop-color="#4bc8ee"/><stop offset=".1061" stop-color="#4bc0e7"/><stop offset=".232" stop-color="#48b1d8"/><stop offset=".3681" stop-color="#439dc3"/><stop offset=".5112" stop-color="#3c82a8"/><stop offset=".6601" stop-color="#32638a"/><stop offset=".8138" stop-color="#25436b"/><stop offset=".9685" stop-color="#181e4e"/><stop offset="1" stop-color="#151548"/></linearGradient><linearGradient id="af" gradientUnits="userSpaceOnUse" x1="207.485" x2="270.372" xlink:href="#ac" y1="297.445" y2="297.445"/><linearGradient id="ag" gradientUnits="userSpaceOnUse" x1="213.713" x2="258.561" xlink:href="#ac" y1="267.199" y2="267.199"/><linearGradient id="ah" gradientUnits="userSpaceOnUse" x1="192.368" x2="209.636" xlink:href="#ac" y1="269.222" y2="269.222"/><linearGradient id="ai"><stop offset="0" stop-color="#151548"/><stop offset=".0881" stop-color="#171a4b"/><stop offset=".2228" stop-color="#1b2855"/><stop offset=".3873" stop-color="#233d66"/><stop offset=".5753" stop-color="#2f5a81"/><stop offset=".7832" stop-color="#3d85ac"/><stop offset="1" stop-color="#4bc8ee"/></linearGradient><linearGradient id="aj" gradientUnits="userSpaceOnUse" x1="200.047" x2="218.068" xlink:href="#ai" y1="218.616" y2="215.883"/><linearGradient id="ak" gradientUnits="userSpaceOnUse" x1="167.084" x2="165.057" xlink:href="#N" y1="159.474" y2="258.338"/><linearGradient id="al" gradientUnits="userSpaceOnUse" x1="165.546" x2="157.041" xlink:href="#N" y1="148.225" y2="163.015"/><linearGradient id="am" gradientUnits="userSpaceOnUse" x1="243.207" x2="249.539" xlink:href="#N" y1="235.211" y2="247.329"/><linearGradient id="an" gradientUnits="userSpaceOnUse" x1="214.874" x2="275.751" xlink:href="#ac" y1="234.939" y2="234.939"/><linearGradient id="ao" gradientUnits="userSpaceOnUse" x1="241.056" x2="250.407" xlink:href="#ai" y1="230.249" y2="230.249"/><linearGradient id="ap" gradientUnits="userSpaceOnUse" x1="212.855" x2="275.751" xlink:href="#N" y1="212.216" y2="212.216"/><linearGradient id="aq" gradientUnits="userSpaceOnUse" x1="213.713" x2="276.385" xlink:href="#ai" y1="214.48" y2="214.48"/><linearGradient id="ar" gradientUnits="userSpaceOnUse" x1="239.455" x2="239.455" xlink:href="#j" y1="219.426" y2="247.496"/><linearGradient id="as" gradientUnits="userSpaceOnUse" x1="339.604" x2="339.604" xlink:href="#o" y1="224.476" y2="307.813"/><linearGradient id="at" gradientUnits="userSpaceOnUse" x1="332.084" x2="332.084" xlink:href="#o" y1="216.882" y2="324.373"/><g filter="url(#a)"><g filter="url(#b)"><path d="m527.4 266.74v34.61c.02.33.02.67 0 1.01v1.49h-.19c-.74 3.7-3.55 7.27-8.42 10.11l-230.94 134.2c-11.57 6.72-30.4 6.72-42.05 0l-232.44-134.2c-4.91999-2.84-7.75999-6.42-8.54999-10.11h-.24v-37.89c.03 4.4 2.96 8.82 8.77999 12.18l232.44 134.2c11.65 6.73 30.48 6.73 42.05 0l230.94-134.21c5.45-3.16 8.32-7.24 8.62-11.39z" fill="url(#c)"/><path d="m518.65 256.49-232.45-134.21c-11.65-6.73-30.47-6.73-42.04 0l-230.94 134.21c-11.57999 6.73-11.50999 17.63.14 24.36l232.45 134.2c11.65 6.73 30.47 6.73 42.05 0l230.94-134.21c11.56-6.72 11.5-17.63-.15-24.35z" fill="url(#d)"/><path d="m518.65 253.78-232.45-134.2c-11.65-6.73-30.47-6.73-42.04 0l-230.94 134.21c-11.57999 6.73-11.50999 17.63.14 24.36l232.45 134.2c11.65 6.73 30.47 6.73 42.05 0l230.94-134.21c11.56-6.73 11.5-17.63-.15-24.36z" fill="url(#e)"/></g><path d="m298.62 228.79s1.43 6.34-2.29 10.91c-3.78 4.64-7.95 7.17-13.02 8.15-4.47.86-6.99 2.59-8.71 5.36-1.65 2.66-5.34 7.97-14.3 5.73-4.46-2.03-4.55-6.18-.79-13.31s39.11-16.84 39.11-16.84z" fill="url(#g)"/><path d="m279.99 230.01s8.59-2.12 11.28-3.37c1.9-.89 5.87-1.49 7.06 1.14.5 1.1.51 2.75-.3 5.18-2.76 8.27-11.4 12.49-16.57 13.43s-7.57 4.38-9.49 6.74c-2.91 3.58-8.97 5.29-13.35 1.54-3.33-3.96 1.58-10.06 2.73-11.77 1.16-1.72 6.05-11.71 18.64-12.89z" fill="url(#i)"/><path d="m176.47 236.08 66.7-43.5 16.87 53.74s15.82-3.08 22.67-12.2l-18.45-58.76s-11.79-22.37-38.98-4.16-59.35 40.62-59.35 40.62z" fill="url(#k)"/><path d="m341.19 246.32s1.87 2.98 1.11 5.44-4.66 7.38-10.29 9.57-16.21 7.99-17.83 10.03l-.15 2.7s-8.6 6.2-15.92 5.05-6.67-9.89-6.79-12.77z" fill="url(#l)"/><path d="m292.38 254.76s-3.13 12.41.79 16.38c3.91 3.97 16.3 1.71 19.46-.99 3.15-2.7 15.69-9.9 20.44-12.01 4.75-2.12 10.29-9.57 7.14-13.62-3.16-4.05-9.05.75-12.46 1.19-3.4.44-9.22 1.49-14-.4-4.78-1.9-21.37 9.45-21.37 9.45z" fill="url(#m)"/><path d="m154.52 192.31s-12.58 37.96 14.31 44.55c10.54 12.39 36.91 18.98 52.46 7.91s55.1-37.17 55.1-37.17 11.07 28.47 15.29 49.03c0 0 19.24 1.58 24.78-10.02 0 0-17.14-49.3-16.87-52.99.26-3.69-12.5-27.94-33.67-13.97-21.16 13.97-55.17 34.53-55.17 34.53z" fill="url(#n)"/><path d="m430.44 155.97v114.85l7.4-4.39v-110.46z" fill="url(#p)"/><path d="m430.44 270.82-7.64-4.58v-110.27h7.64z" fill="url(#q)"/><path d="m170.16 115.77v114.85l7.4-4.39v-110.46z" fill="url(#r)"/><path d="m170.16 230.62-7.64-4.58v-110.27h7.64z" fill="url(#s)"/><path d="m264.7 60.06v114.86l7.4-4.4v-110.46z" fill="url(#t)"/><path d="m264.7 174.92-7.64-4.58v-110.28h7.64z" fill="url(#u)"/><path d="m159.98 107.95 94.12-53.4c3.86-2.19 8.59-2.18 12.44.03l167.8 96.39c.94.54 1.68 1.24 2.24 2.04l1.25-1.95v5.93c.01 2.35-1.16 4.71-3.49 6.05l-91.65 52.68c-5.09 2.93-11.35 2.93-16.44 0l-166.3-95.48c-4.75-2.72-4.73-9.59.03-12.29z" fill="url(#v)"/><path d="m326.26 209.8-166.3-95.48c-4.76-2.73-4.74-9.6.03-12.3l94.12-53.4c3.86-2.19 8.59-2.18 12.44.03l167.8 96.39c4.66 2.68 4.66 9.39 0 12.07l-91.65 52.68c-5.09 2.93-11.35 2.93-16.44.01z" fill="url(#x)"/><path d="m345.8 77.45-66.64-38.48c-.45-.26-.9-.24-1.24-.01l-1.05.6c.29-.1.63-.06.98.14l66.64 38.48c.43.25.79.71 1 1.23l1.3-.74c-.21-.52-.56-.97-.99-1.22z" fill="#aec3e5"/><path d="m345.49 79.41c.19.47.28 1 .2 1.48l-8.61 54.68c-.08.48-.29.83-.58 1.02l1.14-.64c.08-.03.15-.07.22-.12.26-.2.46-.53.53-.98l8.61-54.68c.08-.49-.01-1.02-.21-1.5z" fill="#7595ba"/><path d="m344.49 78.18-66.64-38.48c-.83-.48-1.63-.03-1.79.99l-8.61 54.68c-.16 1.02.38 2.24 1.2 2.72l66.64 38.48c.83.48 1.63.03 1.79-.99l8.61-54.68c.16-1.03-.37-2.24-1.2-2.72z" fill="#26397d"/><path d="m344.29 81.85-.31 1.97-7.74 49.13c-.13.79-.63 1.23-1.23 1.18-.18-.02-.36-.08-.55-.19l-64.41-37.18c-.83-.48-1.36-1.69-1.2-2.71l8.05-51.11c.16-1.03.96-1.47 1.79-.99l64.4 37.18c.83.48 1.36 1.69 1.2 2.72z" fill="#2f4da1"/><path d="m334.26 138.25-65.28-37.69c-1-.58-2.61-.58-3.61 0l-44.3 25.75c-.99.58-.99 1.51.01 2.09l65.28 37.69c1 .58 2.61.58 3.6 0l44.3-25.75c1-.58.99-1.52 0-2.09z" fill="#1e2c5d"/><path d="m220.33 127.22v-2.77l44.07-25.16 70.61 37.28v2.98z" fill="#1e2c5d"/><path d="m334.26 135.48-65.28-37.69c-1-.58-2.61-.58-3.61 0l-44.3 25.75c-.99.58-.99 1.51.01 2.09l65.28 37.69c1 .58 2.61.58 3.6 0l44.3-25.75c1-.58.99-1.52 0-2.09z" fill="#aec3e5"/><g fill="#26397d"><path d="m268.8 107.96-4.14-2.4-3.53 2.05 4.14 2.4z"/><path d="m273.94 110.92-4.1-2.37-3.53 2.05 4.1 2.37z"/><path d="m279.07 113.88-4.1-2.36-3.53 2.05 4.1 2.36z"/><path d="m284.2 116.84-4.1-2.36-3.53 2.05 4.1 2.36z"/><path d="m289.33 119.81-4.1-2.37-3.53 2.05 4.1 2.37z"/><path d="m294.46 122.77-4.1-2.37-3.53 2.05 4.1 2.37z"/><path d="m299.59 125.73-4.1-2.37-3.53 2.06 4.1 2.36z"/><path d="m304.72 128.69-4.1-2.36-3.53 2.05 4.1 2.36z"/><path d="m309.85 131.66-4.09-2.37-3.53 2.05 4.09 2.37z"/><path d="m314.98 134.62-4.09-2.37-3.53 2.05 4.1 2.37z"/><path d="m319.96 137.49-3.94-2.27-3.53 2.05 3.94 2.27z"/><path d="m266.89 112.06-6.73-3.88-3.52 2.04 6.73 3.89z"/><path d="m272.02 115.02-4.1-2.36-3.52 2.04 4.1 2.37z"/><path d="m277.15 117.99-4.1-2.37-3.51 2.04 4.09 2.37z"/><path d="m282.28 120.95-4.1-2.37-3.51 2.05 4.09 2.36z"/><path d="m287.41 123.91-4.09-2.37-3.52 2.05 4.1 2.36z"/><path d="m292.54 126.87-4.09-2.36-3.52 2.04 4.1 2.37z"/><path d="m297.68 129.84-4.1-2.37-3.52 2.04 4.1 2.37z"/><path d="m302.81 132.8-4.1-2.37-3.52 2.05 4.1 2.36z"/><path d="m307.94 135.76-4.1-2.37-3.52 2.05 4.1 2.36z"/><path d="m315.46 140.1-6.49-3.74-3.52 2.04 6.49 3.75z"/><path d="m261.47 114.13-5.8-3.35-3.51 2.05 5.8 3.34z"/><path d="m266.61 117.09-4.1-2.36-3.52 2.04 4.1 2.37z"/><path d="m271.74 120.06-4.1-2.37-3.52 2.04 4.1 2.37z"/><path d="m276.87 123.02-4.1-2.37-3.52 2.05 4.1 2.36z"/><path d="m282 125.98-4.1-2.37-3.52 2.05 4.1 2.36z"/><path d="m287.13 128.94-4.1-2.36-3.52 2.04 4.1 2.37z"/><path d="m292.26 131.91-4.1-2.37-3.51 2.04 4.09 2.37z"/><path d="m297.39 134.87-4.1-2.37-3.51 2.05 4.1 2.36z"/><path d="m302.52 137.83-4.09-2.37-3.52 2.05 4.1 2.36z"/><path d="m310.97 142.71-7.41-4.28-3.52 2.04 7.42 4.28z"/><path d="m260.19 118.59-9-5.2-3.52 2.04 9 5.2z"/><path d="m265.22 121.49-4.1-2.37-3.52 2.05 4.1 2.36z"/><path d="m270.35 124.45-4.1-2.36-3.51 2.04 4.09 2.37z"/><path d="m275.48 127.41-4.1-2.36-3.51 2.04 4.1 2.37z"/><path d="m280.61 130.38-4.09-2.37-3.52 2.04 4.1 2.37z"/><path d="m285.74 133.34-4.09-2.37-3.52 2.05 4.1 2.36z"/><path d="m290.88 136.3-4.1-2.36-3.52 2.04 4.1 2.37z"/><path d="m296.01 139.26-4.1-2.36-3.52 2.04 4.1 2.37z"/><path d="m306.39 145.26-9.35-5.4-3.52 2.04 9.35 5.4z"/><path d="m253.33 119.82-6.63-3.82-3.45 2 6.63 3.83z"/><path d="m258.46 122.78-4.1-2.36-3.45 2 4.1 2.37z"/><path d="m263.59 125.75-4.09-2.37-3.46 2.01 4.1 2.36z"/><path d="m284.12 137.6-19.49-11.26-3.46 2.01 19.49 11.25z"/><path d="m289.25 140.56-4.1-2.37-3.45 2.01 4.1 2.37z"/><path d="m294.38 143.52-4.1-2.37-3.45 2.01 4.1 2.37z"/><path d="m302 147.92-6.59-3.8-3.45 2 6.59 3.81z"/><path d="m321.64 135.52-53.59-30.94c-.47-.27-1.24-.27-1.71 0s-.47.71.01.99l53.59 30.94c.47.27 1.24.27 1.7 0s.48-.72 0-.99z"/></g><g opacity=".8"><path d="m208.14 49.45.28-1.71 58.67 33.88-.28 1.71zm.71-4.28.28-1.71 58.67 33.88-.28 1.71zm.7-4.27.28-1.71 58.67 33.88-.28 1.71zm.71-4.28.28-1.71 58.67 33.88-.28 1.71zm.7-4.27.28-1.71 58.67 33.88-.28 1.71zm.93-5.61 2.03-12.31 15.24 8.8-2.03 12.31zm21.72 12.54 2.03-12.31 15.24 8.8-2.03 12.31zm21.72 12.54 2.03-12.31 15.24 8.8-2.03 12.31zm-44.85-51.710015-8.55 51.850015 69.51 40.13 7.84-47.54-69.51-40.13002z" fill="#4bc8ee" opacity=".7"/><path d="m213.15 5.03998c-.42-.24-.68-.85-.6-1.37.09-.52.49-.74.91-.5s.68.85.6 1.37-.49.74-.91.5zm2.24 1.29001c-.42-.24-.68-.85-.6-1.37.09-.52.49-.74.91-.5s.68.85.6 1.37c-.09.52-.49.74-.91.5zm2.24 1.3c-.42-.24-.68-.85001-.6-1.37001.09-.52.49-.74.91-.5s.68.85001.6 1.37001c-.09.51-.5.74-.91.5zm62.36 32.61001-69.51-40.130015-.71 4.319995 69.51 40.13002z" fill="url(#z)" opacity=".8"/><path d="m213.46 3.16998c-.42-.24-.82-.01-.91.5-.09.52.18 1.13.6 1.37s.82.02.91-.5c.09-.51-.18-1.13-.6-1.37z" fill="#fff" opacity=".8"/><path d="m215.7 4.45999c-.42-.24-.82-.01-.91.5-.09.52.18 1.13.6 1.37s.82.02.91-.5c.08-.51-.18-1.13-.6-1.37z" fill="#fff" opacity=".8"/><path d="m217.94 5.75998c-.42-.24-.82-.01-.91.5-.09.52.18 1.13001.6 1.37001s.82.02.91-.5c.08-.52-.19-1.13001-.6-1.37001z" fill="#fff" opacity=".8"/><g fill="#81d2e7"><path d="m229.15 23.23-15.23-8.8-2.03 12.31 15.24 8.8z" opacity=".8"/><path d="m250.87 35.77-15.23-8.8-2.03 12.31 15.23 8.8z" opacity=".8"/><path d="m272.59 48.31-15.23-8.8-2.03 12.31 15.23 8.79z" opacity=".8"/><path d="m269.92 64.51-58.67-33.88-.29 1.72 58.68 33.87z" opacity=".8"/><path d="m269.21 68.78-58.67-33.87-.28 1.71 58.67 33.88z" opacity=".8"/><path d="m268.51 73.06-58.67-33.88-.29 1.72 58.68 33.87z" opacity=".8"/><path d="m267.81 77.33-58.68-33.87-.28 1.71 58.67 33.88z" opacity=".8"/><path d="m267.1 81.61-58.67-33.88-.29 1.72 58.68 33.87z" opacity=".8"/></g></g><path d="m311.79 53.28c-.45-.26-.78.1-.89.72-.12.67.08 1.24.49 1.48.29.17.56.06.68-.25.04-.08.06-.16.08-.27l.09-.51c.01-.07.02-.16.02-.22.01-.38-.16-.78-.47-.95zm-3.8-2.27c-.48-.28-.76.22-.86.8-.12.67.02 1.31.45 1.56.39.22.72-.11.85-.81.09-.59.01-1.29-.44-1.55zm7.6 4.32c-.42-.24-.67.12-.76.44l1.18.68c.05-.29.03-.85-.42-1.12zm-32.1-.18.25-1.44 1.01.58 2.79 1.61 1.01.59 2.79 1.61 1.01.59 2.79 1.61 1.01.58-.25 1.44-1.01-.58-2.79-1.61-1.01-.59-2.79-1.61-1.01-.59-2.79-1.61zm16.21 9.36.25-1.44 7.6 4.39-.25 1.44zm11.4 6.59.25-1.44 3.8 2.19-.25 1.44zm6.59 3.8.25-1.44 8.61 4.97-.25 1.44zm11.4 6.58.25-1.44 4.82 2.78-.25 1.44zm-45.11-29.11.25-1.43 7.6 4.39-.25 1.43zm11.4 6.58.25-1.43 11.4 6.58-.25 1.43zm12.42 7.17.25-1.43 7.6 4.39-.25 1.43zm11.4 6.58.25-1.43 14.18 8.19-.25 1.43zm15.19 8.77.25-1.43 3.55 2.05-.25 1.43zm-53.75-34.1.25-1.44 7.64 4.41-.25 1.44zm8.65 4.99.25-1.44 2.79 1.61-.25 1.44zm3.8 2.2.25-1.44 6.59 3.8-.25 1.44zm10.38 5.99.25-1.44 4.82 2.78-.25 1.44zm8.62 4.98.25-1.44 11.4 6.58-.25 1.44zm15.2 8.77.25-1.44 3.8 2.19-.25 1.44zm7.6 4.39.25-1.44 3.55 2.05-.25 1.44zm-48.91-31.31.25-1.44 3.8 2.19-.25 1.44zm7.6 4.39.25-1.44 11.4 6.58-.25 1.44zm15.2 8.78.25-1.44 7.6 4.39-.25 1.44zm11.4 6.58.25-1.44 10.38 5.99-.25 1.44zm11.4 6.58.25-1.44 3.8 2.19-.25 1.44zm-49.96-31.91.25-1.44 7.64 4.41-.25 1.44zm8.65 4.99.25-1.44 3.8 2.19-.25 1.44zm6.59 3.81.25-1.44 4.81 2.78-.25 1.44zm8.61 4.97.25-1.44 7.6 4.39-.25 1.44zm10.39 5.99.25-1.44 7.6 4.39-.25 1.44zm8.61 4.98.25-1.44 3.8 2.19-.25 1.44zm6.59 3.8.25-1.44 1.02.59 2.79 1.61 1.01.59-.25 1.44-1.01-.59-2.79-1.61zm-45.11-29.11.25-1.44 1.01.58-.25 1.44zm4.82 2.78.25-1.44 7.6 4.39-.25 1.44zm33.18 19.16.25-1.44 8.62 4.97-.25 1.44zm11.4 6.58.25-1.44 4.56 2.63-.25 1.44zm-30.81-17.18c-1.04-.6-1.56-1.75-1.34-2.99.2-1.15 1.01-1.72 2.21-1.03.26.15.54.37.73.59l-.32.82c-.11-.13-.27-.29-.54-.44-.52-.3-.95-.04-1.05.61-.13.72.2 1.33.68 1.61.24.14.43.19.59.21l-.04.97c-.19-.01-.54-.13-.92-.35zm2.85 1.66c-.94-.54-1.53-1.71-1.3-2.98.22-1.27 1.05-1.68 2.08-1.09.98.57 1.49 1.77 1.29 2.95-.27 1.44-1.21 1.61-2.07 1.12zm7.77 4.47c-1.09-.63-1.58-1.76-1.36-2.99.18-1 .88-1.8 1.99-1.16 1.04.6 1.26 1.81 1.08 2.78-.04.21-.09.38-.12.46l-2.07-1.19c-.06.53.31 1 .77 1.27.34.2.63.3.91.35l-.02.9c-.34-.01-.75-.17-1.18-.42zm-12.9-7.53-2.83-3.61.12-.69 3.47.03-.15.85-2.61-.1v.01l2.16 2.65zm17 9.81.15-.85 2.66.13v-.01l-2.21-2.68.15-.85 2.84 3.59-.13.74zm-36.65-24.75.25-1.43 3.84 2.22-.25 1.43zm4.85 2.8.25-1.43 10.39 6-.25 1.43zm40.79 23.54.25-1.43 8.61 4.97-.25 1.43zm-11.5-2.68 2.43-5.01.66.38-2.44 5.01zm-4.29-6.77.01.01.38-2.13 1 .58-.8 4.53c-.08.44-.15.91-.18 1.19l-.88-.51.06-.61-.01-.01c-.28.32-.71.33-1.12.09-.76-.44-1.23-1.59-1.01-2.81.23-1.33 1.04-1.7 1.81-1.26.37.23.65.58.74.93zm-25.52-17.46.25-1.44 4.81 2.78-.25 1.44zm7.6 4.38.25-1.44 4.81 2.78-.25 1.44zm7.6 4.39.25-1.44 7.6 4.39-.25 1.44zm8.61 4.98.25-1.44 3.8 2.19-.25 1.44zm7.6 4.38.25-1.44 3.8 2.19-.25 1.44zm6.59 3.81.25-1.44 3.8 2.19-.25 1.44zm4.81 2.78.25-1.44 3.8 2.19-.25 1.44zm6.59 3.8.25-1.44 4.56 2.63-.25 1.44zm-52.74-33.52.25-1.43 8.65 4.99-.25 1.43zm11.43 6.6.25-1.43 1.01.59-.25 1.43zm3.8 2.19.25-1.43 4.81 2.78-.25 1.43zm7.6 4.39.25-1.43 4.82 2.78-.25 1.43zm7.6 4.39.25-1.43 12.41 7.17-.25 1.43zm16.22 9.36.25-1.43 11.15 6.44-.25 1.43zm-42.32-27.5.25-1.44 3.8 2.19-.25 1.44zm4.81 2.78.25-1.44 7.6 4.39-.25 1.44zm14.19 8.19.25-1.44 4.82 2.78-.25 1.44zm7.6 4.38.25-1.44 4.81 2.78-.25 1.44zm8.61 4.98.25-1.44 10.38 5.99-.25 1.44zm14.19 8.19.25-1.44 4.56 2.63-.25 1.44zm-52.75-33.52.25-1.44 4.85 2.8-.25 1.44zm8.65 4.99.25-1.44 3.8 2.19-.25 1.44zm10.39 6 .25-1.44 16.21 9.36-.25 1.44zm19 10.97.25-1.44 7.6 4.39-.25 1.44zm8.61 4.97.25-1.44 7.6 4.39-.25 1.44zm-34.72-23.12.25-1.44 12.41 7.17-.25 1.44zm15.2 8.78.25-1.44 4.82 2.78-.25 1.44zm7.6 4.39.25-1.44 4.82 2.78-.25 1.44zm11.4 6.58.25-1.44 4.82 2.78-.25 1.44zm7.6 4.39.25-1.44 1.01.59-.25 1.44zm-56.85-46.10001-8.97 50.66001 68.94 39.8 8.22-46.44-68.94-39.8z" fill="#4bc8ee" opacity=".7"/><path d="m284.08 11.78c-.41-.24-.67-.84-.58-1.34.09-.50001.5-.72001.91-.48001.41.24001.67.84001.58 1.34001-.09.51-.5.72-.91.48zm2.22 1.28c-.41-.24-.67-.84-.58-1.34s.49-.72.91-.48c.41.24.67.84.58 1.34-.09.51-.5.72-.91.48zm2.22 1.29c-.41-.24-.67-.84-.58-1.34s.5-.72.91-.48.67.84.58 1.34-.5.71-.91.48zm61.88 32.4-68.94-39.80002-.75 4.22002 68.94 39.8z" fill="url(#A)"/><path d="m284.4 9.95999c-.41-.24-.82-.02-.91.48001-.09.5.17 1.11.58 1.34.41.24.82.02.91-.48.1-.5-.16-1.1-.58-1.34001z" fill="#fff"/><path d="m286.62 11.24c-.41-.24-.82-.02-.91.48s.17 1.11.58 1.34c.41.24.82.02.91-.48.1-.5-.16-1.1-.58-1.34z" fill="#fff"/><path d="m288.84 12.52c-.41-.24-.82-.02-.91.48s.17 1.11.58 1.34c.41.24.82.02.91-.48.1-.5-.17-1.1-.58-1.34z" fill="#fff"/><path d="m309.18 34.63-12.41-7.16-.26 1.43 12.42 7.17z" fill="#cb85b9"/><path d="m316.78 39.02-4.81-2.78-.26 1.44 4.82 2.78z" fill="#e77e7e"/><path d="m324.38 43.41-4.81-2.78-.26 1.44 4.82 2.78z" fill="#81d2e7"/><path d="m335.78 49.99-4.81-2.78-.26 1.44 4.82 2.78z" fill="#e8e27d"/><path d="m339.58 52.18-1.01-.58-.26 1.44 1.02.58z" fill="#81d2e7"/><path d="m289.69 26.45-4.85-2.8-.26 1.44 4.85 2.8z" fill="#e8e27d"/><path d="m297.29 30.84-3.8-2.2-.26 1.44 3.8 2.19z" fill="#81d2e7"/><path d="m320.09 44-16.22-9.36-.25 1.44 16.21 9.36z" fill="#81d2e7"/><path d="m330.47 50-7.6-4.39-.25 1.44 7.6 4.38z" fill="#81d2e7"/><path d="m339.09 54.97-7.6-4.39-.26 1.44 7.6 4.39z" fill="#81d2e7"/><path d="m291.98 30.84-3.8-2.19-.25 1.44 3.8 2.19z" fill="#81d2e7"/><path d="m300.59 35.82-7.6-4.39-.25 1.44 7.6 4.38z" fill="#e77e7e"/><path d="m312 42.4-4.82-2.78-.25 1.44 4.81 2.78z" fill="#81d2e7"/><path d="m319.59 46.79-4.81-2.78-.25 1.43 4.81 2.78z" fill="#81d2e7"/><path d="m333.78 54.98-10.38-6-.26 1.44 10.38 5.99z" fill="#cb85b9"/><path d="m342.14 59.8-4.56-2.63-.25 1.44 4.56 2.63z" fill="#81d2e7"/><path d="m292.5 34.22-8.65-5-.25 1.44 8.65 4.99z" fill="#81d2e7"/><path d="m296.3 36.41-1.01-.59-.26 1.44 1.02.58z" fill="#81d2e7"/><path d="m303.9 40.8-4.81-2.78-.26 1.43 4.82 2.78z" fill="#81d2e7"/><path d="m311.5 45.19-4.81-2.78-.26 1.43 4.82 2.78z" fill="#e77e7e"/><path d="m326.7 53.96-12.41-7.17-.26 1.44 12.42 7.17z" fill="#e8e27d"/><path d="m341.65 62.59-11.15-6.43-.25 1.43 11.14 6.43z" fill="#e77e7e"/><path d="m292.01 37-4.82-2.78-.25 1.44 4.81 2.78z" fill="#cb85b9"/><path d="m299.61 41.39-4.82-2.78-.25 1.43 4.81 2.78z" fill="#81d2e7"/><path d="m309.99 47.38-7.6-4.38-.25 1.43 7.6 4.39z" fill="#81d2e7"/><path d="m314.81 50.16-3.8-2.19-.26 1.44 3.8 2.19z" fill="#cb85b9"/><path d="m322.41 54.55-3.8-2.19-.26 1.43 3.8 2.2z" fill="#81d2e7"/><path d="m328.99 58.35-3.8-2.19-.25 1.44 3.8 2.19z" fill="#81d2e7"/><path d="m333.81 61.13-3.8-2.19-.26 1.44 3.8 2.19z" fill="#81d2e7"/><path d="m341.15 65.37-4.56-2.63-.25 1.44 4.56 2.63z" fill="#81d2e7"/><path d="m286.7 37.01-3.84-2.22-.25 1.44 3.84 2.21z" fill="#81d2e7"/><path d="m298.1 43.59-10.39-6-.25 1.44 10.39 5.99z" fill="#e8e27d"/><path d="m337.11 66.11-8.61-4.97-.25 1.43 8.61 4.98z" fill="#cb85b9"/><path d="m287.22 40.38-1.01-.59-.26 1.44 1.02.58z" fill="#81d2e7"/><path d="m298.62 46.96-7.6-4.39-.25 1.44 7.6 4.38z" fill="#81d2e7"/><path d="m332.82 66.7-8.61-4.97-.26 1.44 8.62 4.97z" fill="#e77e7e"/><path d="m340.17 70.94-4.56-2.63-.26 1.44 4.56 2.63z" fill="#81d2e7"/><path d="m289.51 44.77-7.63-4.41-.26 1.44 7.64 4.41z" fill="#e77e7e"/><path d="m294.33 47.55-3.8-2.19-.26 1.43 3.8 2.2z" fill="#81d2e7"/><path d="m301.93 51.94-4.82-2.78-.25 1.44 4.81 2.77z" fill="#81d2e7"/><path d="m313.33 58.52-7.6-4.39-.26 1.44 7.6 4.39z" fill="#81d2e7"/><path d="m323.71 64.52-7.6-4.39-.25 1.43 7.6 4.39z" fill="#81d2e7"/><path d="m328.53 67.3-3.8-2.2-.26 1.44 3.8 2.19z" fill="#81d2e7"/><path d="m336.13 71.68-1.02-.58-2.78-1.61-1.02-.59-.25 1.44 1.01.59 2.79 1.6 1.01.59z" fill="#81d2e7"/><path d="m290.04 48.14-3.81-2.19-.25 1.43 3.8 2.2z" fill="#81d2e7"/><path d="m305.23 56.92-11.4-6.59-.25 1.44 11.4 6.58z" fill="#cb85b9"/><path d="m316.63 63.5-7.59-4.39-.26 1.44 7.6 4.38z" fill="#e77e7e"/><path d="m330.82 71.69-10.38-6-.26 1.44 10.39 5.99z" fill="#e8e27d"/><path d="m335.64 74.47-3.8-2.2-.26 1.44 3.8 2.19z" fill="#81d2e7"/><path d="m288.53 50.34-7.64-4.41-.25 1.44 7.63 4.41z" fill="#cb85b9"/><path d="m292.33 52.53-2.79-1.6-.25 1.43 2.78 1.61z" fill="#e77e7e"/><path d="m299.93 56.92-6.59-3.8-.25 1.44 6.58 3.8z" fill="#81d2e7"/><path d="m308.54 61.9-4.81-2.78-.26 1.43 4.82 2.78z" fill="#e8e27d"/><path d="m323.74 70.67-11.4-6.58-.25 1.44 11.4 6.58z" fill="#81d2e7"/><path d="m331.34 75.06-3.8-2.19-.25 1.43 3.8 2.2z" fill="#81d2e7"/><path d="m338.69 79.3-3.55-2.05-.25 1.44 3.54 2.05z" fill="#81d2e7"/><path d="m291.83 55.32-7.6-4.39-.25 1.44 7.6 4.38z" fill="#81d2e7"/><path d="m307.03 64.1-11.4-6.58-.25 1.43 11.4 6.58z" fill="#e77e7e"/><path d="m315.65 69.07-7.6-4.39-.25 1.44 7.59 4.38z" fill="#81d2e7"/><path d="m333.63 79.45-14.18-8.19-.25 1.44 14.18 8.19z" fill="#cb85b9"/><path d="m338.19 82.09-3.54-2.05-.26 1.43 3.55 2.05z" fill="#e8e27d"/><path d="m296.15 60.88-1.01-.58-2.78-1.61-1.02-.59-2.78-1.6-1.02-.59-2.79-1.61-1.01-.58-.25 1.43 1.01.59 2.79 1.61 1.01.58 2.79 1.61 1.01.59 2.79 1.61 1.01.58z" fill="#e8e27d"/><path d="m307.56 67.47-7.61-4.39-.25 1.43 7.6 4.39z" fill="#81d2e7"/><path d="m315.16 71.85-3.8-2.19-.26 1.44 3.8 2.19z" fill="#81d2e7"/><path d="m326.55 78.44-8.61-4.98-.25 1.44 8.61 4.97z" fill="#e77e7e"/><path d="m334.16 82.82-4.82-2.78-.25 1.44 4.81 2.78z" fill="#81d2e7"/><path d="m303.01 46.9-3.46-.03-.12.69 2.83 3.61.15-.85-2.16-2.65.01-.02 2.6.1z" fill="#257896"/><path d="m305.4 48.56c-1.19-.69-2-.12-2.21 1.03-.22 1.24.31 2.39 1.34 2.99.38.22.73.33.92.34l.04-.97c-.16-.02-.36-.07-.59-.21-.48-.28-.81-.89-.68-1.61.11-.65.53-.91 1.05-.61.26.15.43.31.54.44l.32-.82c-.19-.2-.47-.43-.73-.58z" fill="#257896"/><path d="m307.57 53.37c-.43-.25-.57-.88-.45-1.56.1-.58.39-1.08.86-.8.45.26.53.96.43 1.55-.12.7-.46 1.03-.84.81zm.59-3.21c-1.03-.59-1.86-.18-2.08 1.09s.36 2.44 1.3 2.98c.86.5 1.81.32 2.06-1.12.22-1.18-.29-2.39-1.28-2.95z" fill="#257896"/><path d="m311.4 55.47c-.41-.24-.61-.81-.49-1.48.11-.62.43-.98.89-.72.31.18.48.57.48.94 0 .07-.01.16-.02.22l-.09.51c-.02.1-.04.19-.08.27-.13.32-.41.43-.69.26zm2.45-3.89-1-.58-.38 2.13-.01-.01c-.1-.36-.37-.7-.77-.93-.77-.44-1.58-.07-1.81 1.26-.22 1.22.25 2.37 1.01 2.81.41.24.84.24 1.12-.09l.01.01-.06.61.88.51c.04-.27.1-.75.18-1.19z" fill="#257896"/><path d="m314.83 55.77c.08-.32.34-.68.76-.44.46.26.48.83.42 1.12zm.96-1.21c-1.11-.64-1.82.16-1.99 1.16-.22 1.23.27 2.36 1.36 2.99.43.25.85.4 1.2.43l.02-.9c-.29-.05-.57-.15-.91-.35-.46-.27-.83-.74-.77-1.27l2.07 1.19c.03-.08.08-.25.12-.46.15-.98-.06-2.19-1.1-2.79z" fill="#257896"/><path d="m319.85 55.26-.66-.38-2.44 5.01.67.38z" fill="#257896"/><path d="m320.01 56.71-.15.85 2.21 2.69v.01l-2.66-.13-.15.85 3.46.06.13-.74z" fill="#257896"/><g opacity=".8"><path d="m345.3 131.61.21-1.29 10.47 6.04-.21 1.29zm.47-2.89.21-1.29 10.47 6.04-.21 1.29zm.47-2.88.21-1.29 10.47 6.04-.21 1.29zm.46-2.89.21-1.29 10.47 6.04-.21 1.29zm12.07 16.41 1.61-9.92 9.04 5.22-1.61 9.92zm12.34 7.13 1.61-9.92 9.05 5.22-1.61 9.92zm12.35 7.12 1.61-9.92 9.04 5.22-1.61 9.92zm-36.29-33.54.21-1.29 10.47 6.04-.21 1.29zm.47-2.89.21-1.29 10.47 6.04-.21 1.29zm.47-2.88.21-1.29 10.47 6.04-.21 1.29zm-.66-3.54.21-1.29 11.59 6.69-.21 1.29zm13.2 17.06 1.61-9.92 9.04 5.22-1.61 9.92zm12.34 7.13 1.61-9.92 9.05 5.22-1.61 9.92zm12.34 7.12 1.61-9.92 9.04 5.22-1.61 9.92zm-37.39-34.29 2.14-13.16 48.49 28-2.14 13.16zm14-8.27.23-1.42 6.05 3.5-.23 1.42zm7.55 4.36.23-1.42 6.06 3.5-.23 1.42zm7.55 4.36.23-1.42 6.06 3.5-.23 1.42zm7.55 4.36.23-1.42 6.06 3.5-.23 1.42zm7.55 4.36.23-1.42 6.06 3.5-.23 1.42zm-41.91-23.3.5-3.06 7.38 4.26-.5 3.06zm-7.24-14.84-8.07 49.67 66.63 38.47 7.4-45.53-66.63-38.47z" fill="#4bc8ee" opacity=".7"/><path d="m345.55 83.53c-.4-.23-.66-.82-.58-1.31s.47-.71.87-.48.66.82.58 1.31c-.08.5-.47.71-.87.48zm2.15 1.24c-.4-.23-.66-.82-.58-1.31s.47-.71.87-.48.66.82.58 1.31c-.08.5-.47.71-.87.48zm2.14 1.24c-.4-.23-.66-.82-.58-1.31s.47-.71.87-.48.66.82.58 1.31c-.08.5-.47.71-.87.48zm59.78 31.27-66.63-38.47-.67 4.13 66.63 38.47z" fill="url(#B)" opacity=".8"/><path d="m345.85 81.74c-.4-.23-.79-.02-.87.48s.18 1.08.58 1.31.79.02.87-.48c.07-.49-.19-1.08-.58-1.31z" fill="#fff" opacity=".8"/><path d="m347.99 82.98c-.4-.23-.79-.01-.87.48s.18 1.08.58 1.31.79.02.87-.48c.08-.49-.18-1.08-.58-1.31z" fill="#fff" opacity=".8"/><path d="m350.13 84.22c-.4-.23-.79-.01-.87.48s.18 1.08.58 1.31.79.02.87-.48c.08-.49-.18-1.08-.58-1.31z" fill="#fff" opacity=".8"/><g fill="#81d2e7"><path d="m358.11 94.85-7.38-4.26-.5 3.06 7.38 4.26z" opacity=".8"/><path d="m368.22 101.59-6.05-3.5-.23 1.42 6.05 3.5z" opacity=".8"/><path d="m375.77 105.95-6.05-3.5-.23 1.42 6.05 3.5z" opacity=".8"/><path d="m383.33 110.3-6.06-3.49-.23 1.42 6.05 3.5z" opacity=".8"/><path d="m390.87 114.66-6.05-3.49-.23 1.42 6.05 3.49z" opacity=".8"/><path d="m398.43 119.02-6.06-3.49-.23 1.42 6.05 3.49z" opacity=".8"/><path d="m398.57 122.61-48.49-27.99-2.14 13.16 48.49 27.99z" opacity=".8"/><path d="m359.26 116.16-11.6-6.69-.21 1.29 11.6 6.69z" opacity=".8"/><path d="m358.79 119.05-10.47-6.04-.21 1.29 10.47 6.04z" opacity=".8"/><path d="m358.32 121.93-10.47-6.04-.21 1.29 10.47 6.04z" opacity=".8"/><path d="m357.85 124.82-10.47-6.04-.21 1.29 10.47 6.04z" opacity=".8"/><path d="m357.38 127.7-10.47-6.04-.21 1.29 10.47 6.04z" opacity=".8"/><path d="m356.91 130.59-10.46-6.05-.21 1.3 10.46 6.04z" opacity=".8"/><path d="m356.44 133.47-10.46-6.04-.21 1.29 10.46 6.04z" opacity=".8"/><path d="m355.97 136.36-10.46-6.04-.21 1.29 10.46 6.04z" opacity=".8"/><path d="m371.31 123.12-9.05-5.22-1.61 9.92 9.04 5.22z" opacity=".8"/><path d="m383.65 130.25-9.05-5.23-1.61 9.93 9.05 5.22z" opacity=".8"/><path d="m395.99 137.37-9.05-5.22-1.61 9.92 9.05 5.22z" opacity=".8"/><path d="m369.43 134.66-9.04-5.22-1.62 9.92 9.05 5.22z" opacity=".8"/><path d="m381.77 141.79-9.04-5.23-1.62 9.93 9.05 5.22z" opacity=".8"/><path d="m394.11 148.91-9.04-5.22-1.61 9.92 9.04 5.22z" opacity=".8"/></g></g><path d="m304.38 94.77c-.91-.53-1.5-1.87-1.32-3s1.07-1.62 1.98-1.09l20.86 12.04c.91.53 1.5 1.87 1.32 3s-1.07 1.62-1.98 1.1zm1.16-7.16c-.91-.53-1.5-1.87-1.32-3s1.07-1.62 1.98-1.1l20.86 12.04c.91.53 1.5 1.87 1.32 3s-1.07 1.62-1.98 1.09zm-14.21 3.09c-4.23-2.44-6.97-8.68-6.12-13.93s4.97-7.52 9.2-5.08 6.97 8.68 6.13 13.93c-.86 5.24-4.98 7.52-9.21 5.08zm-10.7-41.24-7.09 43.85 58.86 33.98 6.5-40.2-58.86-33.98z" fill="#4bc8ee" opacity=".7"/><path d="m282.9 53.63c-.35-.2-.58-.72-.51-1.16s.41-.63.76-.42c.35.2.58.72.51 1.16s-.41.63-.76.42zm1.89 1.1c-.35-.2-.58-.72-.51-1.16s.41-.63.76-.42c.35.2.58.72.51 1.16-.06.43-.4.62-.76.42zm1.9 1.09c-.35-.2-.58-.72-.51-1.16s.41-.63.76-.42c.35.2.58.72.51 1.16-.07.43-.41.62-.76.42zm52.79 27.62-58.86-33.98-.59 3.65 58.86 33.98z" fill="url(#C)"/><path d="m293.42 84.75s.01-.98.84-1.11c.06.12.12.22.2.29.51.5 2.19 2.6 2.75 3.31-1.22 1.23-2.96 1.58-4.78.78l.07-2.5.6-.74-.45-1.28-.38-.22-.76.68.26 1.23-.69 2.01c-1.68-1.28-2.97-3.36-3.59-5.63.74 0 2.62.03 3.17.16.08.02.17.01.25-.02.18.58.37 1.26.4 1.71l.95-.5.53.31zm-1.18-9.99c.03-.03.06-.05.09-.07.17-.24.66-.76 1.52-.26 1.1.63 1.71.51 1.71.51s.49 2.84.05 4.01l.05.02c.16.13.14.68-.03 1.24-.16.54-.42.89-.57.8-.01 0-.01-.01-.02-.01-.03-.02-.05-.06-.07-.1-.26.64-.33.99-.69 1.29-.06.02-.94.38-1.22.26-.03-.01-.27-.14-.48-.27-.14-.08-.26-.16-.32-.2-.28-.2-.89-1.42-.94-1.5-.21-.62-.17-.98-.19-1.75l.01.01v-.06c-.03.02-.06.03-.09.02-.01 0-.01 0-.02-.01-.16-.09-.26-.65-.24-1.27.02-.64.18-1.12.35-1.06 0 0 .31-2.13.9-1.79.06.01.13.08.2.19zm2.17-3.08c-4.23-2.44-8.35-.17-9.2 5.08s1.89 11.49 6.12 13.93 8.35.17 9.2-5.08-1.89-11.48-6.12-13.93z" fill="#81d2e7"/><path d="m295.57 74.93s-.62.13-1.71-.51c-.87-.5-1.36.02-1.52.26-.03.02-.06.05-.09.07-.07-.1-.14-.17-.21-.21-.59-.34-.9 1.79-.9 1.79-.17-.06-.32.41-.35 1.06-.02.62.08 1.18.24 1.27.01 0 .01.01.02.01.03.01.06 0 .09-.02v.06l-.01-.01c.02.77-.02 1.13.19 1.75.05.08.66 1.3.94 1.5.06.04.19.12.32.2.22.13.46.26.48.27.29.13 1.16-.24 1.22-.26.36-.3.43-.65.69-1.29.02.04.04.08.07.1.01 0 .01.01.02.01.16.09.41-.26.57-.8.17-.56.18-1.11.03-1.24l-.05-.02c.45-1.15-.04-3.99-.04-3.99z" fill="#fff"/><path d="m294.26 83.65c-.83.12-.84 1.11-.84 1.11l-.62-1.5-.53-.31-.95.5c-.03-.46-.22-1.14-.4-1.71-.08.03-.16.04-.25.02-.55-.12-2.43-.15-3.17-.16.61 2.26 1.9 4.35 3.59 5.63l.69-2.01-.26-1.23.76-.68.38.22.45 1.28-.6.74-.07 2.5c1.82.8 3.56.46 4.78-.78-.56-.71-2.24-2.82-2.75-3.31-.09-.09-.15-.19-.21-.31z" fill="#fff"/><path d="m318.5 92.29c-.08-.05-.13-.06-.16-.07l-.08.51.13.08c.17.1.28.05.31-.11.03-.18-.05-.32-.2-.41zm-3.96-.93c.18.1.3.01.35-.32l.17-1.06.34.19-.17 1.04c-.09.57-.37.71-.76.48-.37-.22-.55-.6-.46-1.19l.17-1.03.34.19-.17 1.06c-.05.33.02.54.19.64zm2.05 1.52.3-1.85.92.53-.06.34-.58-.34-.06.38.55.32-.06.34-.55-.32-.07.44.61.35-.06.34zm1.17.68.29-1.82c.11.04.28.12.46.22.22.13.37.26.46.42.07.14.1.3.08.47-.04.23-.2.32-.34.3v.01c.1.11.13.27.14.46.01.24.02.5.04.59l-.34-.2c-.02-.07-.03-.24-.04-.49 0-.25-.06-.35-.19-.43l-.1-.06-.12.73zm-1.93-1.46c.15.09.25.06.27-.06s-.04-.22-.21-.41c-.23-.25-.36-.51-.32-.78.05-.32.3-.43.65-.23.17.1.28.21.37.31l-.13.29c-.05-.07-.15-.18-.3-.27-.15-.08-.23-.04-.25.05-.02.12.06.22.24.42.24.27.34.51.3.77-.05.31-.29.46-.69.22-.17-.1-.33-.25-.4-.36l.12-.31c.07.14.2.27.35.36zm11.23 3.46-20.86-12.04c-.91-.53-1.8-.03-1.98 1.1s.41 2.47 1.32 3l20.86 12.04c.91.53 1.8.04 1.98-1.09.19-1.14-.4-2.48-1.32-3.01z" fill="#81d2e7"/><path d="m310.66 95.89.01.01.49-.76.29.42-.66.55v.01l.86.34-.08.46-.81-.6v.01l.4 1.13-.39.05-.18-1.15-.01-.01-.51.76-.28-.43.66-.53v-.01l-.84-.34.08-.46.79.6v-.01l-.38-1.13.38-.05zm3.19 1.84.01.01.49-.76.29.42-.66.55v.01l.86.34-.08.46-.81-.6v.01l.4 1.13-.39.05-.18-1.15-.01-.01-.51.76-.28-.43.66-.53v-.01l-.84-.34.08-.46.79.6v-.01l-.38-1.13.38-.05zm3.19 1.84.01.01.49-.76.29.42-.66.55v.01l.86.34-.08.46-.81-.6v.01l.4 1.13-.39.05-.18-1.15-.01-.01-.51.76-.28-.43.66-.53v-.01l-.84-.34.08-.46.79.6v-.01l-.38-1.13.38-.05zm3.19 1.84.01.01.49-.76.29.42-.66.55v.01l.86.34-.08.46-.81-.6v.01l.4 1.13-.39.05-.18-1.15-.01-.01-.51.76-.28-.43.66-.53v-.01l-.84-.34.08-.46.79.6v-.01l-.38-1.13.38-.05zm5.68 1.3-20.86-12.04c-.91-.53-1.8-.04-1.98 1.09s.41 2.48 1.32 3l20.86 12.04c.91.53 1.8.04 1.98-1.1s-.41-2.46-1.32-2.99z" fill="#81d2e7"/><path d="m311.16 95.13-.49.76h-.01l-.19-1.15-.38.04.39 1.14-.01.01-.78-.6-.08.47.84.34v.01l-.66.54.27.42.52-.76.01.01.17 1.15.39-.04-.4-1.13.01-.01.81.6.07-.47-.85-.34v-.01l.66-.56z" fill="#2e6b80"/><path d="m314.35 96.97-.49.76h-.01l-.19-1.15-.38.04.39 1.14-.01.01-.78-.6-.08.47.84.34v.01l-.66.54.27.42.52-.75h.01l.17 1.15.39-.04-.4-1.13.01-.01.81.6.07-.46-.85-.35v-.01l.66-.56z" fill="#2e6b80"/><path d="m317.54 98.81-.49.77-.01-.01-.19-1.15-.38.05.39 1.13v.02l-.79-.6-.08.46.84.34v.02l-.66.53.27.43.52-.76h.01l.17 1.16.39-.05-.4-1.13.01-.01.81.6.07-.46-.85-.35v-.01l.66-.55z" fill="#2e6b80"/><path d="m320.73 100.65-.49.77-.01-.01-.19-1.15-.38.05.39 1.13v.02l-.79-.6-.08.46.84.35v.01l-.66.53.27.43.52-.76.01.01.17 1.15.39-.05-.4-1.13.01-.01.81.6.07-.46-.85-.35v-.01l.66-.55z" fill="#2e6b80"/><path d="m315.4 90.17-.34-.19-.17 1.06c-.05.33-.17.42-.35.32-.17-.1-.24-.32-.19-.63l.17-1.06-.34-.19-.17 1.03c-.1.59.08.97.46 1.19.39.23.66.09.76-.48z" fill="#2e6b80"/><path d="m316.22 90.62c-.35-.2-.6-.08-.65.23-.04.27.09.53.32.78.17.18.23.29.21.41s-.11.15-.27.06c-.14-.08-.27-.22-.35-.33l-.12.31c.07.11.23.26.4.36.41.24.64.08.69-.22.04-.26-.05-.5-.3-.77-.18-.2-.25-.3-.24-.42.02-.09.1-.14.25-.05.15.08.24.2.3.27l.13-.29c-.09-.13-.2-.25-.37-.34z" fill="#2e6b80"/><path d="m317.8 91.56-.92-.53-.29 1.85.94.54.06-.34-.61-.35.07-.44.55.32.05-.34-.55-.32.06-.38.59.33z" fill="#2e6b80"/><path d="m318.26 92.72.08-.51c.03.01.07.03.16.07.15.09.23.23.2.4-.03.16-.14.21-.31.11zm.25-.76c-.18-.1-.34-.18-.46-.22l-.29 1.82.33.19.12-.73.1.06c.14.08.19.18.19.43.01.25.02.43.04.49l.34.2c-.02-.09-.02-.36-.04-.59-.01-.19-.05-.35-.14-.46v-.01c.14.02.3-.07.34-.3.03-.17 0-.33-.08-.47-.08-.16-.23-.29-.45-.41z" fill="#2e6b80"/><path d="m283.16 52.05c-.35-.2-.69-.01-.76.42-.07.44.16.95.51 1.16.35.2.69.01.76-.42.06-.44-.16-.96-.51-1.16z" fill="#fff"/><path d="m285.05 53.14c-.35-.2-.69-.01-.76.42-.07.44.16.95.51 1.16.35.2.69.01.76-.42.07-.44-.16-.95-.51-1.16z" fill="#fff"/><path d="m286.94 54.24c-.35-.2-.69-.01-.76.42-.07.44.16.95.51 1.16.35.2.69.01.76-.42.07-.44-.15-.96-.51-1.16z" fill="#fff"/><path d="m251.83 133.92s4.63 1.52 9.87-4.28c0 0 2.64-3.32 4.77-4.21 2.14-.9 2.74-1.99 1.4-2.99s-3.77.39-4.44.62c-.68.23-1.16-1.3.67-1.36 1.82-.07 3.43-.41 1.77-2.17-1.67-1.76-3.88-1.95-5.41-.97-1.54.98-2.53 1.13-2.29.35.25-.78 2.69-1.61 4.74-1.28s-.16-4.11-5.16-3.28c0 0 2.3-3.96-3.47-1.66-4.1 1.64-5.12 2.11-6.81 3.63-2.06 1.85-7.27 4.24-5.81 8.49 1.46 4.24 10.17 9.11 10.17 9.11z" fill="#fcc188"/><path d="m247.11 138.09 5.19-3.65s-1.96-9.7-11.22-11.55l-3.13 1.84z" fill="#64c4f0"/><path d="m237.41 124.95 5.23-2.4s8.21 5.14 10.59 11.79l-6.62 5.05z" fill="url(#D)"/><path d="m249.39 139.35-28.42 17.33c-.07.04-.14.09-.22.13l-.3.18c-6.69 3.99-11.3 3.57-13.67 2.83-.59-.25-1.21-.54-1.85-.86-4.05-2.07-8.83-5.76-12.3-12.28-7.28-13.69-11.83-33.98-12.28-46.81 0 0-1.64-21.96 12.39-14.82 14.03 7.13 18.54 47.64 22.6 48.62 2.65.64 22.45-10.28 22.45-10.28s9.96 5.18 11.6 15.96z" fill="url(#E)"/><path d="m220.37 71.58s0 0-1.85 2.89c-.53 5.28-2.51 10.15-7.65 10.81-.59.07-1.11.22-1.59.41-.36.14-.69.31-.99.5-2.8 1.79-3.22 5.42-3.22 5.42l-.93 6.33-23.59-9.89c1.39-3.43.38-9.9-.83-15.81-.97-4.77-2.09-9.17-2.21-11.35-.26-4.87 6.72-15.16 21.09-18.72 14.37-3.55 20.56 4.22 21.75 9.62 1.19 5.41-.79 11.86-1.32 13.05-.51 1.2 1.34 6.74 1.34 6.74z" fill="#fcc188"/><path d="m209.29 85.69c-.36.14-.69.31-.99.5-2.8 1.79-3.22 5.42-3.22 5.42l-.93 6.33-4.54-14.33c6.11 1.76 9.68 2.08 9.68 2.08z" fill="#e9b185"/><path d="m212.49 56.85s18.45-1.81 11.96-24.68c0 0-3.86 3.23-20.46 2.44-16.61-.79-31.54 9.75-30.55 24.58.49 6.82 5.63 16.34 5.93 20l.4 2.67s9.79 2.67 13.74 0 7.18-9.59 7.18-9.59 1.57-4.28 4.38-4.25c3.3.03 4.45 3.39 4.05 6.43l1.29-.1s.49-4.45 2.27-7.41c1.79-2.97 1-9.3-.19-10.09z" fill="#5a3c20"/><path d="m206.81 104.6s.58-7.61-9.8-12.06c-10.16-4.35-13.69-6.32-20.92-3.45l-2.7 1.55 33.43 14.56z" fill="#64c4f0"/><path d="m214.22 110.84s-18.26-19.9-42.63-21.21l-2.62 3.3 8.56 14.5c-.01 0 29.35 6.56 36.69 3.41z" fill="url(#F)"/><path d="m171.58 89.63s-13.83-2.5-16.46 23.07c-2.64 25.57 4.48 46.13.79 67.22s-.26 31.9 20.56 41.39c18.5 8.43 35.83 6.99 44.27-3.03s3.18-60.76 3.71-73.95c.53-13.18 1.32-27.94-7.64-31.9-8.97-3.95-40.21-14.49-45.23-22.8z" fill="url(#G)"/><path d="m284.82 153.14s4.83.67 8.96-5.96c0 0 2.01-3.73 3.96-4.99s2.35-2.45.85-3.19c-1.5-.75-3.64 1.05-4.26 1.4-.63.35-1.37-1.07.42-1.46 1.78-.39 3.31-1.01 1.36-2.45s-4.16-1.24-5.5 0-2.29 1.56-2.19.75c.1-.82 2.36-2.06 4.44-2.1 2.07-.04-.88-4.01-5.66-2.32 0 0 1.57-4.31-3.71-1.02-3.75 2.34-4.67 2.98-6.06 4.78-1.7 2.19-6.4 5.45-4.22 9.38 2.18 3.92 11.61 7.18 11.61 7.18z" fill="#fcc188"/><path d="m280.91 158.08 4.46-4.5s-3.65-9.2-13.08-9.39l-2.76 2.36z" fill="#64c4f0"/><path d="m269.04 146.85 4.72-3.28s8.99 3.61 12.51 9.73l-5.62 6.14z" fill="url(#H)"/><path d="m283.37 158.91-24.92 22.07c-.06.05-.13.11-.19.17l-.26.23c-5.88 5.1-10.5 5.51-12.96 5.2-.63-.14-1.29-.31-1.97-.52-4.35-1.33-9.71-4.11-14.27-9.92-9.58-12.19-22.5-33.85-25.21-46.4 0 0-2.38-21.18 12.69-16.63s28.41 45.97 32.57 46.22c2.72.16 20.28-14.08 20.28-14.08s10.73 3.34 14.24 13.66z" fill="url(#I)"/><path d="m190.42 352.57c4.667 0 8.45-3.541 8.45-7.91s-3.783-7.91-8.45-7.91-8.45 3.541-8.45 7.91 3.783 7.91 8.45 7.91z" fill="url(#K)"/><path d="m198.87 344.58c0 3.97-2.69 7.18-6.01 7.18s-6.01-3.22-6.01-7.18c0-3.97 2.69-7.18 6.01-7.18s6.01 3.22 6.01 7.18z" fill="url(#M)"/><path d="m187.81 334.8s-6.66 1.5-6.48 9.68l6.48 3.69s.18-8.36 7.28-9.98c0 0 1.98.81 2.88 3.69l.45-1.26c0-.01-2.6-6.87-10.61-5.82z" fill="#27c3ed"/><path d="m190.21 337.42c-1 0-1.81-.81-1.81-1.81v-1.67c0-1 .81-1.81 1.81-1.81s1.81.81 1.81 1.81v1.67c0 .99-.81 1.81-1.81 1.81z" fill="url(#O)"/><path d="m268.92 328.33c4.667 0 8.45-3.541 8.45-7.91s-3.783-7.91-8.45-7.91-8.45 3.541-8.45 7.91 3.783 7.91 8.45 7.91z" fill="url(#P)"/><path d="m277.37 320.34c0 3.97-2.69 7.18-6.01 7.18s-6.01-3.22-6.01-7.18c0-3.97 2.69-7.18 6.01-7.18s6.01 3.21 6.01 7.18z" fill="url(#Q)"/><path d="m266.31 310.56s-6.66 1.5-6.48 9.68l6.48 3.69s.18-8.36 7.28-9.98c0 0 1.98.81 2.88 3.69l.45-1.26c0-.01-2.6-6.87-10.61-5.82z" fill="#27c3ed"/><path d="m268.71 313.17c-1 0-1.81-.81-1.81-1.81v-1.67c0-1 .81-1.81 1.81-1.81s1.81.81 1.81 1.81v1.67c0 1-.81 1.81-1.81 1.81z" fill="url(#R)"/><path d="m255.14 277.74c4.667 0 8.45-3.541 8.45-7.91s-3.783-7.91-8.45-7.91-8.45 3.541-8.45 7.91 3.783 7.91 8.45 7.91z" fill="url(#S)"/><path d="m263.59 269.75c0 3.97-2.69 7.18-6.01 7.18s-6.01-3.22-6.01-7.18c0-3.97 2.69-7.18 6.01-7.18 3.32-.01 6.01 3.21 6.01 7.18z" fill="url(#T)"/><path d="m252.53 259.96s-6.66 1.5-6.48 9.68l6.48 3.69s.18-8.36 7.28-9.98c0 0 1.98.81 2.88 3.69l.45-1.26s-2.61-6.87-10.61-5.82z" fill="#27c3ed"/><path d="m254.93 262.58c-1 0-1.81-.81-1.81-1.81v-1.67c0-1 .81-1.81 1.81-1.81s1.81.81 1.81 1.81v1.67c0 1-.81 1.81-1.81 1.81z" fill="url(#U)"/><path d="m169.31 272.88c4.667 0 8.45-3.541 8.45-7.91s-3.783-7.91-8.45-7.91-8.45 3.541-8.45 7.91 3.783 7.91 8.45 7.91z" fill="url(#V)"/><path d="m177.77 264.89c0 3.97-2.69 7.18-6.01 7.18s-6.01-3.22-6.01-7.18c0-3.97 2.69-7.18 6.01-7.18s6.01 3.22 6.01 7.18z" fill="url(#W)"/><path d="m166.71 255.11s-6.66 1.5-6.48 9.68l6.48 3.69s.18-8.36 7.28-9.98c0 0 1.98.81 2.88 3.69l.45-1.26s-2.61-6.87-10.61-5.82z" fill="#27c3ed"/><path d="m169.1 257.73c-1 0-1.81-.81-1.81-1.81v-1.67c0-1 .81-1.81 1.81-1.81s1.81.81 1.81 1.81v1.67c.01.99-.8 1.81-1.81 1.81z" fill="url(#X)"/><path d="m132.22 313.17c4.667 0 8.45-3.541 8.45-7.91s-3.783-7.91-8.45-7.91-8.45 3.541-8.45 7.91 3.783 7.91 8.45 7.91z" fill="url(#Y)"/><path d="m140.67 305.18c0 3.97-2.69 7.18-6.01 7.18s-6.01-3.22-6.01-7.18c0-3.97 2.69-7.18 6.01-7.18s6.01 3.21 6.01 7.18z" fill="url(#Z)"/><path d="m129.61 295.4s-6.66 1.5-6.48 9.68l6.48 3.69s.18-8.36 7.28-9.98c0 0 1.98.81 2.88 3.69l.45-1.26c0-.01-2.61-6.87-10.61-5.82z" fill="#27c3ed"/><path d="m132.01 298.01c-1 0-1.81-.81-1.81-1.81v-1.67c0-1 .81-1.81 1.81-1.81s1.81.81 1.81 1.81v1.67c0 1-.81 1.81-1.81 1.81z" fill="url(#aa)"/><path d="m174.68 257.78-1.99 2.35 15.84 17.11 4.8-2.01z" fill="url(#ab)"/><path d="m191.42 274.3-16.74-16.52 3.06-1.14 26.63 12.58z" fill="#0985b8"/><path d="m207.48 282.79-14.15 48.92-6.24-1.2 8.16-48.68-65.96 11.51v-3.36l60.68-15.11 62.36-24.46 6.23 4.32-44.85 22.3 59.48 25.18-2.88 3.36z" fill="#0985b8"/><path d="m193.33 331.71v3.06l14.15-43.71v-8.27z" fill="url(#ad)"/><path d="m194.2 288.05-64.91 8.95v-3.66l65.96-11.51z" fill="url(#ae)"/><path d="m207.48 291.06 62.89 21.04-.06-6.53-62.83-22.78z" fill="url(#af)"/><path d="m219.96 279.67 38-20.45.6-4.49-44.85 22.3z" fill="url(#ag)"/><path d="m270.37 312.1 2.82-3.32v-6.57l-2.88 3.36z" fill="#4bc8ee"/><path d="m192.37 261.2v11.99s6.96 9.11 17.27 0v-11.99z" fill="url(#ah)"/><path d="m203.4 266.48 11.99-5.28s-.48-65.95-14.15-91.14l-4.08 5.43z" fill="url(#aj)"/><path d="m134.81 227.62s9.59-52.76-9.11-94.01c0 0 24.46 23.81 71.47 41.88 0 0 18.23 42.06 6.24 90.98-.01.01-48.46 1.45-68.6-38.85z" fill="url(#ak)"/><path d="m187.09 330.51v3.18l6.24 1.08v-3.06z" fill="#4bc8ee"/><path d="m125.69 133.61 6.96-2.64s23.74 26.86 68.59 39.09l-4.08 5.43c0 .01-44.6-15.26-71.47-41.88z" fill="url(#al)"/><path d="m215.39 261.2s45.65-19.67 60.36-36.69v-6.24l-60.88 36.45z" fill="url(#am)"/><path d="m214.87 245.36 53.76-32.13s9.11 3.6 6.72 7.67c-2.4 4.08-41.81 30.7-60.47 35.73v-11.27z" fill="url(#an)"/><path d="m241.06 248.7v-31.15l9.35-5.75v31.67z" fill="url(#ao)"/><path d="m214.21 234.45 61.54-37.77s-5.44-11.03-17.19-4.8c-11.75 6.24-45.71 27.36-45.71 27.36" fill="url(#ap)"/><path d="m274.29 194.51-60.58 36.73.5 3.21 62.17-37.75z" fill="url(#aq)"/><path d="m241.06 248.7-3.21-2.4v-26.36l3.21-1.96z" fill="url(#ar)"/><path d="m343.3 215.37v106.76l-7.4 4.39v-108.66c2.35-.2 4.67-.92 6.79-2.13z" fill="url(#as)"/><path d="m335.91 217.86v108.67l-7.64-4.58v-105.24c2.43.99 5.06 1.37 7.64 1.15z" fill="url(#at)"/></g></svg>