<svg width="532" height="462" viewBox="0 0 532 462" fill="none" xmlns="http://www.w3.org/2000/svg">
<g filter="url(#filter0_d)">
<g filter="url(#filter1_dd)">
<path d="M527.4 266.74V301.35C527.42 301.68 527.42 302.02 527.4 302.36V303.85H527.21C526.47 307.55 523.66 311.12 518.79 313.96L287.85 448.16C276.28 454.88 257.45 454.88 245.8 448.16L13.36 313.96C8.44001 311.12 5.60001 307.54 4.81001 303.85H4.57001V265.96C4.60001 270.36 7.53001 274.78 13.35 278.14L245.79 412.34C257.44 419.07 276.27 419.07 287.84 412.34L518.78 278.13C524.23 274.97 527.1 270.89 527.4 266.74Z" fill="url(#paint0_linear)"/>
<path d="M518.65 256.49L286.2 122.28C274.55 115.55 255.73 115.55 244.16 122.28L13.22 256.49C1.64001 263.22 1.71001 274.12 13.36 280.85L245.81 415.05C257.46 421.78 276.28 421.78 287.86 415.05L518.8 280.84C530.36 274.12 530.3 263.21 518.65 256.49Z" fill="url(#paint1_linear)"/>
<path d="M518.65 253.78L286.2 119.58C274.55 112.85 255.73 112.85 244.16 119.58L13.22 253.79C1.64001 260.52 1.71001 271.42 13.36 278.15L245.81 412.35C257.46 419.08 276.28 419.08 287.86 412.35L518.8 278.14C530.36 271.41 530.3 260.51 518.65 253.78Z" fill="url(#paint2_linear)"/>
</g>
<path d="M298.62 228.79C298.62 228.79 300.05 235.13 296.33 239.7C292.55 244.34 288.38 246.87 283.31 247.85C278.84 248.71 276.32 250.44 274.6 253.21C272.95 255.87 269.26 261.18 260.3 258.94C255.84 256.91 255.75 252.76 259.51 245.63C263.27 238.5 298.62 228.79 298.62 228.79Z" fill="url(#paint3_linear)"/>
<path d="M279.99 230.01C279.99 230.01 288.58 227.89 291.27 226.64C293.17 225.75 297.14 225.15 298.33 227.78C298.83 228.88 298.84 230.53 298.03 232.96C295.27 241.23 286.63 245.45 281.46 246.39C276.29 247.33 273.89 250.77 271.97 253.13C269.06 256.71 263 258.42 258.62 254.67C255.29 250.71 260.2 244.61 261.35 242.9C262.51 241.18 267.4 231.19 279.99 230.01Z" fill="url(#paint4_linear)"/>
<path d="M176.47 236.08L243.17 192.58L260.04 246.32C260.04 246.32 275.86 243.24 282.71 234.12L264.26 175.36C264.26 175.36 252.47 152.99 225.28 171.2C198.09 189.41 165.93 211.82 165.93 211.82L176.47 236.08Z" fill="url(#paint5_linear)"/>
<path d="M341.19 246.32C341.19 246.32 343.06 249.3 342.3 251.76C341.54 254.22 337.64 259.14 332.01 261.33C326.38 263.52 315.8 269.32 314.18 271.36L314.03 274.06C314.03 274.06 305.43 280.26 298.11 279.11C290.79 277.96 291.44 269.22 291.32 266.34L341.19 246.32Z" fill="url(#paint6_linear)"/>
<path d="M292.38 254.76C292.38 254.76 289.25 267.17 293.17 271.14C297.08 275.11 309.47 272.85 312.63 270.15C315.78 267.45 328.32 260.25 333.07 258.14C337.82 256.02 343.36 248.57 340.21 244.52C337.05 240.47 331.16 245.27 327.75 245.71C324.35 246.15 318.53 247.2 313.75 245.31C308.97 243.41 292.38 254.76 292.38 254.76Z" fill="url(#paint7_linear)"/>
<path d="M154.52 192.31C154.52 192.31 141.94 230.27 168.83 236.86C179.37 249.25 205.74 255.84 221.29 244.77C236.84 233.7 276.39 207.6 276.39 207.6C276.39 207.6 287.46 236.07 291.68 256.63C291.68 256.63 310.92 258.21 316.46 246.61C316.46 246.61 299.32 197.31 299.59 193.62C299.85 189.93 287.09 165.68 265.92 179.65C244.76 193.62 210.75 214.18 210.75 214.18L154.52 192.31Z" fill="url(#paint8_linear)"/>
<path d="M430.44 155.97V270.82L437.84 266.43V155.97H430.44Z" fill="url(#paint9_linear)"/>
<path d="M430.44 270.82L422.8 266.24V155.97H430.44V270.82Z" fill="url(#paint10_linear)"/>
<path d="M170.16 115.77V230.62L177.56 226.23V115.77H170.16Z" fill="url(#paint11_linear)"/>
<path d="M170.16 230.62L162.52 226.04V115.77H170.16V230.62Z" fill="url(#paint12_linear)"/>
<path d="M264.7 60.06V174.92L272.1 170.52V60.06H264.7Z" fill="url(#paint13_linear)"/>
<path d="M264.7 174.92L257.06 170.34V60.06H264.7V174.92Z" fill="url(#paint14_linear)"/>
<path d="M159.98 107.95L254.1 54.55C257.96 52.36 262.69 52.37 266.54 54.58L434.34 150.97C435.28 151.51 436.02 152.21 436.58 153.01L437.83 151.06V156.99C437.84 159.34 436.67 161.7 434.34 163.04L342.69 215.72C337.6 218.65 331.34 218.65 326.25 215.72L159.95 120.24C155.2 117.52 155.22 110.65 159.98 107.95Z" fill="url(#paint15_linear)"/>
<path d="M326.26 209.8L159.96 114.32C155.2 111.59 155.22 104.72 159.99 102.02L254.11 48.62C257.97 46.43 262.7 46.44 266.55 48.65L434.35 145.04C439.01 147.72 439.01 154.43 434.35 157.11L342.7 209.79C337.61 212.72 331.35 212.72 326.26 209.8Z" fill="url(#paint16_linear)"/>
<path d="M345.8 77.45L279.16 38.97C278.71 38.71 278.26 38.73 277.92 38.96L276.87 39.56C277.16 39.46 277.5 39.5 277.85 39.7L344.49 78.18C344.92 78.43 345.28 78.89 345.49 79.41L346.79 78.67C346.58 78.15 346.23 77.7 345.8 77.45Z" fill="#AEC3E5"/>
<path d="M345.49 79.41C345.68 79.88 345.77 80.41 345.69 80.89L337.08 135.57C337 136.05 336.79 136.4 336.5 136.59L337.64 135.95C337.72 135.92 337.79 135.88 337.86 135.83C338.12 135.63 338.32 135.3 338.39 134.85L347 80.17C347.08 79.68 346.99 79.15 346.79 78.67L345.49 79.41Z" fill="#7595BA"/>
<path d="M344.49 78.18L277.85 39.7C277.02 39.22 276.22 39.67 276.06 40.69L267.45 95.37C267.29 96.39 267.83 97.61 268.65 98.09L335.29 136.57C336.12 137.05 336.92 136.6 337.08 135.58L345.69 80.9C345.85 79.87 345.32 78.66 344.49 78.18Z" fill="#26397D"/>
<path d="M344.29 81.85L343.98 83.82L336.24 132.95C336.11 133.74 335.61 134.18 335.01 134.13C334.83 134.11 334.65 134.05 334.46 133.94L270.05 96.76C269.22 96.28 268.69 95.07 268.85 94.05L276.9 42.94C277.06 41.91 277.86 41.47 278.69 41.95L343.09 79.13C343.92 79.61 344.45 80.82 344.29 81.85Z" fill="#2F4DA1"/>
<path d="M334.26 138.25L268.98 100.56C267.98 99.98 266.37 99.98 265.37 100.56L221.07 126.31C220.08 126.89 220.08 127.82 221.08 128.4L286.36 166.09C287.36 166.67 288.97 166.67 289.96 166.09L334.26 140.34C335.26 139.76 335.25 138.82 334.26 138.25Z" fill="#1E2C5D"/>
<path d="M220.33 127.22V124.45L264.4 99.29L335.01 136.57V139.55L220.33 127.22Z" fill="#1E2C5D"/>
<path d="M334.26 135.48L268.98 97.79C267.98 97.21 266.37 97.21 265.37 97.79L221.07 123.54C220.08 124.12 220.08 125.05 221.08 125.63L286.36 163.32C287.36 163.9 288.97 163.9 289.96 163.32L334.26 137.57C335.26 136.99 335.25 136.05 334.26 135.48Z" fill="#AEC3E5"/>
<path d="M268.8 107.96L264.66 105.56L261.13 107.61L265.27 110.01L268.8 107.96Z" fill="#26397D"/>
<path d="M273.94 110.92L269.84 108.55L266.31 110.6L270.41 112.97L273.94 110.92Z" fill="#26397D"/>
<path d="M279.07 113.88L274.97 111.52L271.44 113.57L275.54 115.93L279.07 113.88Z" fill="#26397D"/>
<path d="M284.2 116.84L280.1 114.48L276.57 116.53L280.67 118.89L284.2 116.84Z" fill="#26397D"/>
<path d="M289.33 119.81L285.23 117.44L281.7 119.49L285.8 121.86L289.33 119.81Z" fill="#26397D"/>
<path d="M294.46 122.77L290.36 120.4L286.83 122.45L290.93 124.82L294.46 122.77Z" fill="#26397D"/>
<path d="M299.59 125.73L295.49 123.36L291.96 125.42L296.06 127.78L299.59 125.73Z" fill="#26397D"/>
<path d="M304.72 128.69L300.62 126.33L297.09 128.38L301.19 130.74L304.72 128.69Z" fill="#26397D"/>
<path d="M309.85 131.66L305.76 129.29L302.23 131.34L306.32 133.71L309.85 131.66Z" fill="#26397D"/>
<path d="M314.98 134.62L310.89 132.25L307.36 134.3L311.46 136.67L314.98 134.62Z" fill="#26397D"/>
<path d="M319.96 137.49L316.02 135.22L312.49 137.27L316.43 139.54L319.96 137.49Z" fill="#26397D"/>
<path d="M266.89 112.06L260.16 108.18L256.64 110.22L263.37 114.11L266.89 112.06Z" fill="#26397D"/>
<path d="M272.02 115.02L267.92 112.66L264.4 114.7L268.5 117.07L272.02 115.02Z" fill="#26397D"/>
<path d="M277.15 117.99L273.05 115.62L269.54 117.66L273.63 120.03L277.15 117.99Z" fill="#26397D"/>
<path d="M282.28 120.95L278.18 118.58L274.67 120.63L278.76 122.99L282.28 120.95Z" fill="#26397D"/>
<path d="M287.41 123.91L283.32 121.54L279.8 123.59L283.9 125.95L287.41 123.91Z" fill="#26397D"/>
<path d="M292.54 126.87L288.45 124.51L284.93 126.55L289.03 128.92L292.54 126.87Z" fill="#26397D"/>
<path d="M297.68 129.84L293.58 127.47L290.06 129.51L294.16 131.88L297.68 129.84Z" fill="#26397D"/>
<path d="M302.81 132.8L298.71 130.43L295.19 132.48L299.29 134.84L302.81 132.8Z" fill="#26397D"/>
<path d="M307.94 135.76L303.84 133.39L300.32 135.44L304.42 137.8L307.94 135.76Z" fill="#26397D"/>
<path d="M315.46 140.1L308.97 136.36L305.45 138.4L311.94 142.15L315.46 140.1Z" fill="#26397D"/>
<path d="M261.47 114.13L255.67 110.78L252.16 112.83L257.96 116.17L261.47 114.13Z" fill="#26397D"/>
<path d="M266.61 117.09L262.51 114.73L258.99 116.77L263.09 119.14L266.61 117.09Z" fill="#26397D"/>
<path d="M271.74 120.06L267.64 117.69L264.12 119.73L268.22 122.1L271.74 120.06Z" fill="#26397D"/>
<path d="M276.87 123.02L272.77 120.65L269.25 122.7L273.35 125.06L276.87 123.02Z" fill="#26397D"/>
<path d="M282 125.98L277.9 123.61L274.38 125.66L278.48 128.02L282 125.98Z" fill="#26397D"/>
<path d="M287.13 128.94L283.03 126.58L279.51 128.62L283.61 130.99L287.13 128.94Z" fill="#26397D"/>
<path d="M292.26 131.91L288.16 129.54L284.65 131.58L288.74 133.95L292.26 131.91Z" fill="#26397D"/>
<path d="M297.39 134.87L293.29 132.5L289.78 134.55L293.88 136.91L297.39 134.87Z" fill="#26397D"/>
<path d="M302.52 137.83L298.43 135.46L294.91 137.51L299.01 139.87L302.52 137.83Z" fill="#26397D"/>
<path d="M310.97 142.71L303.56 138.43L300.04 140.47L307.46 144.75L310.97 142.71Z" fill="#26397D"/>
<path d="M260.19 118.59L251.19 113.39L247.67 115.43L256.67 120.63L260.19 118.59Z" fill="#26397D"/>
<path d="M265.22 121.49L261.12 119.12L257.6 121.17L261.7 123.53L265.22 121.49Z" fill="#26397D"/>
<path d="M270.35 124.45L266.25 122.09L262.74 124.13L266.83 126.5L270.35 124.45Z" fill="#26397D"/>
<path d="M275.48 127.41L271.38 125.05L267.87 127.09L271.97 129.46L275.48 127.41Z" fill="#26397D"/>
<path d="M280.61 130.38L276.52 128.01L273 130.05L277.1 132.42L280.61 130.38Z" fill="#26397D"/>
<path d="M285.74 133.34L281.65 130.97L278.13 133.02L282.23 135.38L285.74 133.34Z" fill="#26397D"/>
<path d="M290.88 136.3L286.78 133.94L283.26 135.98L287.36 138.35L290.88 136.3Z" fill="#26397D"/>
<path d="M296.01 139.26L291.91 136.9L288.39 138.94L292.49 141.31L296.01 139.26Z" fill="#26397D"/>
<path d="M306.39 145.26L297.04 139.86L293.52 141.9L302.87 147.3L306.39 145.26Z" fill="#26397D"/>
<path d="M253.33 119.82L246.7 116L243.25 118L249.88 121.83L253.33 119.82Z" fill="#26397D"/>
<path d="M258.46 122.78L254.36 120.42L250.91 122.42L255.01 124.79L258.46 122.78Z" fill="#26397D"/>
<path d="M263.59 125.75L259.5 123.38L256.04 125.39L260.14 127.75L263.59 125.75Z" fill="#26397D"/>
<path d="M284.12 137.6L264.63 126.34L261.17 128.35L280.66 139.6L284.12 137.6Z" fill="#26397D"/>
<path d="M289.25 140.56L285.15 138.19L281.7 140.2L285.8 142.57L289.25 140.56Z" fill="#26397D"/>
<path d="M294.38 143.52L290.28 141.15L286.83 143.16L290.93 145.53L294.38 143.52Z" fill="#26397D"/>
<path d="M302 147.92L295.41 144.12L291.96 146.12L298.55 149.93L302 147.92Z" fill="#26397D"/>
<path d="M321.64 135.52L268.05 104.58C267.58 104.31 266.81 104.31 266.34 104.58C265.87 104.85 265.87 105.29 266.35 105.57L319.94 136.51C320.41 136.78 321.18 136.78 321.64 136.51C322.1 136.24 322.12 135.79 321.64 135.52Z" fill="#26397D"/>
<g opacity="0.8">
<path opacity="0.7" d="M208.14 49.45L208.42 47.74L267.09 81.62L266.81 83.33L208.14 49.45ZM208.85 45.17L209.13 43.46L267.8 77.34L267.52 79.05L208.85 45.17ZM209.55 40.9L209.83 39.19L268.5 73.07L268.22 74.78L209.55 40.9ZM210.26 36.62L210.54 34.91L269.21 68.79L268.93 70.5L210.26 36.62ZM210.96 32.35L211.24 30.64L269.91 64.52L269.63 66.23L210.96 32.35ZM211.89 26.74L213.92 14.43L229.16 23.23L227.13 35.54L211.89 26.74ZM233.61 39.28L235.64 26.97L250.88 35.77L248.85 48.08L233.61 39.28ZM255.33 51.82L257.36 39.51L272.6 48.31L270.57 60.62L255.33 51.82ZM210.48 0.109985L201.93 51.96L271.44 92.09L279.28 44.55L209.77 4.41998L210.48 0.109985Z" fill="#4BC8EE"/>
<path opacity="0.8" d="M213.15 5.03998C212.73 4.79998 212.47 4.18998 212.55 3.66998C212.64 3.14998 213.04 2.92998 213.46 3.16998C213.88 3.40998 214.14 4.01998 214.06 4.53998C213.98 5.05998 213.57 5.27998 213.15 5.03998ZM215.39 6.32999C214.97 6.08999 214.71 5.47999 214.79 4.95999C214.88 4.43999 215.28 4.21999 215.7 4.45999C216.12 4.69999 216.38 5.30999 216.3 5.82999C216.21 6.34999 215.81 6.56999 215.39 6.32999ZM217.63 7.62999C217.21 7.38999 216.95 6.77998 217.03 6.25998C217.12 5.73998 217.52 5.51998 217.94 5.75998C218.36 5.99998 218.62 6.60999 218.54 7.12999C218.45 7.63999 218.04 7.86999 217.63 7.62999ZM279.99 40.24L210.48 0.109985L209.77 4.42998L279.28 44.56L279.99 40.24Z" fill="url(#paint17_linear)"/>
<path opacity="0.8" d="M213.46 3.16998C213.04 2.92998 212.64 3.15998 212.55 3.66998C212.46 4.18998 212.73 4.79998 213.15 5.03998C213.57 5.27998 213.97 5.05998 214.06 4.53998C214.15 4.02998 213.88 3.40998 213.46 3.16998Z" fill="white"/>
<path opacity="0.8" d="M215.7 4.45999C215.28 4.21999 214.88 4.44999 214.79 4.95999C214.7 5.47999 214.97 6.08999 215.39 6.32999C215.81 6.56999 216.21 6.34999 216.3 5.82999C216.38 5.31999 216.12 4.69999 215.7 4.45999Z" fill="white"/>
<path opacity="0.8" d="M217.94 5.75998C217.52 5.51998 217.12 5.74998 217.03 6.25998C216.94 6.77998 217.21 7.38999 217.63 7.62999C218.05 7.86999 218.45 7.64999 218.54 7.12999C218.62 6.60999 218.35 5.99998 217.94 5.75998Z" fill="white"/>
<path opacity="0.8" d="M229.15 23.23L213.92 14.43L211.89 26.74L227.13 35.54L229.15 23.23Z" fill="#81D2E7"/>
<path opacity="0.8" d="M250.87 35.77L235.64 26.97L233.61 39.28L248.84 48.08L250.87 35.77Z" fill="#81D2E7"/>
<path opacity="0.8" d="M272.59 48.31L257.36 39.51L255.33 51.82L270.56 60.61L272.59 48.31Z" fill="#81D2E7"/>
<path opacity="0.8" d="M269.92 64.51L211.25 30.63L210.96 32.35L269.64 66.22L269.92 64.51Z" fill="#81D2E7"/>
<path opacity="0.8" d="M269.21 68.78L210.54 34.91L210.26 36.62L268.93 70.5L269.21 68.78Z" fill="#81D2E7"/>
<path opacity="0.8" d="M268.51 73.06L209.84 39.18L209.55 40.9L268.23 74.77L268.51 73.06Z" fill="#81D2E7"/>
<path opacity="0.8" d="M267.81 77.33L209.13 43.46L208.85 45.17L267.52 79.05L267.81 77.33Z" fill="#81D2E7"/>
<path opacity="0.8" d="M267.1 81.61L208.43 47.73L208.14 49.45L266.82 83.32L267.1 81.61Z" fill="#81D2E7"/>
</g>
<path opacity="0.7" d="M311.79 53.28C311.34 53.02 311.01 53.38 310.9 54C310.78 54.67 310.98 55.24 311.39 55.48C311.68 55.65 311.95 55.54 312.07 55.23C312.11 55.15 312.13 55.07 312.15 54.96L312.24 54.45C312.25 54.38 312.26 54.29 312.26 54.23C312.27 53.85 312.1 53.45 311.79 53.28ZM307.99 51.01C307.51 50.73 307.23 51.23 307.13 51.81C307.01 52.48 307.15 53.12 307.58 53.37C307.97 53.59 308.3 53.26 308.43 52.56C308.52 51.97 308.44 51.27 307.99 51.01ZM315.59 55.33C315.17 55.09 314.92 55.45 314.83 55.77L316.01 56.45C316.06 56.16 316.04 55.6 315.59 55.33ZM283.49 55.15L283.74 53.71L284.75 54.29L287.54 55.9L288.55 56.49L291.34 58.1L292.35 58.69L295.14 60.3L296.15 60.88L295.9 62.32L294.89 61.74L292.1 60.13L291.09 59.54L288.3 57.93L287.29 57.34L284.5 55.73L283.49 55.15ZM299.7 64.51L299.95 63.07L307.55 67.46L307.3 68.9L299.7 64.51ZM311.1 71.1L311.35 69.66L315.15 71.85L314.9 73.29L311.1 71.1ZM317.69 74.9L317.94 73.46L326.55 78.43L326.3 79.87L317.69 74.9ZM329.09 81.48L329.34 80.04L334.16 82.82L333.91 84.26L329.09 81.48ZM283.98 52.37L284.23 50.94L291.83 55.33L291.58 56.76L283.98 52.37ZM295.38 58.95L295.63 57.52L307.03 64.1L306.78 65.53L295.38 58.95ZM307.8 66.12L308.05 64.69L315.65 69.08L315.4 70.51L307.8 66.12ZM319.2 72.7L319.45 71.27L333.63 79.46L333.38 80.89L319.2 72.7ZM334.39 81.47L334.64 80.04L338.19 82.09L337.94 83.52L334.39 81.47ZM280.64 47.37L280.89 45.93L288.53 50.34L288.28 51.78L280.64 47.37ZM289.29 52.36L289.54 50.92L292.33 52.53L292.08 53.97L289.29 52.36ZM293.09 54.56L293.34 53.12L299.93 56.92L299.68 58.36L293.09 54.56ZM303.47 60.55L303.72 59.11L308.54 61.89L308.29 63.33L303.47 60.55ZM312.09 65.53L312.34 64.09L323.74 70.67L323.49 72.11L312.09 65.53ZM327.29 74.3L327.54 72.86L331.34 75.05L331.09 76.49L327.29 74.3ZM334.89 78.69L335.14 77.25L338.69 79.3L338.44 80.74L334.89 78.69ZM285.98 47.38L286.23 45.94L290.03 48.13L289.78 49.57L285.98 47.38ZM293.58 51.77L293.83 50.33L305.23 56.91L304.98 58.35L293.58 51.77ZM308.78 60.55L309.03 59.11L316.63 63.5L316.38 64.94L308.78 60.55ZM320.18 67.13L320.43 65.69L330.81 71.68L330.56 73.12L320.18 67.13ZM331.58 73.71L331.83 72.27L335.63 74.46L335.38 75.9L331.58 73.71ZM281.62 41.8L281.87 40.36L289.51 44.77L289.26 46.21L281.62 41.8ZM290.27 46.79L290.52 45.35L294.32 47.54L294.07 48.98L290.27 46.79ZM296.86 50.6L297.11 49.16L301.92 51.94L301.67 53.38L296.86 50.6ZM305.47 55.57L305.72 54.13L313.32 58.52L313.07 59.96L305.47 55.57ZM315.86 61.56L316.11 60.12L323.71 64.51L323.46 65.95L315.86 61.56ZM324.47 66.54L324.72 65.1L328.52 67.29L328.27 68.73L324.47 66.54ZM331.06 70.34L331.31 68.9L332.33 69.49L335.12 71.1L336.13 71.69L335.88 73.13L334.87 72.54L332.08 70.93L331.06 70.34ZM285.95 41.23L286.2 39.79L287.21 40.37L286.96 41.81L285.95 41.23ZM290.77 44.01L291.02 42.57L298.62 46.96L298.37 48.4L290.77 44.01ZM323.95 63.17L324.2 61.73L332.82 66.7L332.57 68.14L323.95 63.17ZM335.35 69.75L335.6 68.31L340.16 70.94L339.91 72.38L335.35 69.75ZM304.54 52.57C303.5 51.97 302.98 50.82 303.2 49.58C303.4 48.43 304.21 47.86 305.41 48.55C305.67 48.7 305.95 48.92 306.14 49.14L305.82 49.96C305.71 49.83 305.55 49.67 305.28 49.52C304.76 49.22 304.33 49.48 304.23 50.13C304.1 50.85 304.43 51.46 304.91 51.74C305.15 51.88 305.34 51.93 305.5 51.95L305.46 52.92C305.27 52.91 304.92 52.79 304.54 52.57ZM307.39 54.23C306.45 53.69 305.86 52.52 306.09 51.25C306.31 49.98 307.14 49.57 308.17 50.16C309.15 50.73 309.66 51.93 309.46 53.11C309.19 54.55 308.25 54.72 307.39 54.23ZM315.16 58.7C314.07 58.07 313.58 56.94 313.8 55.71C313.98 54.71 314.68 53.91 315.79 54.55C316.83 55.15 317.05 56.36 316.87 57.33C316.83 57.54 316.78 57.71 316.75 57.79L314.68 56.6C314.62 57.13 314.99 57.6 315.45 57.87C315.79 58.07 316.08 58.17 316.36 58.22L316.34 59.12C316 59.11 315.59 58.95 315.16 58.7ZM302.26 51.17L299.43 47.56L299.55 46.87L303.02 46.9L302.87 47.75L300.26 47.65V47.66L302.42 50.31L302.26 51.17ZM319.26 60.98L319.41 60.13L322.07 60.26V60.25L319.86 57.57L320.01 56.72L322.85 60.31L322.72 61.05L319.26 60.98ZM282.61 36.23L282.86 34.8L286.7 37.02L286.45 38.45L282.61 36.23ZM287.46 39.03L287.71 37.6L298.1 43.6L297.85 45.03L287.46 39.03ZM328.25 62.57L328.5 61.14L337.11 66.11L336.86 67.54L328.25 62.57ZM316.75 59.89L319.18 54.88L319.84 55.26L317.4 60.27L316.75 59.89ZM312.46 53.12L312.47 53.13L312.85 51L313.85 51.58L313.05 56.11C312.97 56.55 312.9 57.02 312.87 57.3L311.99 56.79L312.05 56.18L312.04 56.17C311.76 56.49 311.33 56.5 310.92 56.26C310.16 55.82 309.69 54.67 309.91 53.45C310.14 52.12 310.95 51.75 311.72 52.19C312.09 52.42 312.37 52.77 312.46 53.12ZM286.94 35.66L287.19 34.22L292 37L291.75 38.44L286.94 35.66ZM294.54 40.04L294.79 38.6L299.6 41.38L299.35 42.82L294.54 40.04ZM302.14 44.43L302.39 42.99L309.99 47.38L309.74 48.82L302.14 44.43ZM310.75 49.41L311 47.97L314.8 50.16L314.55 51.6L310.75 49.41ZM318.35 53.79L318.6 52.35L322.4 54.54L322.15 55.98L318.35 53.79ZM324.94 57.6L325.19 56.16L328.99 58.35L328.74 59.79L324.94 57.6ZM329.75 60.38L330 58.94L333.8 61.13L333.55 62.57L329.75 60.38ZM336.34 64.18L336.59 62.74L341.15 65.37L340.9 66.81L336.34 64.18ZM283.6 30.66L283.85 29.23L292.5 34.22L292.25 35.65L283.6 30.66ZM295.03 37.26L295.28 35.83L296.29 36.42L296.04 37.85L295.03 37.26ZM298.83 39.45L299.08 38.02L303.89 40.8L303.64 42.23L298.83 39.45ZM306.43 43.84L306.68 42.41L311.5 45.19L311.25 46.62L306.43 43.84ZM314.03 48.23L314.28 46.8L326.69 53.97L326.44 55.4L314.03 48.23ZM330.25 57.59L330.5 56.16L341.65 62.6L341.4 64.03L330.25 57.59ZM287.93 30.09L288.18 28.65L291.98 30.84L291.73 32.28L287.93 30.09ZM292.74 32.87L292.99 31.43L300.59 35.82L300.34 37.26L292.74 32.87ZM306.93 41.06L307.18 39.62L312 42.4L311.75 43.84L306.93 41.06ZM314.53 45.44L314.78 44L319.59 46.78L319.34 48.22L314.53 45.44ZM323.14 50.42L323.39 48.98L333.77 54.97L333.52 56.41L323.14 50.42ZM337.33 58.61L337.58 57.17L342.14 59.8L341.89 61.24L337.33 58.61ZM284.58 25.09L284.83 23.65L289.68 26.45L289.43 27.89L284.58 25.09ZM293.23 30.08L293.48 28.64L297.28 30.83L297.03 32.27L293.23 30.08ZM303.62 36.08L303.87 34.64L320.08 44L319.83 45.44L303.62 36.08ZM322.62 47.05L322.87 45.61L330.47 50L330.22 51.44L322.62 47.05ZM331.23 52.02L331.48 50.58L339.08 54.97L338.83 56.41L331.23 52.02ZM296.51 28.9L296.76 27.46L309.17 34.63L308.92 36.07L296.51 28.9ZM311.71 37.68L311.96 36.24L316.78 39.02L316.53 40.46L311.71 37.68ZM319.31 42.07L319.56 40.63L324.38 43.41L324.13 44.85L319.31 42.07ZM330.71 48.65L330.96 47.21L335.78 49.99L335.53 51.43L330.71 48.65ZM338.31 53.04L338.56 51.6L339.57 52.19L339.32 53.63L338.31 53.04ZM281.46 6.93999L272.49 57.6L341.43 97.4L349.65 50.96L280.71 11.16L281.46 6.93999Z" fill="#4BC8EE"/>
<path d="M284.08 11.78C283.67 11.54 283.41 10.94 283.5 10.44C283.59 9.93999 284 9.71999 284.41 9.95999C284.82 10.2 285.08 10.8 284.99 11.3C284.9 11.81 284.49 12.02 284.08 11.78ZM286.3 13.06C285.89 12.82 285.63 12.22 285.72 11.72C285.81 11.22 286.21 11 286.63 11.24C287.04 11.48 287.3 12.08 287.21 12.58C287.12 13.09 286.71 13.3 286.3 13.06ZM288.52 14.35C288.11 14.11 287.85 13.51 287.94 13.01C288.03 12.51 288.44 12.29 288.85 12.53C289.26 12.77 289.52 13.37 289.43 13.87C289.34 14.37 288.93 14.58 288.52 14.35ZM350.4 46.75L281.46 6.94998L280.71 11.17L349.65 50.97L350.4 46.75Z" fill="url(#paint18_linear)"/>
<path d="M284.4 9.95999C283.99 9.71999 283.58 9.93999 283.49 10.44C283.4 10.94 283.66 11.55 284.07 11.78C284.48 12.02 284.89 11.8 284.98 11.3C285.08 10.8 284.82 10.2 284.4 9.95999Z" fill="white"/>
<path d="M286.62 11.24C286.21 11 285.8 11.22 285.71 11.72C285.62 12.22 285.88 12.83 286.29 13.06C286.7 13.3 287.11 13.08 287.2 12.58C287.3 12.08 287.04 11.48 286.62 11.24Z" fill="white"/>
<path d="M288.84 12.52C288.43 12.28 288.02 12.5 287.93 13C287.84 13.5 288.1 14.11 288.51 14.34C288.92 14.58 289.33 14.36 289.42 13.86C289.52 13.36 289.25 12.76 288.84 12.52Z" fill="white"/>
<path d="M309.18 34.63L296.77 27.47L296.51 28.9L308.93 36.07L309.18 34.63Z" fill="#CB85B9"/>
<path d="M316.78 39.02L311.97 36.24L311.71 37.68L316.53 40.46L316.78 39.02Z" fill="#E77E7E"/>
<path d="M324.38 43.41L319.57 40.63L319.31 42.07L324.13 44.85L324.38 43.41Z" fill="#81D2E7"/>
<path d="M335.78 49.99L330.97 47.21L330.71 48.65L335.53 51.43L335.78 49.99Z" fill="#E8E27D"/>
<path d="M339.58 52.18L338.57 51.6L338.31 53.04L339.33 53.62L339.58 52.18Z" fill="#81D2E7"/>
<path d="M289.69 26.45L284.84 23.65L284.58 25.09L289.43 27.89L289.69 26.45Z" fill="#E8E27D"/>
<path d="M297.29 30.84L293.49 28.64L293.23 30.08L297.03 32.27L297.29 30.84Z" fill="#81D2E7"/>
<path d="M320.09 44L303.87 34.64L303.62 36.08L319.83 45.44L320.09 44Z" fill="#81D2E7"/>
<path d="M330.47 50L322.87 45.61L322.62 47.05L330.22 51.43L330.47 50Z" fill="#81D2E7"/>
<path d="M339.09 54.97L331.49 50.58L331.23 52.02L338.83 56.41L339.09 54.97Z" fill="#81D2E7"/>
<path d="M291.98 30.84L288.18 28.65L287.93 30.09L291.73 32.28L291.98 30.84Z" fill="#81D2E7"/>
<path d="M300.59 35.82L292.99 31.43L292.74 32.87L300.34 37.25L300.59 35.82Z" fill="#E77E7E"/>
<path d="M312 42.4L307.18 39.62L306.93 41.06L311.74 43.84L312 42.4Z" fill="#81D2E7"/>
<path d="M319.59 46.79L314.78 44.01L314.53 45.44L319.34 48.22L319.59 46.79Z" fill="#81D2E7"/>
<path d="M333.78 54.98L323.4 48.98L323.14 50.42L333.52 56.41L333.78 54.98Z" fill="#CB85B9"/>
<path d="M342.14 59.8L337.58 57.17L337.33 58.61L341.89 61.24L342.14 59.8Z" fill="#81D2E7"/>
<path d="M292.5 34.22L283.85 29.22L283.6 30.66L292.25 35.65L292.5 34.22Z" fill="#81D2E7"/>
<path d="M296.3 36.41L295.29 35.82L295.03 37.26L296.05 37.84L296.3 36.41Z" fill="#81D2E7"/>
<path d="M303.9 40.8L299.09 38.02L298.83 39.45L303.65 42.23L303.9 40.8Z" fill="#81D2E7"/>
<path d="M311.5 45.19L306.69 42.41L306.43 43.84L311.25 46.62L311.5 45.19Z" fill="#E77E7E"/>
<path d="M326.7 53.96L314.29 46.79L314.03 48.23L326.45 55.4L326.7 53.96Z" fill="#E8E27D"/>
<path d="M341.65 62.59L330.5 56.16L330.25 57.59L341.39 64.02L341.65 62.59Z" fill="#E77E7E"/>
<path d="M292.01 37L287.19 34.22L286.94 35.66L291.75 38.44L292.01 37Z" fill="#CB85B9"/>
<path d="M299.61 41.39L294.79 38.61L294.54 40.04L299.35 42.82L299.61 41.39Z" fill="#81D2E7"/>
<path d="M309.99 47.38L302.39 43L302.14 44.43L309.74 48.82L309.99 47.38Z" fill="#81D2E7"/>
<path d="M314.81 50.16L311.01 47.97L310.75 49.41L314.55 51.6L314.81 50.16Z" fill="#CB85B9"/>
<path d="M322.41 54.55L318.61 52.36L318.35 53.79L322.15 55.99L322.41 54.55Z" fill="#81D2E7"/>
<path d="M328.99 58.35L325.19 56.16L324.94 57.6L328.74 59.79L328.99 58.35Z" fill="#81D2E7"/>
<path d="M333.81 61.13L330.01 58.94L329.75 60.38L333.55 62.57L333.81 61.13Z" fill="#81D2E7"/>
<path d="M341.15 65.37L336.59 62.74L336.34 64.18L340.9 66.81L341.15 65.37Z" fill="#81D2E7"/>
<path d="M286.7 37.01L282.86 34.79L282.61 36.23L286.45 38.44L286.7 37.01Z" fill="#81D2E7"/>
<path d="M298.1 43.59L287.71 37.59L287.46 39.03L297.85 45.02L298.1 43.59Z" fill="#E8E27D"/>
<path d="M337.11 66.11L328.5 61.14L328.25 62.57L336.86 67.55L337.11 66.11Z" fill="#CB85B9"/>
<path d="M287.22 40.38L286.21 39.79L285.95 41.23L286.97 41.81L287.22 40.38Z" fill="#81D2E7"/>
<path d="M298.62 46.96L291.02 42.57L290.77 44.01L298.37 48.39L298.62 46.96Z" fill="#81D2E7"/>
<path d="M332.82 66.7L324.21 61.73L323.95 63.17L332.57 68.14L332.82 66.7Z" fill="#E77E7E"/>
<path d="M340.17 70.94L335.61 68.31L335.35 69.75L339.91 72.38L340.17 70.94Z" fill="#81D2E7"/>
<path d="M289.51 44.77L281.88 40.36L281.62 41.8L289.26 46.21L289.51 44.77Z" fill="#E77E7E"/>
<path d="M294.33 47.55L290.53 45.36L290.27 46.79L294.07 48.99L294.33 47.55Z" fill="#81D2E7"/>
<path d="M301.93 51.94L297.11 49.16L296.86 50.6L301.67 53.37L301.93 51.94Z" fill="#81D2E7"/>
<path d="M313.33 58.52L305.73 54.13L305.47 55.57L313.07 59.96L313.33 58.52Z" fill="#81D2E7"/>
<path d="M323.71 64.52L316.11 60.13L315.86 61.56L323.46 65.95L323.71 64.52Z" fill="#81D2E7"/>
<path d="M328.53 67.3L324.73 65.1L324.47 66.54L328.27 68.73L328.53 67.3Z" fill="#81D2E7"/>
<path d="M336.13 71.68L335.11 71.1L332.33 69.49L331.31 68.9L331.06 70.34L332.07 70.93L334.86 72.53L335.87 73.12L336.13 71.68Z" fill="#81D2E7"/>
<path d="M290.04 48.14L286.23 45.95L285.98 47.38L289.78 49.58L290.04 48.14Z" fill="#81D2E7"/>
<path d="M305.23 56.92L293.83 50.33L293.58 51.77L304.98 58.35L305.23 56.92Z" fill="#CB85B9"/>
<path d="M316.63 63.5L309.04 59.11L308.78 60.55L316.38 64.93L316.63 63.5Z" fill="#E77E7E"/>
<path d="M330.82 71.69L320.44 65.69L320.18 67.13L330.57 73.12L330.82 71.69Z" fill="#E8E27D"/>
<path d="M335.64 74.47L331.84 72.27L331.58 73.71L335.38 75.9L335.64 74.47Z" fill="#81D2E7"/>
<path d="M288.53 50.34L280.89 45.93L280.64 47.37L288.27 51.78L288.53 50.34Z" fill="#CB85B9"/>
<path d="M292.33 52.53L289.54 50.93L289.29 52.36L292.07 53.97L292.33 52.53Z" fill="#E77E7E"/>
<path d="M299.93 56.92L293.34 53.12L293.09 54.56L299.67 58.36L299.93 56.92Z" fill="#81D2E7"/>
<path d="M308.54 61.9L303.73 59.12L303.47 60.55L308.29 63.33L308.54 61.9Z" fill="#E8E27D"/>
<path d="M323.74 70.67L312.34 64.09L312.09 65.53L323.49 72.11L323.74 70.67Z" fill="#81D2E7"/>
<path d="M331.34 75.06L327.54 72.87L327.29 74.3L331.09 76.5L331.34 75.06Z" fill="#81D2E7"/>
<path d="M338.69 79.3L335.14 77.25L334.89 78.69L338.43 80.74L338.69 79.3Z" fill="#81D2E7"/>
<path d="M291.83 55.32L284.23 50.93L283.98 52.37L291.58 56.75L291.83 55.32Z" fill="#81D2E7"/>
<path d="M307.03 64.1L295.63 57.52L295.38 58.95L306.78 65.53L307.03 64.1Z" fill="#E77E7E"/>
<path d="M315.65 69.07L308.05 64.68L307.8 66.12L315.39 70.5L315.65 69.07Z" fill="#81D2E7"/>
<path d="M333.63 79.45L319.45 71.26L319.2 72.7L333.38 80.89L333.63 79.45Z" fill="#CB85B9"/>
<path d="M338.19 82.09L334.65 80.04L334.39 81.47L337.94 83.52L338.19 82.09Z" fill="#E8E27D"/>
<path d="M296.15 60.88L295.14 60.3L292.36 58.69L291.34 58.1L288.56 56.5L287.54 55.91L284.75 54.3L283.74 53.72L283.49 55.15L284.5 55.74L287.29 57.35L288.3 57.93L291.09 59.54L292.1 60.13L294.89 61.74L295.9 62.32L296.15 60.88Z" fill="#E8E27D"/>
<path d="M307.56 67.47L299.95 63.08L299.7 64.51L307.3 68.9L307.56 67.47Z" fill="#81D2E7"/>
<path d="M315.16 71.85L311.36 69.66L311.1 71.1L314.9 73.29L315.16 71.85Z" fill="#81D2E7"/>
<path d="M326.55 78.44L317.94 73.46L317.69 74.9L326.3 79.87L326.55 78.44Z" fill="#E77E7E"/>
<path d="M334.16 82.82L329.34 80.04L329.09 81.48L333.9 84.26L334.16 82.82Z" fill="#81D2E7"/>
<path d="M303.01 46.9L299.55 46.87L299.43 47.56L302.26 51.17L302.41 50.32L300.25 47.67L300.26 47.65L302.86 47.75L303.01 46.9Z" fill="#257896"/>
<path d="M305.4 48.56C304.21 47.87 303.4 48.44 303.19 49.59C302.97 50.83 303.5 51.98 304.53 52.58C304.91 52.8 305.26 52.91 305.45 52.92L305.49 51.95C305.33 51.93 305.13 51.88 304.9 51.74C304.42 51.46 304.09 50.85 304.22 50.13C304.33 49.48 304.75 49.22 305.27 49.52C305.53 49.67 305.7 49.83 305.81 49.96L306.13 49.14C305.94 48.94 305.66 48.71 305.4 48.56Z" fill="#257896"/>
<path d="M307.57 53.37C307.14 53.12 307 52.49 307.12 51.81C307.22 51.23 307.51 50.73 307.98 51.01C308.43 51.27 308.51 51.97 308.41 52.56C308.29 53.26 307.95 53.59 307.57 53.37ZM308.16 50.16C307.13 49.57 306.3 49.98 306.08 51.25C305.86 52.52 306.44 53.69 307.38 54.23C308.24 54.73 309.19 54.55 309.44 53.11C309.66 51.93 309.15 50.72 308.16 50.16Z" fill="#257896"/>
<path d="M311.4 55.47C310.99 55.23 310.79 54.66 310.91 53.99C311.02 53.37 311.34 53.01 311.8 53.27C312.11 53.45 312.28 53.84 312.28 54.21C312.28 54.28 312.27 54.37 312.26 54.43L312.17 54.94C312.15 55.04 312.13 55.13 312.09 55.21C311.96 55.53 311.68 55.64 311.4 55.47ZM313.85 51.58L312.85 51L312.47 53.13L312.46 53.12C312.36 52.76 312.09 52.42 311.69 52.19C310.92 51.75 310.11 52.12 309.88 53.45C309.66 54.67 310.13 55.82 310.89 56.26C311.3 56.5 311.73 56.5 312.01 56.17L312.02 56.18L311.96 56.79L312.84 57.3C312.88 57.03 312.94 56.55 313.02 56.11L313.85 51.58Z" fill="#257896"/>
<path d="M314.83 55.77C314.91 55.45 315.17 55.09 315.59 55.33C316.05 55.59 316.07 56.16 316.01 56.45L314.83 55.77ZM315.79 54.56C314.68 53.92 313.97 54.72 313.8 55.72C313.58 56.95 314.07 58.08 315.16 58.71C315.59 58.96 316.01 59.11 316.36 59.14L316.38 58.24C316.09 58.19 315.81 58.09 315.47 57.89C315.01 57.62 314.64 57.15 314.7 56.62L316.77 57.81C316.8 57.73 316.85 57.56 316.89 57.35C317.04 56.37 316.83 55.16 315.79 54.56Z" fill="#257896"/>
<path d="M319.85 55.26L319.19 54.88L316.75 59.89L317.42 60.27L319.85 55.26Z" fill="#257896"/>
<path d="M320.01 56.71L319.86 57.56L322.07 60.25V60.26L319.41 60.13L319.26 60.98L322.72 61.04L322.85 60.3L320.01 56.71Z" fill="#257896"/>
<g opacity="0.8">
<path opacity="0.7" d="M345.3 131.61L345.51 130.32L355.98 136.36L355.77 137.65L345.3 131.61ZM345.77 128.72L345.98 127.43L356.45 133.47L356.24 134.76L345.77 128.72ZM346.24 125.84L346.45 124.55L356.92 130.59L356.71 131.88L346.24 125.84ZM346.7 122.95L346.91 121.66L357.38 127.7L357.17 128.99L346.7 122.95ZM358.77 139.36L360.38 129.44L369.42 134.66L367.81 144.58L358.77 139.36ZM371.11 146.49L372.72 136.57L381.77 141.79L380.16 151.71L371.11 146.49ZM383.46 153.61L385.07 143.69L394.11 148.91L392.5 158.83L383.46 153.61ZM347.17 120.07L347.38 118.78L357.85 124.82L357.64 126.11L347.17 120.07ZM347.64 117.18L347.85 115.89L358.32 121.93L358.11 123.22L347.64 117.18ZM348.11 114.3L348.32 113.01L358.79 119.05L358.58 120.34L348.11 114.3ZM347.45 110.76L347.66 109.47L359.25 116.16L359.04 117.45L347.45 110.76ZM360.65 127.82L362.26 117.9L371.3 123.12L369.69 133.04L360.65 127.82ZM372.99 134.95L374.6 125.03L383.65 130.25L382.04 140.17L372.99 134.95ZM385.33 142.07L386.94 132.15L395.98 137.37L394.37 147.29L385.33 142.07ZM347.94 107.78L350.08 94.62L398.57 122.62L396.43 135.78L347.94 107.78ZM361.94 99.51L362.17 98.09L368.22 101.59L367.99 103.01L361.94 99.51ZM369.49 103.87L369.72 102.45L375.78 105.95L375.55 107.37L369.49 103.87ZM377.04 108.23L377.27 106.81L383.33 110.31L383.1 111.73L377.04 108.23ZM384.59 112.59L384.82 111.17L390.88 114.67L390.65 116.09L384.59 112.59ZM392.14 116.95L392.37 115.53L398.43 119.03L398.2 120.45L392.14 116.95ZM350.23 93.65L350.73 90.59L358.11 94.85L357.61 97.91L350.23 93.65ZM342.99 78.81L334.92 128.48L401.55 166.95L408.95 121.42L342.32 82.95L342.99 78.81Z" fill="#4BC8EE"/>
<path opacity="0.8" d="M345.55 83.53C345.15 83.3 344.89 82.71 344.97 82.22C345.05 81.73 345.44 81.51 345.84 81.74C346.24 81.97 346.5 82.56 346.42 83.05C346.34 83.55 345.95 83.76 345.55 83.53ZM347.7 84.77C347.3 84.54 347.04 83.95 347.12 83.46C347.2 82.97 347.59 82.75 347.99 82.98C348.39 83.21 348.65 83.8 348.57 84.29C348.49 84.79 348.1 85 347.7 84.77ZM349.84 86.01C349.44 85.78 349.18 85.19 349.26 84.7C349.34 84.21 349.73 83.99 350.13 84.22C350.53 84.45 350.79 85.04 350.71 85.53C350.63 86.03 350.24 86.24 349.84 86.01ZM409.62 117.28L342.99 78.81L342.32 82.94L408.95 121.41L409.62 117.28Z" fill="url(#paint19_linear)"/>
<path opacity="0.8" d="M345.85 81.74C345.45 81.51 345.06 81.72 344.98 82.22C344.9 82.72 345.16 83.3 345.56 83.53C345.96 83.76 346.35 83.55 346.43 83.05C346.5 82.56 346.24 81.97 345.85 81.74Z" fill="white"/>
<path opacity="0.8" d="M347.99 82.98C347.59 82.75 347.2 82.97 347.12 83.46C347.04 83.95 347.3 84.54 347.7 84.77C348.1 85 348.49 84.79 348.57 84.29C348.65 83.8 348.39 83.21 347.99 82.98Z" fill="white"/>
<path opacity="0.8" d="M350.13 84.22C349.73 83.99 349.34 84.21 349.26 84.7C349.18 85.19 349.44 85.78 349.84 86.01C350.24 86.24 350.63 86.03 350.71 85.53C350.79 85.04 350.53 84.45 350.13 84.22Z" fill="white"/>
<path opacity="0.8" d="M358.11 94.85L350.73 90.59L350.23 93.65L357.61 97.91L358.11 94.85Z" fill="#81D2E7"/>
<path opacity="0.8" d="M368.22 101.59L362.17 98.09L361.94 99.51L367.99 103.01L368.22 101.59Z" fill="#81D2E7"/>
<path opacity="0.8" d="M375.77 105.95L369.72 102.45L369.49 103.87L375.54 107.37L375.77 105.95Z" fill="#81D2E7"/>
<path opacity="0.8" d="M383.33 110.3L377.27 106.81L377.04 108.23L383.09 111.73L383.33 110.3Z" fill="#81D2E7"/>
<path opacity="0.8" d="M390.87 114.66L384.82 111.17L384.59 112.59L390.64 116.08L390.87 114.66Z" fill="#81D2E7"/>
<path opacity="0.8" d="M398.43 119.02L392.37 115.53L392.14 116.95L398.19 120.44L398.43 119.02Z" fill="#81D2E7"/>
<path opacity="0.8" d="M398.57 122.61L350.08 94.62L347.94 107.78L396.43 135.77L398.57 122.61Z" fill="#81D2E7"/>
<path opacity="0.8" d="M359.26 116.16L347.66 109.47L347.45 110.76L359.05 117.45L359.26 116.16Z" fill="#81D2E7"/>
<path opacity="0.8" d="M358.79 119.05L348.32 113.01L348.11 114.3L358.58 120.34L358.79 119.05Z" fill="#81D2E7"/>
<path opacity="0.8" d="M358.32 121.93L347.85 115.89L347.64 117.18L358.11 123.22L358.32 121.93Z" fill="#81D2E7"/>
<path opacity="0.8" d="M357.85 124.82L347.38 118.78L347.17 120.07L357.64 126.11L357.85 124.82Z" fill="#81D2E7"/>
<path opacity="0.8" d="M357.38 127.7L346.91 121.66L346.7 122.95L357.17 128.99L357.38 127.7Z" fill="#81D2E7"/>
<path opacity="0.8" d="M356.91 130.59L346.45 124.54L346.24 125.84L356.7 131.88L356.91 130.59Z" fill="#81D2E7"/>
<path opacity="0.8" d="M356.44 133.47L345.98 127.43L345.77 128.72L356.23 134.76L356.44 133.47Z" fill="#81D2E7"/>
<path opacity="0.8" d="M355.97 136.36L345.51 130.32L345.3 131.61L355.76 137.65L355.97 136.36Z" fill="#81D2E7"/>
<path opacity="0.8" d="M371.31 123.12L362.26 117.9L360.65 127.82L369.69 133.04L371.31 123.12Z" fill="#81D2E7"/>
<path opacity="0.8" d="M383.65 130.25L374.6 125.02L372.99 134.95L382.04 140.17L383.65 130.25Z" fill="#81D2E7"/>
<path opacity="0.8" d="M395.99 137.37L386.94 132.15L385.33 142.07L394.38 147.29L395.99 137.37Z" fill="#81D2E7"/>
<path opacity="0.8" d="M369.43 134.66L360.39 129.44L358.77 139.36L367.82 144.58L369.43 134.66Z" fill="#81D2E7"/>
<path opacity="0.8" d="M381.77 141.79L372.73 136.56L371.11 146.49L380.16 151.71L381.77 141.79Z" fill="#81D2E7"/>
<path opacity="0.8" d="M394.11 148.91L385.07 143.69L383.46 153.61L392.5 158.83L394.11 148.91Z" fill="#81D2E7"/>
</g>
<path opacity="0.7" d="M304.38 94.77C303.47 94.24 302.88 92.9 303.06 91.77C303.24 90.64 304.13 90.15 305.04 90.68L325.9 102.72C326.81 103.25 327.4 104.59 327.22 105.72C327.04 106.85 326.15 107.34 325.24 106.82L304.38 94.77ZM305.54 87.61C304.63 87.08 304.04 85.74 304.22 84.61C304.4 83.48 305.29 82.99 306.2 83.51L327.06 95.55C327.97 96.08 328.56 97.42 328.38 98.55C328.2 99.68 327.31 100.17 326.4 99.64L305.54 87.61ZM291.33 90.7C287.1 88.26 284.36 82.02 285.21 76.77C286.06 71.52 290.18 69.25 294.41 71.69C298.64 74.13 301.38 80.37 300.54 85.62C299.68 90.86 295.56 93.14 291.33 90.7ZM280.63 49.46L273.54 93.31L332.4 127.29L338.9 87.09L280.04 53.11L280.63 49.46Z" fill="#4BC8EE"/>
<path d="M282.9 53.63C282.55 53.43 282.32 52.91 282.39 52.47C282.46 52.03 282.8 51.84 283.15 52.05C283.5 52.25 283.73 52.77 283.66 53.21C283.59 53.65 283.25 53.84 282.9 53.63ZM284.79 54.73C284.44 54.53 284.21 54.01 284.28 53.57C284.35 53.13 284.69 52.94 285.04 53.15C285.39 53.35 285.62 53.87 285.55 54.31C285.49 54.74 285.15 54.93 284.79 54.73ZM286.69 55.82C286.34 55.62 286.11 55.1 286.18 54.66C286.25 54.22 286.59 54.03 286.94 54.24C287.29 54.44 287.52 54.96 287.45 55.4C287.38 55.83 287.04 56.02 286.69 55.82ZM339.48 83.44L280.62 49.46L280.03 53.11L338.89 87.09L339.48 83.44Z" fill="url(#paint20_linear)"/>
<path d="M293.42 84.75C293.42 84.75 293.43 83.77 294.26 83.64C294.32 83.76 294.38 83.86 294.46 83.93C294.97 84.43 296.65 86.53 297.21 87.24C295.99 88.47 294.25 88.82 292.43 88.02L292.5 85.52L293.1 84.78L292.65 83.5L292.27 83.28L291.51 83.96L291.77 85.19L291.08 87.2C289.4 85.92 288.11 83.84 287.49 81.57C288.23 81.57 290.11 81.6 290.66 81.73C290.74 81.75 290.83 81.74 290.91 81.71C291.09 82.29 291.28 82.97 291.31 83.42L292.26 82.92L292.79 83.23L293.42 84.75ZM292.24 74.76C292.27 74.73 292.3 74.71 292.33 74.69C292.5 74.45 292.99 73.93 293.85 74.43C294.95 75.06 295.56 74.94 295.56 74.94C295.56 74.94 296.05 77.78 295.61 78.95L295.66 78.97C295.82 79.1 295.8 79.65 295.63 80.21C295.47 80.75 295.21 81.1 295.06 81.01C295.05 81.01 295.05 81 295.04 81C295.01 80.98 294.99 80.94 294.97 80.9C294.71 81.54 294.64 81.89 294.28 82.19C294.22 82.21 293.34 82.57 293.06 82.45C293.03 82.44 292.79 82.31 292.58 82.18C292.44 82.1 292.32 82.02 292.26 81.98C291.98 81.78 291.37 80.56 291.32 80.48C291.11 79.86 291.15 79.5 291.13 78.73L291.14 78.74V78.68C291.11 78.7 291.08 78.71 291.05 78.7C291.04 78.7 291.04 78.7 291.03 78.69C290.87 78.6 290.77 78.04 290.79 77.42C290.81 76.78 290.97 76.3 291.14 76.36C291.14 76.36 291.45 74.23 292.04 74.57C292.1 74.58 292.17 74.65 292.24 74.76ZM294.41 71.68C290.18 69.24 286.06 71.51 285.21 76.76C284.36 82.01 287.1 88.25 291.33 90.69C295.56 93.13 299.68 90.86 300.53 85.61C301.38 80.36 298.64 74.13 294.41 71.68Z" fill="#81D2E7"/>
<path d="M295.57 74.93C295.57 74.93 294.95 75.06 293.86 74.42C292.99 73.92 292.5 74.44 292.34 74.68C292.31 74.7 292.28 74.73 292.25 74.75C292.18 74.65 292.11 74.58 292.04 74.54C291.45 74.2 291.14 76.33 291.14 76.33C290.97 76.27 290.82 76.74 290.79 77.39C290.77 78.01 290.87 78.57 291.03 78.66C291.04 78.66 291.04 78.67 291.05 78.67C291.08 78.68 291.11 78.67 291.14 78.65V78.71L291.13 78.7C291.15 79.47 291.11 79.83 291.32 80.45C291.37 80.53 291.98 81.75 292.26 81.95C292.32 81.99 292.45 82.07 292.58 82.15C292.8 82.28 293.04 82.41 293.06 82.42C293.35 82.55 294.22 82.18 294.28 82.16C294.64 81.86 294.71 81.51 294.97 80.87C294.99 80.91 295.01 80.95 295.04 80.97C295.05 80.97 295.05 80.98 295.06 80.98C295.22 81.07 295.47 80.72 295.63 80.18C295.8 79.62 295.81 79.07 295.66 78.94L295.61 78.92C296.06 77.77 295.57 74.93 295.57 74.93Z" fill="white"/>
<path d="M294.26 83.65C293.43 83.77 293.42 84.76 293.42 84.76L292.8 83.26L292.27 82.95L291.32 83.45C291.29 82.99 291.1 82.31 290.92 81.74C290.84 81.77 290.76 81.78 290.67 81.76C290.12 81.64 288.24 81.61 287.5 81.6C288.11 83.86 289.4 85.95 291.09 87.23L291.78 85.22L291.52 83.99L292.28 83.31L292.66 83.53L293.11 84.81L292.51 85.55L292.44 88.05C294.26 88.85 296 88.51 297.22 87.27C296.66 86.56 294.98 84.45 294.47 83.96C294.38 83.87 294.32 83.77 294.26 83.65Z" fill="white"/>
<path d="M318.5 92.29C318.42 92.24 318.37 92.23 318.34 92.22L318.26 92.73L318.39 92.81C318.56 92.91 318.67 92.86 318.7 92.7C318.73 92.52 318.65 92.38 318.5 92.29ZM314.54 91.36C314.72 91.46 314.84 91.37 314.89 91.04L315.06 89.98L315.4 90.17L315.23 91.21C315.14 91.78 314.86 91.92 314.47 91.69C314.1 91.47 313.92 91.09 314.01 90.5L314.18 89.47L314.52 89.66L314.35 90.72C314.3 91.05 314.37 91.26 314.54 91.36ZM316.59 92.88L316.89 91.03L317.81 91.56L317.75 91.9L317.17 91.56L317.11 91.94L317.66 92.26L317.6 92.6L317.05 92.28L316.98 92.72L317.59 93.07L317.53 93.41L316.59 92.88ZM317.76 93.56L318.05 91.74C318.16 91.78 318.33 91.86 318.51 91.96C318.73 92.09 318.88 92.22 318.97 92.38C319.04 92.52 319.07 92.68 319.05 92.85C319.01 93.08 318.85 93.17 318.71 93.15V93.16C318.81 93.27 318.84 93.43 318.85 93.62C318.86 93.86 318.87 94.12 318.89 94.21L318.55 94.01C318.53 93.94 318.52 93.77 318.51 93.52C318.51 93.27 318.45 93.17 318.32 93.09L318.22 93.03L318.1 93.76L317.76 93.56ZM315.83 92.1C315.98 92.19 316.08 92.16 316.1 92.04C316.12 91.92 316.06 91.82 315.89 91.63C315.66 91.38 315.53 91.12 315.57 90.85C315.62 90.53 315.87 90.42 316.22 90.62C316.39 90.72 316.5 90.83 316.59 90.93L316.46 91.22C316.41 91.15 316.31 91.04 316.16 90.95C316.01 90.87 315.93 90.91 315.91 91C315.89 91.12 315.97 91.22 316.15 91.42C316.39 91.69 316.49 91.93 316.45 92.19C316.4 92.5 316.16 92.65 315.76 92.41C315.59 92.31 315.43 92.16 315.36 92.05L315.48 91.74C315.55 91.88 315.68 92.01 315.83 92.1ZM327.06 95.56L306.2 83.52C305.29 82.99 304.4 83.49 304.22 84.62C304.04 85.75 304.63 87.09 305.54 87.62L326.4 99.66C327.31 100.19 328.2 99.7 328.38 98.57C328.57 97.43 327.98 96.09 327.06 95.56Z" fill="#81D2E7"/>
<path d="M310.66 95.89L310.67 95.9L311.16 95.14L311.45 95.56L310.79 96.11V96.12L311.65 96.46L311.57 96.92L310.76 96.32V96.33L311.16 97.46L310.77 97.51L310.59 96.36L310.58 96.35L310.07 97.11L309.79 96.68L310.45 96.15V96.14L309.61 95.8L309.69 95.34L310.48 95.94V95.93L310.1 94.8L310.48 94.75L310.66 95.89ZM313.85 97.73L313.86 97.74L314.35 96.98L314.64 97.4L313.98 97.95V97.96L314.84 98.3L314.76 98.76L313.95 98.16V98.17L314.35 99.3L313.96 99.35L313.78 98.2L313.77 98.19L313.26 98.95L312.98 98.52L313.64 97.99V97.98L312.8 97.64L312.88 97.18L313.67 97.78V97.77L313.29 96.64L313.67 96.59L313.85 97.73ZM317.04 99.57L317.05 99.58L317.54 98.82L317.83 99.24L317.17 99.79V99.8L318.03 100.14L317.95 100.6L317.14 100V100.01L317.54 101.14L317.15 101.19L316.97 100.04L316.96 100.03L316.45 100.79L316.17 100.36L316.83 99.83V99.82L315.99 99.48L316.07 99.02L316.86 99.62V99.61L316.48 98.48L316.86 98.43L317.04 99.57ZM320.23 101.41L320.24 101.42L320.73 100.66L321.02 101.08L320.36 101.63V101.64L321.22 101.98L321.14 102.44L320.33 101.84V101.85L320.73 102.98L320.34 103.03L320.16 101.88L320.15 101.87L319.64 102.63L319.36 102.2L320.02 101.67V101.66L319.18 101.32L319.26 100.86L320.05 101.46V101.45L319.67 100.32L320.05 100.27L320.23 101.41ZM325.91 102.71L305.05 90.67C304.14 90.14 303.25 90.63 303.07 91.76C302.89 92.89 303.48 94.24 304.39 94.76L325.25 106.8C326.16 107.33 327.05 106.84 327.23 105.7C327.41 104.56 326.82 103.24 325.91 102.71Z" fill="#81D2E7"/>
<path d="M311.16 95.13L310.67 95.89H310.66L310.47 94.74L310.09 94.78L310.48 95.92L310.47 95.93L309.69 95.33L309.61 95.8L310.45 96.14V96.15L309.79 96.69L310.06 97.11L310.58 96.35L310.59 96.36L310.76 97.51L311.15 97.47L310.75 96.34L310.76 96.33L311.57 96.93L311.64 96.46L310.79 96.12V96.11L311.45 95.55L311.16 95.13Z" fill="#2E6B80"/>
<path d="M314.35 96.97L313.86 97.73H313.85L313.66 96.58L313.28 96.62L313.67 97.76L313.66 97.77L312.88 97.17L312.8 97.64L313.64 97.98V97.99L312.98 98.53L313.25 98.95L313.77 98.2H313.78L313.95 99.35L314.34 99.31L313.94 98.18L313.95 98.17L314.76 98.77L314.83 98.31L313.98 97.96V97.95L314.64 97.39L314.35 96.97Z" fill="#2E6B80"/>
<path d="M317.54 98.81L317.05 99.58L317.04 99.57L316.85 98.42L316.47 98.47L316.86 99.6V99.62L316.07 99.02L315.99 99.48L316.83 99.82V99.84L316.17 100.37L316.44 100.8L316.96 100.04H316.97L317.14 101.2L317.53 101.15L317.13 100.02L317.14 100.01L317.95 100.61L318.02 100.15L317.17 99.8V99.79L317.83 99.24L317.54 98.81Z" fill="#2E6B80"/>
<path d="M320.73 100.65L320.24 101.42L320.23 101.41L320.04 100.26L319.66 100.31L320.05 101.44V101.46L319.26 100.86L319.18 101.32L320.02 101.67V101.68L319.36 102.21L319.63 102.64L320.15 101.88L320.16 101.89L320.33 103.04L320.72 102.99L320.32 101.86L320.33 101.85L321.14 102.45L321.21 101.99L320.36 101.64V101.63L321.02 101.08L320.73 100.65Z" fill="#2E6B80"/>
<path d="M315.4 90.17L315.06 89.98L314.89 91.04C314.84 91.37 314.72 91.46 314.54 91.36C314.37 91.26 314.3 91.04 314.35 90.73L314.52 89.67L314.18 89.48L314.01 90.51C313.91 91.1 314.09 91.48 314.47 91.7C314.86 91.93 315.13 91.79 315.23 91.22L315.4 90.17Z" fill="#2E6B80"/>
<path d="M316.22 90.62C315.87 90.42 315.62 90.54 315.57 90.85C315.53 91.12 315.66 91.38 315.89 91.63C316.06 91.81 316.12 91.92 316.1 92.04C316.08 92.16 315.99 92.19 315.83 92.1C315.69 92.02 315.56 91.88 315.48 91.77L315.36 92.08C315.43 92.19 315.59 92.34 315.76 92.44C316.17 92.68 316.4 92.52 316.45 92.22C316.49 91.96 316.4 91.72 316.15 91.45C315.97 91.25 315.9 91.15 315.91 91.03C315.93 90.94 316.01 90.89 316.16 90.98C316.31 91.06 316.4 91.18 316.46 91.25L316.59 90.96C316.5 90.83 316.39 90.71 316.22 90.62Z" fill="#2E6B80"/>
<path d="M317.8 91.56L316.88 91.03L316.59 92.88L317.53 93.42L317.59 93.08L316.98 92.73L317.05 92.29L317.6 92.61L317.65 92.27L317.1 91.95L317.16 91.57L317.75 91.9L317.8 91.56Z" fill="#2E6B80"/>
<path d="M318.26 92.72L318.34 92.21C318.37 92.22 318.41 92.24 318.5 92.28C318.65 92.37 318.73 92.51 318.7 92.68C318.67 92.84 318.56 92.89 318.39 92.79L318.26 92.72ZM318.51 91.96C318.33 91.86 318.17 91.78 318.05 91.74L317.76 93.56L318.09 93.75L318.21 93.02L318.31 93.08C318.45 93.16 318.5 93.26 318.5 93.51C318.51 93.76 318.52 93.94 318.54 94L318.88 94.2C318.86 94.11 318.86 93.84 318.84 93.61C318.83 93.42 318.79 93.26 318.7 93.15V93.14C318.84 93.16 319 93.07 319.04 92.84C319.07 92.67 319.04 92.51 318.96 92.37C318.88 92.21 318.73 92.08 318.51 91.96Z" fill="#2E6B80"/>
<path d="M283.16 52.05C282.81 51.85 282.47 52.04 282.4 52.47C282.33 52.91 282.56 53.42 282.91 53.63C283.26 53.83 283.6 53.64 283.67 53.21C283.73 52.77 283.51 52.25 283.16 52.05Z" fill="white"/>
<path d="M285.05 53.14C284.7 52.94 284.36 53.13 284.29 53.56C284.22 54 284.45 54.51 284.8 54.72C285.15 54.92 285.49 54.73 285.56 54.3C285.63 53.86 285.4 53.35 285.05 53.14Z" fill="white"/>
<path d="M286.94 54.24C286.59 54.04 286.25 54.23 286.18 54.66C286.11 55.1 286.34 55.61 286.69 55.82C287.04 56.02 287.38 55.83 287.45 55.4C287.52 54.96 287.3 54.44 286.94 54.24Z" fill="white"/>
<path d="M251.83 133.92C251.83 133.92 256.46 135.44 261.7 129.64C261.7 129.64 264.34 126.32 266.47 125.43C268.61 124.53 269.21 123.44 267.87 122.44C266.53 121.44 264.1 122.83 263.43 123.06C262.75 123.29 262.27 121.76 264.1 121.7C265.92 121.63 267.53 121.29 265.87 119.53C264.2 117.77 261.99 117.58 260.46 118.56C258.92 119.54 257.93 119.69 258.17 118.91C258.42 118.13 260.86 117.3 262.91 117.63C264.96 117.96 262.75 113.52 257.75 114.35C257.75 114.35 260.05 110.39 254.28 112.69C250.18 114.33 249.16 114.8 247.47 116.32C245.41 118.17 240.2 120.56 241.66 124.81C243.12 129.05 251.83 133.92 251.83 133.92Z" fill="#FCC188"/>
<path d="M247.11 138.09L252.3 134.44C252.3 134.44 250.34 124.74 241.08 122.89L237.95 124.73L247.11 138.09Z" fill="#64C4F0"/>
<path d="M237.41 124.95L242.64 122.55C242.64 122.55 250.85 127.69 253.23 134.34L246.61 139.39L237.41 124.95Z" fill="url(#paint21_linear)"/>
<path d="M249.39 139.35L220.97 156.68C220.9 156.72 220.83 156.77 220.75 156.81L220.45 156.99C213.76 160.98 209.15 160.56 206.78 159.82C206.19 159.57 205.57 159.28 204.93 158.96C200.88 156.89 196.1 153.2 192.63 146.68C185.35 132.99 180.8 112.7 180.35 99.87C180.35 99.87 178.71 77.91 192.74 85.05C206.77 92.18 211.28 132.69 215.34 133.67C217.99 134.31 237.79 123.39 237.79 123.39C237.79 123.39 247.75 128.57 249.39 139.35Z" fill="url(#paint22_linear)"/>
<path d="M220.37 71.58C220.37 71.58 220.37 71.58 218.52 74.47C217.99 79.75 216.01 84.62 210.87 85.28C210.28 85.35 209.76 85.5 209.28 85.69C208.92 85.83 208.59 86 208.29 86.19C205.49 87.98 205.07 91.61 205.07 91.61L204.14 97.94L180.55 88.05C181.94 84.62 180.93 78.15 179.72 72.24C178.75 67.47 177.63 63.07 177.51 60.89C177.25 56.02 184.23 45.73 198.6 42.17C212.97 38.62 219.16 46.39 220.35 51.79C221.54 57.2 219.56 63.65 219.03 64.84C218.52 66.04 220.37 71.58 220.37 71.58Z" fill="#FCC188"/>
<path d="M209.29 85.69C208.93 85.83 208.6 86 208.3 86.19C205.5 87.98 205.08 91.61 205.08 91.61L204.15 97.94L199.61 83.61C205.72 85.37 209.29 85.69 209.29 85.69Z" fill="#E9B185"/>
<path d="M212.49 56.85C212.49 56.85 230.94 55.04 224.45 32.17C224.45 32.17 220.59 35.4 203.99 34.61C187.38 33.82 172.45 44.36 173.44 59.19C173.93 66.01 179.07 75.53 179.37 79.19L179.77 81.86C179.77 81.86 189.56 84.53 193.51 81.86C197.46 79.19 200.69 72.27 200.69 72.27C200.69 72.27 202.26 67.99 205.07 68.02C208.37 68.05 209.52 71.41 209.12 74.45L210.41 74.35C210.41 74.35 210.9 69.9 212.68 66.94C214.47 63.97 213.68 57.64 212.49 56.85Z" fill="#5A3C20"/>
<path d="M206.81 104.6C206.81 104.6 207.39 96.99 197.01 92.54C186.85 88.19 183.32 86.22 176.09 89.09L173.39 90.64L206.82 105.2L206.81 104.6Z" fill="#64C4F0"/>
<path d="M214.22 110.84C214.22 110.84 195.96 90.94 171.59 89.63L168.97 92.93L177.53 107.43C177.52 107.43 206.88 113.99 214.22 110.84Z" fill="url(#paint23_linear)"/>
<path d="M171.58 89.63C171.58 89.63 157.75 87.13 155.12 112.7C152.48 138.27 159.6 158.83 155.91 179.92C152.22 201.01 155.65 211.82 176.47 221.31C194.97 229.74 212.3 228.3 220.74 218.28C229.18 208.26 223.92 157.52 224.45 144.33C224.98 131.15 225.77 116.39 216.81 112.43C207.84 108.48 176.6 97.94 171.58 89.63Z" fill="url(#paint24_linear)"/>
<path d="M284.82 153.14C284.82 153.14 289.65 153.81 293.78 147.18C293.78 147.18 295.79 143.45 297.74 142.19C299.69 140.93 300.09 139.74 298.59 139C297.09 138.25 294.95 140.05 294.33 140.4C293.7 140.75 292.96 139.33 294.75 138.94C296.53 138.55 298.06 137.93 296.11 136.49C294.16 135.05 291.95 135.25 290.61 136.49C289.27 137.73 288.32 138.05 288.42 137.24C288.52 136.42 290.78 135.18 292.86 135.14C294.93 135.1 291.98 131.13 287.2 132.82C287.2 132.82 288.77 128.51 283.49 131.8C279.74 134.14 278.82 134.78 277.43 136.58C275.73 138.77 271.03 142.03 273.21 145.96C275.39 149.88 284.82 153.14 284.82 153.14Z" fill="#FCC188"/>
<path d="M280.91 158.08L285.37 153.58C285.37 153.58 281.72 144.38 272.29 144.19L269.53 146.55L280.91 158.08Z" fill="#64C4F0"/>
<path d="M269.04 146.85L273.76 143.57C273.76 143.57 282.75 147.18 286.27 153.3L280.65 159.44L269.04 146.85Z" fill="url(#paint25_linear)"/>
<path d="M283.37 158.91L258.45 180.98C258.39 181.03 258.32 181.09 258.26 181.15L258 181.38C252.12 186.48 247.5 186.89 245.04 186.58C244.41 186.44 243.75 186.27 243.07 186.06C238.72 184.73 233.36 181.95 228.8 176.14C219.22 163.95 206.3 142.29 203.59 129.74C203.59 129.74 201.21 108.56 216.28 113.11C231.35 117.66 244.69 159.08 248.85 159.33C251.57 159.49 269.13 145.25 269.13 145.25C269.13 145.25 279.86 148.59 283.37 158.91Z" fill="url(#paint26_linear)"/>
<path d="M190.42 352.57C195.087 352.57 198.87 349.029 198.87 344.66C198.87 340.291 195.087 336.75 190.42 336.75C185.753 336.75 181.97 340.291 181.97 344.66C181.97 349.029 185.753 352.57 190.42 352.57Z" fill="url(#paint27_linear)"/>
<path d="M198.87 344.58C198.87 348.55 196.18 351.76 192.86 351.76C189.54 351.76 186.85 348.54 186.85 344.58C186.85 340.61 189.54 337.4 192.86 337.4C196.18 337.4 198.87 340.62 198.87 344.58Z" fill="url(#paint28_radial)"/>
<path d="M187.81 334.8C187.81 334.8 181.15 336.3 181.33 344.48L187.81 348.17C187.81 348.17 187.99 339.81 195.09 338.19C195.09 338.19 197.07 339 197.97 341.88L198.42 340.62C198.42 340.61 195.82 333.75 187.81 334.8Z" fill="#27C3ED"/>
<path d="M190.21 337.42C189.21 337.42 188.4 336.61 188.4 335.61V333.94C188.4 332.94 189.21 332.13 190.21 332.13C191.21 332.13 192.02 332.94 192.02 333.94V335.61C192.02 336.6 191.21 337.42 190.21 337.42Z" fill="url(#paint29_linear)"/>
<path d="M268.92 328.33C273.587 328.33 277.37 324.789 277.37 320.42C277.37 316.051 273.587 312.51 268.92 312.51C264.253 312.51 260.47 316.051 260.47 320.42C260.47 324.789 264.253 328.33 268.92 328.33Z" fill="url(#paint30_linear)"/>
<path d="M277.37 320.34C277.37 324.31 274.68 327.52 271.36 327.52C268.04 327.52 265.35 324.3 265.35 320.34C265.35 316.37 268.04 313.16 271.36 313.16C274.68 313.16 277.37 316.37 277.37 320.34Z" fill="url(#paint31_radial)"/>
<path d="M266.31 310.56C266.31 310.56 259.65 312.06 259.83 320.24L266.31 323.93C266.31 323.93 266.49 315.57 273.59 313.95C273.59 313.95 275.57 314.76 276.47 317.64L276.92 316.38C276.92 316.37 274.32 309.51 266.31 310.56Z" fill="#27C3ED"/>
<path d="M268.71 313.17C267.71 313.17 266.9 312.36 266.9 311.36V309.69C266.9 308.69 267.71 307.88 268.71 307.88C269.71 307.88 270.52 308.69 270.52 309.69V311.36C270.52 312.36 269.71 313.17 268.71 313.17Z" fill="url(#paint32_linear)"/>
<path d="M255.14 277.74C259.807 277.74 263.59 274.199 263.59 269.83C263.59 265.461 259.807 261.92 255.14 261.92C250.473 261.92 246.69 265.461 246.69 269.83C246.69 274.199 250.473 277.74 255.14 277.74Z" fill="url(#paint33_linear)"/>
<path d="M263.59 269.75C263.59 273.72 260.9 276.93 257.58 276.93C254.26 276.93 251.57 273.71 251.57 269.75C251.57 265.78 254.26 262.57 257.58 262.57C260.9 262.56 263.59 265.78 263.59 269.75Z" fill="url(#paint34_radial)"/>
<path d="M252.53 259.96C252.53 259.96 245.87 261.46 246.05 269.64L252.53 273.33C252.53 273.33 252.71 264.97 259.81 263.35C259.81 263.35 261.79 264.16 262.69 267.04L263.14 265.78C263.14 265.78 260.53 258.91 252.53 259.96Z" fill="#27C3ED"/>
<path d="M254.93 262.58C253.93 262.58 253.12 261.77 253.12 260.77V259.1C253.12 258.1 253.93 257.29 254.93 257.29C255.93 257.29 256.74 258.1 256.74 259.1V260.77C256.74 261.77 255.93 262.58 254.93 262.58Z" fill="url(#paint35_linear)"/>
<path d="M169.31 272.88C173.977 272.88 177.76 269.339 177.76 264.97C177.76 260.601 173.977 257.06 169.31 257.06C164.643 257.06 160.86 260.601 160.86 264.97C160.86 269.339 164.643 272.88 169.31 272.88Z" fill="url(#paint36_linear)"/>
<path d="M177.77 264.89C177.77 268.86 175.08 272.07 171.76 272.07C168.44 272.07 165.75 268.85 165.75 264.89C165.75 260.92 168.44 257.71 171.76 257.71C175.08 257.71 177.77 260.93 177.77 264.89Z" fill="url(#paint37_radial)"/>
<path d="M166.71 255.11C166.71 255.11 160.05 256.61 160.23 264.79L166.71 268.48C166.71 268.48 166.89 260.12 173.99 258.5C173.99 258.5 175.97 259.31 176.87 262.19L177.32 260.93C177.32 260.93 174.71 254.06 166.71 255.11Z" fill="#27C3ED"/>
<path d="M169.1 257.73C168.1 257.73 167.29 256.92 167.29 255.92V254.25C167.29 253.25 168.1 252.44 169.1 252.44C170.1 252.44 170.91 253.25 170.91 254.25V255.92C170.92 256.91 170.11 257.73 169.1 257.73Z" fill="url(#paint38_linear)"/>
<path d="M132.22 313.17C136.887 313.17 140.67 309.629 140.67 305.26C140.67 300.891 136.887 297.35 132.22 297.35C127.553 297.35 123.77 300.891 123.77 305.26C123.77 309.629 127.553 313.17 132.22 313.17Z" fill="url(#paint39_linear)"/>
<path d="M140.67 305.18C140.67 309.15 137.98 312.36 134.66 312.36C131.34 312.36 128.65 309.14 128.65 305.18C128.65 301.21 131.34 298 134.66 298C137.98 298 140.67 301.21 140.67 305.18Z" fill="url(#paint40_radial)"/>
<path d="M129.61 295.4C129.61 295.4 122.95 296.9 123.13 305.08L129.61 308.77C129.61 308.77 129.79 300.41 136.89 298.79C136.89 298.79 138.87 299.6 139.77 302.48L140.22 301.22C140.22 301.21 137.61 294.35 129.61 295.4Z" fill="#27C3ED"/>
<path d="M132.01 298.01C131.01 298.01 130.2 297.2 130.2 296.2V294.53C130.2 293.53 131.01 292.72 132.01 292.72C133.01 292.72 133.82 293.53 133.82 294.53V296.2C133.82 297.2 133.01 298.01 132.01 298.01Z" fill="url(#paint41_linear)"/>
<path d="M174.68 257.78L172.69 260.13L188.53 277.24L193.33 275.23L174.68 257.78Z" fill="url(#paint42_linear)"/>
<path d="M191.42 274.3L174.68 257.78L177.74 256.64L204.37 269.22L191.42 274.3Z" fill="#0985B8"/>
<path d="M207.48 282.79L193.33 331.71L187.09 330.51L195.25 281.83L129.29 293.34V289.98L189.97 274.87L252.33 250.41L258.56 254.73L213.71 277.03L273.19 302.21L270.31 305.57L207.48 282.79Z" fill="#0985B8"/>
<path d="M193.33 331.71V334.77L207.48 291.06V282.79L193.33 331.71Z" fill="url(#paint43_linear)"/>
<path d="M194.2 288.05L129.29 297V293.34L195.25 281.83L194.2 288.05Z" fill="url(#paint44_linear)"/>
<path d="M207.48 291.06L270.37 312.1L270.31 305.57L207.48 282.79V291.06Z" fill="url(#paint45_linear)"/>
<path d="M219.96 279.67L257.96 259.22L258.56 254.73L213.71 277.03L219.96 279.67Z" fill="url(#paint46_linear)"/>
<path d="M270.37 312.1L273.19 308.78V302.21L270.31 305.57L270.37 312.1Z" fill="#4BC8EE"/>
<path d="M192.37 261.2V273.19C192.37 273.19 199.33 282.3 209.64 273.19V261.2H192.37Z" fill="url(#paint47_linear)"/>
<path d="M203.4 266.48L215.39 261.2C215.39 261.2 214.91 195.25 201.24 170.06L197.16 175.49L203.4 266.48Z" fill="url(#paint48_linear)"/>
<path d="M134.81 227.62C134.81 227.62 144.4 174.86 125.7 133.61C125.7 133.61 150.16 157.42 197.17 175.49C197.17 175.49 215.4 217.55 203.41 266.47C203.4 266.48 154.95 267.92 134.81 227.62Z" fill="url(#paint49_linear)"/>
<path d="M187.09 330.51V333.69L193.33 334.77V331.71L187.09 330.51Z" fill="#4BC8EE"/>
<path d="M125.69 133.61L132.65 130.97C132.65 130.97 156.39 157.83 201.24 170.06L197.16 175.49C197.16 175.5 152.56 160.23 125.69 133.61Z" fill="url(#paint50_linear)"/>
<path d="M215.39 261.2C215.39 261.2 261.04 241.53 275.75 224.51V218.27L214.87 254.72L215.39 261.2Z" fill="url(#paint51_linear)"/>
<path d="M214.87 245.36L268.63 213.23C268.63 213.23 277.74 216.83 275.35 220.9C272.95 224.98 233.54 251.6 214.88 256.63V245.36H214.87Z" fill="url(#paint52_linear)"/>
<path d="M241.06 248.7V217.55L250.41 211.8V243.47L241.06 248.7Z" fill="url(#paint53_linear)"/>
<path d="M214.21 234.45L275.75 196.68C275.75 196.68 270.31 185.65 258.56 191.88C246.81 198.12 212.85 219.24 212.85 219.24" fill="url(#paint54_linear)"/>
<path d="M274.29 194.51L213.71 231.24L214.21 234.45L276.38 196.7L274.29 194.51Z" fill="url(#paint55_linear)"/>
<path d="M241.06 248.7L237.85 246.3V219.94L241.06 217.98V248.7Z" fill="url(#paint56_linear)"/>
<path d="M343.3 215.37V322.13L335.9 326.52V217.86C338.25 217.66 340.57 216.94 342.69 215.73L343.3 215.37Z" fill="url(#paint57_linear)"/>
<path d="M335.91 217.86V326.53L328.27 321.95V216.71C330.7 217.7 333.33 218.08 335.91 217.86Z" fill="url(#paint58_linear)"/>
</g>
<defs>
<filter id="filter0_d" x="0.570007" y="0.109985" width="530.859" height="461.09" filterUnits="userSpaceOnUse" color-interpolation-filters="sRGB">
<feFlood flood-opacity="0" result="BackgroundImageFix"/>
<feColorMatrix in="SourceAlpha" type="matrix" values="0 0 0 0 0 0 0 0 0 0 0 0 0 0 0 0 0 0 127 0"/>
<feOffset dy="4"/>
<feGaussianBlur stdDeviation="2"/>
<feColorMatrix type="matrix" values="0 0 0 0 0 0 0 0 0 0 0 0 0 0 0 0 0 0 0.25 0"/>
<feBlend mode="normal" in2="BackgroundImageFix" result="effect1_dropShadow"/>
<feBlend mode="normal" in="SourceGraphic" in2="effect1_dropShadow" result="shape"/>
</filter>
<filter id="filter1_dd" x="4.57001" y="114.532" width="522.859" height="338.667" filterUnits="userSpaceOnUse" color-interpolation-filters="sRGB">
<feFlood flood-opacity="0" result="BackgroundImageFix"/>
<feColorMatrix in="SourceAlpha" type="matrix" values="0 0 0 0 0 0 0 0 0 0 0 0 0 0 0 0 0 0 127 0"/>
<feMorphology radius="263" operator="erode" in="SourceAlpha" result="effect1_dropShadow"/>
<feOffset dx="0.459319" dy="29.3964"/>
<feGaussianBlur stdDeviation="3.65625"/>
<feColorMatrix type="matrix" values="0 0 0 0 0.188235 0 0 0 0 0.811765 0 0 0 0 0.815686 0 0 0 0.2 0"/>
<feBlend mode="normal" in2="BackgroundImageFix" result="effect1_dropShadow"/>
<feColorMatrix in="SourceAlpha" type="matrix" values="0 0 0 0 0 0 0 0 0 0 0 0 0 0 0 0 0 0 127 0"/>
<feMorphology radius="263" operator="erode" in="SourceAlpha" result="effect2_dropShadow"/>
<feOffset dx="1.60918" dy="102.987"/>
<feGaussianBlur stdDeviation="22.5"/>
<feColorMatrix type="matrix" values="0 0 0 0 0.188235 0 0 0 0 0.811765 0 0 0 0 0.815686 0 0 0 0.1 0"/>
<feBlend mode="normal" in2="effect1_dropShadow" result="effect2_dropShadow"/>
<feBlend mode="normal" in="SourceGraphic" in2="effect2_dropShadow" result="shape"/>
</filter>
<linearGradient id="paint0_linear" x1="4.57321" y1="359.584" x2="527.417" y2="359.584" gradientUnits="userSpaceOnUse">
<stop stop-color="#222F65"/>
<stop offset="0.1328" stop-color="#21487E"/>
<stop offset="0.2966" stop-color="#1B639D"/>
<stop offset="0.4236" stop-color="#1075B4"/>
<stop offset="0.4973" stop-color="#057DBF"/>
<stop offset="0.5108" stop-color="#0A80C1"/>
<stop offset="0.6679" stop-color="#2B9CD3"/>
<stop offset="0.8074" stop-color="#3EB2E1"/>
<stop offset="0.9228" stop-color="#49C0EA"/>
<stop offset="1" stop-color="#4BC8EE"/>
</linearGradient>
<linearGradient id="paint1_linear" x1="4.57591" y1="268.665" x2="527.425" y2="268.665" gradientUnits="userSpaceOnUse">
<stop stop-color="#095DA9"/>
<stop offset="0.1219" stop-color="#1C69B0"/>
<stop offset="0.546" stop-color="#4398CB"/>
<stop offset="0.847" stop-color="#5BBBDE"/>
<stop offset="0.9946" stop-color="#63CBE6"/>
</linearGradient>
<linearGradient id="paint2_linear" x1="4.57591" y1="265.963" x2="527.425" y2="265.963" gradientUnits="userSpaceOnUse">
<stop offset="0.005405" stop-color="#63CBE6"/>
<stop offset="0.153" stop-color="#5BBBDE"/>
<stop offset="0.454" stop-color="#4398CB"/>
<stop offset="0.8781" stop-color="#1C69B0"/>
<stop offset="1" stop-color="#095DA9"/>
</linearGradient>
<linearGradient id="paint3_linear" x1="256.817" y1="244.137" x2="298.889" y2="244.137" gradientUnits="userSpaceOnUse">
<stop stop-color="#64C4F0"/>
<stop offset="0.0159" stop-color="#5FB5DE"/>
<stop offset="0.0797" stop-color="#4E8CB4"/>
<stop offset="0.1492" stop-color="#406B93"/>
<stop offset="0.223" stop-color="#33537B"/>
<stop offset="0.302" stop-color="#294069"/>
<stop offset="0.3882" stop-color="#22315C"/>
<stop offset="0.4841" stop-color="#1C2553"/>
<stop offset="0.5953" stop-color="#181C4C"/>
<stop offset="0.7357" stop-color="#161649"/>
<stop offset="1" stop-color="#151548"/>
</linearGradient>
<linearGradient id="paint4_linear" x1="284.842" y1="222.18" x2="272.371" y2="256.314" gradientUnits="userSpaceOnUse">
<stop stop-color="#64C4F0"/>
<stop offset="0.0217" stop-color="#5FB7E0"/>
<stop offset="0.1273" stop-color="#4D88B0"/>
<stop offset="0.2373" stop-color="#3D658D"/>
<stop offset="0.3497" stop-color="#304C75"/>
<stop offset="0.465" stop-color="#263963"/>
<stop offset="0.584" stop-color="#1E2A56"/>
<stop offset="0.7086" stop-color="#191E4E"/>
<stop offset="0.842" stop-color="#161749"/>
<stop offset="1" stop-color="#151548"/>
</linearGradient>
<linearGradient id="paint5_linear" x1="272.879" y1="191.618" x2="185.248" y2="246.757" gradientUnits="userSpaceOnUse">
<stop stop-color="#151548"/>
<stop offset="0.2643" stop-color="#161649"/>
<stop offset="0.4047" stop-color="#181C4C"/>
<stop offset="0.5159" stop-color="#1C2553"/>
<stop offset="0.6118" stop-color="#22315C"/>
<stop offset="0.698" stop-color="#294069"/>
<stop offset="0.777" stop-color="#33537B"/>
<stop offset="0.8508" stop-color="#406B93"/>
<stop offset="0.9203" stop-color="#4E8CB4"/>
<stop offset="0.9841" stop-color="#5FB5DE"/>
<stop offset="1" stop-color="#64C4F0"/>
</linearGradient>
<linearGradient id="paint6_linear" x1="291.323" y1="262.786" x2="342.483" y2="262.786" gradientUnits="userSpaceOnUse">
<stop stop-color="#64C4F0"/>
<stop offset="0.0159" stop-color="#5FB5DE"/>
<stop offset="0.0797" stop-color="#4E8CB4"/>
<stop offset="0.1492" stop-color="#406B93"/>
<stop offset="0.223" stop-color="#33537B"/>
<stop offset="0.302" stop-color="#294069"/>
<stop offset="0.3882" stop-color="#22315C"/>
<stop offset="0.4841" stop-color="#1C2553"/>
<stop offset="0.5953" stop-color="#181C4C"/>
<stop offset="0.7357" stop-color="#161649"/>
<stop offset="1" stop-color="#151548"/>
</linearGradient>
<linearGradient id="paint7_linear" x1="324.149" y1="238.156" x2="303.801" y2="276.228" gradientUnits="userSpaceOnUse">
<stop stop-color="#64C4F0"/>
<stop offset="0.0217" stop-color="#5FB7E0"/>
<stop offset="0.1273" stop-color="#4D88B0"/>
<stop offset="0.2373" stop-color="#3D658D"/>
<stop offset="0.3497" stop-color="#304C75"/>
<stop offset="0.465" stop-color="#263963"/>
<stop offset="0.584" stop-color="#1E2A56"/>
<stop offset="0.7086" stop-color="#191E4E"/>
<stop offset="0.842" stop-color="#161749"/>
<stop offset="1" stop-color="#151548"/>
</linearGradient>
<linearGradient id="paint8_linear" x1="297.403" y1="174.94" x2="211.741" y2="237.955" gradientUnits="userSpaceOnUse">
<stop stop-color="#151548"/>
<stop offset="0.2643" stop-color="#161649"/>
<stop offset="0.4047" stop-color="#181C4C"/>
<stop offset="0.5159" stop-color="#1C2553"/>
<stop offset="0.6118" stop-color="#22315C"/>
<stop offset="0.698" stop-color="#294069"/>
<stop offset="0.777" stop-color="#33537B"/>
<stop offset="0.8508" stop-color="#406B93"/>
<stop offset="0.9203" stop-color="#4E8CB4"/>
<stop offset="0.9841" stop-color="#5FB5DE"/>
<stop offset="1" stop-color="#64C4F0"/>
</linearGradient>
<linearGradient id="paint9_linear" x1="434.139" y1="165.37" x2="434.139" y2="251.48" gradientUnits="userSpaceOnUse">
<stop stop-color="#4BC8EE"/>
<stop offset="0.1523" stop-color="#44A0C6"/>
<stop offset="0.7428" stop-color="#223A64"/>
<stop offset="1" stop-color="#151548"/>
</linearGradient>
<linearGradient id="paint10_linear" x1="426.619" y1="156.151" x2="426.619" y2="268.564" gradientUnits="userSpaceOnUse">
<stop stop-color="#4BC8EE"/>
<stop offset="0.1523" stop-color="#44A0C6"/>
<stop offset="0.7428" stop-color="#223A64"/>
<stop offset="1" stop-color="#151548"/>
</linearGradient>
<linearGradient id="paint11_linear" x1="173.864" y1="125.175" x2="173.864" y2="211.285" gradientUnits="userSpaceOnUse">
<stop stop-color="#4BC8EE"/>
<stop offset="0.1523" stop-color="#44A0C6"/>
<stop offset="0.7428" stop-color="#223A64"/>
<stop offset="1" stop-color="#151548"/>
</linearGradient>
<linearGradient id="paint12_linear" x1="166.343" y1="115.956" x2="166.343" y2="228.369" gradientUnits="userSpaceOnUse">
<stop stop-color="#4BC8EE"/>
<stop offset="0.1523" stop-color="#44A0C6"/>
<stop offset="0.7428" stop-color="#223A64"/>
<stop offset="1" stop-color="#151548"/>
</linearGradient>
<linearGradient id="paint13_linear" x1="268.4" y1="69.4663" x2="268.4" y2="155.576" gradientUnits="userSpaceOnUse">
<stop stop-color="#4BC8EE"/>
<stop offset="0.1523" stop-color="#44A0C6"/>
<stop offset="0.7428" stop-color="#223A64"/>
<stop offset="1" stop-color="#151548"/>
</linearGradient>
<linearGradient id="paint14_linear" x1="260.879" y1="60.2473" x2="260.879" y2="172.66" gradientUnits="userSpaceOnUse">
<stop stop-color="#4BC8EE"/>
<stop offset="0.1523" stop-color="#44A0C6"/>
<stop offset="0.7428" stop-color="#223A64"/>
<stop offset="1" stop-color="#151548"/>
</linearGradient>
<linearGradient id="paint15_linear" x1="156.398" y1="135.417" x2="437.839" y2="135.417" gradientUnits="userSpaceOnUse">
<stop stop-color="#151548"/>
<stop offset="0.2572" stop-color="#223A64"/>
<stop offset="0.8477" stop-color="#44A0C6"/>
<stop offset="1" stop-color="#4BC8EE"/>
</linearGradient>
<linearGradient id="paint16_linear" x1="323.603" y1="80.1014" x2="261.065" y2="197.007" gradientUnits="userSpaceOnUse">
<stop stop-color="#4BC8EE"/>
<stop offset="0.1072" stop-color="#4197BD"/>
<stop offset="0.2332" stop-color="#367096"/>
<stop offset="0.3615" stop-color="#2C537A"/>
<stop offset="0.4896" stop-color="#233D66"/>
<stop offset="0.6175" stop-color="#1D2C58"/>
<stop offset="0.7452" stop-color="#18204F"/>
<stop offset="0.8727" stop-color="#161849"/>
<stop offset="1" stop-color="#151548"/>
</linearGradient>
<linearGradient id="paint17_linear" x1="209.772" y1="22.3369" x2="279.993" y2="22.3369" gradientUnits="userSpaceOnUse">
<stop stop-color="#4BC8EE"/>
<stop offset="0.0907" stop-color="#49B8DE"/>
<stop offset="0.256" stop-color="#429BC2"/>
<stop offset="0.4775" stop-color="#377299"/>
<stop offset="0.7432" stop-color="#26446D"/>
<stop offset="1" stop-color="#151548"/>
</linearGradient>
<linearGradient id="paint18_linear" x1="297.696" y1="28.9528" x2="367.386" y2="28.9528" gradientUnits="userSpaceOnUse">
<stop stop-color="#4BC8EE"/>
<stop offset="0.0907" stop-color="#49B8DE"/>
<stop offset="0.256" stop-color="#429BC2"/>
<stop offset="0.4775" stop-color="#377299"/>
<stop offset="0.7432" stop-color="#26446D"/>
<stop offset="1" stop-color="#151548"/>
</linearGradient>
<linearGradient id="paint19_linear" x1="342.315" y1="100.113" x2="409.619" y2="100.113" gradientUnits="userSpaceOnUse">
<stop stop-color="#4BC8EE"/>
<stop offset="0.1158" stop-color="#45A4CA"/>
<stop offset="0.3731" stop-color="#316289"/>
<stop offset="0.7131" stop-color="#151548"/>
</linearGradient>
<linearGradient id="paint20_linear" x1="280.04" y1="68.2766" x2="339.485" y2="68.2766" gradientUnits="userSpaceOnUse">
<stop stop-color="#4BC8EE"/>
<stop offset="0.0907" stop-color="#49B8DE"/>
<stop offset="0.256" stop-color="#429BC2"/>
<stop offset="0.4775" stop-color="#377299"/>
<stop offset="0.7432" stop-color="#26446D"/>
<stop offset="1" stop-color="#151548"/>
</linearGradient>
<linearGradient id="paint21_linear" x1="247.868" y1="126.785" x2="239.879" y2="135.742" gradientUnits="userSpaceOnUse">
<stop stop-color="#4BC8EE"/>
<stop offset="0.1072" stop-color="#4197BD"/>
<stop offset="0.2332" stop-color="#367096"/>
<stop offset="0.3615" stop-color="#2C537A"/>
<stop offset="0.4896" stop-color="#233D66"/>
<stop offset="0.6175" stop-color="#1D2C58"/>
<stop offset="0.7452" stop-color="#18204F"/>
<stop offset="0.8727" stop-color="#161849"/>
<stop offset="1" stop-color="#151548"/>
</linearGradient>
<linearGradient id="paint22_linear" x1="243.485" y1="137.036" x2="173.484" y2="113.49" gradientUnits="userSpaceOnUse">
<stop stop-color="#4BC8EE"/>
<stop offset="0.1072" stop-color="#4197BD"/>
<stop offset="0.2332" stop-color="#367096"/>
<stop offset="0.3615" stop-color="#2C537A"/>
<stop offset="0.4896" stop-color="#233D66"/>
<stop offset="0.6175" stop-color="#1D2C58"/>
<stop offset="0.7452" stop-color="#18204F"/>
<stop offset="0.8727" stop-color="#161849"/>
<stop offset="1" stop-color="#151548"/>
</linearGradient>
<linearGradient id="paint23_linear" x1="194.834" y1="95.8409" x2="190.075" y2="104.702" gradientUnits="userSpaceOnUse">
<stop stop-color="#64C4F0"/>
<stop offset="0.0254" stop-color="#5EB4DD"/>
<stop offset="0.1294" stop-color="#4C87AF"/>
<stop offset="0.2381" stop-color="#3C648D"/>
<stop offset="0.3491" stop-color="#2F4B74"/>
<stop offset="0.4633" stop-color="#253862"/>
<stop offset="0.5816" stop-color="#1E2956"/>
<stop offset="0.7057" stop-color="#191E4E"/>
<stop offset="0.8394" stop-color="#161749"/>
<stop offset="1" stop-color="#151548"/>
</linearGradient>
<linearGradient id="paint24_linear" x1="154.519" y1="158.19" x2="225.587" y2="158.19" gradientUnits="userSpaceOnUse">
<stop stop-color="#151548"/>
<stop offset="0.3583" stop-color="#161649"/>
<stop offset="0.496" stop-color="#171B4C"/>
<stop offset="0.5957" stop-color="#1B2351"/>
<stop offset="0.6771" stop-color="#202E5A"/>
<stop offset="0.7473" stop-color="#273B65"/>
<stop offset="0.8098" stop-color="#304C75"/>
<stop offset="0.8666" stop-color="#3B628A"/>
<stop offset="0.919" stop-color="#487DA5"/>
<stop offset="0.9658" stop-color="#56A0C8"/>
<stop offset="1" stop-color="#64C4F0"/>
</linearGradient>
<linearGradient id="paint25_linear" x1="279.655" y1="146.817" x2="273.373" y2="157.044" gradientUnits="userSpaceOnUse">
<stop stop-color="#4BC8EE"/>
<stop offset="0.1072" stop-color="#4197BD"/>
<stop offset="0.2332" stop-color="#367096"/>
<stop offset="0.3615" stop-color="#2C537A"/>
<stop offset="0.4896" stop-color="#233D66"/>
<stop offset="0.6175" stop-color="#1D2C58"/>
<stop offset="0.7452" stop-color="#18204F"/>
<stop offset="0.8727" stop-color="#161849"/>
<stop offset="1" stop-color="#151548"/>
</linearGradient>
<linearGradient id="paint26_linear" x1="277.01" y1="156.614" x2="200.544" y2="145.291" gradientUnits="userSpaceOnUse">
<stop stop-color="#4BC8EE"/>
<stop offset="0.1072" stop-color="#4197BD"/>
<stop offset="0.2332" stop-color="#367096"/>
<stop offset="0.3615" stop-color="#2C537A"/>
<stop offset="0.4896" stop-color="#233D66"/>
<stop offset="0.6175" stop-color="#1D2C58"/>
<stop offset="0.7452" stop-color="#18204F"/>
<stop offset="0.8727" stop-color="#161849"/>
<stop offset="1" stop-color="#151548"/>
</linearGradient>
<linearGradient id="paint27_linear" x1="193.206" y1="337.483" x2="187.27" y2="352.773" gradientUnits="userSpaceOnUse">
<stop stop-color="#151548"/>
<stop offset="0.2465" stop-color="#161649"/>
<stop offset="0.3849" stop-color="#171C4C"/>
<stop offset="0.4964" stop-color="#1A2552"/>
<stop offset="0.5937" stop-color="#1F315C"/>
<stop offset="0.6817" stop-color="#244069"/>
<stop offset="0.763" stop-color="#2C537A"/>
<stop offset="0.8392" stop-color="#356B92"/>
<stop offset="0.9113" stop-color="#3E8BB1"/>
<stop offset="0.9777" stop-color="#48B3D9"/>
<stop offset="1" stop-color="#4BC8EE"/>
</linearGradient>
<radialGradient id="paint28_radial" cx="0" cy="0" r="1" gradientUnits="userSpaceOnUse" gradientTransform="translate(192.862 344.583) scale(6.62309)">
<stop stop-color="#4BC8EE"/>
<stop offset="0.1373" stop-color="#44A2C8"/>
<stop offset="0.5665" stop-color="#2B5179"/>
<stop offset="0.8628" stop-color="#1B2754"/>
<stop offset="1" stop-color="#151548"/>
</radialGradient>
<linearGradient id="paint29_linear" x1="188.395" y1="334.768" x2="192.023" y2="334.768" gradientUnits="userSpaceOnUse">
<stop stop-color="#4BC8EE"/>
<stop offset="0.2168" stop-color="#3D85AC"/>
<stop offset="0.4247" stop-color="#2F5A81"/>
<stop offset="0.6127" stop-color="#233D66"/>
<stop offset="0.7772" stop-color="#1B2855"/>
<stop offset="0.9119" stop-color="#171A4B"/>
<stop offset="1" stop-color="#151548"/>
</linearGradient>
<linearGradient id="paint30_linear" x1="271.707" y1="313.24" x2="265.771" y2="328.529" gradientUnits="userSpaceOnUse">
<stop stop-color="#151548"/>
<stop offset="0.2465" stop-color="#161649"/>
<stop offset="0.3849" stop-color="#171C4C"/>
<stop offset="0.4964" stop-color="#1A2552"/>
<stop offset="0.5937" stop-color="#1F315C"/>
<stop offset="0.6817" stop-color="#244069"/>
<stop offset="0.763" stop-color="#2C537A"/>
<stop offset="0.8392" stop-color="#356B92"/>
<stop offset="0.9113" stop-color="#3E8BB1"/>
<stop offset="0.9777" stop-color="#48B3D9"/>
<stop offset="1" stop-color="#4BC8EE"/>
</linearGradient>
<radialGradient id="paint31_radial" cx="0" cy="0" r="1" gradientUnits="userSpaceOnUse" gradientTransform="translate(271.364 320.34) scale(6.62309)">
<stop stop-color="#4BC8EE"/>
<stop offset="0.1373" stop-color="#44A2C8"/>
<stop offset="0.5665" stop-color="#2B5179"/>
<stop offset="0.8628" stop-color="#1B2754"/>
<stop offset="1" stop-color="#151548"/>
</radialGradient>
<linearGradient id="paint32_linear" x1="266.897" y1="310.525" x2="270.524" y2="310.525" gradientUnits="userSpaceOnUse">
<stop stop-color="#4BC8EE"/>
<stop offset="0.2168" stop-color="#3D85AC"/>
<stop offset="0.4247" stop-color="#2F5A81"/>
<stop offset="0.6127" stop-color="#233D66"/>
<stop offset="0.7772" stop-color="#1B2855"/>
<stop offset="0.9119" stop-color="#171A4B"/>
<stop offset="1" stop-color="#151548"/>
</linearGradient>
<linearGradient id="paint33_linear" x1="257.922" y1="262.648" x2="251.986" y2="277.937" gradientUnits="userSpaceOnUse">
<stop stop-color="#151548"/>
<stop offset="0.2465" stop-color="#161649"/>
<stop offset="0.3849" stop-color="#171C4C"/>
<stop offset="0.4964" stop-color="#1A2552"/>
<stop offset="0.5937" stop-color="#1F315C"/>
<stop offset="0.6817" stop-color="#244069"/>
<stop offset="0.763" stop-color="#2C537A"/>
<stop offset="0.8392" stop-color="#356B92"/>
<stop offset="0.9113" stop-color="#3E8BB1"/>
<stop offset="0.9777" stop-color="#48B3D9"/>
<stop offset="1" stop-color="#4BC8EE"/>
</linearGradient>
<radialGradient id="paint34_radial" cx="0" cy="0" r="1" gradientUnits="userSpaceOnUse" gradientTransform="translate(257.578 269.747) scale(6.62309)">
<stop stop-color="#4BC8EE"/>
<stop offset="0.1373" stop-color="#44A2C8"/>
<stop offset="0.5665" stop-color="#2B5179"/>
<stop offset="0.8628" stop-color="#1B2754"/>
<stop offset="1" stop-color="#151548"/>
</radialGradient>
<linearGradient id="paint35_linear" x1="253.112" y1="259.933" x2="256.739" y2="259.933" gradientUnits="userSpaceOnUse">
<stop stop-color="#4BC8EE"/>
<stop offset="0.2168" stop-color="#3D85AC"/>
<stop offset="0.4247" stop-color="#2F5A81"/>
<stop offset="0.6127" stop-color="#233D66"/>
<stop offset="0.7772" stop-color="#1B2855"/>
<stop offset="0.9119" stop-color="#171A4B"/>
<stop offset="1" stop-color="#151548"/>
</linearGradient>
<linearGradient id="paint36_linear" x1="172.101" y1="257.794" x2="166.165" y2="273.083" gradientUnits="userSpaceOnUse">
<stop stop-color="#151548"/>
<stop offset="0.2465" stop-color="#161649"/>
<stop offset="0.3849" stop-color="#171C4C"/>
<stop offset="0.4964" stop-color="#1A2552"/>
<stop offset="0.5937" stop-color="#1F315C"/>
<stop offset="0.6817" stop-color="#244069"/>
<stop offset="0.763" stop-color="#2C537A"/>
<stop offset="0.8392" stop-color="#356B92"/>
<stop offset="0.9113" stop-color="#3E8BB1"/>
<stop offset="0.9777" stop-color="#48B3D9"/>
<stop offset="1" stop-color="#4BC8EE"/>
</linearGradient>
<radialGradient id="paint37_radial" cx="0" cy="0" r="1" gradientUnits="userSpaceOnUse" gradientTransform="translate(171.757 264.894) scale(6.6231)">
<stop stop-color="#4BC8EE"/>
<stop offset="0.1373" stop-color="#44A2C8"/>
<stop offset="0.5665" stop-color="#2B5179"/>
<stop offset="0.8628" stop-color="#1B2754"/>
<stop offset="1" stop-color="#151548"/>
</radialGradient>
<linearGradient id="paint38_linear" x1="167.291" y1="255.079" x2="170.918" y2="255.079" gradientUnits="userSpaceOnUse">
<stop stop-color="#4BC8EE"/>
<stop offset="0.2168" stop-color="#3D85AC"/>
<stop offset="0.4247" stop-color="#2F5A81"/>
<stop offset="0.6127" stop-color="#233D66"/>
<stop offset="0.7772" stop-color="#1B2855"/>
<stop offset="0.9119" stop-color="#171A4B"/>
<stop offset="1" stop-color="#151548"/>
</linearGradient>
<linearGradient id="paint39_linear" x1="135.004" y1="298.081" x2="129.068" y2="313.37" gradientUnits="userSpaceOnUse">
<stop stop-color="#151548"/>
<stop offset="0.2465" stop-color="#161649"/>
<stop offset="0.3849" stop-color="#171C4C"/>
<stop offset="0.4964" stop-color="#1A2552"/>
<stop offset="0.5937" stop-color="#1F315C"/>
<stop offset="0.6817" stop-color="#244069"/>
<stop offset="0.763" stop-color="#2C537A"/>
<stop offset="0.8392" stop-color="#356B92"/>
<stop offset="0.9113" stop-color="#3E8BB1"/>
<stop offset="0.9777" stop-color="#48B3D9"/>
<stop offset="1" stop-color="#4BC8EE"/>
</linearGradient>
<radialGradient id="paint40_radial" cx="0" cy="0" r="1" gradientUnits="userSpaceOnUse" gradientTransform="translate(134.66 305.18) scale(6.6231)">
<stop stop-color="#4BC8EE"/>
<stop offset="0.1373" stop-color="#44A2C8"/>
<stop offset="0.5665" stop-color="#2B5179"/>
<stop offset="0.8628" stop-color="#1B2754"/>
<stop offset="1" stop-color="#151548"/>
</radialGradient>
<linearGradient id="paint41_linear" x1="130.194" y1="295.365" x2="133.821" y2="295.365" gradientUnits="userSpaceOnUse">
<stop stop-color="#4BC8EE"/>
<stop offset="0.2168" stop-color="#3D85AC"/>
<stop offset="0.4247" stop-color="#2F5A81"/>
<stop offset="0.6127" stop-color="#233D66"/>
<stop offset="0.7772" stop-color="#1B2855"/>
<stop offset="0.9119" stop-color="#171A4B"/>
<stop offset="1" stop-color="#151548"/>
</linearGradient>
<linearGradient id="paint42_linear" x1="172.691" y1="267.513" x2="193.327" y2="267.513" gradientUnits="userSpaceOnUse">
<stop stop-color="#4BC8EE"/>
<stop offset="0.1042" stop-color="#48B3D9"/>
<stop offset="0.3124" stop-color="#3E8CB3"/>
<stop offset="0.6052" stop-color="#2E5880"/>
<stop offset="0.9684" stop-color="#171B4C"/>
<stop offset="1" stop-color="#151548"/>
</linearGradient>
<linearGradient id="paint43_linear" x1="193.327" y1="308.777" x2="207.485" y2="308.777" gradientUnits="userSpaceOnUse">
<stop stop-color="#151548"/>
<stop offset="0.0315" stop-color="#181E4E"/>
<stop offset="0.1862" stop-color="#25436B"/>
<stop offset="0.3399" stop-color="#32638A"/>
<stop offset="0.4888" stop-color="#3C82A8"/>
<stop offset="0.6319" stop-color="#439DC3"/>
<stop offset="0.768" stop-color="#48B1D8"/>
<stop offset="0.8939" stop-color="#4BC0E7"/>
<stop offset="1" stop-color="#4BC8EE"/>
</linearGradient>
<linearGradient id="paint44_linear" x1="129.292" y1="289.411" x2="195.246" y2="289.411" gradientUnits="userSpaceOnUse">
<stop stop-color="#4BC8EE"/>
<stop offset="0.1061" stop-color="#4BC0E7"/>
<stop offset="0.232" stop-color="#48B1D8"/>
<stop offset="0.3681" stop-color="#439DC3"/>
<stop offset="0.5112" stop-color="#3C82A8"/>
<stop offset="0.6601" stop-color="#32638A"/>
<stop offset="0.8138" stop-color="#25436B"/>
<stop offset="0.9685" stop-color="#181E4E"/>
<stop offset="1" stop-color="#151548"/>
</linearGradient>
<linearGradient id="paint45_linear" x1="207.485" y1="297.445" x2="270.372" y2="297.445" gradientUnits="userSpaceOnUse">
<stop stop-color="#151548"/>
<stop offset="0.0315" stop-color="#181E4E"/>
<stop offset="0.1862" stop-color="#25436B"/>
<stop offset="0.3399" stop-color="#32638A"/>
<stop offset="0.4888" stop-color="#3C82A8"/>
<stop offset="0.6319" stop-color="#439DC3"/>
<stop offset="0.768" stop-color="#48B1D8"/>
<stop offset="0.8939" stop-color="#4BC0E7"/>
<stop offset="1" stop-color="#4BC8EE"/>
</linearGradient>
<linearGradient id="paint46_linear" x1="213.713" y1="267.199" x2="258.561" y2="267.199" gradientUnits="userSpaceOnUse">
<stop stop-color="#151548"/>
<stop offset="0.0315" stop-color="#181E4E"/>
<stop offset="0.1862" stop-color="#25436B"/>
<stop offset="0.3399" stop-color="#32638A"/>
<stop offset="0.4888" stop-color="#3C82A8"/>
<stop offset="0.6319" stop-color="#439DC3"/>
<stop offset="0.768" stop-color="#48B1D8"/>
<stop offset="0.8939" stop-color="#4BC0E7"/>
<stop offset="1" stop-color="#4BC8EE"/>
</linearGradient>
<linearGradient id="paint47_linear" x1="192.368" y1="269.222" x2="209.636" y2="269.222" gradientUnits="userSpaceOnUse">
<stop stop-color="#151548"/>
<stop offset="0.0315" stop-color="#181E4E"/>
<stop offset="0.1862" stop-color="#25436B"/>
<stop offset="0.3399" stop-color="#32638A"/>
<stop offset="0.4888" stop-color="#3C82A8"/>
<stop offset="0.6319" stop-color="#439DC3"/>
<stop offset="0.768" stop-color="#48B1D8"/>
<stop offset="0.8939" stop-color="#4BC0E7"/>
<stop offset="1" stop-color="#4BC8EE"/>
</linearGradient>
<linearGradient id="paint48_linear" x1="200.047" y1="218.616" x2="218.068" y2="215.883" gradientUnits="userSpaceOnUse">
<stop stop-color="#151548"/>
<stop offset="0.0881" stop-color="#171A4B"/>
<stop offset="0.2228" stop-color="#1B2855"/>
<stop offset="0.3873" stop-color="#233D66"/>
<stop offset="0.5753" stop-color="#2F5A81"/>
<stop offset="0.7832" stop-color="#3D85AC"/>
<stop offset="1" stop-color="#4BC8EE"/>
</linearGradient>
<linearGradient id="paint49_linear" x1="167.084" y1="159.474" x2="165.057" y2="258.338" gradientUnits="userSpaceOnUse">
<stop stop-color="#4BC8EE"/>
<stop offset="0.2168" stop-color="#3D85AC"/>
<stop offset="0.4247" stop-color="#2F5A81"/>
<stop offset="0.6127" stop-color="#233D66"/>
<stop offset="0.7772" stop-color="#1B2855"/>
<stop offset="0.9119" stop-color="#171A4B"/>
<stop offset="1" stop-color="#151548"/>
</linearGradient>
<linearGradient id="paint50_linear" x1="165.546" y1="148.225" x2="157.041" y2="163.015" gradientUnits="userSpaceOnUse">
<stop stop-color="#4BC8EE"/>
<stop offset="0.2168" stop-color="#3D85AC"/>
<stop offset="0.4247" stop-color="#2F5A81"/>
<stop offset="0.6127" stop-color="#233D66"/>
<stop offset="0.7772" stop-color="#1B2855"/>
<stop offset="0.9119" stop-color="#171A4B"/>
<stop offset="1" stop-color="#151548"/>
</linearGradient>
<linearGradient id="paint51_linear" x1="243.207" y1="235.211" x2="249.539" y2="247.329" gradientUnits="userSpaceOnUse">
<stop stop-color="#4BC8EE"/>
<stop offset="0.2168" stop-color="#3D85AC"/>
<stop offset="0.4247" stop-color="#2F5A81"/>
<stop offset="0.6127" stop-color="#233D66"/>
<stop offset="0.7772" stop-color="#1B2855"/>
<stop offset="0.9119" stop-color="#171A4B"/>
<stop offset="1" stop-color="#151548"/>
</linearGradient>
<linearGradient id="paint52_linear" x1="214.874" y1="234.939" x2="275.751" y2="234.939" gradientUnits="userSpaceOnUse">
<stop stop-color="#151548"/>
<stop offset="0.0315" stop-color="#181E4E"/>
<stop offset="0.1862" stop-color="#25436B"/>
<stop offset="0.3399" stop-color="#32638A"/>
<stop offset="0.4888" stop-color="#3C82A8"/>
<stop offset="0.6319" stop-color="#439DC3"/>
<stop offset="0.768" stop-color="#48B1D8"/>
<stop offset="0.8939" stop-color="#4BC0E7"/>
<stop offset="1" stop-color="#4BC8EE"/>
</linearGradient>
<linearGradient id="paint53_linear" x1="241.056" y1="230.249" x2="250.407" y2="230.249" gradientUnits="userSpaceOnUse">
<stop stop-color="#151548"/>
<stop offset="0.0881" stop-color="#171A4B"/>
<stop offset="0.2228" stop-color="#1B2855"/>
<stop offset="0.3873" stop-color="#233D66"/>
<stop offset="0.5753" stop-color="#2F5A81"/>
<stop offset="0.7832" stop-color="#3D85AC"/>
<stop offset="1" stop-color="#4BC8EE"/>
</linearGradient>
<linearGradient id="paint54_linear" x1="212.855" y1="212.216" x2="275.751" y2="212.216" gradientUnits="userSpaceOnUse">
<stop stop-color="#4BC8EE"/>
<stop offset="0.2168" stop-color="#3D85AC"/>
<stop offset="0.4247" stop-color="#2F5A81"/>
<stop offset="0.6127" stop-color="#233D66"/>
<stop offset="0.7772" stop-color="#1B2855"/>
<stop offset="0.9119" stop-color="#171A4B"/>
<stop offset="1" stop-color="#151548"/>
</linearGradient>
<linearGradient id="paint55_linear" x1="213.713" y1="214.48" x2="276.385" y2="214.48" gradientUnits="userSpaceOnUse">
<stop stop-color="#151548"/>
<stop offset="0.0881" stop-color="#171A4B"/>
<stop offset="0.2228" stop-color="#1B2855"/>
<stop offset="0.3873" stop-color="#233D66"/>
<stop offset="0.5753" stop-color="#2F5A81"/>
<stop offset="0.7832" stop-color="#3D85AC"/>
<stop offset="1" stop-color="#4BC8EE"/>
</linearGradient>
<linearGradient id="paint56_linear" x1="239.455" y1="219.426" x2="239.455" y2="247.496" gradientUnits="userSpaceOnUse">
<stop stop-color="#151548"/>
<stop offset="0.2643" stop-color="#161649"/>
<stop offset="0.4047" stop-color="#181C4C"/>
<stop offset="0.5159" stop-color="#1C2553"/>
<stop offset="0.6118" stop-color="#22315C"/>
<stop offset="0.698" stop-color="#294069"/>
<stop offset="0.777" stop-color="#33537B"/>
<stop offset="0.8508" stop-color="#406B93"/>
<stop offset="0.9203" stop-color="#4E8CB4"/>
<stop offset="0.9841" stop-color="#5FB5DE"/>
<stop offset="1" stop-color="#64C4F0"/>
</linearGradient>
<linearGradient id="paint57_linear" x1="339.604" y1="224.476" x2="339.604" y2="307.813" gradientUnits="userSpaceOnUse">
<stop stop-color="#4BC8EE"/>
<stop offset="0.1523" stop-color="#44A0C6"/>
<stop offset="0.7428" stop-color="#223A64"/>
<stop offset="1" stop-color="#151548"/>
</linearGradient>
<linearGradient id="paint58_linear" x1="332.084" y1="216.882" x2="332.084" y2="324.373" gradientUnits="userSpaceOnUse">
<stop stop-color="#4BC8EE"/>
<stop offset="0.1523" stop-color="#44A0C6"/>
<stop offset="0.7428" stop-color="#223A64"/>
<stop offset="1" stop-color="#151548"/>
</linearGradient>
</defs>
</svg>
