<?xml version="1.0" encoding="utf-8"?>
<!-- Generator: Adobe Illustrator 25.0.1, SVG Export Plug-In . SVG Version: 6.00 Build 0)  -->
<svg version="1.1" id="Layer_1" xmlns="http://www.w3.org/2000/svg" xmlns:xlink="http://www.w3.org/1999/xlink" x="0px" y="0px"
	 viewBox="0 0 595.28 841.89" style="enable-background:new 0 0 595.28 841.89;" xml:space="preserve">
<style type="text/css">
	.st0{fill:url(#SVGID_1_);}
	.st1{fill:url(#SVGID_2_);}
	.st2{fill:url(#SVGID_3_);}
	.st3{fill:url(#SVGID_4_);}
	.st4{fill:url(#SVGID_5_);}
	.st5{fill:url(#SVGID_6_);}
	.st6{fill:url(#SVGID_7_);}
	.st7{fill:url(#SVGID_8_);}
	.st8{fill:url(#SVGID_9_);}
	.st9{fill:url(#SVGID_10_);}
	.st10{fill:url(#SVGID_11_);}
	.st11{fill:url(#SVGID_12_);}
	.st12{fill:url(#SVGID_13_);}
	.st13{fill:url(#SVGID_14_);}
	.st14{fill:url(#SVGID_15_);}
	.st15{fill:url(#SVGID_16_);}
	.st16{fill:url(#SVGID_17_);}
	.st17{fill:#AEC3E5;}
	.st18{fill:#7595BA;}
	.st19{fill:#26397D;}
	.st20{fill:#2F4DA1;}
	.st21{fill:#1E2C5D;}
	.st22{opacity:0.8;}
	.st23{opacity:0.7;fill:#4BC8EE;}
	.st24{fill:url(#SVGID_18_);}
	.st25{fill:#FFFFFF;}
	.st26{fill:#81D2E7;}
	.st27{fill:url(#SVGID_19_);}
	.st28{fill:#CB85B9;}
	.st29{fill:#E77E7E;}
	.st30{fill:#E8E27D;}
	.st31{fill:#257896;}
	.st32{fill:url(#SVGID_20_);}
	.st33{fill:url(#SVGID_21_);}
	.st34{fill:#2E6B80;}
	.st35{fill:#FCC188;}
	.st36{fill:#64C4F0;}
	.st37{fill:url(#SVGID_22_);}
	.st38{fill:url(#SVGID_23_);}
	.st39{fill:#E9B185;}
	.st40{fill:#5A3C20;}
	.st41{fill:url(#SVGID_24_);}
	.st42{fill:url(#SVGID_25_);}
	.st43{fill:url(#SVGID_26_);}
	.st44{fill:url(#SVGID_27_);}
	.st45{fill:url(#SVGID_28_);}
	.st46{fill:url(#SVGID_29_);}
	.st47{fill:#27C3ED;}
	.st48{fill:url(#SVGID_30_);}
	.st49{fill:url(#SVGID_31_);}
	.st50{fill:url(#SVGID_32_);}
	.st51{fill:url(#SVGID_33_);}
	.st52{fill:url(#SVGID_34_);}
	.st53{fill:url(#SVGID_35_);}
	.st54{fill:url(#SVGID_36_);}
	.st55{fill:url(#SVGID_37_);}
	.st56{fill:url(#SVGID_38_);}
	.st57{fill:url(#SVGID_39_);}
	.st58{fill:url(#SVGID_40_);}
	.st59{fill:url(#SVGID_41_);}
	.st60{fill:url(#SVGID_42_);}
	.st61{fill:url(#SVGID_43_);}
	.st62{fill:#0985B8;}
	.st63{fill:url(#SVGID_44_);}
	.st64{fill:url(#SVGID_45_);}
	.st65{fill:url(#SVGID_46_);}
	.st66{fill:url(#SVGID_47_);}
	.st67{fill:#4BC8EE;}
	.st68{fill:url(#SVGID_48_);}
	.st69{fill:url(#SVGID_49_);}
	.st70{fill:url(#SVGID_50_);}
	.st71{fill:#F59193;}
	.st72{fill:url(#SVGID_51_);}
	.st73{fill:url(#SVGID_52_);}
	.st74{fill:url(#SVGID_53_);}
	.st75{fill:url(#SVGID_54_);}
	.st76{fill:url(#SVGID_55_);}
	.st77{fill:url(#SVGID_56_);}
	.st78{fill:url(#SVGID_57_);}
	.st79{fill:url(#SVGID_58_);}
	.st80{fill:url(#SVGID_59_);}
</style>
<g>
	<g>
		<linearGradient id="SVGID_1_" gradientUnits="userSpaceOnUse" x1="36.5732" y1="552.5837" x2="559.4165" y2="552.5837">
			<stop  offset="0" style="stop-color:#222F65"/>
			<stop  offset="0.1328" style="stop-color:#21487E"/>
			<stop  offset="0.2966" style="stop-color:#1B639D"/>
			<stop  offset="0.4236" style="stop-color:#1075B4"/>
			<stop  offset="0.4973" style="stop-color:#057DBF"/>
			<stop  offset="0.5108" style="stop-color:#0A80C1"/>
			<stop  offset="0.6679" style="stop-color:#2B9CD3"/>
			<stop  offset="0.8074" style="stop-color:#3EB2E1"/>
			<stop  offset="0.9228" style="stop-color:#49C0EA"/>
			<stop  offset="1" style="stop-color:#4BC8EE"/>
		</linearGradient>
		<path class="st0" d="M559.4,459.74v34.61c0.02,0.33,0.02,0.67,0,1.01v1.49h-0.19c-0.74,3.7-3.55,7.27-8.42,10.11L319.85,641.16
			c-11.57,6.72-30.4,6.72-42.05,0L45.36,506.96c-4.92-2.84-7.76-6.42-8.55-10.11h-0.24v-37.89c0.03,4.4,2.96,8.82,8.78,12.18
			l232.44,134.2c11.65,6.73,30.48,6.73,42.05,0l230.94-134.21C556.23,467.97,559.1,463.89,559.4,459.74z"/>
		<linearGradient id="SVGID_2_" gradientUnits="userSpaceOnUse" x1="36.5759" y1="461.665" x2="559.4247" y2="461.665">
			<stop  offset="0" style="stop-color:#095DA9"/>
			<stop  offset="0.1219" style="stop-color:#1C69B0"/>
			<stop  offset="0.546" style="stop-color:#4398CB"/>
			<stop  offset="0.847" style="stop-color:#5BBBDE"/>
			<stop  offset="0.9946" style="stop-color:#63CBE6"/>
		</linearGradient>
		<path class="st1" d="M550.65,449.49L318.2,315.28c-11.65-6.73-30.47-6.73-42.04,0L45.22,449.49
			c-11.58,6.73-11.51,17.63,0.14,24.36l232.45,134.2c11.65,6.73,30.47,6.73,42.05,0l230.94-134.21
			C562.36,467.12,562.3,456.21,550.65,449.49"/>
		<linearGradient id="SVGID_3_" gradientUnits="userSpaceOnUse" x1="36.5759" y1="458.9626" x2="559.4247" y2="458.9626">
			<stop  offset="5.405000e-03" style="stop-color:#63CBE6"/>
			<stop  offset="0.153" style="stop-color:#5BBBDE"/>
			<stop  offset="0.454" style="stop-color:#4398CB"/>
			<stop  offset="0.8781" style="stop-color:#1C69B0"/>
			<stop  offset="1" style="stop-color:#095DA9"/>
		</linearGradient>
		<path class="st2" d="M550.65,446.78L318.2,312.58c-11.65-6.73-30.47-6.73-42.04,0L45.22,446.79
			c-11.58,6.73-11.51,17.63,0.14,24.36l232.45,134.2c11.65,6.73,30.47,6.73,42.05,0l230.94-134.21
			C562.36,464.41,562.3,453.51,550.65,446.78"/>
	</g>
	<g>
		<g>
			<g>
				<g>
					
						<linearGradient id="SVGID_4_" gradientUnits="userSpaceOnUse" x1="1739.558" y1="437.1366" x2="1781.6299" y2="437.1366" gradientTransform="matrix(1 0 0 1 -1450.7406 0)">
						<stop  offset="0" style="stop-color:#64C4F0"/>
						<stop  offset="0.0159" style="stop-color:#5FB5DE"/>
						<stop  offset="0.0797" style="stop-color:#4E8CB4"/>
						<stop  offset="0.1492" style="stop-color:#406B93"/>
						<stop  offset="0.223" style="stop-color:#33537B"/>
						<stop  offset="0.302" style="stop-color:#294069"/>
						<stop  offset="0.3882" style="stop-color:#22315C"/>
						<stop  offset="0.4841" style="stop-color:#1C2553"/>
						<stop  offset="0.5953" style="stop-color:#181C4C"/>
						<stop  offset="0.7357" style="stop-color:#161649"/>
						<stop  offset="1" style="stop-color:#151548"/>
					</linearGradient>
					<path class="st3" d="M330.62,421.79c0,0,1.43,6.34-2.29,10.91c-3.78,4.64-7.95,7.17-13.02,8.15c-4.47,0.86-6.99,2.59-8.71,5.36
						c-1.65,2.66-5.34,7.97-14.3,5.73c-4.46-2.03-4.55-6.18-0.79-13.31C295.27,431.5,330.62,421.79,330.62,421.79z"/>
					
						<linearGradient id="SVGID_5_" gradientUnits="userSpaceOnUse" x1="1767.583" y1="415.1801" x2="1755.1112" y2="449.3135" gradientTransform="matrix(1 0 0 1 -1450.7406 0)">
						<stop  offset="0" style="stop-color:#64C4F0"/>
						<stop  offset="0.0217" style="stop-color:#5FB7E0"/>
						<stop  offset="0.1273" style="stop-color:#4D88B0"/>
						<stop  offset="0.2373" style="stop-color:#3D658D"/>
						<stop  offset="0.3497" style="stop-color:#304C75"/>
						<stop  offset="0.465" style="stop-color:#263963"/>
						<stop  offset="0.584" style="stop-color:#1E2A56"/>
						<stop  offset="0.7086" style="stop-color:#191E4E"/>
						<stop  offset="0.842" style="stop-color:#161749"/>
						<stop  offset="1" style="stop-color:#151548"/>
					</linearGradient>
					<path class="st4" d="M311.99,423.01c0,0,8.59-2.12,11.28-3.37c1.9-0.89,5.87-1.49,7.06,1.14c0.5,1.1,0.51,2.75-0.3,5.18
						c-2.76,8.27-11.4,12.49-16.57,13.43c-5.17,0.94-7.57,4.38-9.49,6.74c-2.91,3.58-8.97,5.29-13.35,1.54
						c-3.33-3.96,1.58-10.06,2.73-11.77C294.51,434.18,299.4,424.19,311.99,423.01z"/>
				</g>
				
					<linearGradient id="SVGID_6_" gradientUnits="userSpaceOnUse" x1="1755.6196" y1="384.618" x2="1667.9888" y2="439.7565" gradientTransform="matrix(1 0 0 1 -1450.7406 0)">
					<stop  offset="0" style="stop-color:#151548"/>
					<stop  offset="0.2643" style="stop-color:#161649"/>
					<stop  offset="0.4047" style="stop-color:#181C4C"/>
					<stop  offset="0.5159" style="stop-color:#1C2553"/>
					<stop  offset="0.6118" style="stop-color:#22315C"/>
					<stop  offset="0.698" style="stop-color:#294069"/>
					<stop  offset="0.777" style="stop-color:#33537B"/>
					<stop  offset="0.8508" style="stop-color:#406B93"/>
					<stop  offset="0.9203" style="stop-color:#4E8CB4"/>
					<stop  offset="0.9841" style="stop-color:#5FB5DE"/>
					<stop  offset="1" style="stop-color:#64C4F0"/>
				</linearGradient>
				<path class="st5" d="M208.47,429.08l66.7-43.5l16.87,53.74c0,0,15.82-3.08,22.67-12.2l-18.45-58.76c0,0-11.79-22.37-38.98-4.16
					c-27.19,18.21-59.35,40.62-59.35,40.62L208.47,429.08z"/>
			</g>
			<g>
				<g>
					
						<linearGradient id="SVGID_7_" gradientUnits="userSpaceOnUse" x1="1774.0631" y1="455.7858" x2="1825.224" y2="455.7858" gradientTransform="matrix(1 0 0 1 -1450.7406 0)">
						<stop  offset="0" style="stop-color:#64C4F0"/>
						<stop  offset="0.0159" style="stop-color:#5FB5DE"/>
						<stop  offset="0.0797" style="stop-color:#4E8CB4"/>
						<stop  offset="0.1492" style="stop-color:#406B93"/>
						<stop  offset="0.223" style="stop-color:#33537B"/>
						<stop  offset="0.302" style="stop-color:#294069"/>
						<stop  offset="0.3882" style="stop-color:#22315C"/>
						<stop  offset="0.4841" style="stop-color:#1C2553"/>
						<stop  offset="0.5953" style="stop-color:#181C4C"/>
						<stop  offset="0.7357" style="stop-color:#161649"/>
						<stop  offset="1" style="stop-color:#151548"/>
					</linearGradient>
					<path class="st6" d="M373.19,439.32c0,0,1.87,2.98,1.11,5.44c-0.76,2.46-4.66,7.38-10.29,9.57s-16.21,7.99-17.83,10.03
						l-0.15,2.7c0,0-8.6,6.2-15.92,5.05c-7.32-1.15-6.67-9.89-6.79-12.77L373.19,439.32z"/>
					
						<linearGradient id="SVGID_8_" gradientUnits="userSpaceOnUse" x1="1806.89" y1="431.1557" x2="1786.5413" y2="469.2276" gradientTransform="matrix(1 0 0 1 -1450.7406 0)">
						<stop  offset="0" style="stop-color:#64C4F0"/>
						<stop  offset="0.0217" style="stop-color:#5FB7E0"/>
						<stop  offset="0.1273" style="stop-color:#4D88B0"/>
						<stop  offset="0.2373" style="stop-color:#3D658D"/>
						<stop  offset="0.3497" style="stop-color:#304C75"/>
						<stop  offset="0.465" style="stop-color:#263963"/>
						<stop  offset="0.584" style="stop-color:#1E2A56"/>
						<stop  offset="0.7086" style="stop-color:#191E4E"/>
						<stop  offset="0.842" style="stop-color:#161749"/>
						<stop  offset="1" style="stop-color:#151548"/>
					</linearGradient>
					<path class="st7" d="M324.38,447.76c0,0-3.13,12.41,0.79,16.38c3.91,3.97,16.3,1.71,19.46-0.99c3.15-2.7,15.69-9.9,20.44-12.01
						c4.75-2.12,10.29-9.57,7.14-13.62c-3.16-4.05-9.05,0.75-12.46,1.19c-3.4,0.44-9.22,1.49-14-0.4
						C340.97,436.41,324.38,447.76,324.38,447.76z"/>
				</g>
				
					<linearGradient id="SVGID_9_" gradientUnits="userSpaceOnUse" x1="1780.1433" y1="367.9397" x2="1694.4817" y2="430.9552" gradientTransform="matrix(1 0 0 1 -1450.7406 0)">
					<stop  offset="0" style="stop-color:#151548"/>
					<stop  offset="0.2643" style="stop-color:#161649"/>
					<stop  offset="0.4047" style="stop-color:#181C4C"/>
					<stop  offset="0.5159" style="stop-color:#1C2553"/>
					<stop  offset="0.6118" style="stop-color:#22315C"/>
					<stop  offset="0.698" style="stop-color:#294069"/>
					<stop  offset="0.777" style="stop-color:#33537B"/>
					<stop  offset="0.8508" style="stop-color:#406B93"/>
					<stop  offset="0.9203" style="stop-color:#4E8CB4"/>
					<stop  offset="0.9841" style="stop-color:#5FB5DE"/>
					<stop  offset="1" style="stop-color:#64C4F0"/>
				</linearGradient>
				<path class="st8" d="M186.52,385.31c0,0-12.58,37.96,14.31,44.55c10.54,12.39,36.91,18.98,52.46,7.91
					c15.55-11.07,55.1-37.17,55.1-37.17s11.07,28.47,15.29,49.03c0,0,19.24,1.58,24.78-10.02c0,0-17.14-49.3-16.87-52.99
					c0.26-3.69-12.5-27.94-33.67-13.97c-21.16,13.97-55.17,34.53-55.17,34.53L186.52,385.31z"/>
			</g>
		</g>
		<g>
			<g>
				
					<linearGradient id="SVGID_10_" gradientUnits="userSpaceOnUse" x1="-2787.8132" y1="358.37" x2="-2787.8132" y2="444.4799" gradientTransform="matrix(-1 0 0 1 -2321.6738 0)">
					<stop  offset="0" style="stop-color:#4BC8EE"/>
					<stop  offset="0.1523" style="stop-color:#44A0C6"/>
					<stop  offset="0.7428" style="stop-color:#223A64"/>
					<stop  offset="1" style="stop-color:#151548"/>
				</linearGradient>
				<polygon class="st9" points="462.44,348.97 462.44,463.82 469.84,459.43 469.84,348.97 				"/>
				
					<linearGradient id="SVGID_11_" gradientUnits="userSpaceOnUse" x1="-2780.2932" y1="349.151" x2="-2780.2932" y2="461.5638" gradientTransform="matrix(-1 0 0 1 -2321.6738 0)">
					<stop  offset="0" style="stop-color:#4BC8EE"/>
					<stop  offset="0.1523" style="stop-color:#44A0C6"/>
					<stop  offset="0.7428" style="stop-color:#223A64"/>
					<stop  offset="1" style="stop-color:#151548"/>
				</linearGradient>
				<polygon class="st10" points="462.44,463.82 454.8,459.24 454.8,348.97 462.44,348.97 				"/>
			</g>
			<g>
				
					<linearGradient id="SVGID_12_" gradientUnits="userSpaceOnUse" x1="-2527.5374" y1="318.1755" x2="-2527.5374" y2="404.2853" gradientTransform="matrix(-1 0 0 1 -2321.6738 0)">
					<stop  offset="0" style="stop-color:#4BC8EE"/>
					<stop  offset="0.1523" style="stop-color:#44A0C6"/>
					<stop  offset="0.7428" style="stop-color:#223A64"/>
					<stop  offset="1" style="stop-color:#151548"/>
				</linearGradient>
				<polygon class="st11" points="202.16,308.77 202.16,423.62 209.56,419.23 209.56,308.77 				"/>
				
					<linearGradient id="SVGID_13_" gradientUnits="userSpaceOnUse" x1="-2520.0171" y1="308.9565" x2="-2520.0171" y2="421.3692" gradientTransform="matrix(-1 0 0 1 -2321.6738 0)">
					<stop  offset="0" style="stop-color:#4BC8EE"/>
					<stop  offset="0.1523" style="stop-color:#44A0C6"/>
					<stop  offset="0.7428" style="stop-color:#223A64"/>
					<stop  offset="1" style="stop-color:#151548"/>
				</linearGradient>
				<polygon class="st12" points="202.16,423.62 194.52,419.04 194.52,308.77 202.16,308.77 				"/>
			</g>
			<g>
				
					<linearGradient id="SVGID_14_" gradientUnits="userSpaceOnUse" x1="-2622.0735" y1="262.4663" x2="-2622.0735" y2="348.5762" gradientTransform="matrix(-1 0 0 1 -2321.6738 0)">
					<stop  offset="0" style="stop-color:#4BC8EE"/>
					<stop  offset="0.1523" style="stop-color:#44A0C6"/>
					<stop  offset="0.7428" style="stop-color:#223A64"/>
					<stop  offset="1" style="stop-color:#151548"/>
				</linearGradient>
				<polygon class="st13" points="296.7,253.06 296.7,367.92 304.1,363.52 304.1,253.06 				"/>
				
					<linearGradient id="SVGID_15_" gradientUnits="userSpaceOnUse" x1="-2614.5532" y1="253.2473" x2="-2614.5532" y2="365.6601" gradientTransform="matrix(-1 0 0 1 -2321.6738 0)">
					<stop  offset="0" style="stop-color:#4BC8EE"/>
					<stop  offset="0.1523" style="stop-color:#44A0C6"/>
					<stop  offset="0.7428" style="stop-color:#223A64"/>
					<stop  offset="1" style="stop-color:#151548"/>
				</linearGradient>
				<polygon class="st14" points="296.7,367.92 289.06,363.34 289.06,253.06 296.7,253.06 				"/>
			</g>
			<g>
				<linearGradient id="SVGID_16_" gradientUnits="userSpaceOnUse" x1="188.3976" y1="328.4169" x2="469.8386" y2="328.4169">
					<stop  offset="0" style="stop-color:#151548"/>
					<stop  offset="0.2572" style="stop-color:#223A64"/>
					<stop  offset="0.8477" style="stop-color:#44A0C6"/>
					<stop  offset="1" style="stop-color:#4BC8EE"/>
				</linearGradient>
				<path class="st15" d="M191.98,300.95l94.12-53.4c3.86-2.19,8.59-2.18,12.44,0.03l167.8,96.39c0.94,0.54,1.68,1.24,2.24,2.04
					l1.25-1.95v5.93c0.01,2.35-1.16,4.71-3.49,6.05l-91.65,52.68c-5.09,2.93-11.35,2.93-16.44,0l-166.3-95.48
					C187.2,310.52,187.22,303.65,191.98,300.95z"/>
				<linearGradient id="SVGID_17_" gradientUnits="userSpaceOnUse" x1="355.6031" y1="273.1014" x2="293.0652" y2="390.0073">
					<stop  offset="0" style="stop-color:#4BC8EE"/>
					<stop  offset="0.1072" style="stop-color:#4197BD"/>
					<stop  offset="0.2332" style="stop-color:#367096"/>
					<stop  offset="0.3615" style="stop-color:#2C537A"/>
					<stop  offset="0.4896" style="stop-color:#233D66"/>
					<stop  offset="0.6175" style="stop-color:#1D2C58"/>
					<stop  offset="0.7452" style="stop-color:#18204F"/>
					<stop  offset="0.8727" style="stop-color:#161849"/>
					<stop  offset="1" style="stop-color:#151548"/>
				</linearGradient>
				<path class="st16" d="M358.26,402.8l-166.3-95.48c-4.76-2.73-4.74-9.6,0.03-12.3l94.12-53.4c3.86-2.19,8.59-2.18,12.44,0.03
					l167.8,96.39c4.66,2.68,4.66,9.39,0,12.07l-91.65,52.68C369.61,405.72,363.35,405.72,358.26,402.8z"/>
			</g>
		</g>
		<g>
			<g>
				<path class="st17" d="M377.8,270.45l-66.64-38.48c-0.45-0.26-0.9-0.24-1.24-0.01l0,0l-1.05,0.6c0.29-0.1,0.63-0.06,0.98,0.14
					l66.64,38.48c0.43,0.25,0.79,0.71,1,1.23l1.3-0.74C378.58,271.15,378.23,270.7,377.8,270.45z"/>
				<path class="st18" d="M377.49,272.41c0.19,0.47,0.28,1,0.2,1.48l-8.61,54.68c-0.08,0.48-0.29,0.83-0.58,1.02l1.14-0.64
					c0.08-0.03,0.15-0.07,0.22-0.12l0,0v0c0.26-0.2,0.46-0.53,0.53-0.98l8.61-54.68c0.08-0.49-0.01-1.02-0.21-1.5L377.49,272.41z"/>
			</g>
			<g>
				<path class="st19" d="M376.49,271.18l-66.64-38.48c-0.83-0.48-1.63-0.03-1.79,0.99l-8.61,54.68c-0.16,1.02,0.38,2.24,1.2,2.72
					l66.64,38.48c0.83,0.48,1.63,0.03,1.79-0.99l8.61-54.68C377.85,272.87,377.32,271.66,376.49,271.18L376.49,271.18z"/>
			</g>
			<g>
				<path class="st20" d="M376.29,274.85l-0.31,1.97l-7.74,49.13c-0.13,0.79-0.63,1.23-1.23,1.18c-0.18-0.02-0.36-0.08-0.55-0.19
					l-64.41-37.18c-0.83-0.48-1.36-1.69-1.2-2.71l8.05-51.11c0.16-1.03,0.96-1.47,1.79-0.99l64.4,37.18
					C375.92,272.61,376.45,273.82,376.29,274.85z"/>
			</g>
			<path class="st21" d="M366.26,331.25l-65.28-37.69c-1-0.58-2.61-0.58-3.61,0l-44.3,25.75c-0.99,0.58-0.99,1.51,0.01,2.09
				l65.28,37.69c1,0.58,2.61,0.58,3.6,0l44.3-25.75C367.26,332.76,367.25,331.82,366.26,331.25"/>
			<polygon class="st21" points="252.33,320.22 252.33,317.45 296.4,292.29 367.01,329.57 367.01,332.55 			"/>
			<path class="st17" d="M366.26,328.48l-65.28-37.69c-1-0.58-2.61-0.58-3.61,0l-44.3,25.75c-0.99,0.58-0.99,1.51,0.01,2.09
				l65.28,37.69c1,0.58,2.61,0.58,3.6,0l44.3-25.75C367.26,329.99,367.25,329.05,366.26,328.48"/>
			<g>
				<polyline class="st19" points="300.8,300.96 296.66,298.56 293.13,300.61 297.27,303.01 300.8,300.96 				"/>
				<polyline class="st19" points="305.94,303.92 301.84,301.55 298.31,303.6 302.41,305.97 305.94,303.92 				"/>
				<polyline class="st19" points="311.07,306.88 306.97,304.52 303.44,306.57 307.54,308.93 311.07,306.88 				"/>
				<polyline class="st19" points="316.2,309.84 312.1,307.48 308.57,309.53 312.67,311.89 316.2,309.84 				"/>
				<polyline class="st19" points="321.33,312.81 317.23,310.44 313.7,312.49 317.8,314.86 321.33,312.81 				"/>
				<polyline class="st19" points="326.46,315.77 322.36,313.4 318.83,315.45 322.93,317.82 326.46,315.77 				"/>
				<polyline class="st19" points="331.59,318.73 327.49,316.36 323.96,318.42 328.06,320.78 331.59,318.73 				"/>
				<polyline class="st19" points="336.72,321.69 332.62,319.33 329.09,321.38 333.19,323.74 336.72,321.69 				"/>
				<polyline class="st19" points="341.85,324.66 337.76,322.29 334.23,324.34 338.32,326.71 341.85,324.66 				"/>
				<polyline class="st19" points="346.98,327.62 342.89,325.25 339.36,327.3 343.46,329.67 346.98,327.62 				"/>
				<polyline class="st19" points="351.96,330.49 348.02,328.22 344.49,330.27 348.43,332.54 351.96,330.49 				"/>
				<polyline class="st19" points="298.89,305.06 292.16,301.18 288.64,303.22 295.37,307.11 298.89,305.06 				"/>
				<polyline class="st19" points="304.02,308.02 299.92,305.66 296.4,307.7 300.5,310.07 304.02,308.02 				"/>
				<polyline class="st19" points="309.15,310.99 305.05,308.62 301.54,310.66 305.63,313.03 309.15,310.99 				"/>
				<polyline class="st19" points="314.28,313.95 310.18,311.58 306.67,313.63 310.76,315.99 314.28,313.95 				"/>
				<polyline class="st19" points="319.41,316.91 315.32,314.54 311.8,316.59 315.9,318.95 319.41,316.91 				"/>
				<polyline class="st19" points="324.54,319.87 320.45,317.51 316.93,319.55 321.03,321.92 324.54,319.87 				"/>
				<polyline class="st19" points="329.68,322.84 325.58,320.47 322.06,322.51 326.16,324.88 329.68,322.84 				"/>
				<polyline class="st19" points="334.81,325.8 330.71,323.43 327.19,325.48 331.29,327.84 334.81,325.8 				"/>
				<polyline class="st19" points="339.94,328.76 335.84,326.39 332.32,328.44 336.42,330.8 339.94,328.76 				"/>
				<polyline class="st19" points="347.46,333.1 340.97,329.36 337.45,331.4 343.94,335.15 347.46,333.1 				"/>
				<polyline class="st19" points="293.47,307.13 287.67,303.78 284.16,305.83 289.96,309.17 293.47,307.13 				"/>
				<polyline class="st19" points="298.61,310.09 294.51,307.73 290.99,309.77 295.09,312.14 298.61,310.09 				"/>
				<polyline class="st19" points="303.74,313.06 299.64,310.69 296.12,312.73 300.22,315.1 303.74,313.06 				"/>
				<polyline class="st19" points="308.87,316.02 304.77,313.65 301.25,315.7 305.35,318.06 308.87,316.02 				"/>
				<polyline class="st19" points="314,318.98 309.9,316.61 306.38,318.66 310.48,321.02 314,318.98 				"/>
				<polyline class="st19" points="319.13,321.94 315.03,319.58 311.51,321.62 315.61,323.99 319.13,321.94 				"/>
				<polyline class="st19" points="324.26,324.91 320.16,322.54 316.65,324.58 320.74,326.95 324.26,324.91 				"/>
				<polyline class="st19" points="329.39,327.87 325.29,325.5 321.78,327.55 325.88,329.91 329.39,327.87 				"/>
				<polyline class="st19" points="334.52,330.83 330.43,328.46 326.91,330.51 331.01,332.87 334.52,330.83 				"/>
				<polyline class="st19" points="342.97,335.71 335.56,331.43 332.04,333.47 339.46,337.75 342.97,335.71 				"/>
				<polyline class="st19" points="292.19,311.59 283.19,306.39 279.67,308.43 288.67,313.63 292.19,311.59 				"/>
				<polyline class="st19" points="297.22,314.49 293.12,312.12 289.6,314.17 293.7,316.53 297.22,314.49 				"/>
				<polyline class="st19" points="302.35,317.45 298.25,315.09 294.74,317.13 298.83,319.5 302.35,317.45 				"/>
				<polyline class="st19" points="307.48,320.41 303.38,318.05 299.87,320.09 303.97,322.46 307.48,320.41 				"/>
				<polyline class="st19" points="312.61,323.38 308.52,321.01 305,323.05 309.1,325.42 312.61,323.38 				"/>
				<polyline class="st19" points="317.74,326.34 313.65,323.97 310.13,326.02 314.23,328.38 317.74,326.34 				"/>
				<polyline class="st19" points="322.88,329.3 318.78,326.94 315.26,328.98 319.36,331.35 322.88,329.3 				"/>
				<polyline class="st19" points="328.01,332.26 323.91,329.9 320.39,331.94 324.49,334.31 328.01,332.26 				"/>
				<polyline class="st19" points="338.39,338.26 329.04,332.86 325.52,334.9 334.87,340.3 338.39,338.26 				"/>
				<polyline class="st19" points="285.33,312.82 278.7,309 275.25,311 281.88,314.83 285.33,312.82 				"/>
				<polyline class="st19" points="290.46,315.78 286.36,313.42 282.91,315.42 287.01,317.79 290.46,315.78 				"/>
				<polyline class="st19" points="295.59,318.75 291.5,316.38 288.04,318.39 292.14,320.75 295.59,318.75 				"/>
				<polyline class="st19" points="316.12,330.6 296.63,319.34 293.17,321.35 312.66,332.6 316.12,330.6 				"/>
				<polyline class="st19" points="321.25,333.56 317.15,331.19 313.7,333.2 317.8,335.57 321.25,333.56 				"/>
				<polyline class="st19" points="326.38,336.52 322.28,334.15 318.83,336.16 322.93,338.53 326.38,336.52 				"/>
				<polyline class="st19" points="334,340.92 327.41,337.12 323.96,339.12 330.55,342.93 334,340.92 				"/>
				<path class="st19" d="M353.64,328.52l-53.59-30.94c-0.47-0.27-1.24-0.27-1.71,0c-0.47,0.27-0.47,0.71,0.01,0.99l53.59,30.94
					c0.47,0.27,1.24,0.27,1.7,0S354.12,328.79,353.64,328.52"/>
			</g>
		</g>
		<g class="st22">
			<path class="st23" d="M240.14,242.45l0.28-1.71l58.67,33.88l-0.28,1.71L240.14,242.45 M240.85,238.17l0.28-1.71l58.67,33.88
				l-0.28,1.71L240.85,238.17 M241.55,233.9l0.28-1.71l58.67,33.88l-0.28,1.71L241.55,233.9 M242.26,229.62l0.28-1.71l58.67,33.88
				l-0.28,1.71L242.26,229.62 M242.96,225.35l0.28-1.71l58.67,33.88l-0.28,1.71L242.96,225.35 M243.89,219.74l2.03-12.31l15.24,8.8
				l-2.03,12.31L243.89,219.74 M265.61,232.28l2.03-12.31l15.24,8.8l-2.03,12.31L265.61,232.28 M287.33,244.82l2.03-12.31l15.24,8.8
				l-2.03,12.31L287.33,244.82 M242.48,193.11l-8.55,51.85l69.51,40.13l7.84-47.54l-69.51-40.13L242.48,193.11"/>
			<linearGradient id="SVGID_18_" gradientUnits="userSpaceOnUse" x1="241.7715" y1="215.3369" x2="311.9926" y2="215.3369">
				<stop  offset="0" style="stop-color:#4BC8EE"/>
				<stop  offset="0.0907" style="stop-color:#49B8DE"/>
				<stop  offset="0.256" style="stop-color:#429BC2"/>
				<stop  offset="0.4775" style="stop-color:#377299"/>
				<stop  offset="0.7432" style="stop-color:#26446D"/>
				<stop  offset="1" style="stop-color:#151548"/>
			</linearGradient>
			<path class="st24" d="M245.15,198.04c-0.42-0.24-0.68-0.85-0.6-1.37c0.09-0.52,0.49-0.74,0.91-0.5c0.42,0.24,0.68,0.85,0.6,1.37
				C245.98,198.06,245.57,198.28,245.15,198.04 M247.39,199.33c-0.42-0.24-0.68-0.85-0.6-1.37c0.09-0.52,0.49-0.74,0.91-0.5
				c0.42,0.24,0.68,0.85,0.6,1.37C248.21,199.35,247.81,199.57,247.39,199.33 M249.63,200.63c-0.42-0.24-0.68-0.85-0.6-1.37
				c0.09-0.52,0.49-0.74,0.91-0.5c0.42,0.24,0.68,0.85,0.6,1.37C250.45,200.64,250.04,200.87,249.63,200.63 M311.99,233.24
				l-69.51-40.13l-0.71,4.32l69.51,40.13L311.99,233.24"/>
			<path class="st25" d="M245.46,196.17c-0.42-0.24-0.82-0.01-0.91,0.5c-0.09,0.52,0.18,1.13,0.6,1.37c0.42,0.24,0.82,0.02,0.91-0.5
				C246.15,197.03,245.88,196.41,245.46,196.17"/>
			<path class="st25" d="M247.7,197.46c-0.42-0.24-0.82-0.01-0.91,0.5c-0.09,0.52,0.18,1.13,0.6,1.37c0.42,0.24,0.82,0.02,0.91-0.5
				C248.38,198.32,248.12,197.7,247.7,197.46"/>
			<path class="st25" d="M249.94,198.76c-0.42-0.24-0.82-0.01-0.91,0.5c-0.09,0.52,0.18,1.13,0.6,1.37c0.42,0.24,0.82,0.02,0.91-0.5
				C250.62,199.61,250.35,199,249.94,198.76"/>
			<polyline class="st26" points="261.15,216.23 245.92,207.43 243.89,219.74 259.13,228.54 261.15,216.23 			"/>
			<polyline class="st26" points="282.87,228.77 267.64,219.97 265.61,232.28 280.84,241.08 282.87,228.77 			"/>
			<polyline class="st26" points="304.59,241.31 289.36,232.51 287.33,244.82 302.56,253.61 304.59,241.31 			"/>
			<polyline class="st26" points="301.92,257.51 243.25,223.63 242.96,225.35 301.64,259.22 301.92,257.51 			"/>
			<polyline class="st26" points="301.21,261.78 242.54,227.91 242.26,229.62 300.93,263.5 301.21,261.78 			"/>
			<polyline class="st26" points="300.51,266.06 241.84,232.18 241.55,233.9 300.23,267.77 300.51,266.06 			"/>
			<polyline class="st26" points="299.81,270.33 241.13,236.46 240.85,238.17 299.52,272.05 299.81,270.33 			"/>
			<polyline class="st26" points="299.1,274.61 240.43,240.73 240.14,242.45 298.82,276.32 299.1,274.61 			"/>
		</g>
		<g>
			<path class="st23" d="M343.79,246.28c-0.45-0.26-0.78,0.1-0.89,0.72c-0.12,0.67,0.08,1.24,0.49,1.48
				c0.29,0.17,0.56,0.06,0.68-0.25c0.04-0.08,0.06-0.16,0.08-0.27l0.09-0.51c0.01-0.07,0.02-0.16,0.02-0.22
				C344.27,246.85,344.1,246.45,343.79,246.28 M339.99,244.01c-0.48-0.28-0.76,0.22-0.86,0.8c-0.12,0.67,0.02,1.31,0.45,1.56
				c0.39,0.22,0.72-0.11,0.85-0.81C340.52,244.97,340.44,244.27,339.99,244.01 M347.59,248.33c-0.42-0.24-0.67,0.12-0.76,0.44
				l1.18,0.68C348.06,249.16,348.04,248.6,347.59,248.33 M315.49,248.15l0.25-1.44l1.01,0.58l2.79,1.61l1.01,0.59l2.79,1.61
				l1.01,0.59l2.79,1.61l1.01,0.58l-0.25,1.44l-1.01-0.58l-2.79-1.61l-1.01-0.59l-2.79-1.61l-1.01-0.59l-2.79-1.61L315.49,248.15
				 M331.7,257.51l0.25-1.44l7.6,4.39l-0.25,1.44L331.7,257.51 M343.1,264.1l0.25-1.44l3.8,2.19l-0.25,1.44L343.1,264.1
				 M349.69,267.9l0.25-1.44l8.61,4.97l-0.25,1.44L349.69,267.9 M361.09,274.48l0.25-1.44l4.82,2.78l-0.25,1.44L361.09,274.48
				 M315.98,245.37l0.25-1.43l7.6,4.39l-0.25,1.43L315.98,245.37 M327.38,251.95l0.25-1.43l11.4,6.58l-0.25,1.43L327.38,251.95
				 M339.8,259.12l0.25-1.43l7.6,4.39l-0.25,1.43L339.8,259.12 M351.2,265.7l0.25-1.43l14.18,8.19l-0.25,1.43L351.2,265.7
				 M366.39,274.47l0.25-1.43l3.55,2.05l-0.25,1.43L366.39,274.47 M312.64,240.37l0.25-1.44l7.64,4.41l-0.25,1.44L312.64,240.37
				 M321.29,245.36l0.25-1.44l2.79,1.61l-0.25,1.44L321.29,245.36 M325.09,247.56l0.25-1.44l6.59,3.8l-0.25,1.44L325.09,247.56
				 M335.47,253.55l0.25-1.44l4.82,2.78l-0.25,1.44L335.47,253.55 M344.09,258.53l0.25-1.44l11.4,6.58l-0.25,1.44L344.09,258.53
				 M359.29,267.3l0.25-1.44l3.8,2.19l-0.25,1.44L359.29,267.3 M366.89,271.69l0.25-1.44l3.55,2.05l-0.25,1.44L366.89,271.69
				 M317.98,240.38l0.25-1.44l3.8,2.19l-0.25,1.44L317.98,240.38 M325.58,244.77l0.25-1.44l11.4,6.58l-0.25,1.44L325.58,244.77
				 M340.78,253.55l0.25-1.44l7.6,4.39l-0.25,1.44L340.78,253.55 M352.18,260.13l0.25-1.44l10.38,5.99l-0.25,1.44L352.18,260.13
				 M363.58,266.71l0.25-1.44l3.8,2.19l-0.25,1.44L363.58,266.71 M313.62,234.8l0.25-1.44l7.64,4.41l-0.25,1.44L313.62,234.8
				 M322.27,239.79l0.25-1.44l3.8,2.19l-0.25,1.44L322.27,239.79 M328.86,243.6l0.25-1.44l4.81,2.78l-0.25,1.44L328.86,243.6
				 M337.47,248.57l0.25-1.44l7.6,4.39l-0.25,1.44L337.47,248.57 M347.86,254.56l0.25-1.44l7.6,4.39l-0.25,1.44L347.86,254.56
				 M356.47,259.54l0.25-1.44l3.8,2.19l-0.25,1.44L356.47,259.54 M363.06,263.34l0.25-1.44l1.02,0.59l2.79,1.61l1.01,0.59
				l-0.25,1.44l-1.01-0.59l-2.79-1.61L363.06,263.34 M317.95,234.23l0.25-1.44l1.01,0.58l-0.25,1.44L317.95,234.23 M322.77,237.01
				l0.25-1.44l7.6,4.39l-0.25,1.44L322.77,237.01 M355.95,256.17l0.25-1.44l8.62,4.97l-0.25,1.44L355.95,256.17 M367.35,262.75
				l0.25-1.44l4.56,2.63l-0.25,1.44L367.35,262.75 M336.54,245.57c-1.04-0.6-1.56-1.75-1.34-2.99c0.2-1.15,1.01-1.72,2.21-1.03
				c0.26,0.15,0.54,0.37,0.73,0.59l-0.32,0.82c-0.11-0.13-0.27-0.29-0.54-0.44c-0.52-0.3-0.95-0.04-1.05,0.61
				c-0.13,0.72,0.2,1.33,0.68,1.61c0.24,0.14,0.43,0.19,0.59,0.21l-0.04,0.97C337.27,245.91,336.92,245.79,336.54,245.57
				 M339.39,247.23c-0.94-0.54-1.53-1.71-1.3-2.98c0.22-1.27,1.05-1.68,2.08-1.09c0.98,0.57,1.49,1.77,1.29,2.95
				C341.19,247.55,340.25,247.72,339.39,247.23 M347.16,251.7c-1.09-0.63-1.58-1.76-1.36-2.99c0.18-1,0.88-1.8,1.99-1.16
				c1.04,0.6,1.26,1.81,1.08,2.78c-0.04,0.21-0.09,0.38-0.12,0.46l-2.07-1.19c-0.06,0.53,0.31,1,0.77,1.27
				c0.34,0.2,0.63,0.3,0.91,0.35l-0.02,0.9C348,252.11,347.59,251.95,347.16,251.7 M334.26,244.17l-2.83-3.61l0.12-0.69l3.47,0.03
				l-0.15,0.85l-2.61-0.1l0,0.01l2.16,2.65L334.26,244.17 M351.26,253.98l0.15-0.85l2.66,0.13l0-0.01l-2.21-2.68l0.15-0.85
				l2.84,3.59l-0.13,0.74L351.26,253.98 M314.61,229.23l0.25-1.43l3.84,2.22l-0.25,1.43L314.61,229.23 M319.46,232.03l0.25-1.43
				l10.39,6l-0.25,1.43L319.46,232.03 M360.25,255.57l0.25-1.43l8.61,4.97l-0.25,1.43L360.25,255.57 M348.75,252.89l2.43-5.01
				l0.66,0.38l-2.44,5.01L348.75,252.89 M344.46,246.12l0.01,0.01l0.38-2.13l1,0.58l-0.8,4.53c-0.08,0.44-0.15,0.91-0.18,1.19
				l-0.88-0.51l0.06-0.61l-0.01-0.01c-0.28,0.32-0.71,0.33-1.12,0.09c-0.76-0.44-1.23-1.59-1.01-2.81c0.23-1.33,1.04-1.7,1.81-1.26
				C344.09,245.42,344.37,245.77,344.46,246.12 M318.94,228.66l0.25-1.44l4.81,2.78l-0.25,1.44L318.94,228.66 M326.54,233.04
				l0.25-1.44l4.81,2.78l-0.25,1.44L326.54,233.04 M334.14,237.43l0.25-1.44l7.6,4.39l-0.25,1.44L334.14,237.43 M342.75,242.41
				l0.25-1.44l3.8,2.19l-0.25,1.44L342.75,242.41 M350.35,246.79l0.25-1.44l3.8,2.19l-0.25,1.44L350.35,246.79 M356.94,250.6
				l0.25-1.44l3.8,2.19l-0.25,1.44L356.94,250.6 M361.75,253.38l0.25-1.44l3.8,2.19l-0.25,1.44L361.75,253.38 M368.34,257.18
				l0.25-1.44l4.56,2.63l-0.25,1.44L368.34,257.18 M315.6,223.66l0.25-1.43l8.65,4.99l-0.25,1.43L315.6,223.66 M327.03,230.26
				l0.25-1.43l1.01,0.59l-0.25,1.43L327.03,230.26 M330.83,232.45l0.25-1.43l4.81,2.78l-0.25,1.43L330.83,232.45 M338.43,236.84
				l0.25-1.43l4.82,2.78l-0.25,1.43L338.43,236.84 M346.03,241.23l0.25-1.43l12.41,7.17l-0.25,1.43L346.03,241.23 M362.25,250.59
				l0.25-1.43l11.15,6.44l-0.25,1.43L362.25,250.59 M319.93,223.09l0.25-1.44l3.8,2.19l-0.25,1.44L319.93,223.09 M324.74,225.87
				l0.25-1.44l7.6,4.39l-0.25,1.44L324.74,225.87 M338.93,234.06l0.25-1.44l4.82,2.78l-0.25,1.44L338.93,234.06 M346.53,238.44
				l0.25-1.44l4.81,2.78l-0.25,1.44L346.53,238.44 M355.14,243.42l0.25-1.44l10.38,5.99l-0.25,1.44L355.14,243.42 M369.33,251.61
				l0.25-1.44l4.56,2.63l-0.25,1.44L369.33,251.61 M316.58,218.09l0.25-1.44l4.85,2.8l-0.25,1.44L316.58,218.09 M325.23,223.08
				l0.25-1.44l3.8,2.19l-0.25,1.44L325.23,223.08 M335.62,229.08l0.25-1.44l16.21,9.36l-0.25,1.44L335.62,229.08 M354.62,240.05
				l0.25-1.44l7.6,4.39l-0.25,1.44L354.62,240.05 M363.23,245.02l0.25-1.44l7.6,4.39l-0.25,1.44L363.23,245.02 M328.51,221.9
				l0.25-1.44l12.41,7.17l-0.25,1.44L328.51,221.9 M343.71,230.68l0.25-1.44l4.82,2.78l-0.25,1.44L343.71,230.68 M351.31,235.07
				l0.25-1.44l4.82,2.78l-0.25,1.44L351.31,235.07 M362.71,241.65l0.25-1.44l4.82,2.78l-0.25,1.44L362.71,241.65 M370.31,246.04
				l0.25-1.44l1.01,0.59l-0.25,1.44L370.31,246.04 M313.46,199.94l-8.97,50.66l68.94,39.8l8.22-46.44l-68.94-39.8L313.46,199.94"/>
			<linearGradient id="SVGID_19_" gradientUnits="userSpaceOnUse" x1="329.6961" y1="221.9528" x2="399.386" y2="221.9528">
				<stop  offset="0" style="stop-color:#4BC8EE"/>
				<stop  offset="0.0907" style="stop-color:#49B8DE"/>
				<stop  offset="0.256" style="stop-color:#429BC2"/>
				<stop  offset="0.4775" style="stop-color:#377299"/>
				<stop  offset="0.7432" style="stop-color:#26446D"/>
				<stop  offset="1" style="stop-color:#151548"/>
			</linearGradient>
			<path class="st27" d="M316.08,204.78c-0.41-0.24-0.67-0.84-0.58-1.34c0.09-0.5,0.5-0.72,0.91-0.48c0.41,0.24,0.67,0.84,0.58,1.34
				C316.9,204.81,316.49,205.02,316.08,204.78 M318.3,206.06c-0.41-0.24-0.67-0.84-0.58-1.34c0.09-0.5,0.49-0.72,0.91-0.48
				c0.41,0.24,0.67,0.84,0.58,1.34C319.12,206.09,318.71,206.3,318.3,206.06 M320.52,207.35c-0.41-0.24-0.67-0.84-0.58-1.34
				c0.09-0.5,0.5-0.72,0.91-0.48c0.41,0.24,0.67,0.84,0.58,1.34C321.34,207.37,320.93,207.58,320.52,207.35 M382.4,239.75
				l-68.94-39.8l-0.75,4.22l68.94,39.8L382.4,239.75"/>
			<path class="st25" d="M316.4,202.96c-0.41-0.24-0.82-0.02-0.91,0.48c-0.09,0.5,0.17,1.11,0.58,1.34
				c0.41,0.24,0.82,0.02,0.91-0.48C317.08,203.8,316.82,203.2,316.4,202.96"/>
			<path class="st25" d="M318.62,204.24c-0.41-0.24-0.82-0.02-0.91,0.48c-0.09,0.5,0.17,1.11,0.58,1.34
				c0.41,0.24,0.82,0.02,0.91-0.48C319.3,205.08,319.04,204.48,318.62,204.24"/>
			<path class="st25" d="M320.84,205.52c-0.41-0.24-0.82-0.02-0.91,0.48c-0.09,0.5,0.17,1.11,0.58,1.34
				c0.41,0.24,0.82,0.02,0.91-0.48C321.52,206.36,321.25,205.76,320.84,205.52"/>
			<polyline class="st28" points="341.18,227.63 328.77,220.47 328.51,221.9 340.93,229.07 341.18,227.63 			"/>
			<polyline class="st29" points="348.78,232.02 343.97,229.24 343.71,230.68 348.53,233.46 348.78,232.02 			"/>
			<polyline class="st26" points="356.38,236.41 351.57,233.63 351.31,235.07 356.13,237.85 356.38,236.41 			"/>
			<polyline class="st30" points="367.78,242.99 362.97,240.21 362.71,241.65 367.53,244.43 367.78,242.99 			"/>
			<polyline class="st26" points="371.58,245.18 370.57,244.6 370.31,246.04 371.33,246.62 371.58,245.18 			"/>
			<polyline class="st30" points="321.69,219.45 316.84,216.65 316.58,218.09 321.43,220.89 321.69,219.45 			"/>
			<polyline class="st26" points="329.29,223.84 325.49,221.64 325.23,223.08 329.03,225.27 329.29,223.84 			"/>
			<polyline class="st26" points="352.09,237 335.87,227.64 335.62,229.08 351.83,238.44 352.09,237 			"/>
			<polyline class="st26" points="362.47,243 354.87,238.61 354.62,240.05 362.22,244.43 362.47,243 			"/>
			<polyline class="st26" points="371.09,247.97 363.49,243.58 363.23,245.02 370.83,249.41 371.09,247.97 			"/>
			<polyline class="st26" points="323.98,223.84 320.18,221.65 319.93,223.09 323.73,225.28 323.98,223.84 			"/>
			<polyline class="st29" points="332.59,228.82 324.99,224.43 324.74,225.87 332.34,230.25 332.59,228.82 			"/>
			<polyline class="st26" points="344,235.4 339.18,232.62 338.93,234.06 343.74,236.84 344,235.4 			"/>
			<polyline class="st26" points="351.59,239.79 346.78,237.01 346.53,238.44 351.34,241.22 351.59,239.79 			"/>
			<polyline class="st28" points="365.78,247.98 355.4,241.98 355.14,243.42 365.52,249.41 365.78,247.98 			"/>
			<polyline class="st26" points="374.14,252.8 369.58,250.17 369.33,251.61 373.89,254.24 374.14,252.8 			"/>
			<polyline class="st26" points="324.5,227.22 315.85,222.22 315.6,223.66 324.25,228.65 324.5,227.22 			"/>
			<polyline class="st26" points="328.3,229.41 327.29,228.82 327.03,230.26 328.05,230.84 328.3,229.41 			"/>
			<polyline class="st26" points="335.9,233.8 331.09,231.02 330.83,232.45 335.65,235.23 335.9,233.8 			"/>
			<polyline class="st29" points="343.5,238.19 338.69,235.41 338.43,236.84 343.25,239.62 343.5,238.19 			"/>
			<polyline class="st30" points="358.7,246.96 346.29,239.79 346.03,241.23 358.45,248.4 358.7,246.96 			"/>
			<polyline class="st29" points="373.65,255.59 362.5,249.16 362.25,250.59 373.39,257.02 373.65,255.59 			"/>
			<polyline class="st28" points="324.01,230 319.19,227.22 318.94,228.66 323.75,231.44 324.01,230 			"/>
			<polyline class="st26" points="331.61,234.39 326.79,231.61 326.54,233.04 331.35,235.82 331.61,234.39 			"/>
			<polyline class="st26" points="341.99,240.38 334.39,236 334.14,237.43 341.74,241.82 341.99,240.38 			"/>
			<polyline class="st28" points="346.81,243.16 343.01,240.97 342.75,242.41 346.55,244.6 346.81,243.16 			"/>
			<polyline class="st26" points="354.41,247.55 350.61,245.36 350.35,246.79 354.15,248.99 354.41,247.55 			"/>
			<polyline class="st26" points="360.99,251.35 357.19,249.16 356.94,250.6 360.74,252.79 360.99,251.35 			"/>
			<polyline class="st26" points="365.81,254.13 362.01,251.94 361.75,253.38 365.55,255.57 365.81,254.13 			"/>
			<polyline class="st26" points="373.15,258.37 368.59,255.74 368.34,257.18 372.9,259.81 373.15,258.37 			"/>
			<polyline class="st26" points="318.7,230.01 314.86,227.79 314.61,229.23 318.45,231.44 318.7,230.01 			"/>
			<polyline class="st30" points="330.1,236.59 319.71,230.59 319.46,232.03 329.85,238.02 330.1,236.59 			"/>
			<polyline class="st28" points="369.11,259.11 360.5,254.14 360.25,255.57 368.86,260.55 369.11,259.11 			"/>
			<polyline class="st26" points="319.22,233.38 318.21,232.79 317.95,234.23 318.97,234.81 319.22,233.38 			"/>
			<polyline class="st26" points="330.62,239.96 323.02,235.57 322.77,237.01 330.37,241.39 330.62,239.96 			"/>
			<polyline class="st29" points="364.82,259.7 356.21,254.73 355.95,256.17 364.57,261.14 364.82,259.7 			"/>
			<polyline class="st26" points="372.17,263.94 367.61,261.31 367.35,262.75 371.91,265.38 372.17,263.94 			"/>
			<polyline class="st29" points="321.51,237.77 313.88,233.36 313.62,234.8 321.26,239.21 321.51,237.77 			"/>
			<polyline class="st26" points="326.33,240.55 322.53,238.36 322.27,239.79 326.07,241.99 326.33,240.55 			"/>
			<polyline class="st26" points="333.93,244.94 329.11,242.16 328.86,243.6 333.67,246.37 333.93,244.94 			"/>
			<polyline class="st26" points="345.33,251.52 337.73,247.13 337.47,248.57 345.07,252.96 345.33,251.52 			"/>
			<polyline class="st26" points="355.71,257.52 348.11,253.13 347.86,254.56 355.46,258.95 355.71,257.52 			"/>
			<polyline class="st26" points="360.53,260.3 356.73,258.1 356.47,259.54 360.27,261.73 360.53,260.3 			"/>
			<polyline class="st26" points="368.13,264.68 367.11,264.1 364.33,262.49 363.31,261.9 363.06,263.34 364.07,263.93 
				366.86,265.53 367.87,266.12 368.13,264.68 			"/>
			<polyline class="st26" points="322.04,241.14 318.23,238.95 317.98,240.38 321.78,242.58 322.04,241.14 			"/>
			<polyline class="st28" points="337.23,249.92 325.83,243.33 325.58,244.77 336.98,251.35 337.23,249.92 			"/>
			<polyline class="st29" points="348.63,256.5 341.04,252.11 340.78,253.55 348.38,257.93 348.63,256.5 			"/>
			<polyline class="st30" points="362.82,264.69 352.44,258.69 352.18,260.13 362.57,266.12 362.82,264.69 			"/>
			<polyline class="st26" points="367.64,267.47 363.84,265.27 363.58,266.71 367.38,268.9 367.64,267.47 			"/>
			<polyline class="st28" points="320.53,243.34 312.89,238.93 312.64,240.37 320.27,244.78 320.53,243.34 			"/>
			<polyline class="st29" points="324.33,245.53 321.54,243.93 321.29,245.36 324.07,246.97 324.33,245.53 			"/>
			<polyline class="st26" points="331.93,249.92 325.34,246.12 325.09,247.56 331.67,251.36 331.93,249.92 			"/>
			<polyline class="st30" points="340.54,254.9 335.73,252.12 335.47,253.55 340.29,256.33 340.54,254.9 			"/>
			<polyline class="st26" points="355.74,263.67 344.34,257.09 344.09,258.53 355.49,265.11 355.74,263.67 			"/>
			<polyline class="st26" points="363.34,268.06 359.54,265.87 359.29,267.3 363.09,269.5 363.34,268.06 			"/>
			<polyline class="st26" points="370.69,272.3 367.14,270.25 366.89,271.69 370.43,273.74 370.69,272.3 			"/>
			<polyline class="st26" points="323.83,248.32 316.23,243.93 315.98,245.37 323.58,249.75 323.83,248.32 			"/>
			<polyline class="st29" points="339.03,257.1 327.63,250.52 327.38,251.95 338.78,258.53 339.03,257.1 			"/>
			<polyline class="st26" points="347.65,262.07 340.05,257.68 339.8,259.12 347.39,263.5 347.65,262.07 			"/>
			<polyline class="st28" points="365.63,272.45 351.45,264.26 351.2,265.7 365.38,273.89 365.63,272.45 			"/>
			<polyline class="st30" points="370.19,275.09 366.65,273.04 366.39,274.47 369.94,276.52 370.19,275.09 			"/>
			<polyline class="st30" points="328.15,253.88 327.14,253.3 324.36,251.69 323.34,251.1 320.56,249.5 319.54,248.91 316.75,247.3 
				315.74,246.72 315.49,248.15 316.5,248.74 319.29,250.35 320.3,250.93 323.09,252.54 324.1,253.13 326.89,254.74 327.9,255.32 
				328.15,253.88 			"/>
			<polyline class="st26" points="339.56,260.47 331.95,256.08 331.7,257.51 339.3,261.9 339.56,260.47 			"/>
			<polyline class="st26" points="347.16,264.85 343.36,262.66 343.1,264.1 346.9,266.29 347.16,264.85 			"/>
			<polyline class="st29" points="358.55,271.44 349.94,266.46 349.69,267.9 358.3,272.87 358.55,271.44 			"/>
			<polyline class="st26" points="366.16,275.82 361.34,273.04 361.09,274.48 365.9,277.26 366.16,275.82 			"/>
			<polyline class="st31" points="335.01,239.9 331.55,239.87 331.43,240.56 334.26,244.17 334.41,243.32 332.25,240.67 
				332.26,240.65 334.86,240.75 335.01,239.9 			"/>
			<path class="st31" d="M337.4,241.56c-1.19-0.69-2-0.12-2.21,1.03c-0.22,1.24,0.31,2.39,1.34,2.99c0.38,0.22,0.73,0.33,0.92,0.34
				l0.04-0.97c-0.16-0.02-0.36-0.07-0.59-0.21c-0.48-0.28-0.81-0.89-0.68-1.61c0.11-0.65,0.53-0.91,1.05-0.61
				c0.26,0.15,0.43,0.31,0.54,0.44l0.32-0.82C337.94,241.94,337.66,241.71,337.4,241.56"/>
			<path class="st31" d="M339.57,246.37c-0.43-0.25-0.57-0.88-0.45-1.56c0.1-0.58,0.39-1.08,0.86-0.8c0.45,0.26,0.53,0.96,0.43,1.55
				C340.29,246.26,339.95,246.59,339.57,246.37 M340.16,243.16c-1.03-0.59-1.86-0.18-2.08,1.09c-0.22,1.27,0.36,2.44,1.3,2.98
				c0.86,0.5,1.81,0.32,2.06-1.12C341.66,244.93,341.15,243.72,340.16,243.16"/>
			<path class="st31" d="M343.4,248.47c-0.41-0.24-0.61-0.81-0.49-1.48c0.11-0.62,0.43-0.98,0.89-0.72
				c0.31,0.18,0.48,0.57,0.48,0.94c0,0.07-0.01,0.16-0.02,0.22l-0.09,0.51c-0.02,0.1-0.04,0.19-0.08,0.27
				C343.96,248.53,343.68,248.64,343.4,248.47 M345.85,244.58l-1-0.58l-0.38,2.13l-0.01-0.01c-0.1-0.36-0.37-0.7-0.77-0.93
				c-0.77-0.44-1.58-0.07-1.81,1.26c-0.22,1.22,0.25,2.37,1.01,2.81c0.41,0.24,0.84,0.24,1.12-0.09l0.01,0.01l-0.06,0.61l0.88,0.51
				c0.04-0.27,0.1-0.75,0.18-1.19L345.85,244.58"/>
			<path class="st31" d="M346.83,248.77c0.08-0.32,0.34-0.68,0.76-0.44c0.46,0.26,0.48,0.83,0.42,1.12L346.83,248.77 M347.79,247.56
				c-1.11-0.64-1.82,0.16-1.99,1.16c-0.22,1.23,0.27,2.36,1.36,2.99c0.43,0.25,0.85,0.4,1.2,0.43l0.02-0.9
				c-0.29-0.05-0.57-0.15-0.91-0.35c-0.46-0.27-0.83-0.74-0.77-1.27l2.07,1.19c0.03-0.08,0.08-0.25,0.12-0.46
				C349.04,249.37,348.83,248.16,347.79,247.56"/>
			<polyline class="st31" points="351.85,248.26 351.19,247.88 348.75,252.89 349.42,253.27 351.85,248.26 			"/>
			<polyline class="st31" points="352.01,249.71 351.86,250.56 354.07,253.25 354.07,253.26 351.41,253.13 351.26,253.98 
				354.72,254.04 354.85,253.3 352.01,249.71 			"/>
		</g>
		<g class="st22">
			<path class="st23" d="M377.3,324.61l0.21-1.29l10.47,6.04l-0.21,1.29L377.3,324.61 M377.77,321.72l0.21-1.29l10.47,6.04
				l-0.21,1.29L377.77,321.72 M378.24,318.84l0.21-1.29l10.47,6.04l-0.21,1.29L378.24,318.84 M378.7,315.95l0.21-1.29l10.47,6.04
				l-0.21,1.29L378.7,315.95 M390.77,332.36l1.61-9.92l9.04,5.22l-1.61,9.92L390.77,332.36 M403.11,339.49l1.61-9.92l9.05,5.22
				l-1.61,9.92L403.11,339.49 M415.46,346.61l1.61-9.92l9.04,5.22l-1.61,9.92L415.46,346.61 M379.17,313.07l0.21-1.29l10.47,6.04
				l-0.21,1.29L379.17,313.07 M379.64,310.18l0.21-1.29l10.47,6.04l-0.21,1.29L379.64,310.18 M380.11,307.3l0.21-1.29l10.47,6.04
				l-0.21,1.29L380.11,307.3 M379.45,303.76l0.21-1.29l11.59,6.69l-0.21,1.29L379.45,303.76 M392.65,320.82l1.61-9.92l9.04,5.22
				l-1.61,9.92L392.65,320.82 M404.99,327.95l1.61-9.92l9.05,5.22l-1.61,9.92L404.99,327.95 M417.33,335.07l1.61-9.92l9.04,5.22
				l-1.61,9.92L417.33,335.07 M379.94,300.78l2.14-13.16l48.49,28l-2.14,13.16L379.94,300.78 M393.94,292.51l0.23-1.42l6.05,3.5
				l-0.23,1.42L393.94,292.51 M401.49,296.87l0.23-1.42l6.06,3.5l-0.23,1.42L401.49,296.87 M409.04,301.23l0.23-1.42l6.06,3.5
				l-0.23,1.42L409.04,301.23 M416.59,305.59l0.23-1.42l6.06,3.5l-0.23,1.42L416.59,305.59 M424.14,309.95l0.23-1.42l6.06,3.5
				l-0.23,1.42L424.14,309.95 M382.23,286.65l0.5-3.06l7.38,4.26l-0.5,3.06L382.23,286.65 M374.99,271.81l-8.07,49.67l66.63,38.47
				l7.4-45.53l-66.63-38.47L374.99,271.81"/>
			<linearGradient id="SVGID_20_" gradientUnits="userSpaceOnUse" x1="374.3151" y1="293.1128" x2="441.6186" y2="293.1128">
				<stop  offset="0" style="stop-color:#4BC8EE"/>
				<stop  offset="0.1158" style="stop-color:#45A4CA"/>
				<stop  offset="0.3731" style="stop-color:#316289"/>
				<stop  offset="0.7131" style="stop-color:#151548"/>
			</linearGradient>
			<path class="st32" d="M377.55,276.53c-0.4-0.23-0.66-0.82-0.58-1.31s0.47-0.71,0.87-0.48c0.4,0.23,0.66,0.82,0.58,1.31
				C378.34,276.55,377.95,276.76,377.55,276.53 M379.7,277.77c-0.4-0.23-0.66-0.82-0.58-1.31c0.08-0.49,0.47-0.71,0.87-0.48
				c0.4,0.23,0.66,0.82,0.58,1.31C380.49,277.79,380.1,278,379.7,277.77 M381.84,279.01c-0.4-0.23-0.66-0.82-0.58-1.31
				s0.47-0.71,0.87-0.48c0.4,0.23,0.66,0.82,0.58,1.31C382.63,279.03,382.24,279.24,381.84,279.01 M441.62,310.28l-66.63-38.47
				l-0.67,4.13l66.63,38.47L441.62,310.28"/>
			<path class="st25" d="M377.85,274.74c-0.4-0.23-0.79-0.02-0.87,0.48s0.18,1.08,0.58,1.31c0.4,0.23,0.79,0.02,0.87-0.48
				C378.5,275.56,378.24,274.97,377.85,274.74"/>
			<path class="st25" d="M379.99,275.98c-0.4-0.23-0.79-0.01-0.87,0.48c-0.08,0.49,0.18,1.08,0.58,1.31
				c0.4,0.23,0.79,0.02,0.87-0.48C380.65,276.8,380.39,276.21,379.99,275.98"/>
			<path class="st25" d="M382.13,277.22c-0.4-0.23-0.79-0.01-0.87,0.48s0.18,1.08,0.58,1.31c0.4,0.23,0.79,0.02,0.87-0.48
				C382.79,278.04,382.53,277.45,382.13,277.22"/>
			<polyline class="st26" points="390.11,287.85 382.73,283.59 382.23,286.65 389.61,290.91 390.11,287.85 			"/>
			<polyline class="st26" points="400.22,294.59 394.17,291.09 393.94,292.51 399.99,296.01 400.22,294.59 			"/>
			<polyline class="st26" points="407.77,298.95 401.72,295.45 401.49,296.87 407.54,300.37 407.77,298.95 			"/>
			<polyline class="st26" points="415.33,303.3 409.27,299.81 409.04,301.23 415.09,304.73 415.33,303.3 			"/>
			<polyline class="st26" points="422.87,307.66 416.82,304.17 416.59,305.59 422.64,309.08 422.87,307.66 			"/>
			<polyline class="st26" points="430.43,312.02 424.37,308.53 424.14,309.95 430.19,313.44 430.43,312.02 			"/>
			<polyline class="st26" points="430.57,315.61 382.08,287.62 379.94,300.78 428.43,328.77 430.57,315.61 			"/>
			<polyline class="st26" points="391.26,309.16 379.66,302.47 379.45,303.76 391.05,310.45 391.26,309.16 			"/>
			<polyline class="st26" points="390.79,312.05 380.32,306.01 380.11,307.3 390.58,313.34 390.79,312.05 			"/>
			<polyline class="st26" points="390.32,314.93 379.85,308.89 379.64,310.18 390.11,316.22 390.32,314.93 			"/>
			<polyline class="st26" points="389.85,317.82 379.38,311.78 379.17,313.07 389.64,319.11 389.85,317.82 			"/>
			<polyline class="st26" points="389.38,320.7 378.91,314.66 378.7,315.95 389.17,321.99 389.38,320.7 			"/>
			<polyline class="st26" points="388.91,323.59 378.45,317.54 378.24,318.84 388.7,324.88 388.91,323.59 			"/>
			<polyline class="st26" points="388.44,326.47 377.98,320.43 377.77,321.72 388.23,327.76 388.44,326.47 			"/>
			<polyline class="st26" points="387.97,329.36 377.51,323.32 377.3,324.61 387.76,330.65 387.97,329.36 			"/>
			<polyline class="st26" points="403.31,316.12 394.26,310.9 392.65,320.82 401.69,326.04 403.31,316.12 			"/>
			<polyline class="st26" points="415.65,323.25 406.6,318.02 404.99,327.95 414.04,333.17 415.65,323.25 			"/>
			<polyline class="st26" points="427.99,330.37 418.94,325.15 417.33,335.07 426.38,340.29 427.99,330.37 			"/>
			<polyline class="st26" points="401.43,327.66 392.39,322.44 390.77,332.36 399.82,337.58 401.43,327.66 			"/>
			<polyline class="st26" points="413.77,334.79 404.73,329.56 403.11,339.49 412.16,344.71 413.77,334.79 			"/>
			<polyline class="st26" points="426.11,341.91 417.07,336.69 415.46,346.61 424.5,351.83 426.11,341.91 			"/>
		</g>
		<g>
			<path class="st23" d="M336.38,287.77c-0.91-0.53-1.5-1.87-1.32-3c0.18-1.13,1.07-1.62,1.98-1.09l20.86,12.04
				c0.91,0.53,1.5,1.87,1.32,3s-1.07,1.62-1.98,1.1L336.38,287.77 M337.54,280.61c-0.91-0.53-1.5-1.87-1.32-3
				c0.18-1.13,1.07-1.62,1.98-1.1l20.86,12.04c0.91,0.53,1.5,1.87,1.32,3c-0.18,1.13-1.07,1.62-1.98,1.09L337.54,280.61
				 M323.33,283.7c-4.23-2.44-6.97-8.68-6.12-13.93c0.85-5.25,4.97-7.52,9.2-5.08c4.23,2.44,6.97,8.68,6.13,13.93
				C331.68,283.86,327.56,286.14,323.33,283.7 M312.63,242.46l-7.09,43.85l58.86,33.98l6.5-40.2l-58.86-33.98L312.63,242.46"/>
			<linearGradient id="SVGID_21_" gradientUnits="userSpaceOnUse" x1="312.0396" y1="261.2766" x2="371.4846" y2="261.2766">
				<stop  offset="0" style="stop-color:#4BC8EE"/>
				<stop  offset="0.0907" style="stop-color:#49B8DE"/>
				<stop  offset="0.256" style="stop-color:#429BC2"/>
				<stop  offset="0.4775" style="stop-color:#377299"/>
				<stop  offset="0.7432" style="stop-color:#26446D"/>
				<stop  offset="1" style="stop-color:#151548"/>
			</linearGradient>
			<path class="st33" d="M314.9,246.63c-0.35-0.2-0.58-0.72-0.51-1.16c0.07-0.44,0.41-0.63,0.76-0.42c0.35,0.2,0.58,0.72,0.51,1.16
				C315.59,246.65,315.25,246.84,314.9,246.63 M316.79,247.73c-0.35-0.2-0.58-0.72-0.51-1.16c0.07-0.44,0.41-0.63,0.76-0.42
				c0.35,0.2,0.58,0.72,0.51,1.16C317.49,247.74,317.15,247.93,316.79,247.73 M318.69,248.82c-0.35-0.2-0.58-0.72-0.51-1.16
				c0.07-0.44,0.41-0.63,0.76-0.42c0.35,0.2,0.58,0.72,0.51,1.16C319.38,248.83,319.04,249.02,318.69,248.82 M371.48,276.44
				l-58.86-33.98l-0.59,3.65l58.86,33.98L371.48,276.44"/>
			<path class="st26" d="M325.42,277.75c0,0,0.01-0.98,0.84-1.11c0.06,0.12,0.12,0.22,0.2,0.29c0.51,0.5,2.19,2.6,2.75,3.31
				c-1.22,1.23-2.96,1.58-4.78,0.78l0.07-2.5l0.6-0.74l-0.45-1.28l-0.38-0.22l-0.76,0.68l0.26,1.23l-0.69,2.01
				c-1.68-1.28-2.97-3.36-3.59-5.63c0.74,0,2.62,0.03,3.17,0.16c0.08,0.02,0.17,0.01,0.25-0.02c0.18,0.58,0.37,1.26,0.4,1.71
				l0.95-0.5l0.53,0.31L325.42,277.75 M324.24,267.76c0.03-0.03,0.06-0.05,0.09-0.07c0.17-0.24,0.66-0.76,1.52-0.26
				c1.1,0.63,1.71,0.51,1.71,0.51s0.49,2.84,0.05,4.01l0.05,0.02c0.16,0.13,0.14,0.68-0.03,1.24c-0.16,0.54-0.42,0.89-0.57,0.8
				c-0.01,0-0.01-0.01-0.02-0.01c-0.03-0.02-0.05-0.06-0.07-0.1c-0.26,0.64-0.33,0.99-0.69,1.29c-0.06,0.02-0.94,0.38-1.22,0.26
				c-0.03-0.01-0.27-0.14-0.48-0.27c-0.14-0.08-0.26-0.16-0.32-0.2c-0.28-0.2-0.89-1.42-0.94-1.5c-0.21-0.62-0.17-0.98-0.19-1.75
				l0.01,0.01l0-0.06c-0.03,0.02-0.06,0.03-0.09,0.02c-0.01,0-0.01,0-0.02-0.01c-0.16-0.09-0.26-0.65-0.24-1.27
				c0.02-0.64,0.18-1.12,0.35-1.06c0,0,0.31-2.13,0.9-1.79C324.1,267.58,324.17,267.65,324.24,267.76 M326.41,264.68
				c-4.23-2.44-8.35-0.17-9.2,5.08c-0.85,5.25,1.89,11.49,6.12,13.93c4.23,2.44,8.35,0.17,9.2-5.08
				C333.38,273.36,330.64,267.13,326.41,264.68"/>
			<path class="st25" d="M327.57,267.93c0,0-0.62,0.13-1.71-0.51c-0.87-0.5-1.36,0.02-1.52,0.26c-0.03,0.02-0.06,0.05-0.09,0.07
				c-0.07-0.1-0.14-0.17-0.21-0.21c-0.59-0.34-0.9,1.79-0.9,1.79c-0.17-0.06-0.32,0.41-0.35,1.06c-0.02,0.62,0.08,1.18,0.24,1.27
				c0.01,0,0.01,0.01,0.02,0.01c0.03,0.01,0.06,0,0.09-0.02l0,0.06l-0.01-0.01c0.02,0.77-0.02,1.13,0.19,1.75
				c0.05,0.08,0.66,1.3,0.94,1.5c0.06,0.04,0.19,0.12,0.32,0.2c0.22,0.13,0.46,0.26,0.48,0.27c0.29,0.13,1.16-0.24,1.22-0.26
				c0.36-0.3,0.43-0.65,0.69-1.29c0.02,0.04,0.04,0.08,0.07,0.1c0.01,0,0.01,0.01,0.02,0.01c0.16,0.09,0.41-0.26,0.57-0.8
				c0.17-0.56,0.18-1.11,0.03-1.24l-0.05-0.02C328.06,270.77,327.57,267.93,327.57,267.93"/>
			<path class="st25" d="M326.26,276.65c-0.83,0.12-0.84,1.11-0.84,1.11l-0.62-1.5l-0.53-0.31l-0.95,0.5
				c-0.03-0.46-0.22-1.14-0.4-1.71c-0.08,0.03-0.16,0.04-0.25,0.02c-0.55-0.12-2.43-0.15-3.17-0.16c0.61,2.26,1.9,4.35,3.59,5.63
				l0.69-2.01l-0.26-1.23l0.76-0.68l0.38,0.22l0.45,1.28l-0.6,0.74l-0.07,2.5c1.82,0.8,3.56,0.46,4.78-0.78
				c-0.56-0.71-2.24-2.82-2.75-3.31C326.38,276.87,326.32,276.77,326.26,276.65"/>
			<path class="st26" d="M350.5,285.29c-0.08-0.05-0.13-0.06-0.16-0.07l-0.08,0.51l0.13,0.08c0.17,0.1,0.28,0.05,0.31-0.11
				C350.73,285.52,350.65,285.38,350.5,285.29 M346.54,284.36c0.18,0.1,0.3,0.01,0.35-0.32l0.17-1.06l0.34,0.19l-0.17,1.04
				c-0.09,0.57-0.37,0.71-0.76,0.48c-0.37-0.22-0.55-0.6-0.46-1.19l0.17-1.03l0.34,0.19l-0.17,1.06
				C346.3,284.05,346.37,284.26,346.54,284.36 M348.59,285.88l0.3-1.85l0.92,0.53l-0.06,0.34l-0.58-0.34l-0.06,0.38l0.55,0.32
				l-0.06,0.34l-0.55-0.32l-0.07,0.44l0.61,0.35l-0.06,0.34L348.59,285.88 M349.76,286.56l0.29-1.82c0.11,0.04,0.28,0.12,0.46,0.22
				c0.22,0.13,0.37,0.26,0.46,0.42c0.07,0.14,0.1,0.3,0.08,0.47c-0.04,0.23-0.2,0.32-0.34,0.3l0,0.01c0.1,0.11,0.13,0.27,0.14,0.46
				c0.01,0.24,0.02,0.5,0.04,0.59l-0.34-0.2c-0.02-0.07-0.03-0.24-0.04-0.49c0-0.25-0.06-0.35-0.19-0.43l-0.1-0.06l-0.12,0.73
				L349.76,286.56 M347.83,285.1c0.15,0.09,0.25,0.06,0.27-0.06c0.02-0.12-0.04-0.22-0.21-0.41c-0.23-0.25-0.36-0.51-0.32-0.78
				c0.05-0.32,0.3-0.43,0.65-0.23c0.17,0.1,0.28,0.21,0.37,0.31l-0.13,0.29c-0.05-0.07-0.15-0.18-0.3-0.27
				c-0.15-0.08-0.23-0.04-0.25,0.05c-0.02,0.12,0.06,0.22,0.24,0.42c0.24,0.27,0.34,0.51,0.3,0.77c-0.05,0.31-0.29,0.46-0.69,0.22
				c-0.17-0.1-0.33-0.25-0.4-0.36l0.12-0.31C347.55,284.88,347.68,285.01,347.83,285.1 M359.06,288.56l-20.86-12.04
				c-0.91-0.53-1.8-0.03-1.98,1.1c-0.18,1.13,0.41,2.47,1.32,3l20.86,12.04c0.91,0.53,1.8,0.04,1.98-1.09
				C360.57,290.43,359.98,289.09,359.06,288.56"/>
			<path class="st26" d="M342.66,288.89l0.01,0.01l0.49-0.76l0.29,0.42l-0.66,0.55l0,0.01l0.86,0.34l-0.08,0.46l-0.81-0.6l0,0.01
				l0.4,1.13l-0.39,0.05l-0.18-1.15l-0.01-0.01l-0.51,0.76l-0.28-0.43l0.66-0.53l0-0.01l-0.84-0.34l0.08-0.46l0.79,0.6l0-0.01
				l-0.38-1.13l0.38-0.05L342.66,288.89 M345.85,290.73l0.01,0.01l0.49-0.76l0.29,0.42l-0.66,0.55l0,0.01l0.86,0.34l-0.08,0.46
				l-0.81-0.6l0,0.01l0.4,1.13l-0.39,0.05l-0.18-1.15l-0.01-0.01l-0.51,0.76l-0.28-0.43l0.66-0.53l0-0.01l-0.84-0.34l0.08-0.46
				l0.79,0.6l0-0.01l-0.38-1.13l0.38-0.05L345.85,290.73 M349.04,292.57l0.01,0.01l0.49-0.76l0.29,0.42l-0.66,0.55l0,0.01l0.86,0.34
				l-0.08,0.46l-0.81-0.6l0,0.01l0.4,1.13l-0.39,0.05l-0.18-1.15l-0.01-0.01l-0.51,0.76l-0.28-0.43l0.66-0.53l0-0.01l-0.84-0.34
				l0.08-0.46l0.79,0.6l0-0.01l-0.38-1.13l0.38-0.05L349.04,292.57 M352.23,294.41l0.01,0.01l0.49-0.76l0.29,0.42l-0.66,0.55l0,0.01
				l0.86,0.34l-0.08,0.46l-0.81-0.6l0,0.01l0.4,1.13l-0.39,0.05l-0.18-1.15l-0.01-0.01l-0.51,0.76l-0.28-0.43l0.66-0.53l0-0.01
				l-0.84-0.34l0.08-0.46l0.79,0.6l0-0.01l-0.38-1.13l0.38-0.05L352.23,294.41 M357.91,295.71l-20.86-12.04
				c-0.91-0.53-1.8-0.04-1.98,1.09c-0.18,1.13,0.41,2.48,1.32,3l20.86,12.04c0.91,0.53,1.8,0.04,1.98-1.1
				S358.82,296.24,357.91,295.71"/>
			<polyline class="st34" points="343.16,288.13 342.67,288.89 342.66,288.89 342.47,287.74 342.09,287.78 342.48,288.92 
				342.47,288.93 341.69,288.33 341.61,288.8 342.45,289.14 342.45,289.15 341.79,289.69 342.06,290.11 342.58,289.35 
				342.59,289.36 342.76,290.51 343.15,290.47 342.75,289.34 342.76,289.33 343.57,289.93 343.64,289.46 342.79,289.12 
				342.79,289.11 343.45,288.55 343.16,288.13 			"/>
			<polyline class="st34" points="346.35,289.97 345.86,290.73 345.85,290.73 345.66,289.58 345.28,289.62 345.67,290.76 
				345.66,290.77 344.88,290.17 344.8,290.64 345.64,290.98 345.64,290.99 344.98,291.53 345.25,291.95 345.77,291.2 345.78,291.2 
				345.95,292.35 346.34,292.31 345.94,291.18 345.95,291.17 346.76,291.77 346.83,291.31 345.98,290.96 345.98,290.95 
				346.64,290.39 346.35,289.97 			"/>
			<polyline class="st34" points="349.54,291.81 349.05,292.58 349.04,292.57 348.85,291.42 348.47,291.47 348.86,292.6 
				348.86,292.62 348.07,292.02 347.99,292.48 348.83,292.82 348.83,292.84 348.17,293.37 348.44,293.8 348.96,293.04 
				348.97,293.04 349.14,294.2 349.53,294.15 349.13,293.02 349.14,293.01 349.95,293.61 350.02,293.15 349.17,292.8 349.17,292.79 
				349.83,292.24 349.54,291.81 			"/>
			<polyline class="st34" points="352.73,293.65 352.24,294.42 352.23,294.41 352.04,293.26 351.66,293.31 352.05,294.44 
				352.05,294.46 351.26,293.86 351.18,294.32 352.02,294.67 352.02,294.68 351.36,295.21 351.63,295.64 352.15,294.88 
				352.16,294.89 352.33,296.04 352.72,295.99 352.32,294.86 352.33,294.85 353.14,295.45 353.21,294.99 352.36,294.64 
				352.36,294.63 353.02,294.08 352.73,293.65 			"/>
			<path class="st34" d="M347.4,283.17l-0.34-0.19l-0.17,1.06c-0.05,0.33-0.17,0.42-0.35,0.32c-0.17-0.1-0.24-0.32-0.19-0.63
				l0.17-1.06l-0.34-0.19l-0.17,1.03c-0.1,0.59,0.08,0.97,0.46,1.19c0.39,0.23,0.66,0.09,0.76-0.48L347.4,283.17"/>
			<path class="st34" d="M348.22,283.62c-0.35-0.2-0.6-0.08-0.65,0.23c-0.04,0.27,0.09,0.53,0.32,0.78
				c0.17,0.18,0.23,0.29,0.21,0.41c-0.02,0.12-0.11,0.15-0.27,0.06c-0.14-0.08-0.27-0.22-0.35-0.33l-0.12,0.31
				c0.07,0.11,0.23,0.26,0.4,0.36c0.41,0.24,0.64,0.08,0.69-0.22c0.04-0.26-0.05-0.5-0.3-0.77c-0.18-0.2-0.25-0.3-0.24-0.42
				c0.02-0.09,0.1-0.14,0.25-0.05c0.15,0.08,0.24,0.2,0.3,0.27l0.13-0.29C348.5,283.83,348.39,283.71,348.22,283.62"/>
			<polyline class="st34" points="349.8,284.56 348.88,284.03 348.59,285.88 349.53,286.42 349.59,286.08 348.98,285.73 
				349.05,285.29 349.6,285.61 349.65,285.27 349.1,284.95 349.16,284.57 349.75,284.9 349.8,284.56 			"/>
			<path class="st34" d="M350.26,285.72l0.08-0.51c0.03,0.01,0.07,0.03,0.16,0.07c0.15,0.09,0.23,0.23,0.2,0.4
				c-0.03,0.16-0.14,0.21-0.31,0.11L350.26,285.72 M350.51,284.96c-0.18-0.1-0.34-0.18-0.46-0.22l-0.29,1.82l0.33,0.19l0.12-0.73
				l0.1,0.06c0.14,0.08,0.19,0.18,0.19,0.43c0.01,0.25,0.02,0.43,0.04,0.49l0.34,0.2c-0.02-0.09-0.02-0.36-0.04-0.59
				c-0.01-0.19-0.05-0.35-0.14-0.46l0-0.01c0.14,0.02,0.3-0.07,0.34-0.3c0.03-0.17,0-0.33-0.08-0.47
				C350.88,285.21,350.73,285.08,350.51,284.96"/>
			<path class="st25" d="M315.16,245.05c-0.35-0.2-0.69-0.01-0.76,0.42c-0.07,0.44,0.16,0.95,0.51,1.16
				c0.35,0.2,0.69,0.01,0.76-0.42C315.73,245.77,315.51,245.25,315.16,245.05"/>
			<path class="st25" d="M317.05,246.14c-0.35-0.2-0.69-0.01-0.76,0.42c-0.07,0.44,0.16,0.95,0.51,1.16
				c0.35,0.2,0.69,0.01,0.76-0.42C317.63,246.86,317.4,246.35,317.05,246.14"/>
			<path class="st25" d="M318.94,247.24c-0.35-0.2-0.69-0.01-0.76,0.42c-0.07,0.44,0.16,0.95,0.51,1.16
				c0.35,0.2,0.69,0.01,0.76-0.42C319.52,247.96,319.3,247.44,318.94,247.24"/>
		</g>
		<g>
			<g>
				<g>
					<g>
						<g>
							<path class="st35" d="M283.83,326.92c0,0,4.63,1.52,9.87-4.28c0,0,2.64-3.32,4.77-4.21c2.14-0.9,2.74-1.99,1.4-2.99
								c-1.34-1-3.77,0.39-4.44,0.62c-0.68,0.23-1.16-1.3,0.67-1.36c1.82-0.07,3.43-0.41,1.77-2.17c-1.67-1.76-3.88-1.95-5.41-0.97
								c-1.54,0.98-2.53,1.13-2.29,0.35c0.25-0.78,2.69-1.61,4.74-1.28c2.05,0.33-0.16-4.11-5.16-3.28c0,0,2.3-3.96-3.47-1.66
								c-4.1,1.64-5.12,2.11-6.81,3.63c-2.06,1.85-7.27,4.24-5.81,8.49C275.12,322.05,283.83,326.92,283.83,326.92z"/>
							<path class="st36" d="M279.11,331.09l5.19-3.65c0,0-1.96-9.7-11.22-11.55l-3.13,1.84L279.11,331.09z"/>
						</g>
						<g>
							
								<linearGradient id="SVGID_22_" gradientUnits="userSpaceOnUse" x1="274.774" y1="372.9434" x2="269.1129" y2="383.5262" gradientTransform="matrix(0.972 0.2349 -0.2349 0.972 100.3918 -107.2604)">
								<stop  offset="0" style="stop-color:#4BC8EE"/>
								<stop  offset="0.1072" style="stop-color:#4197BD"/>
								<stop  offset="0.2332" style="stop-color:#367096"/>
								<stop  offset="0.3615" style="stop-color:#2C537A"/>
								<stop  offset="0.4896" style="stop-color:#233D66"/>
								<stop  offset="0.6175" style="stop-color:#1D2C58"/>
								<stop  offset="0.7452" style="stop-color:#18204F"/>
								<stop  offset="0.8727" style="stop-color:#161849"/>
								<stop  offset="1" style="stop-color:#151548"/>
							</linearGradient>
							<path class="st37" d="M269.41,317.95l5.23-2.4c0,0,8.21,5.14,10.59,11.79l-6.62,5.05L269.41,317.95z"/>
							
								<linearGradient id="SVGID_23_" gradientUnits="userSpaceOnUse" x1="272.9215" y1="383.9378" x2="199.3473" y2="377.4934" gradientTransform="matrix(0.972 0.2349 -0.2349 0.972 100.3918 -107.2604)">
								<stop  offset="0" style="stop-color:#4BC8EE"/>
								<stop  offset="0.1072" style="stop-color:#4197BD"/>
								<stop  offset="0.2332" style="stop-color:#367096"/>
								<stop  offset="0.3615" style="stop-color:#2C537A"/>
								<stop  offset="0.4896" style="stop-color:#233D66"/>
								<stop  offset="0.6175" style="stop-color:#1D2C58"/>
								<stop  offset="0.7452" style="stop-color:#18204F"/>
								<stop  offset="0.8727" style="stop-color:#161849"/>
								<stop  offset="1" style="stop-color:#151548"/>
							</linearGradient>
							<path class="st38" d="M281.39,332.35l-28.42,17.33c-0.07,0.04-0.14,0.09-0.22,0.13l-0.3,0.18
								c-6.69,3.99-11.3,3.57-13.67,2.83c-0.59-0.25-1.21-0.54-1.85-0.86c-4.05-2.07-8.83-5.76-12.3-12.28
								c-7.28-13.69-11.83-33.98-12.28-46.81c0,0-1.64-21.96,12.39-14.82c14.03,7.13,18.54,47.64,22.6,48.62
								c2.65,0.64,22.45-10.28,22.45-10.28S279.75,321.57,281.39,332.35z"/>
						</g>
					</g>
					<g>
						<path class="st35" d="M252.37,264.58c0,0,0,0-1.85,2.89c-0.53,5.28-2.51,10.15-7.65,10.81c-0.59,0.07-1.11,0.22-1.59,0.41
							c-0.36,0.14-0.69,0.31-0.99,0.5c-2.8,1.79-3.22,5.42-3.22,5.42l-0.93,6.33l-23.59-9.89c1.39-3.43,0.38-9.9-0.83-15.81
							c-0.97-4.77-2.09-9.17-2.21-11.35c-0.26-4.87,6.72-15.16,21.09-18.72c14.37-3.55,20.56,4.22,21.75,9.62
							c1.19,5.41-0.79,11.86-1.32,13.05C250.52,259.04,252.37,264.58,252.37,264.58z"/>
						<path class="st39" d="M241.29,278.69c-0.36,0.14-0.69,0.31-0.99,0.5c-2.8,1.79-3.22,5.42-3.22,5.42l-0.93,6.33l-4.54-14.33
							C237.72,278.37,241.29,278.69,241.29,278.69z"/>
						<path class="st40" d="M244.49,249.85c0,0,18.45-1.81,11.96-24.68c0,0-3.86,3.23-20.46,2.44
							c-16.61-0.79-31.54,9.75-30.55,24.58c0.49,6.82,5.63,16.34,5.93,20l0.4,2.67c0,0,9.79,2.67,13.74,0
							c3.95-2.67,7.18-9.59,7.18-9.59s1.57-4.28,4.38-4.25c3.3,0.03,4.45,3.39,4.05,6.43l1.29-0.1c0,0,0.49-4.45,2.27-7.41
							C246.47,256.97,245.68,250.64,244.49,249.85z"/>
						<path class="st36" d="M238.81,297.6c0,0,0.58-7.61-9.8-12.06c-10.16-4.35-13.69-6.32-20.92-3.45l-2.7,1.55l33.43,14.56
							L238.81,297.6z"/>
					</g>
					
						<linearGradient id="SVGID_24_" gradientUnits="userSpaceOnUse" x1="1677.5745" y1="288.8409" x2="1672.8154" y2="297.7025" gradientTransform="matrix(1 0 0 1 -1450.7406 0)">
						<stop  offset="0" style="stop-color:#64C4F0"/>
						<stop  offset="0.0254" style="stop-color:#5EB4DD"/>
						<stop  offset="0.1294" style="stop-color:#4C87AF"/>
						<stop  offset="0.2381" style="stop-color:#3C648D"/>
						<stop  offset="0.3491" style="stop-color:#2F4B74"/>
						<stop  offset="0.4633" style="stop-color:#253862"/>
						<stop  offset="0.5816" style="stop-color:#1E2956"/>
						<stop  offset="0.7057" style="stop-color:#191E4E"/>
						<stop  offset="0.8394" style="stop-color:#161749"/>
						<stop  offset="1" style="stop-color:#151548"/>
					</linearGradient>
					<path class="st41" d="M246.22,303.84c0,0-18.26-19.9-42.63-21.21l-2.62,3.3l8.56,14.5
						C209.52,300.43,238.88,306.99,246.22,303.84z"/>
					
						<linearGradient id="SVGID_25_" gradientUnits="userSpaceOnUse" x1="1637.2595" y1="351.1902" x2="1708.328" y2="351.1902" gradientTransform="matrix(1 0 0 1 -1450.7406 0)">
						<stop  offset="0" style="stop-color:#151548"/>
						<stop  offset="0.3583" style="stop-color:#161649"/>
						<stop  offset="0.496" style="stop-color:#171B4C"/>
						<stop  offset="0.5957" style="stop-color:#1B2351"/>
						<stop  offset="0.6771" style="stop-color:#202E5A"/>
						<stop  offset="0.7473" style="stop-color:#273B65"/>
						<stop  offset="0.8098" style="stop-color:#304C75"/>
						<stop  offset="0.8666" style="stop-color:#3B628A"/>
						<stop  offset="0.919" style="stop-color:#487DA5"/>
						<stop  offset="0.9658" style="stop-color:#56A0C8"/>
						<stop  offset="1" style="stop-color:#64C4F0"/>
					</linearGradient>
					<path class="st42" d="M203.58,282.63c0,0-13.83-2.5-16.46,23.07c-2.64,25.57,4.48,46.13,0.79,67.22
						c-3.69,21.09-0.26,31.9,20.56,41.39c18.5,8.43,35.83,6.99,44.27-3.03c8.44-10.02,3.18-60.76,3.71-73.95
						c0.53-13.18,1.32-27.94-7.64-31.9C239.84,301.48,208.6,290.94,203.58,282.63"/>
					<g>
						<g>
							<path class="st35" d="M316.82,346.14c0,0,4.83,0.67,8.96-5.96c0,0,2.01-3.73,3.96-4.99c1.95-1.26,2.35-2.45,0.85-3.19
								c-1.5-0.75-3.64,1.05-4.26,1.4c-0.63,0.35-1.37-1.07,0.42-1.46c1.78-0.39,3.31-1.01,1.36-2.45c-1.95-1.44-4.16-1.24-5.5,0
								c-1.34,1.24-2.29,1.56-2.19,0.75c0.1-0.82,2.36-2.06,4.44-2.1c2.07-0.04-0.88-4.01-5.66-2.32c0,0,1.57-4.31-3.71-1.02
								c-3.75,2.34-4.67,2.98-6.06,4.78c-1.7,2.19-6.4,5.45-4.22,9.38C307.39,342.88,316.82,346.14,316.82,346.14z"/>
							<path class="st36" d="M312.91,351.08l4.46-4.5c0,0-3.65-9.2-13.08-9.39l-2.76,2.36L312.91,351.08z"/>
						</g>
						<g>
							
								<linearGradient id="SVGID_26_" gradientUnits="userSpaceOnUse" x1="306.9493" y1="357.0233" x2="301.288" y2="367.6063" gradientTransform="matrix(0.9982 0.0596 -0.0596 0.9982 26.5369 -34.8576)">
								<stop  offset="0" style="stop-color:#4BC8EE"/>
								<stop  offset="0.1072" style="stop-color:#4197BD"/>
								<stop  offset="0.2332" style="stop-color:#367096"/>
								<stop  offset="0.3615" style="stop-color:#2C537A"/>
								<stop  offset="0.4896" style="stop-color:#233D66"/>
								<stop  offset="0.6175" style="stop-color:#1D2C58"/>
								<stop  offset="0.7452" style="stop-color:#18204F"/>
								<stop  offset="0.8727" style="stop-color:#161849"/>
								<stop  offset="1" style="stop-color:#151548"/>
							</linearGradient>
							<path class="st43" d="M301.04,339.85l4.72-3.28c0,0,8.99,3.61,12.51,9.73l-5.62,6.14L301.04,339.85z"/>
							
								<linearGradient id="SVGID_27_" gradientUnits="userSpaceOnUse" x1="304.8927" y1="366.9605" x2="227.8858" y2="360.2154" gradientTransform="matrix(0.9982 0.0596 -0.0596 0.9982 26.5369 -34.8576)">
								<stop  offset="0" style="stop-color:#4BC8EE"/>
								<stop  offset="0.1072" style="stop-color:#4197BD"/>
								<stop  offset="0.2332" style="stop-color:#367096"/>
								<stop  offset="0.3615" style="stop-color:#2C537A"/>
								<stop  offset="0.4896" style="stop-color:#233D66"/>
								<stop  offset="0.6175" style="stop-color:#1D2C58"/>
								<stop  offset="0.7452" style="stop-color:#18204F"/>
								<stop  offset="0.8727" style="stop-color:#161849"/>
								<stop  offset="1" style="stop-color:#151548"/>
							</linearGradient>
							<path class="st44" d="M315.37,351.91l-24.92,22.07c-0.06,0.05-0.13,0.11-0.19,0.17l-0.26,0.23c-5.88,5.1-10.5,5.51-12.96,5.2
								c-0.63-0.14-1.29-0.31-1.97-0.52c-4.35-1.33-9.71-4.11-14.27-9.92c-9.58-12.19-22.5-33.85-25.21-46.4
								c0,0-2.38-21.18,12.69-16.63c15.07,4.55,28.41,45.97,32.57,46.22c2.72,0.16,20.28-14.08,20.28-14.08
								S311.86,341.59,315.37,351.91z"/>
						</g>
					</g>
				</g>
			</g>
			<g>
				<g>
					<g>
						<linearGradient id="SVGID_28_" gradientUnits="userSpaceOnUse" x1="225.2057" y1="530.4835" x2="219.27" y2="545.7726">
							<stop  offset="0" style="stop-color:#151548"/>
							<stop  offset="0.2465" style="stop-color:#161649"/>
							<stop  offset="0.3849" style="stop-color:#171C4C"/>
							<stop  offset="0.4964" style="stop-color:#1A2552"/>
							<stop  offset="0.5937" style="stop-color:#1F315C"/>
							<stop  offset="0.6817" style="stop-color:#244069"/>
							<stop  offset="0.763" style="stop-color:#2C537A"/>
							<stop  offset="0.8392" style="stop-color:#356B92"/>
							<stop  offset="0.9113" style="stop-color:#3E8BB1"/>
							<stop  offset="0.9777" style="stop-color:#48B3D9"/>
							<stop  offset="1" style="stop-color:#4BC8EE"/>
						</linearGradient>
						<ellipse class="st45" cx="222.42" cy="537.66" rx="8.45" ry="7.91"/>
						<radialGradient id="SVGID_29_" cx="224.8623" cy="537.5829" r="6.6231" gradientUnits="userSpaceOnUse">
							<stop  offset="0" style="stop-color:#4BC8EE"/>
							<stop  offset="0.1373" style="stop-color:#44A2C8"/>
							<stop  offset="0.5665" style="stop-color:#2B5179"/>
							<stop  offset="0.8628" style="stop-color:#1B2754"/>
							<stop  offset="1" style="stop-color:#151548"/>
						</radialGradient>
						<path class="st46" d="M230.87,537.58c0,3.97-2.69,7.18-6.01,7.18c-3.32,0-6.01-3.22-6.01-7.18c0-3.97,2.69-7.18,6.01-7.18
							C228.18,530.4,230.87,533.62,230.87,537.58z"/>
						<path class="st47" d="M219.81,527.8c0,0-6.66,1.5-6.48,9.68l6.48,3.69c0,0,0.18-8.36,7.28-9.98c0,0,1.98,0.81,2.88,3.69
							l0.45-1.26C230.42,533.61,227.82,526.75,219.81,527.8z"/>
					</g>
					<linearGradient id="SVGID_30_" gradientUnits="userSpaceOnUse" x1="220.3954" y1="527.7684" x2="224.0229" y2="527.7684">
						<stop  offset="0" style="stop-color:#4BC8EE"/>
						<stop  offset="0.2168" style="stop-color:#3D85AC"/>
						<stop  offset="0.4247" style="stop-color:#2F5A81"/>
						<stop  offset="0.6127" style="stop-color:#233D66"/>
						<stop  offset="0.7772" style="stop-color:#1B2855"/>
						<stop  offset="0.9119" style="stop-color:#171A4B"/>
						<stop  offset="1" style="stop-color:#151548"/>
					</linearGradient>
					<path class="st48" d="M222.21,530.42L222.21,530.42c-1,0-1.81-0.81-1.81-1.81v-1.67c0-1,0.81-1.81,1.81-1.81h0
						c1,0,1.81,0.81,1.81,1.81v1.67C224.02,529.6,223.21,530.42,222.21,530.42z"/>
				</g>
				<g>
					<g>
						<linearGradient id="SVGID_31_" gradientUnits="userSpaceOnUse" x1="303.7069" y1="506.2403" x2="297.7711" y2="521.5295">
							<stop  offset="0" style="stop-color:#151548"/>
							<stop  offset="0.2465" style="stop-color:#161649"/>
							<stop  offset="0.3849" style="stop-color:#171C4C"/>
							<stop  offset="0.4964" style="stop-color:#1A2552"/>
							<stop  offset="0.5937" style="stop-color:#1F315C"/>
							<stop  offset="0.6817" style="stop-color:#244069"/>
							<stop  offset="0.763" style="stop-color:#2C537A"/>
							<stop  offset="0.8392" style="stop-color:#356B92"/>
							<stop  offset="0.9113" style="stop-color:#3E8BB1"/>
							<stop  offset="0.9777" style="stop-color:#48B3D9"/>
							<stop  offset="1" style="stop-color:#4BC8EE"/>
						</linearGradient>
						<ellipse class="st49" cx="300.92" cy="513.42" rx="8.45" ry="7.91"/>
						<radialGradient id="SVGID_32_" cx="303.3635" cy="513.3397" r="6.6231" gradientUnits="userSpaceOnUse">
							<stop  offset="0" style="stop-color:#4BC8EE"/>
							<stop  offset="0.1373" style="stop-color:#44A2C8"/>
							<stop  offset="0.5665" style="stop-color:#2B5179"/>
							<stop  offset="0.8628" style="stop-color:#1B2754"/>
							<stop  offset="1" style="stop-color:#151548"/>
						</radialGradient>
						<path class="st50" d="M309.37,513.34c0,3.97-2.69,7.18-6.01,7.18c-3.32,0-6.01-3.22-6.01-7.18c0-3.97,2.69-7.18,6.01-7.18
							C306.68,506.16,309.37,509.37,309.37,513.34z"/>
						<path class="st47" d="M298.31,503.56c0,0-6.66,1.5-6.48,9.68l6.48,3.69c0,0,0.18-8.36,7.28-9.98c0,0,1.98,0.81,2.88,3.69
							l0.45-1.26C308.92,509.37,306.32,502.51,298.31,503.56z"/>
					</g>
					<linearGradient id="SVGID_33_" gradientUnits="userSpaceOnUse" x1="298.8966" y1="503.5252" x2="302.524" y2="503.5252">
						<stop  offset="0" style="stop-color:#4BC8EE"/>
						<stop  offset="0.2168" style="stop-color:#3D85AC"/>
						<stop  offset="0.4247" style="stop-color:#2F5A81"/>
						<stop  offset="0.6127" style="stop-color:#233D66"/>
						<stop  offset="0.7772" style="stop-color:#1B2855"/>
						<stop  offset="0.9119" style="stop-color:#171A4B"/>
						<stop  offset="1" style="stop-color:#151548"/>
					</linearGradient>
					<path class="st51" d="M300.71,506.17L300.71,506.17c-1,0-1.81-0.81-1.81-1.81v-1.67c0-1,0.81-1.81,1.81-1.81l0,0
						c1,0,1.81,0.81,1.81,1.81v1.67C302.52,505.36,301.71,506.17,300.71,506.17z"/>
				</g>
				<g>
					<g>
						<linearGradient id="SVGID_34_" gradientUnits="userSpaceOnUse" x1="289.9218" y1="455.648" x2="283.9861" y2="470.9372">
							<stop  offset="0" style="stop-color:#151548"/>
							<stop  offset="0.2465" style="stop-color:#161649"/>
							<stop  offset="0.3849" style="stop-color:#171C4C"/>
							<stop  offset="0.4964" style="stop-color:#1A2552"/>
							<stop  offset="0.5937" style="stop-color:#1F315C"/>
							<stop  offset="0.6817" style="stop-color:#244069"/>
							<stop  offset="0.763" style="stop-color:#2C537A"/>
							<stop  offset="0.8392" style="stop-color:#356B92"/>
							<stop  offset="0.9113" style="stop-color:#3E8BB1"/>
							<stop  offset="0.9777" style="stop-color:#48B3D9"/>
							<stop  offset="1" style="stop-color:#4BC8EE"/>
						</linearGradient>
						<ellipse class="st52" cx="287.14" cy="462.83" rx="8.45" ry="7.91"/>
						<radialGradient id="SVGID_35_" cx="289.5784" cy="462.7474" r="6.6231" gradientUnits="userSpaceOnUse">
							<stop  offset="0" style="stop-color:#4BC8EE"/>
							<stop  offset="0.1373" style="stop-color:#44A2C8"/>
							<stop  offset="0.5665" style="stop-color:#2B5179"/>
							<stop  offset="0.8628" style="stop-color:#1B2754"/>
							<stop  offset="1" style="stop-color:#151548"/>
						</radialGradient>
						<path class="st53" d="M295.59,462.75c0,3.97-2.69,7.18-6.01,7.18c-3.32,0-6.01-3.22-6.01-7.18c0-3.97,2.69-7.18,6.01-7.18
							C292.9,455.56,295.59,458.78,295.59,462.75z"/>
						<path class="st47" d="M284.53,452.96c0,0-6.66,1.5-6.48,9.68l6.48,3.69c0,0,0.18-8.36,7.28-9.98c0,0,1.98,0.81,2.88,3.69
							l0.45-1.26C295.14,458.78,292.53,451.91,284.53,452.96z"/>
					</g>
					<linearGradient id="SVGID_36_" gradientUnits="userSpaceOnUse" x1="285.1115" y1="452.9329" x2="288.739" y2="452.9329">
						<stop  offset="0" style="stop-color:#4BC8EE"/>
						<stop  offset="0.2168" style="stop-color:#3D85AC"/>
						<stop  offset="0.4247" style="stop-color:#2F5A81"/>
						<stop  offset="0.6127" style="stop-color:#233D66"/>
						<stop  offset="0.7772" style="stop-color:#1B2855"/>
						<stop  offset="0.9119" style="stop-color:#171A4B"/>
						<stop  offset="1" style="stop-color:#151548"/>
					</linearGradient>
					<path class="st54" d="M286.93,455.58L286.93,455.58c-1,0-1.81-0.81-1.81-1.81v-1.67c0-1,0.81-1.81,1.81-1.81l0,0
						c1,0,1.81,0.81,1.81,1.81v1.67C288.74,454.77,287.93,455.58,286.93,455.58z"/>
				</g>
				<g>
					<g>
						<linearGradient id="SVGID_37_" gradientUnits="userSpaceOnUse" x1="204.1007" y1="450.7943" x2="198.1649" y2="466.0835">
							<stop  offset="0" style="stop-color:#151548"/>
							<stop  offset="0.2465" style="stop-color:#161649"/>
							<stop  offset="0.3849" style="stop-color:#171C4C"/>
							<stop  offset="0.4964" style="stop-color:#1A2552"/>
							<stop  offset="0.5937" style="stop-color:#1F315C"/>
							<stop  offset="0.6817" style="stop-color:#244069"/>
							<stop  offset="0.763" style="stop-color:#2C537A"/>
							<stop  offset="0.8392" style="stop-color:#356B92"/>
							<stop  offset="0.9113" style="stop-color:#3E8BB1"/>
							<stop  offset="0.9777" style="stop-color:#48B3D9"/>
							<stop  offset="1" style="stop-color:#4BC8EE"/>
						</linearGradient>
						<ellipse class="st55" cx="201.31" cy="457.97" rx="8.45" ry="7.91"/>
						<radialGradient id="SVGID_38_" cx="203.7572" cy="457.8937" r="6.6231" gradientUnits="userSpaceOnUse">
							<stop  offset="0" style="stop-color:#4BC8EE"/>
							<stop  offset="0.1373" style="stop-color:#44A2C8"/>
							<stop  offset="0.5665" style="stop-color:#2B5179"/>
							<stop  offset="0.8628" style="stop-color:#1B2754"/>
							<stop  offset="1" style="stop-color:#151548"/>
						</radialGradient>
						<path class="st56" d="M209.77,457.89c0,3.97-2.69,7.18-6.01,7.18s-6.01-3.22-6.01-7.18c0-3.97,2.69-7.18,6.01-7.18
							S209.77,453.93,209.77,457.89z"/>
						<path class="st47" d="M198.71,448.11c0,0-6.66,1.5-6.48,9.68l6.48,3.69c0,0,0.18-8.36,7.28-9.98c0,0,1.98,0.81,2.88,3.69
							l0.45-1.26C209.32,453.93,206.71,447.06,198.71,448.11z"/>
					</g>
					<linearGradient id="SVGID_39_" gradientUnits="userSpaceOnUse" x1="199.2905" y1="448.0793" x2="202.9178" y2="448.0793">
						<stop  offset="0" style="stop-color:#4BC8EE"/>
						<stop  offset="0.2168" style="stop-color:#3D85AC"/>
						<stop  offset="0.4247" style="stop-color:#2F5A81"/>
						<stop  offset="0.6127" style="stop-color:#233D66"/>
						<stop  offset="0.7772" style="stop-color:#1B2855"/>
						<stop  offset="0.9119" style="stop-color:#171A4B"/>
						<stop  offset="1" style="stop-color:#151548"/>
					</linearGradient>
					<path class="st57" d="M201.1,450.73L201.1,450.73c-1,0-1.81-0.81-1.81-1.81v-1.67c0-1,0.81-1.81,1.81-1.81l0,0
						c1,0,1.81,0.81,1.81,1.81v1.67C202.92,449.91,202.11,450.73,201.1,450.73z"/>
				</g>
				<g>
					<g>
						<linearGradient id="SVGID_40_" gradientUnits="userSpaceOnUse" x1="167.0038" y1="491.0806" x2="161.068" y2="506.3698">
							<stop  offset="0" style="stop-color:#151548"/>
							<stop  offset="0.2465" style="stop-color:#161649"/>
							<stop  offset="0.3849" style="stop-color:#171C4C"/>
							<stop  offset="0.4964" style="stop-color:#1A2552"/>
							<stop  offset="0.5937" style="stop-color:#1F315C"/>
							<stop  offset="0.6817" style="stop-color:#244069"/>
							<stop  offset="0.763" style="stop-color:#2C537A"/>
							<stop  offset="0.8392" style="stop-color:#356B92"/>
							<stop  offset="0.9113" style="stop-color:#3E8BB1"/>
							<stop  offset="0.9777" style="stop-color:#48B3D9"/>
							<stop  offset="1" style="stop-color:#4BC8EE"/>
						</linearGradient>
						<ellipse class="st58" cx="164.22" cy="498.26" rx="8.45" ry="7.91"/>
						<radialGradient id="SVGID_41_" cx="166.6604" cy="498.1801" r="6.6231" gradientUnits="userSpaceOnUse">
							<stop  offset="0" style="stop-color:#4BC8EE"/>
							<stop  offset="0.1373" style="stop-color:#44A2C8"/>
							<stop  offset="0.5665" style="stop-color:#2B5179"/>
							<stop  offset="0.8628" style="stop-color:#1B2754"/>
							<stop  offset="1" style="stop-color:#151548"/>
						</radialGradient>
						<path class="st59" d="M172.67,498.18c0,3.97-2.69,7.18-6.01,7.18c-3.32,0-6.01-3.22-6.01-7.18c0-3.97,2.69-7.18,6.01-7.18
							C169.98,491,172.67,494.21,172.67,498.18z"/>
						<path class="st47" d="M161.61,488.4c0,0-6.66,1.5-6.48,9.68l6.48,3.69c0,0,0.18-8.36,7.28-9.98c0,0,1.98,0.81,2.88,3.69
							l0.45-1.26C172.22,494.21,169.61,487.35,161.61,488.4z"/>
					</g>
					<linearGradient id="SVGID_42_" gradientUnits="userSpaceOnUse" x1="162.1935" y1="488.3655" x2="165.821" y2="488.3655">
						<stop  offset="0" style="stop-color:#4BC8EE"/>
						<stop  offset="0.2168" style="stop-color:#3D85AC"/>
						<stop  offset="0.4247" style="stop-color:#2F5A81"/>
						<stop  offset="0.6127" style="stop-color:#233D66"/>
						<stop  offset="0.7772" style="stop-color:#1B2855"/>
						<stop  offset="0.9119" style="stop-color:#171A4B"/>
						<stop  offset="1" style="stop-color:#151548"/>
					</linearGradient>
					<path class="st60" d="M164.01,491.01L164.01,491.01c-1,0-1.81-0.81-1.81-1.81v-1.67c0-1,0.81-1.81,1.81-1.81l0,0
						c1,0,1.81,0.81,1.81,1.81v1.67C165.82,490.2,165.01,491.01,164.01,491.01z"/>
				</g>
				<linearGradient id="SVGID_43_" gradientUnits="userSpaceOnUse" x1="204.6911" y1="460.5128" x2="225.327" y2="460.5128">
					<stop  offset="0" style="stop-color:#4BC8EE"/>
					<stop  offset="0.1042" style="stop-color:#48B3D9"/>
					<stop  offset="0.3124" style="stop-color:#3E8CB3"/>
					<stop  offset="0.6052" style="stop-color:#2E5880"/>
					<stop  offset="0.9684" style="stop-color:#171B4C"/>
					<stop  offset="1" style="stop-color:#151548"/>
				</linearGradient>
				<polygon class="st61" points="206.68,450.78 204.69,453.13 220.53,470.24 225.33,468.23 				"/>
				<polygon class="st62" points="223.42,467.3 206.68,450.78 209.74,449.64 236.37,462.22 				"/>
				<g>
					<polygon class="st62" points="239.48,475.79 225.33,524.71 219.09,523.51 227.25,474.83 161.29,486.34 161.29,482.98 
						221.97,467.87 284.33,443.41 290.56,447.73 245.71,470.03 305.19,495.21 302.31,498.57 					"/>
					<linearGradient id="SVGID_44_" gradientUnits="userSpaceOnUse" x1="225.327" y1="501.7769" x2="239.4848" y2="501.7769">
						<stop  offset="0" style="stop-color:#151548"/>
						<stop  offset="0.0315" style="stop-color:#181E4E"/>
						<stop  offset="0.1862" style="stop-color:#25436B"/>
						<stop  offset="0.3399" style="stop-color:#32638A"/>
						<stop  offset="0.4888" style="stop-color:#3C82A8"/>
						<stop  offset="0.6319" style="stop-color:#439DC3"/>
						<stop  offset="0.768" style="stop-color:#48B1D8"/>
						<stop  offset="0.8939" style="stop-color:#4BC0E7"/>
						<stop  offset="1" style="stop-color:#4BC8EE"/>
					</linearGradient>
					<polygon class="st63" points="225.33,524.71 225.33,527.77 239.48,484.06 239.48,475.79 					"/>
					<linearGradient id="SVGID_45_" gradientUnits="userSpaceOnUse" x1="161.2923" y1="482.4106" x2="227.2457" y2="482.4106">
						<stop  offset="0" style="stop-color:#4BC8EE"/>
						<stop  offset="0.1061" style="stop-color:#4BC0E7"/>
						<stop  offset="0.232" style="stop-color:#48B1D8"/>
						<stop  offset="0.3681" style="stop-color:#439DC3"/>
						<stop  offset="0.5112" style="stop-color:#3C82A8"/>
						<stop  offset="0.6601" style="stop-color:#32638A"/>
						<stop  offset="0.8138" style="stop-color:#25436B"/>
						<stop  offset="0.9685" style="stop-color:#181E4E"/>
						<stop  offset="1" style="stop-color:#151548"/>
					</linearGradient>
					<polygon class="st64" points="226.2,481.05 161.29,490 161.29,486.34 227.25,474.83 					"/>
					<linearGradient id="SVGID_46_" gradientUnits="userSpaceOnUse" x1="239.4848" y1="490.4449" x2="302.3723" y2="490.4449">
						<stop  offset="0" style="stop-color:#151548"/>
						<stop  offset="0.0315" style="stop-color:#181E4E"/>
						<stop  offset="0.1862" style="stop-color:#25436B"/>
						<stop  offset="0.3399" style="stop-color:#32638A"/>
						<stop  offset="0.4888" style="stop-color:#3C82A8"/>
						<stop  offset="0.6319" style="stop-color:#439DC3"/>
						<stop  offset="0.768" style="stop-color:#48B1D8"/>
						<stop  offset="0.8939" style="stop-color:#4BC0E7"/>
						<stop  offset="1" style="stop-color:#4BC8EE"/>
					</linearGradient>
					<polygon class="st65" points="239.48,484.06 302.37,505.1 302.31,498.57 239.48,475.79 					"/>
					<linearGradient id="SVGID_47_" gradientUnits="userSpaceOnUse" x1="245.7126" y1="460.1988" x2="290.5608" y2="460.1988">
						<stop  offset="0" style="stop-color:#151548"/>
						<stop  offset="0.0315" style="stop-color:#181E4E"/>
						<stop  offset="0.1862" style="stop-color:#25436B"/>
						<stop  offset="0.3399" style="stop-color:#32638A"/>
						<stop  offset="0.4888" style="stop-color:#3C82A8"/>
						<stop  offset="0.6319" style="stop-color:#439DC3"/>
						<stop  offset="0.768" style="stop-color:#48B1D8"/>
						<stop  offset="0.8939" style="stop-color:#4BC0E7"/>
						<stop  offset="1" style="stop-color:#4BC8EE"/>
					</linearGradient>
					<polygon class="st66" points="251.96,472.67 289.96,452.22 290.56,447.73 245.71,470.03 					"/>
					<polygon class="st67" points="302.37,505.1 305.19,501.78 305.19,495.21 302.31,498.57 					"/>
				</g>
				<linearGradient id="SVGID_48_" gradientUnits="userSpaceOnUse" x1="224.3676" y1="462.2216" x2="241.6355" y2="462.2216">
					<stop  offset="0" style="stop-color:#151548"/>
					<stop  offset="0.0315" style="stop-color:#181E4E"/>
					<stop  offset="0.1862" style="stop-color:#25436B"/>
					<stop  offset="0.3399" style="stop-color:#32638A"/>
					<stop  offset="0.4888" style="stop-color:#3C82A8"/>
					<stop  offset="0.6319" style="stop-color:#439DC3"/>
					<stop  offset="0.768" style="stop-color:#48B1D8"/>
					<stop  offset="0.8939" style="stop-color:#4BC0E7"/>
					<stop  offset="1" style="stop-color:#4BC8EE"/>
				</linearGradient>
				<path class="st68" d="M224.37,454.2v11.99c0,0,6.96,9.11,17.27,0V454.2H224.37z"/>
				<linearGradient id="SVGID_49_" gradientUnits="userSpaceOnUse" x1="232.0466" y1="411.6157" x2="250.0676" y2="408.8835">
					<stop  offset="0" style="stop-color:#151548"/>
					<stop  offset="0.0881" style="stop-color:#171A4B"/>
					<stop  offset="0.2228" style="stop-color:#1B2855"/>
					<stop  offset="0.3873" style="stop-color:#233D66"/>
					<stop  offset="0.5753" style="stop-color:#2F5A81"/>
					<stop  offset="0.7832" style="stop-color:#3D85AC"/>
					<stop  offset="1" style="stop-color:#4BC8EE"/>
				</linearGradient>
				<path class="st69" d="M235.4,459.48l11.99-5.28c0,0-0.48-65.95-14.15-91.14l-4.08,5.43L235.4,459.48z"/>
				<linearGradient id="SVGID_50_" gradientUnits="userSpaceOnUse" x1="199.0839" y1="352.474" x2="197.0565" y2="451.3378">
					<stop  offset="0" style="stop-color:#4BC8EE"/>
					<stop  offset="0.2168" style="stop-color:#3D85AC"/>
					<stop  offset="0.4247" style="stop-color:#2F5A81"/>
					<stop  offset="0.6127" style="stop-color:#233D66"/>
					<stop  offset="0.7772" style="stop-color:#1B2855"/>
					<stop  offset="0.9119" style="stop-color:#171A4B"/>
					<stop  offset="1" style="stop-color:#151548"/>
				</linearGradient>
				<path class="st70" d="M166.81,420.62c0,0,9.59-52.76-9.11-94.01c0,0,24.46,23.81,71.47,41.88c0,0,18.23,42.06,6.24,90.98
					C235.4,459.48,186.95,460.92,166.81,420.62z"/>
				<path class="st71" d="M223.42,467.3"/>
				<polygon class="st67" points="219.09,523.51 219.09,526.69 225.33,527.77 225.33,524.71 				"/>
				<linearGradient id="SVGID_51_" gradientUnits="userSpaceOnUse" x1="197.5455" y1="341.2252" x2="189.0414" y2="356.0151">
					<stop  offset="0" style="stop-color:#4BC8EE"/>
					<stop  offset="0.2168" style="stop-color:#3D85AC"/>
					<stop  offset="0.4247" style="stop-color:#2F5A81"/>
					<stop  offset="0.6127" style="stop-color:#233D66"/>
					<stop  offset="0.7772" style="stop-color:#1B2855"/>
					<stop  offset="0.9119" style="stop-color:#171A4B"/>
					<stop  offset="1" style="stop-color:#151548"/>
				</linearGradient>
				<path class="st72" d="M157.69,326.61l6.96-2.64c0,0,23.74,26.86,68.59,39.09l-4.08,5.43
					C229.16,368.5,184.56,353.23,157.69,326.61z"/>
				<linearGradient id="SVGID_52_" gradientUnits="userSpaceOnUse" x1="275.2067" y1="428.2114" x2="281.5393" y2="440.3289">
					<stop  offset="0" style="stop-color:#4BC8EE"/>
					<stop  offset="0.2168" style="stop-color:#3D85AC"/>
					<stop  offset="0.4247" style="stop-color:#2F5A81"/>
					<stop  offset="0.6127" style="stop-color:#233D66"/>
					<stop  offset="0.7772" style="stop-color:#1B2855"/>
					<stop  offset="0.9119" style="stop-color:#171A4B"/>
					<stop  offset="1" style="stop-color:#151548"/>
				</linearGradient>
				<path class="st73" d="M247.39,454.2c0,0,45.65-19.67,60.36-36.69v-6.24l-60.88,36.45L247.39,454.2z"/>
				<linearGradient id="SVGID_53_" gradientUnits="userSpaceOnUse" x1="246.8739" y1="427.9391" x2="307.7509" y2="427.9391">
					<stop  offset="0" style="stop-color:#151548"/>
					<stop  offset="0.0315" style="stop-color:#181E4E"/>
					<stop  offset="0.1862" style="stop-color:#25436B"/>
					<stop  offset="0.3399" style="stop-color:#32638A"/>
					<stop  offset="0.4888" style="stop-color:#3C82A8"/>
					<stop  offset="0.6319" style="stop-color:#439DC3"/>
					<stop  offset="0.768" style="stop-color:#48B1D8"/>
					<stop  offset="0.8939" style="stop-color:#4BC0E7"/>
					<stop  offset="1" style="stop-color:#4BC8EE"/>
				</linearGradient>
				<path class="st74" d="M246.87,438.36l53.76-32.13c0,0,9.11,3.6,6.72,7.67c-2.4,4.08-41.81,30.7-60.47,35.73V438.36z"/>
				<linearGradient id="SVGID_54_" gradientUnits="userSpaceOnUse" x1="273.0563" y1="423.2495" x2="282.4066" y2="423.2495">
					<stop  offset="0" style="stop-color:#151548"/>
					<stop  offset="0.0881" style="stop-color:#171A4B"/>
					<stop  offset="0.2228" style="stop-color:#1B2855"/>
					<stop  offset="0.3873" style="stop-color:#233D66"/>
					<stop  offset="0.5753" style="stop-color:#2F5A81"/>
					<stop  offset="0.7832" style="stop-color:#3D85AC"/>
					<stop  offset="1" style="stop-color:#4BC8EE"/>
				</linearGradient>
				<polygon class="st75" points="273.06,441.7 273.06,410.55 282.41,404.8 282.41,436.47 				"/>
				<linearGradient id="SVGID_55_" gradientUnits="userSpaceOnUse" x1="244.8553" y1="405.2165" x2="307.7509" y2="405.2165">
					<stop  offset="0" style="stop-color:#4BC8EE"/>
					<stop  offset="0.2168" style="stop-color:#3D85AC"/>
					<stop  offset="0.4247" style="stop-color:#2F5A81"/>
					<stop  offset="0.6127" style="stop-color:#233D66"/>
					<stop  offset="0.7772" style="stop-color:#1B2855"/>
					<stop  offset="0.9119" style="stop-color:#171A4B"/>
					<stop  offset="1" style="stop-color:#151548"/>
				</linearGradient>
				<path class="st76" d="M246.21,427.45l61.54-37.77c0,0-5.44-11.03-17.19-4.8c-11.75,6.24-45.71,27.36-45.71,27.36"/>
				<linearGradient id="SVGID_56_" gradientUnits="userSpaceOnUse" x1="245.7126" y1="407.4804" x2="308.3846" y2="407.4804">
					<stop  offset="0" style="stop-color:#151548"/>
					<stop  offset="0.0881" style="stop-color:#171A4B"/>
					<stop  offset="0.2228" style="stop-color:#1B2855"/>
					<stop  offset="0.3873" style="stop-color:#233D66"/>
					<stop  offset="0.5753" style="stop-color:#2F5A81"/>
					<stop  offset="0.7832" style="stop-color:#3D85AC"/>
					<stop  offset="1" style="stop-color:#4BC8EE"/>
				</linearGradient>
				<polygon class="st77" points="306.29,387.51 245.71,424.24 246.21,427.45 308.38,389.7 				"/>
				<linearGradient id="SVGID_57_" gradientUnits="userSpaceOnUse" x1="271.455" y1="412.4263" x2="271.455" y2="440.4956">
					<stop  offset="0" style="stop-color:#151548"/>
					<stop  offset="0.2643" style="stop-color:#161649"/>
					<stop  offset="0.4047" style="stop-color:#181C4C"/>
					<stop  offset="0.5159" style="stop-color:#1C2553"/>
					<stop  offset="0.6118" style="stop-color:#22315C"/>
					<stop  offset="0.698" style="stop-color:#294069"/>
					<stop  offset="0.777" style="stop-color:#33537B"/>
					<stop  offset="0.8508" style="stop-color:#406B93"/>
					<stop  offset="0.9203" style="stop-color:#4E8CB4"/>
					<stop  offset="0.9841" style="stop-color:#5FB5DE"/>
					<stop  offset="1" style="stop-color:#64C4F0"/>
				</linearGradient>
				<polygon class="st78" points="273.06,441.7 269.85,439.3 269.85,412.94 273.06,410.98 				"/>
			</g>
		</g>
		<g>
			<linearGradient id="SVGID_58_" gradientUnits="userSpaceOnUse" x1="371.6039" y1="417.4756" x2="371.6039" y2="500.813">
				<stop  offset="0" style="stop-color:#4BC8EE"/>
				<stop  offset="0.1523" style="stop-color:#44A0C6"/>
				<stop  offset="0.7428" style="stop-color:#223A64"/>
				<stop  offset="1" style="stop-color:#151548"/>
			</linearGradient>
			<path class="st79" d="M375.3,408.37v106.76l-7.4,4.39V410.86c2.35-0.2,4.67-0.92,6.79-2.13L375.3,408.37z"/>
			<linearGradient id="SVGID_59_" gradientUnits="userSpaceOnUse" x1="364.0836" y1="409.8825" x2="364.0836" y2="517.373">
				<stop  offset="0" style="stop-color:#4BC8EE"/>
				<stop  offset="0.1523" style="stop-color:#44A0C6"/>
				<stop  offset="0.7428" style="stop-color:#223A64"/>
				<stop  offset="1" style="stop-color:#151548"/>
			</linearGradient>
			<path class="st80" d="M367.91,410.86v108.67l-7.64-4.58V409.71C362.7,410.7,365.33,411.08,367.91,410.86z"/>
		</g>
	</g>
</g>
</svg>
