<svg width="601" height="232" viewBox="0 0 601 232" fill="none" xmlns="http://www.w3.org/2000/svg">
<path d="M128.8 114.8C184.2 88.4 222.7 50.9 216 26C204.9 7.2 182.6 0 158.7 0C87.7 0 0.600006 46.3 0.600006 105.3C0.600006 112.9 2.3 121.4 5.3 130.3C21.4 151.4 70.9 142.3 128.8 114.8ZM124.1 198.4C85.2 214 62.9 209 50.6 199.3L50.4 199.2C69.5 218 91.2 231.2 110.3 231.2C143.7 231.2 189.3 191.2 211 129.1C198.7 151.5 172.6 179 124.1 198.4Z" fill="#A0AEC0"/>
<path d="M124.1 198.4C172.6 179 198.7 151.5 210.9 129.1C213.1 122.8 215 116.2 216.7 109.5C206.7 132.7 185 154.6 154.7 172C103.6 201.3 63.8 208.9 39.6 187.6C43 191.6 46.6 195.4 50.4 199.1L50.6 199.2C62.9 209 85.2 214 124.1 198.4ZM135.6 134.7C184.3 111.6 221 76.2 222.8 48.1C221.9 39.4 219.5 32 216 25.9C222.7 50.8 184.2 88.3 128.8 114.7C70.9 142.3 21.4 151.3 5.20001 130.1C7.30001 136.2 10 142.5 13.2 148.8C32.9 170.1 76.9 162.6 135.6 134.7Z" fill="white"/>
<path d="M273.7 86.2C270.7 86.2 267.6 84 264.6 79.5C262.6 76.4 261.6 74 261.6 72.4C261.6 69.6 263.4 67.1 267.1 64.7C270.7 62.4 274.8 61.1 279.1 61.2H350.5C355 61.2 357.3 63.3 357.3 67.4C357.3 72 356 76.5 353.5 80.4C350.9 84.3 348.2 86.3 345.1 86.3H321.9V164.3C321.9 169 320.6 173.3 318.1 177.2C315.5 181.1 312.7 183.1 309.7 183.1C306.7 183.1 303.6 180.9 300.6 176.4C298.6 173.3 297.6 170.9 297.6 169.3V86.3H273.7V86.2ZM384.5 112.1C378.9 112.1 374.1 113.7 370.2 116.8C366.2 120 363.8 124.2 362.9 129.5H404.1C403.9 124.7 401.8 120.2 398.2 117.1C394.4 113.7 389.9 112.1 384.5 112.1ZM362.9 146.9C364.2 152.3 367 156.6 371.3 159.9C375.6 163.2 380.8 164.8 386.8 164.8C391.9 164.8 398 163.1 405.1 159.6C408.4 158 411.4 157.2 414.2 157.2C417.9 157.2 419.8 158.9 419.8 162.2C419.8 165.2 419.1 168.1 417.8 170.8C416.5 173.6 414.8 175.6 412.7 176.8C408.6 179.3 404.2 181.2 399.5 182.4C394.8 183.7 390 184.4 385.1 184.4C376.7 184.4 369.1 182.2 362.2 177.8C355.5 173.6 349.9 167.8 346 160.9C342.2 154.2 340.2 146.6 340.2 138.8C340.2 130.1 342.3 122.1 346.5 115.1C350.7 108 356.2 102.6 362.9 98.7C369.6 94.8 377.3 92.9 385.1 92.9C392.9 92.9 399.9 94.7 406.1 98.3C412.3 101.9 417.1 106.7 420.5 112.7C423.9 118.7 425.6 125.5 425.6 132.4C425.6 135.9 424.6 139.4 422.7 142.3C420.8 145.2 418.7 146.7 416.3 146.7L362.9 146.9ZM457.9 183C452.7 183 448.1 181 444.3 176.9C440.5 173.1 438.5 167.9 438.5 162.5V70.9C438.5 68.4 440.3 66 443.8 63.7C447.2 61.5 451.2 60.3 455.2 60.3C459.5 60.3 461.7 62.3 461.7 66.2V155.2C461.7 156.7 462 157.9 462.7 158.9C463.3 159.9 464.5 160.7 466.1 161.4C468 162.2 468.9 163.8 468.9 166.2C468.9 170.5 467.7 174.3 465.4 177.8C463 181.2 460.5 183 457.9 183ZM493.1 183C490.4 183 487.5 180.8 484.4 176.4C482.5 173.4 481.6 171.2 481.6 169.7V105.3C481.6 102.8 483.4 100.4 486.9 98.1C490.3 95.9 494.3 94.7 498.3 94.7C502.6 94.7 504.8 96.6 504.8 100.6V164.9C504.8 168 504.2 171 503 173.9C501.8 176.8 500.3 179 498.5 180.6C496.7 182.2 494.9 183 493.1 183ZM493.1 83.6C490.1 83.6 486.9 81.2 483.7 76.5C481.5 73.2 480.4 70.6 480.4 68.7C480.4 65.8 482.4 63.1 486.3 60.6C490.1 58.1 494.5 56.8 499 56.8C503.9 56.8 506.3 59 506.3 63.4C506.3 66.8 505.6 70.2 504.3 73.3C503 76.5 501.3 79 499.2 80.8C497.3 82.7 495.2 83.6 493.1 83.6ZM562.6 161.6C567.8 161.6 572.9 160.1 577.3 157.3V118.1C573 115.7 568.2 114.5 562.8 114.5C556.2 114.5 550.6 116.7 546.1 121.2C541.6 125.6 539.4 131.2 539.4 137.8C539.4 144.5 541.6 150.1 546.1 154.7C550.6 159.3 556.1 161.6 562.6 161.6ZM561 183C552.6 183 545 180.9 538.2 176.8C531.6 172.8 526.1 167.2 522.3 160.5C518.5 153.8 516.6 146.2 516.6 138.5C516.6 130 518.8 122.2 523.1 115.2C527.4 108.2 533 102.7 539.9 98.9C546.7 95.1 554.3 93.1 562.1 93.1C568.9 93.1 575.4 94.9 581.8 98.6C585.9 95.9 589.9 94.6 594 94.6C598.3 94.6 600.5 96.6 600.5 100.5V164.9C600.5 168 599.9 171 598.7 173.9C597.5 176.8 596 179 594.2 180.6C592.4 182.2 590.6 183 588.9 183C586.2 183 583.3 180.8 580.2 176.4C579.2 174.9 578.4 173.3 577.8 171.6C576.9 174 575.7 176.2 574 178.2C572.4 180 570.8 181.2 569 181.8C566.5 182.6 563.8 183 561 183ZM154.7 172C185 154.6 206.7 132.8 216.7 109.5C221 91.9 223.2 73.9 223.2 55.7C223.2 53 223.1 50.5 222.8 48.1C221 76.2 184.2 111.6 135.6 134.7C76.9 162.6 32.9 170.1 13.2 148.8C20 162.1 29.2 175.6 39.5 187.6C63.8 208.8 103.6 201.2 154.7 172Z" fill="#A0AEC0"/>
</svg>
