<svg fill="none" height="232" viewBox="0 0 601 232" width="601" xmlns="http://www.w3.org/2000/svg"><path d="m128.8 114.8c55.4-26.4 93.9-63.9 87.2-88.8-11.1-18.8-33.4-26-57.3-26-71 0-158.099994 46.3-158.099994 105.3 0 7.6 1.699994 16.1 4.699994 25 16.1 21.1 65.6 12 123.5-15.5zm-4.7 83.6c-38.9 15.6-61.2 10.6-73.5.9l-.2-.1c19.1 18.8 40.8 32 59.9 32 33.4 0 79-40 100.7-102.1-12.3 22.4-38.4 49.9-86.9 69.3z" fill="#a0aec0"/><path d="m124.1 198.4c48.5-19.4 74.6-46.9 86.8-69.3 2.2-6.3 4.1-12.9 5.8-19.6-10 23.2-31.7 45.1-62 62.5-51.1 29.3-90.9 36.9-115.1 15.6 3.4 4 7 7.8 10.8 11.5l.2.1c12.3 9.8 34.6 14.8 73.5-.8zm11.5-63.7c48.7-23.1 85.4-58.5 87.2-86.6-.9-8.7-3.3-16.1-6.8-22.2 6.7 24.9-31.8 62.4-87.2 88.8-57.9 27.6-107.4 36.6-123.59999 15.4 2.1 6.1 4.79999 12.4 7.99999 18.7 19.7 21.3 63.7 13.8 122.4-14.1z" fill="#fff"/><path d="m273.7 86.2c-3 0-6.1-2.2-9.1-6.7-2-3.1-3-5.5-3-7.1 0-2.8 1.8-5.3 5.5-7.7 3.6-2.3 7.7-3.6 12-3.5h71.4c4.5 0 6.8 2.1 6.8 6.2 0 4.6-1.3 9.1-3.8 13-2.6 3.9-5.3 5.9-8.4 5.9h-23.2v78c0 4.7-1.3 9-3.8 12.9-2.6 3.9-5.4 5.9-8.4 5.9s-6.1-2.2-9.1-6.7c-2-3.1-3-5.5-3-7.1v-83h-23.9zm110.8 25.9c-5.6 0-10.4 1.6-14.3 4.7-4 3.2-6.4 7.4-7.3 12.7h41.2c-.2-4.8-2.3-9.3-5.9-12.4-3.8-3.4-8.3-5-13.7-5zm-21.6 34.8c1.3 5.4 4.1 9.7 8.4 13s9.5 4.9 15.5 4.9c5.1 0 11.2-1.7 18.3-5.2 3.3-1.6 6.3-2.4 9.1-2.4 3.7 0 5.6 1.7 5.6 5 0 3-.7 5.9-2 8.6-1.3 2.8-3 4.8-5.1 6-4.1 2.5-8.5 4.4-13.2 5.6-4.7 1.3-9.5 2-14.4 2-8.4 0-16-2.2-22.9-6.6-6.7-4.2-12.3-10-16.2-16.9-3.8-6.7-5.8-14.3-5.8-22.1 0-8.7 2.1-16.7 6.3-23.7 4.2-7.1 9.7-12.5 16.4-16.4s14.4-5.8 22.2-5.8 14.8 1.8 21 5.4 11 8.4 14.4 14.4 5.1 12.8 5.1 19.7c0 3.5-1 7-2.9 9.9s-4 4.4-6.4 4.4zm95 36.1c-5.2 0-9.8-2-13.6-6.1-3.8-3.8-5.8-9-5.8-14.4v-91.6c0-2.5 1.8-4.9 5.3-7.2 3.4-2.2 7.4-3.4 11.4-3.4 4.3 0 6.5 2 6.5 5.9v89c0 1.5.3 2.7 1 3.7.6 1 1.8 1.8 3.4 2.5 1.9.8 2.8 2.4 2.8 4.8 0 4.3-1.2 8.1-3.5 11.6-2.4 3.4-4.9 5.2-7.5 5.2zm35.2 0c-2.7 0-5.6-2.2-8.7-6.6-1.9-3-2.8-5.2-2.8-6.7v-64.4c0-2.5 1.8-4.9 5.3-7.2 3.4-2.2 7.4-3.4 11.4-3.4 4.3 0 6.5 1.9 6.5 5.9v64.3c0 3.1-.6 6.1-1.8 9s-2.7 5.1-4.5 6.7-3.6 2.4-5.4 2.4zm0-99.4c-3 0-6.2-2.4-9.4-7.1-2.2-3.3-3.3-5.9-3.3-7.8 0-2.9 2-5.6 5.9-8.1 3.8-2.5 8.2-3.8 12.7-3.8 4.9 0 7.3 2.2 7.3 6.6 0 3.4-.7 6.8-2 9.9-1.3 3.2-3 5.7-5.1 7.5-1.9 1.9-4 2.8-6.1 2.8zm69.5 78c5.2 0 10.3-1.5 14.7-4.3v-39.2c-4.3-2.4-9.1-3.6-14.5-3.6-6.6 0-12.2 2.2-16.7 6.7-4.5 4.4-6.7 10-6.7 16.6 0 6.7 2.2 12.3 6.7 16.9s10 6.9 16.5 6.9zm-1.6 21.4c-8.4 0-16-2.1-22.8-6.2-6.6-4-12.1-9.6-15.9-16.3s-5.7-14.3-5.7-22c0-8.5 2.2-16.3 6.5-23.3s9.9-12.5 16.8-16.3c6.8-3.8 14.4-5.8 22.2-5.8 6.8 0 13.3 1.8 19.7 5.5 4.1-2.7 8.1-4 12.2-4 4.3 0 6.5 2 6.5 5.9v64.4c0 3.1-.6 6.1-1.8 9s-2.7 5.1-4.5 6.7-3.6 2.4-5.3 2.4c-2.7 0-5.6-2.2-8.7-6.6-1-1.5-1.8-3.1-2.4-4.8-.9 2.4-2.1 4.6-3.8 6.6-1.6 1.8-3.2 3-5 3.6-2.5.8-5.2 1.2-8 1.2zm-406.3-11c30.3-17.4 52-39.2 62-62.5 4.3-17.6 6.5-35.6 6.5-53.8 0-2.7-.1-5.2-.4-7.6-1.8 28.1-38.6 63.5-87.2 86.6-58.7 27.9-102.7 35.4-122.4 14.1 6.8 13.3 16 26.8 26.3 38.8 24.3 21.2 64.1 13.6 115.2-15.6z" fill="#a0aec0"/></svg>