<svg fill="none" height="38" viewBox="0 0 130 38" width="130" xmlns="http://www.w3.org/2000/svg"><path d="m92.7607 10.8351c0-4.1893-3.4082-7.8351-7.5975-7.8351h-33.5288c-1.2288.00449-2.4393.29948-3.5324.86089-1.0932.56142-2.0381 1.37336-2.7577 2.36955-.7195.99619-1.1934 2.1484-1.3828 3.36261-.1894 1.21425-.089 2.45595.2929 3.62405-1.4751.3041-2.832 1.0254-3.9092 2.078-1.5125 1.4941-2.3452 3.5832-2.3452 5.8823s.8603 4.4214 2.4207 5.9173c1.0427.9966 2.8794 2.1849 5.711 2.1849h5.394c1.4223.0006 2.8178-.3866 4.0364-1.1201.2016 1.8889 1.0985 3.6353 2.5164 4.8996 1.4178 1.2642 3.2551 1.956 5.1547 1.9407 2.8661.012 5.635-1.0381 7.7724-2.9476 1.1969-1.0739 2.2105-2.3358 3.001-3.7361 1.0047.4764 2.1028.7231 3.2147.7222h8.1796c1.9981-.0039 3.9133-.7994 5.3262-2.2123s2.2084-3.3281 2.2123-5.3262zm-46.629 12.3651c-1.2454 0-1.9565-.6227-1.9565-1.927 0-1.3338.7111-1.9859 1.9565-1.9859 1.2453 0 1.9288.654 1.9288 1.9877 0 1.3044-.6835 1.9252-1.9288 1.9252zm13.7523 0c-.2459.0003-.4886-.0556-.7096-.1636-.221-.1079-.4143-.2649-.5652-.4591-.9212-1.2748-2.9052-4.0898-2.9052-4.0898s-1.986 2.8168-2.9053 4.0898c-.151.1941-.3443.351-.5653.459-.2209.1079-.4636.1639-.7095.1637-.2987-.0014-.5911-.0859-.8444-.2441-.2534-.1582-.4577-.3838-.59-.6515-.1324-.2678-.1876-.5671-.1594-.8645.0282-.2973.1387-.5809.319-.819l3.5868-4.5043-3.4671-4.2667c-.2168-.2795-.3318-.6245-.3261-.9782-.0009-.2105.0398-.4191.1199-.6138s.198-.37153.3469-.52039c.1488-.14885.3257-.26673.5204-.34684.1946-.08011.4032-.12085.6137-.11988.2459-.00005.4885.05601.7095.16392.2209.10791.4143.26481.5654.45876l2.7855 3.82263 2.7854-3.82263c.1511-.19395.3445-.35085.5654-.45876.221-.10791.4636-.16397.7095-.16392.2105-.00097.4191.03977.6137.11988.1947.08011.3716.19799.5204.34684.1489.14886.2668.32569.3469.52039s.1208.4033.1199.6138c.0057.3537-.1093.6987-.3261.9782l-3.4671 4.2667 3.585 4.5061c.1797.238.2896.5213.3176.8182s-.0271.5957-.1592.8631c-.132.2674-.3359.4927-.5886.651-.2528.1582-.5446.243-.8428.245zm14.9959-11.7075-5.5139 12.4481c-1.3043 2.9052-3.1705 4.974-6.1346 4.974-.1991.007-.3975-.0261-.5834-.0974-.186-.0713-.3556-.1794-.4989-.3177s-.2572-.3041-.3351-.4874c-.0778-.1833-.1179-.3804-.1179-.5796 0-.1991.0401-.3962.1179-.5795.0779-.1833.1918-.3491.3351-.4874s.3129-.2464.4989-.3177c.1859-.0713.3843-.1045.5834-.0974 1.8956 0 2.7854-1.5125 3.7637-3.9424l-4.5651-10.5156c-.079-.198-.119-.4094-.1179-.6226-.001-.2105.0397-.4192.1198-.6138.0802-.1947.198-.37158.3469-.52043.1488-.14885.3257-.26674.5204-.34684.1947-.08011.4033-.12085.6138-.11988.3192-.00297.6317.09205.8952.27224.2636.1802.4655.4369.5786.73551l3.2607 8.2403 3.2608-8.2403c.1133-.29846.3153-.55501.5788-.73517s.5758-.27529.895-.27258c.2105-.00097.4191.03977.6138.11988.1947.0801.3715.19799.5204.34684.1488.14885.2667.32573.3468.52043.0802.1946.1209.4033.1199.6138.0058.2122-.0292.4236-.1031.6226zm10.521 11.4698h-8.1796c-.3603-.0038-.7049-.1487-.9597-.4035s-.3997-.5993-.4035-.9597c-.0029-.3264.113-.6426.3261-.8898l3.5315-4.7309 2.242-2.9955.5969-.7995h-5.0072c-.1751 0-.3486-.0345-.5104-.1015-.1618-.0671-.3089-.1653-.4327-.2892-.1239-.1238-.2221-.2709-.2891-.4327-.0671-.1618-.1016-.3352-.1016-.5104s.0345-.3486.1016-.5104c.067-.1618.1652-.3089.2891-.43273.1238-.12386.2709-.2221.4327-.28913s.3353-.10153.5104-.10153h7.6158c.2715-.00009.5373.07699.7666.22224.2292.14525.4125.35265.5284.59815.1158.2454.1595.5187.126.788-.0336.2694-.143.5236-.3156.7331l-6.2618 8.3785h5.3941c.3618 0 .7088.1437.9646.3996.2559.2558.3996.6028.3996.9646s-.1437.7088-.3996.9646c-.2558.2559-.6028.3996-.9646.3996z" fill="#b6bdd4"/></svg>